<svg xmlns="http://www.w3.org/2000/svg" width="893" height="1144" viewBox="0 0 893 1144"><path fill="#051d2a" stroke="#051d2a" d="m271 1-1 2q-11 2-16 11l-4 13 8 10-7-6-2-10 9-13zm6 0 12 6 2 1 5 6 1 2 3 3-2-1-8-7-3-4-4-1V4l-3-1zm155 13 25 1h-25zm-18 1 10 1-39 4v-1zm62 1 30 5h-3zM355 26l2 1-30 10v-1zm182 5 19 13-4-4zM272 44l8 5 5 8-3 4-20 12 2-3 20-13-5-7zm286 0 15 21-2-1-3-8-2-1zM256 76l-4 5-31 27 13-14zm321 27v4l-4 11-1-2zm-361 10-8 9-21 26 2-3zm-30 36-2 3-6 9v-1zm-9 13-1 2-14 27-1-1zm388 3 12 11 4 5-7-6-1-2zm53 11v2l-9 11-2 1 1-2 6-5zm23 48v3l-4 8-1-1zm-7 15-12 13-6 4 2-3zm-412 64v4l-2 9-1-4zm330 18 8 1 2 5 4 9q0 10-6 14l-6 1-7-5-1-4-1-3 1-2-1-4 5-11zm3 2-2 1-3 5 2 14 4 2 5-1 2-9-2-8zm-137 13q11-1 13 7l2 12-2-1-5-11-8-3-7 5 5-8zm-5 17 5 8 6 2 6-4 2-3-4 8-8 1-7-4-2-6zm-209 20v2l-18 21 8-9zm622 35-2 3-10 6-3 4-3 4-4 3-2 3-3 2 7-10zm15 2q5 3 3 14l-2 4q-3 1-2-6l-2-7zm-685 3-3 4-11 10-5 7v-1l8-12zm294 11 5 4 1 1 3 1 1 1v1l2-1 4 4-3 1-13-9zm165 7 15 19 13 13-10-10-3-2zm176 22 1 21h-1zm-661 4 2 11v2l3 10h-1zm716 15-1 2-6 8 3-4zm-9 11v2l-9 6 1-2zm-699 2 9 10 1 2 6 5-2-2-13-11zm650 8v2l-1 2 3 1 1 2-4 2-1-2-3 4v-1zm10 0-1 2-7 17-1-1 3-10 2-2zm-148 7v2l-14 18h-2l8-7zm77 31-1 2-24 10 1-2zm123 7 10 9-4-4zm-595 9-1 2-18 11 2-3zm608 1 6 6 4 5zm-704 5q5 16 17 25l-11-10zm445 2 2 1-10 12-5 3 1-2 10-8zm-66 5 3 13h-1zm127 9 1 1-4 5 1 1-3-1-1 2 3-4zm-429 1 8 17-2-1zm422 8-4 5-9 14v-1zm229 6 3 15h-1zm-341 4 11 40-2-1zm-349 3v2l-20 22 2-3zm52 5 9 15-3-2-2-4zm351 3-1 2-3 6 15 13-2-2-14-11zm-268 2 7 3v1l-2-3q-17 3-25 14l2-3zm559 0v26l-2 9-1-4 1-3-1-6h2zm-306 1-3 4-6 8h-2zm-275 14-2 3-3 2-23 15v-1zm-137 4-1 2-13 20 1 1-2 2-13 25-1-1zm94 4 1 2 8 10-4-3zm3 21 9 4 7-4v1l-11 4zm543 0 5 2 2-1v1l-13 9-1-3 5-2-2-1 2-4zm-565 12-17 18-6 8-2 2-3 4-2-1-1 2 1 1-5 7 1-2 2-5-1-2 4-5zm623 20-1 2-26 31 8-9 2-3 4-6 6-6zm-654 1 1 2-7 9v-1zm-81 11v2l-4 7-3 2-3 1-6 8-4 3 13-14 4-3zM25 700l36 6v2l-3-1-2 1h-2l-9 4-14-3 2-2 1-3h-2l2-1zm249 2v5l1 3-1 4q-4-1-2 5l-4 16-1-3zM1 709l2 3v1l3 5 19 12h-1L4 718zm201 3 2 1-2 5 2 4-2-1-1-3v-1zm451 3 10 1 5-1 8 3-1-1-20 1-12-1zm168 11-2 3-7 4 1-2zm-614 1 4 22h-1zm476 8q10 3 11 17h-2l1 3-1 2h-2l-4 12-1-1 7-22zm-100 6 7 36h-1l-3-16-2-2-1-4 1-3zm-364 10 18 7h-2zm506 5 1 32h-1l-1-26v-2zm27 9v13l-1 11-2-10zm-40 6 2 1-5 12-1-1zm-597 12 5 2 2 2 13 8 11 1 2 3-2-2q-23-1-31-14Zm74 2 15 4-6 4 2 1h-4l4 1v1l-16-4-11 9 1-2 4-2 2-3 11-4-1-2-3-1zm491 0v3l-3 21-1-11zm22 11-1 2-10 15 1-2zm-462 9 11 4v2l-2-4zm358 5 2 13h-1zm-348 2v4l-7 30-1-2zm481 7q2 5 10 5h-6zm-130 6 3 18h-1zm-359 23q-2 10 3 13l-4-3zm363 5v3l-7 5 1-2 5-3zm-342 15 19 7h-1zm302 12 10 20h-1zm-137 28-1 2-10 18v-1zm-136 3v2q-10 23-28 38l-3 2 15-16zm290 2 23 49h-1zm-166 16-1 2-6 10v-1zm-160 28-13 14zm142 0-2 3-22 28-13 12 13-14zm10 2 2 1q-17 26-40 47l3-4 9-12 10-9zm-168 13-12 13-18 15 3-4zm236 9 14 20-3-2zm141 6 16 41h-1zm-258 13-8 9zm7 9-10 11-6 5 5-6zm-163 4-1 2-17 13h2l9-3-2 4-6 2-1 2-5 3-1 12-2-15-3 1-3 14-1-8 9-11zm115 21-4 5-14 9 1-2zm7 9-2 3-19 13 2-3zm305 7v3l-4 6-4 3 6-7zm19 5q38-5 54 12l4 6-10-10-13-5-4 1v-2l-7 1-5-2v2l-25-1zm-124 3 11 20h-1z"/><path fill="#051d2a" stroke="#051d2a" d="m656 1061 16 1v2h-25zm-360 2-1 2-30 15v-1zm306 11-1 2-26 11v-1zm107 3v6l-11 15-10 6 1-2 13-9zm-446 4 3 9 11 7-1-1-13-7zm-70 10 21 34-4-3zm86 6q13 7 11 30l-7 11-5 1v-1l8-4 3-15q-2-16-10-22Zm407 7-1 2-9 5 1-2zm-23 12 1 1-34 15v-1zm-429 20 17 3h-7zm20 3 16 1h-16z"/><path fill="#141b1d" stroke="#141b1d" d="m454 131 4 1-15 2v-1zm-102 30 1 1-13 6v-1zm-23 12-1 2-8 4 1-2zm-62 40-5 6-15 12 1-2zm2 12-5 6-9 7v-1l3-2zm106 0 3 2 3 2 2 2 3 4zm40 26 42 16h-2q-25-5-40-16Zm-47 10v4q-14 66-58 101l-13 9-1-2 3 1 14-13 2-2 12-13 3-2q21-24 31-57l1-3zm214 7 2 1-13 2v-1zm-36 10q19-1 27 10l-1 7q-10 1-13-4h2l9 3 2-1-3-8-18-4-4 3 3 3h3l5 3h-1l-7-2-10 2-4-5 4-5zm-132 12q11-2 14 4l-1 5-14 2-23 14-3-1-1-6 8-9zm177 5 6 20v2l3 18h-1zm-40 23q10-2 13 5 6 6 4 21l-4 7-11 3-8-5-3-18 7-12zm5 2-9 3-2 10 1 7-1 3 2 4 7 4 9-3 3-7-1-2 1-2-3-10v-2zm-138 12q9-1 12 4 7 6 5 21l-4 8q-3 4-12 3l-7-4-4-18 8-13zm0 4-2 1-6 7 1 13 1 2 1 2q3 5 13 4h2l2-3 1-3 2-4-2-12q-2-8-13-7Zm79 3 4 1q0 9 7 13l15 10 2 14-7 11q-7 6-20 4l-2-6 3-4q10 1 14-4l2-7-2-5-18-10-3-10zm20 24-2 2 2 7-1 2 1 5 3 1 2-4-2-10zm-253-1 10 1q-19-1-26 10l-3 5v-1l8-10zm343 5v26h-1zm-363 12v2l-3 15-1-7zm3 34 10 14-7-6zm592 2 1 14-1 2 1 11h-1zm-394 1 9 5 2 2q13 14 42 14 20-2 30-14l5-7 7 3q-1 13-11 17-13 11-36 11-33-3-50-21l-1-7zm3 1-4 1-1 3 1 2 2 3 2-1 9 7 1 2 2-1 6 3-2-4h-1l-7-4-6-10zm84 6-1 2-6 4-3 1-2 6 5-1h2l7-11zm69-5v3l-6 14-1-1zm-303 5 4 1 1 7-3 5q13 24 34 41l-20-19q-12-8-15-24l2-4v-2h1l-1-3-7 1-1 2q-7 7-20 6l-15-6 3 1q6 5 21 3zm296 13v2l-10 17-2 2-18 20-4 3 17-18zm22 14 12 13zm-275 31 8 7-1-1zm205 8v2l-29 14v-1zm-180 8 27 12h-2zm142 10 2 1-31 8h-2l-18 2h-2l-19-1h-2l-6 1-12-3h-2l-22-5 3-1q29 10 71 7zm5 14v3l-3 5-3 2-9 8 2-3 8-7zm-52 12 4 1-10 4 2-3zm14 2 5 4q4 4 3 16l-6 8 2-3 3-13zm355 4q21 8 34 25l-9-9zm-108 4 2 1q-34 13-56 38l-13 18v-1l13-20 8-6q19-19 46-30Zm5 3v74h-1zm-276 9 6 8 13 3h-9l-7-3-2-3zm353 0v2l-17 43-1-1zm-11 1v3l-12 30-1-1zm-356 20-1 2-9 12v-1l3-7 5-3zm325 3v2l-10 29-1-2zm-532 3 6 13 2 2 1 2 5 4 2 6 2 4 12 20-2-1q-18-23-28-50Zm454 4-1 2-9 7-4 9-1-2 11-14zm96 4v2l-7 16-1-1zm-320 1v4l-6 17-1-1zm419 0q4 12 3 30l-2 11-1-4 2-20zm-668 2-10 11zm458 12q-2 13 5 17 5 6 17 5l9-6 6-8 5-2 3-2 2-4v2l-4 5-8 3-8 12-12 1-14-7zm-80 11-1 2-3 2-5 4zm2 0 4 3 2 2 16 14-2-2zm133 5 2 1-6 3 1 4 7 1h-7l-2-5zm-75 3q0 12 5 17l21 8h-4l-19-8q-6-5-3-17Zm-70 1-11 12zm-401 4 2 1-7 10v-1zm80 6 1 1-16 13 5-6zm512 2 1 12-8 11q-8 5-22 3l-16-8-1-3 8-4q6 7 22 5l6-4-3-9 3 2 1 7-3 4-13 2-16-6-3 1-1 3 3 4q8 6 24 5 10-1 14-7l2-3 2-8-1-3zm46 3-3 4-12 8-1 4-1-2 3-6zm-646 1 2 1-9 15-1-1zm455 0 39 16h-2l-30-11zm-388 12-12 13zm459 1 6 6 3 15-18 31-2 11 1 5h-1l-1-9 9-22 2-1 1-3 2-2 4-6 1-3 1-6-6-14zm153 11 1 1-10 5v-1zm-625 2-6 7-17 23 1-2z"/><path fill="#141b1d" stroke="#141b1d" d="M696 667v8l-7 11 1 1h-2l-11 19-21 2-3-1h-2l-15-1 8-1 29 1 4-1 17-28zm166 6-2 3-23 27-5 4 4-5 10-9zm-293 3 3 5 35 17h-2q-22-6-37-19zm184 6q10 1 14 9l2 16-7 11-10 5v-1l12-8q5-6 4-18l-2-6-2-1zm-16 1 2 1-17 10-6 11-1-2 11-14zm-591 10-1 2-9 12-9 8-6 9v-1l9-14 6-4 4-6 4-4zm52 8v2l-8 13v2q9 8 11 24h-1l-11-26zm-177 7 17 3h2l26 7h-3l-48-8zm-6 4 26 15h-1q-17-5-25-15Zm65 9 25 8-1-1zm731 0-1 2q-17 12-39 17v-1q23-5 40-18Zm-121 8 19 13h-2q-12-4-17-13Zm-584 1v4l-3 11-1-3zm-50 3 41 18h-2l-30-12zm129 9 12 2h-2l-10-1-9 7-3 5v-1l8-10zm516 9v2l-6 19-1-2zm-509 1 28 10h-1zm-9 3v2l-4 9-1-2zm528 0v3l-16 32v-1zm24 2v29h-1zm9 0 1 4-3 28-1-6zm-573 2v2l-3 14 4 11-3-2-2-13zm-53 14 9 4 5 6q5 5 18 3l8 7h-1q-4-6-14-5h-2l-2-1h-2l-9-5-2-4zm63 6 32 11h-4l-5-2h-2q-15-2-21-9Zm150 8 10 9 2 3-8-8zm-47 12q2 16 12 24l-5-4q-9-6-7-20Zm42 86 22 4h-5zm190 1 4 1-28 4v-1zm-78 37 29 30zm48 52 6 9-3-2zm-245 11 1 1-14 12 5-6zm-43 41 2 1h-3l-1 2-13 11 1 6h-2v-2q-1-9 4-11zm17 6 10 15-4-3zm13 18 20 19 2 4zm17 0 8 9zm289 0 9 16-2-1zm116 13 10 1 10-1 10 3h-6l-26-1-13 2 1-2zm-451 15 11 20-2-1-6-12-2-3zm498 0v5l-3 4-3 2-9 5 1-2 13-9zm-56 35 1 1-29 11v-1z"/><path fill="#032235" stroke="#032235" d="m276 1 6 4h1l3 1 4 3 1 4-1-1-5-2V8h-2l-7-3 2-1-2-1-4 1zm279 322 6 4 2 8-2 9-5 1-4-2-2-14 3-5zm-137 17 11 7 2 9-4 6-3 1-10-5-2-12zm190 23 4 1h1v2l1 2 1-4 1 4-2 3 1 2-1 5 1 5-1 8 1 2h-1l-1-4-2 4 1 1-3-5 1-3-1-2 1-5zm204 58 3 2-4 4 1 2-1-1-2-1-4 3v-1l4-5 3-1zm-678 44 1 3h1l1 3-1 2-1-3-1 4 1 2-2-1-2-6zm656 35 2 2v2l1 2h-2l-1 1-3-1-3 2h-1l5-7 2 1zm-439 31 6 3 4 1-1 2h4l2-1v2l4-2 2 7 2 2-1-1zm164 4 3 1-24 16v6l-2-3-2 1 1-2v-3l-4 2-1-1 1-2-2-2v-2l-1-4 2-1 2 4h1l3 1 2-1v-2l5 1h1v3l-4-1-1 3-2 3 22-15zm344 15 2 2 2-1 5 5 1 2-1-1-2 1-1-2-3 2-2-3-3-1-1-2zm-447 2 1 3 1 2 2 1h-4l-16-4 4-1 3 1 7 2zm114 3 6 13 2 1-3 1 19 74h-1zm-31 4 13 11 1 3h-1l-2-3zm-64 9-7 8-2 4 4 3-4 3 1-2-3-1-2 3h-2zm238 2-1 3 2 1-3 2h-2v1l-2-2zm-158 3 5 8h-2q-5 1-3-3l-1-3zm147 7 4 1-2 5-3 5-5-3 4-3zm-135 11q7 12 8 31h-1zm-54 7q6-2 5 3l2 3-3 2 3 1-3 2 3 6-2-1-4-12h3l-2-2-2 1zm78 1 2 4-1 2 2 5-3 2 2-3h-4l2-4-1-3 1 1zm-137 1-1 2-3 13v2l-1 3v5l-1-7zm-72 1v4l1 3-6 7-16 11h-2l-1 2-3 1v1l-3 1-1 1-5 3v1h-2l-6 26h-2l1-5h-2l1-2 2-4-1-2 2-1 1 1 1-4 1-3-1-4-4 2 1-8 2-4 7-3 6-2 8 1 19-13 1-3-5-3 2-1 3-2zm550 14 1 7-3 6 1 2-1-1-3 2v1l-1-1 2-6 2-4 1 2 1-3-1-3zm-411 1 10 11 4 1 3-2 3 2-1 4 2 1h-1l-3 1 2 1 2 3-7-4-1-2zm-18 7v2l-14 17 1-3-4-1-1-2 5-4 2-2v-2l2-3 2 4h1l-1 2 2-1zm-289 4v2l3 1 3-1-3 4-7 14-3 2-3-1v2l1 1 2-1-2 3-1 3-2-3-3 1 2-5 1-1v-2l2 1 2-5-1-2h2l2-6 1 1 2-3v-2zm234 1 1 20h-1zm128 0v21q-1 4-8 3l-12-5 2-1 5 3h2l7 2 3-4zm114 3 1 3 1 3 8 9 1 2 4 1 1 1h-7l-3-1-5-3 1-2-4-2zm172 11v3h2l-1-2h1l2 1 2-1-2 3h-2l-2 1 1 1-4-2zm-384 9-2 3-12 7 1-2zm-211 21 5 2h1l-1 2h-2l1 2-6 5v2l-2-1-6 12-1-3h-4l1-3 2-1 7-11h2v-2l1-2zm641 4 1 3 2 1-1 2-2 1 1 2-2 1v-2l-3 6-2-3-1 2 1 4-5 4v1l-1-1 1-2-1-3 4-2-1-3h2v-2l1-2 1 2v-2l2-3 1 1-1-2zm-306 1 4 13v1l1-1h1l-2 4 3-1-1 3-2 1 2 2 2-3 9-2 1-5v-2l4 2 8 6-1-1q-7-2-5 4h-1v-3l-4 1v-2l-6 4 2 3-3 1-3 1 1 1-4 2 1 2-2-3zm-270 8v5l-11 51-1-3v-5l-3-1-3 1h-2l2-1v-2h2v-3l-2 2h-1l3-7-1-2 1-3 3-7-1-4 2-2-1-2h1l2 2h1l-1-2h2l2 2 1 1zm-151 7v2l5 1-4 2-2 1 1 1-2 2-3 4-2-1-2 1-1 2 1 2-5 3v-1l2-6 1 1-1-2 3-1 6-7h2v-2zM26 702l4 2h2l2 2-8 1-6-1 5-2zm658 0v4l-2 3 1 2-1 5 1 3-1 2-1-2-2 2-1 4-1-3 1-2-2-2-5-3-2 1-30-3v-2l-2 1q-2-5 3-4l2 1 2 2 4-2 10 2 9-2h2l3 2 2-1v-2zM3 707l1 2 1-2 4 3 2-3 2 1h1l-2 5 1 2 3 2v1l6 4v1l3-1 1 3-9-1v-2l-1 2-2-4-4-2v2l-3-1 1-2-4-2 1-2-2-3zm52 0 6 2-8 3-5-1zm148 2-1 2-2 5-2 2 3 1v2l2 4-2 5 3 6-2-1-9-18 3-1-1-3 1-2 3 1zm-109 8 7 3h-4v1h-2q-7 2-6-2l3 1 2-1zm9 3 3 2v2l2 4h-1l-1-3-5-3zm9 8-1 2-1 2v2l1 3q-5 2-4-2l2-4v-2zm693 0v2l7-1v1l-5 2 1 1-4-2-1 2-3-1zm-8 4 2 1-5 4-2-1v2l-3 2-3-1 1-2 3 1 1-3zm-589 4 1 4-1 3h2-2l-3 2-3-1-2 1 3-2v-2l1-2 3 2zm485 8 1 4 1 1 2-1-1 3-1 2v2l-2-2 1-3zm-120 1 3 10 2-1v-3l-2 1 1-3h2l-2-1 4-2 1 3h1v2l-1 2 2 8 2 2v2l1 4 1 3 1 6-6 4-1 3 1 9h-1zm-301 16v3l-2 8 18 6q9-9 29-7 28 8 43 30l-3-3-8-5-1-2h-2l-6-2-1-4 1-2-5-1-2 1 1-4-3 2-4-6-16-3h-2l-23 8-17-8zm439 1 3 2-1 2-2 1 1 4-1 2-2-1-2 1 2-3h1l-2-1 1-3zm37 2 2 2-2 3v1q4-1 2 4l-1 3v2l1 3-2 4-2-1-1 2-1-2 3-13-1-6zm-622 18 3 2 2 2 7 5 2-1 2 1 2-1-2 4h4l-5 1v-2l-1 2-5-2-2 1-10-6-1-2v-1h1v-2zm57 3 3 1 5 2-3 2-9 1 1-2v-2h2zm15 6q10-2 9 2l-2 1v2l-5-3zm58 7 3 3-1-1-2 1 4 1 2-2 1 3 3-2 3 3 5-2v1l-3 1 1 3 3 3 1 2h4v2l3 1 2 5-1 1v2l10 10 1 1h-1l-13-11-5-10-6-2-2 1-5-1-8 31-1-4 1-3-3-1 2-3v-2l1 1-1-4h2l1-1 2-4v-2l1-8 2-1 2-3-3-2-2 1h-2l-2 1 1 1-1-2-1-4h2l-4-1zm131 13 2 7-6 7q-23 18-63 18l-17-4 3-1 14 3v-2l8 2 4-2 8 2q23-3 38-15v-2l2 1 6-4 2-7zm202 10 4 15v2l1 4v2l1 5q-4 1-2-4zm3 30 1 1-15 6v-1zm-327 6 30 10h-2zm286 9 2 1-11 4 1 1-4-1-8 3h-2l-30 6 5 1 1 2 1-2 2 2-1 2 3-1v-2l4 2-17 3-3-4 3-1-5-2v-1q33-3 59-13Zm-229 7 41 7h-7zm77 10 18 1h-18zm-108 44 2 2-1 3-2 2-2 3-4 5-4 2-1 3-2 2-4-1v-6l-4 3 6-4 1-1v-2h2v-2l1 1q-1-5 4-3l1 1 1-2v-2h2l-1-2h1l3 1zm137 3 11 11-10-10zm13 12 10 11zm-207 37h2l7 2h1l-2 3-8 5-1 2-3 1-3 5-3 2-3 1-1-5 4-5 3-5-2 4 2-1 3-2 2-5h2zm242 1 4 3v-2l2-1v3l5-2 5 9 2 1-1 2 3 2 1 1-7 2v-2l-2 1-1-2 1 1-2-5-1 2 1 1-4-4 2-1-4-2zm-95 1 4 2h1l1 1v-2l3 2-4 2v3l-1-2-1 3-2 2-3 4-2-1-1 2-1 3-2-1h-2l1-2-2-1-2 1q-3-5 5-9l2 1 1-2v-2l2 2-1-3 2-1-1 2 2-1zm238 18 2 3-1 2-2 2 2-1 2-1 1 3 2 4-2-1-2-1-2 2-2 3 1 2h-1l-1-2-1-2 1-2 1 1 1-4-3-2zm-422 19 1 3 2 1-4 1 2 1-15 7 4-5 9-4zm-18 15 3 25-4 2v2l-1-2 1-3v-2l-1 2-4-9 1-7v-2l2 6 1-8h-2l2-1 1 1-1-2v-1zm144 8 2 1 2-1-1 2-3 2-2-1-1 3-2-1-1 3h-2l-1 2h-2l-2 3 1-2-1-7 5-2 4 2 2-3zm317 7v6l1 2v1l2-1 25 2v-2l8 2 4-1v2l2 1 5-1 3 2h1l-7 3h-2l-26-3-21 2-2-1-1 3-4-5-2 1 3-4h1l-1-4 3 1 1-2v2l-1 3 5 3 1 2 2-6-3-4zm-108 5 1 3-1 2 3 1 5 9-6 5-5-7 1-2-3-1-1-2 3 1-1-4-2 1 1-2 1-3 1 2v-2zm-337 32 2 2 7 12-1 2 3 1 4 9v1l2 2 3 4v1l2 1h-2l-6-1 1-3h-2l1-2h-3l2-1-1-3h-2v-2l-1-2v2l-1-5-2 1v-3h-3l2-3-3 1-1-2 1-4-2 1 1-3-2 1-1-2 1 1-1-2 1-3 1 1zm508 1 2 1-1 1-2 4-3 4-3 2v-1l-1-2h2l1-2 1 2 2-4v-2l2 1-1-1zm-142 11 2 1h1l2 4-1 1-1-3-5 1 1-2 1 1zm-275 14 2 2-1 4 2 2q2 9-2 8l1-8-2-2-2 3-1-6 3 1zm365 6 3 1 4-1-2 2-22 10-3 1-1 1-2 1v-1l1-2 4-2 2-4h2l3 1v-2l3-1 1 1-1-2v-1l2 2h1l3-2zm-367 8v4l4 1-3 1 2 1h-3l1 2-2 1-2-5h2z"/><path fill="#13232c" stroke="#13232c" d="M271 11q9-1 13 4h-2zm142 4 7 2-15 2 1-2 3 1 4-1zm119 13v2l4 1 1 2h1l2 1 5 4-1-1-13-7zm-190 2 3 1 2-1-1 2-7 3-3 1h-3l9-4zm215 14 7 8zm-94 88 3 1-38 6v-1l31-5h2zm0 5 6 2-8 1h-4zm-108 24v2l-12 6 1-2zm140 2 8 1 5-1-1 2-31 2 1-2zm-132 3-1 2-10 4h-2l-2 1-6 3v-1l12-6 3-1zm-23 3 1 1-12 7h-2l-1 1-10 5v-1zm-172 12-1 2-7 14-1-1 1-3h2v-2zm238 9-1 2-33 13-1-2 23-8 3-2zm-27 1 2 1-19 8v-1l4-1 2-2zm208 7 11 3 2-1v2h-2q-11 1-11-4Zm-318 16-6 7-5 4-3 4-9 5v-1l13-10 2-3 4-3zm-1 7 2 1-4 3-1 1-3 1-5 6-3 1-3 5h-2l2-1 9-10zm46 12 1 1-12 7h-2l-1 1-5 3v1l-3 1-2 1-5 4v1l-3 1h-2l24-16 1 1 3-3 3-1zm306 7-2 3-10 6 1-2zm-186 8 39 12h-4l-9-3h-2l-23-7zm-79 28-1 2 1 2-1 2 1 3 5-3 2-2-4 11v2l-11 24-1-2 4-14-4 3-5 8-1-1 7-16h2l-1-3h2l1-3-1-2 2-1-1-2zm196 5 17 4 1 3-1 2h-2l-19-5 2-3zm-316 12 2 1-5 12-2-1 3-4-1-3 2-1zm361 7q7 9 5 28v2l1 4h-1l-5-18v-2l-2-6v-2l-1-5zm-274 38-3 4-5 7-2 2-5 7-7 3 4-5 5-3 1-3 1-1zm8 3-2 3-13 15-5 2-1 3h-2l6-7 2-1 11-12 1 1zm276 21 2 1v2l1 28-2 3-1-2q5-7 2-22zm-89 1 3 3 2 10-4 1-2-3 1-2-2-7zm99 7 1 6-1 8-2-8zm-382 10v6l-2 12-1-2 1-3-2-1zm-25 3 1 1-3 4-2 3-2 1 3-5zm625 21v2l7 2-2 6-3-1-9 5 1 1-3 2-5 3v1l-3 1 1 1-3 1 1 1h-2l-3 5h-2l4-6v-2l2-3-1-3-5 4 1-4 2 1 4-4 1-3 3 1 3-4h1v-2l3-1 2-1 2 1v-2l2 1zm9 8 3 3 1 1h-2l1 4 1-3v13l-3 1-3 19-1-7v-2l-1-11 3-2 2-11zm-397 6 2 1 3 2 1 3-3 2h-3l-2-6zm-281 1 1 1-6 3 1 1-10 7 1 1-2 2-5 4 8-12 2-1zm132 7 3 1-1 10 5 11 3 2 3 5-5-4-2-5-2-1-4-14-10 4 2 1 5 5 2 6 2 2 10 16-5-4-4-8-3-1-5-8 1-2-6-1-8 2h-2l-4 1h-3l-1-2-2 1 2-2 5-1-2-4-2-2 5 1h2l2-1h2l2 1v-2l5-1h4l2-3zm230 1 5 4-4 2-2 3-2-1-4 1 2-6 3-1zm217 9 5 4h-1q-4-5-8 2l-2 2-1 3-1-2 6-8zm-126 2 4 5h1l4 5 2 1q-5 2-10-7zm-8 3v2l2 2 2 3 4 2 5 5 6 6 1 3 2 2 3 3-7-5-12-15-5-3zm-17 1v2l-7 13-3-1 4-3 1-3zm167 3-1 2 2 5v2l3 17h-1l-3-7-3-1-1 2-1-1v-2l-1-8 1-3h2l-1-5zm-127 8 12 12h-1zm-493 2 4 20-2-1-2-4-1-3zm176 18 16 15-1-1zm265 0v2l-12 11v-1l5-5 4-3zm222 3q4 8 18 7l5-3-2 3-11 1h-2l-6-3-2-3zm-160 7v10l-1 3-3 7-1-1q5-7 5-19Zm146 7 5 7 2-1v1l-2 4h-1v-2h-3l-1-3-2 3-1-1 3-6zm-242 1-1 2-17 9 2-3 6-3 1 1 2-3 2-1 3-1zm6 6 1 1-15 9 1-2 5-2v-2l2 1v-2zm-188 2 9 5h2l1 2q-9-1-12-7Zm143 9 1 1q-8 7-23 7l1-2 15-4zm-183 2-1 2-11 3-3 1h-5zm75 2 3 1h2l12 3h2l13 2 4-1 20 2-29 1h-2l-9-2-5 2 4 1 2-1 4 2 2-1 7 4h-8l-25-5 7-2 3 1-2-4-5-1zm104 5 3 1 2-1 3 1 3 2v6l-3 4h-2l-3 5q-4 9-16 8l-1-2-2-2h1l2 1 6 1 6-4 11-14q-2-6-11-4l-6 2v-1zm-223 7 1 1-5 3h-2l-1 1-11 5h-3l5-3 1 1 1-2 3-1 2-1 1 1 2-2zm442 8 2 1-1 2-3 1-3 5 10 1 1 8-2-1q3-9-5-6l-12 6h-2l-1 2v-1l2-3 2-1 2-2h2l-1-4-3-1 4-2v-2h5v-2l3 2zm46 4v3l-5 12-2 1 2-5h1v-2l1-2zm-289 1 2 2 2 3 2 9v2l-3 7-1-3 1-12zm269 5 3 2 3 11-2 1-2-8zm92 0 14 6 4-2 4 3h1v2l-3-1h-1l-4 2 1 3 4 2 1 4-10-10-4-2-4-2-1-3-2 1zm-599 1v2l-10 6 2-3zm310 1 11 11-1-1-2-1-6-5-1-2zm-144 3 16 4h-3l-8-2h-2zm386 4 2 12 3-2 2-2-1 4-5 11-1 3-4 13-3-5-5 3 1 1-2-1q10-15 13-37Zm72 1 4 3 3 5v1l-3-4-2-1zm-695 4 3 5 1 2 6 6-1-1-9-6 1-2-2-1zm279 2q4 10 18 9 1 4-7 2l-2 1h-2l1 3h-2l-3-2-8-3 6-2zm31 3-3 4-8 3 4-2zm387 6 6 11-3-2zm-191 2 2 1-5 2-8 11-6 8-2 3-2 1v-1l8-16-2-1-1 3-4 2-2 4h-3l3-2 1-5h2l4-5h-2l4-1-1 2 1 2 6-2 2-2zm-180 1 9 5 2 6q4-1 2 5l-2-1-2-6h-3l-4-7zm233 6 1 2h3l-1 10-2-6-3 2 1 5-1 24 1 7-1 4 5 4-10 1-1-2 4-5 2-4-1-2 1-2-1-24 1-2-1-3q-2-8 2-8zm-298 2v2l-2 3-4 5-2 1-1-3 4-3 2-3zm-207 1 6 2 4 8 2 1h-1l-2-3-2-1-2-4-5-1zm529 3v2l4-1-1 6-2 7-2 1 1 2-2 2 1 1h-2l-1 7-1-3 1-6-2 1-3 6-2 2-1 3-1-2 4-6h1l-1-3 2-1h-2l2-4 2-1-1-2 1-3 1-3h2zm-280 6 6 19-2-2-2-1v-3l-2-2-1-3 1-2zm208 0-1 5 1 2-9 5-2 3 2-5 1-2 1-3 2-1 5-2zm196 1 2 2 7 19 2-1h1l-1 2 1 12h-1q3-10-3-8l-1 3 1 3-7 16-1-1q6-11 4-30l-1-3zm-638 6 7 4 1-4 1 2h1l-1 2 4 8 3-1-2 3-4 2 2 7h-1l-1-4-2-1-2-4-5-10-2-1zm475 5v4l-4 6-9 6-6 9-8 1-2-1-4 1-11-7 1-2-3-1 2-3 2 4 1-1 6 4 11 1 4-3 1-4 6-3 2-2 7-5 2 1 1-3zm-64 3 1 2-3 9-1-5 3-4zm-78 11 2 1-9 8zm75 2v14l4 11 4 2 13 6h4l5 2h3l-3 1-12-2v-2l-3 2-9-5-2-3-6-10v-2l1-2-1-4zm-395 3 5 10 2 3 1 3-1 2-1-3v-2zm196 4v3l-8 10-2-2 4-2 2-3 1-2zm-271 5v2l-2 1 1 1-3 1 1 1-2 1 1 1h-2l1 2-5 7-1-2 3-2v-2zm594 0v4l-3 9v2l1 4-7 11-15 4-17-4v-2l-4-1 1-4 24 4 8-4 3-2v-1l-2-3 1-3 2 4v1l2-1 2-11h2v-2zm47 7v2l-2 6-5 2-4 5 4 2-1-1-5 2-3-1 2 2 1 2 1 1-3-2-3 1 1-2-1-2 16-11v-2zm-181 10 8 2 1 2 3-1 12 7-2-2-3-1h-2q-13-1-17-7Zm-471 1v2l-6 11-2-2 2-2 2-6 3-1zm534 18 2 2q3 9-2 12v2l-3 7-2 2-1 2-1-2-2 3v2l-8 16 1 2-1 6 2 6-2-1-1-3v-2l-1-6 2-11-2 1-1 2h-2l-2 4-17 2q-1-4 8-2l10-3 1-4h3l-1-3 7-11 2-1q7-7 8-20l2 3 1-3zm-481 10 1 1-2 3-4 2-8 14-3 1 1-2 7-12 2-1zm642 0 1 3-2 3-5 4 1 1-2 1-1 3-4 5-5 2 3-4 5-6 1-2zm-294 4 4 5h1l3 1 20 10-1 2-4-1v-2l-2 1-19-11-1-2zm172 6 3 1-11 4v-1l1-2 1 1 1-2h2zm-520 2-2 3 1 2-1-1-3 3-2 1zm-76 7 1 1-2 1-1 3-2 3-6 5-1 1-4 5-4 4h-1l5-8 1-1 7-5zm622 0 2 7v2l-1 2 1 1zm92 0-1 4-3-1-2 5-4 3 8-10zm-231 11h2l3 2 4-1 5 2h2l9 1-3 2-4-1-2 1-15-4zm139 1v5l-2 1v2l-1 1-3 1-1 2 2-3zm-747 1 2 1 4-1 1 2 5-1 2 2v1l-9-3-11 3 2-3zm177 0v3l-1 4-2 1 1 2-1 3 8 13v1l1 2 1 4v2l-2-2-3-11-4-4-3-8 3-8h2zm647 3v2l-12 9v-1l11-8zm-829 2v2l21 11 1 2h1l1 1h1l-1 1-17-7v-2l-5-2-1-2zm34 0 4 2h3l10 3h-2l-2-1-2 1v-2l-2 1-3-1-8-1zm587 2 9 2 3-1 5 2h-8l-4-2-8 2-1-2zm-555 6 6 1 2 2 3-1q9-1 12 4l1 1h2l1 2 1 4-4 17-2-3 1-3 2-4v-2l2-5-3-5-19-6h-2zm732 2-1 2-3 4-2 1h-2l-1 1-5 3-12 6-3-1-4 2 3-2 11-4 2-2 3-2 1 1 2-2 9-4zm-124 6 7 9-1-1-2-1zm-630 9 21 9h2l7 4 1 1 1-2 6 4 2-1h2l1-1h1l-1 2-5 1-14-5v-2l-2 1-7-2-2 3-2 1 4 1 2 1v1l-1-2-2 1-14-6 7-1 2 1-1-4-2-1-2-1-4-2zm130 7 2 1 4-1 4 2-2 1-11-1-2 1zm513 5 7 1 3 2 3 8 5-1 1 2h-2l-5 10 1 1-2 2h-1l3-12-3 2-8 15h-2l10-19v-7l-8-2-4 1-3 13-2 1 1 2-2 3-1-4-3-1-2 1 4-10 1 1-1-2h2l2 1 2-6 3-1 1 1zm-510 2 4 2h-5l-6 2 2-3zm5 1 26 9 2 7-2-3-2-4h-2l-11-3v-2h-2l-9-2z"/><path fill="#13232c" stroke="#13232c" d="m77 752 9 4-2 1-2-2h-3l-2-2zm660 2 1 2-4 2-1 19 1 9h-2v-2l-2-7 1-3-1-3q-1-12 5-16zm7 2 7 4v-3l1 4v2l-1 14-2-7 1-3-1-3-3 2-1 4 1 2q-3 1-2-6l1-9zm-573 9v3l2 18-3-2-1-3 1-3-1-4v-2l1-2zm5 11 1 2 13 7-4 1-10-7zm-54 1 6 4 4 4 3 2h-3l-7-5-1-3zm196 4q16-1 22 9l3 6-1-1q-10-11-24-14Zm-114 7 11 3-7 1-4-1zm492 1 1 1-2 1v2l-2 3-3 2 1-4 2-1zm-412 8v2l-1 8 10 15-8-7-5-11zm85 23v2q-16 10-40 12l-12-1q33 1 52-13Zm154 63 3 1-18 4h-2l-4 1h-2l-6 1-1-2 3 1 3-1 12-3 3 1zm-189 1 2 1 2-1 4 2h3l1 1 3-1 4 1q1 4-4 2l-17-3zm223 4 4 9h-2l1-2h-2v-2zm-183 2 22 1 3-1 2 3-5-1-9 1-4-2-9 1zm69 13v2l-3 6-2 1 1 1-2 1v2l-2 5 2 3-2-1-1-5 4-9h2v-2zm124 6 9 17h-2zm-268 13 1 1h-2l-1 3 1 1-2 2-4 6-3 2-2 1 8-11h1v-2l1-1zm140 3 9 10-9-7zm-154 14 2 1-6 9-3 2-3 4-2 2h-1l4-5 9-11zm173 5 10 9 2 4zm135 17 9 23h-1zm-334 8v2l-9 8zm227 9 3 3 1 1h1l1 2 1 1 1 2 1 1 1 3 4 6h-2l-3-5v-2l-3-1-4-8h-2l1-2zm-239 2-4 5v1h-2l-2 2-3 1-3 4-7 6 1 1h-2l-1 1-4 5-3 2 5-8 3-1 2-2 15-13 2-3zm268 40 2 5 2 3 3 4-2-1zm11 18 6 11-2-1zm-344 3 3 18-3-1-2-9zm56 4 6 5 1 4 8 6 2 1 3 4-2-2-12-9zm294 5 2 1v2l15 25h-1l-5-9-4-3-2-6-2-1zm105 13 12 2-20 3 2-3zm36 0 10 2h2l5 4h-1l-19-4zm-123 16 6 11-2-1zm148 0 1 6-4 7-5 3-3 1-6 2v-1l13-8zm-501 3 2 2 22 37-6-2-17-29zm405 2-3 4-8 3 1-2 6-3 1 1 2-2zm-16 7 2 2-12 4 2-3zm-310 16 7 6-1 5 2 7-2 4-3-1 1-13zm362 10 2 1-8 4h-2l-1 1-12 4-1-2zm-60 1 2 2 6 13-1-1-3-1zm-340 9 2 1h2l3 1 2-1 6 3h-3q-12 1-12-4Z"/><path fill="#23232c" stroke="#23232c" d="m288 20 3 3v1l2 2 9 19h-1l-12-21v-3zm131 4q48-3 84 7h-3q-31-7-69-6l-58 8v-1zm-157 2v2l7 2 1 2 3 1 25 17h1l-5 1-8-6-1-2-24-15zm243 5 24 7v2zm-137 2 3 1-10 3-1-2zm162 6q18 6 29 21l5 9h-2l1-2-2-1-12-15-19-10zm-186 1 1 2-3 1-25 10-1-2zm-45 20v2q-41 21-71 53-30 30-52 70-15 19-14 55 3 13 13 21 10 9 32 7l11-7-6 7-17 2q-16-2-25-11l-2-3q-10-8-8-27l9-36 2-2q27-50 65-86 28-26 63-45Zm265 10 1 2 2 5 1 3v3l-2-2-1-3 1-2zm4 14 1 4v9l-2-10zm-1 20v3q-6 15-17 25l-32-3-28 1v-3q33-1 60 4 11-10 17-27Zm-101 25 4 1-4 2h-2l-10 1-3-1 2-1 5 1v-2l5 1zm-40 7 1 2-38 10 3-2zm78 0 3 1 4-1 3 1 4-1 6 1 3-1 8 3 4-1 10 5 1 5 2 4 1 3h-1v-3l-1 2-1-1 1-3h-2l-2-8-13-2-53-1-10 2v-1l4-2 3 1 3-1zm-39 3 3 2-5 1-5-1-2 2v-1h1l-2-1zm-20 3 2 1-1 2q-45 6-79 23l-1-2q35-16 79-24Zm-58 5 1 2-31 11 3-2zm113 13 42 1h2l2 1-44 2-7-1-17 2h-2l-5 1-3 1v-1l2-2 5 1v-2l8 1v-1h-2l4-1 6 1v-1h-2l5-1 8 1v-1zm-149 1 2 2-24 12-1-2 1 1 1-2 1 1 1-2h2l3-1v-2l1 1 1-2 2 1v-2l2 1v-2l2 1v-2l2 1v-2l2 1v-2l2 1zm102 6 2 2q-26 3-46 12h-2l-6 1-2 2-39 16h-2l-46 24-1-1 49-26 1 1 1-2 1 1 1-2 1 1 2-2h2l1-1h2l1-2 2 1 1-2 2 1v-2l2 1 1-2 1 1 1-2 2 1 1-2 2 1v-2l3 1v-2l2 1 1-2 9-3zm-95 2v3l-1-1-2 1 1 1-2-1v2l-3 1h-2v1h-2v1h-2v1h-2v1h-2v1h-2l-1 1-6 4h-2v1l-2-1v2h-2l-1 2h-2v1h-2v1h-2l-1 2-5 3-1-2-2 4-35 22-1 3-4 2-2 3-4 2-2 1-2 4h-2l-3 2-9 11-6 6-17 19 7 10 3-2 40-34 1 1 2-3h2l2-3 1 2 2-4 1 2 2-4 1 1 2-3h2l1-2 1 1 2-3 1 1 2-3-1 4-45 31-1 2-13 10-1 2-7 5-8-12 28-33q26-25 60-43l2-3 4-2zm-36 7v3l-16 9h-2l-1 2-7 4-1-1 5-4 1 1 2-2 3-1 1-2h3v-2l2 1v-2h3v-2l1 1 1-2 1 1 1-2h3zm111 6 3 1-13 3v-1zm-13 4 1 1-12 4v-1zm200 5-5 6-5 3 1-2 5-3 2-2zm-332 6v2l-19 13-1 3-34 28-3 4-9 10-2 1 12-13 9-8 2-4 5-2 4-6 4-2h1l2-4h2l3-2 1-3h2l3-4zm87 14 9 8h-1l-7-5-1-2z"/><path fill="#23232c" stroke="#23232c" d="M310 223v2l-8 5-1-1 3-1 2-2zm74 8 6 6v1l-2-3-2 1-2-4-2 1zm39 12 10 5h-2zm-144 14-1 2-10 8 5-6zm301 1 2 1-12 3-1-2zm-319 13-5 6-18 16 1-2 2-3zm230 1 16 2h-13zm45 1 6 1-30 1v-1zm51 5 1 6 2 7-2-1zm-18 7 4 9-1-1-7 2v-2l-5-3h-1v1l-2-2 3-1 5 3 2-1 1 1 1-3zm-340 34v6l-2 7-1-2zm38 32 7 1-2 1 2 1h-7l-5-1-15 7 2-3zm42 1-5 6-5 2zm15 0-8 9zm-41 1 4 2 8 6-1-1-7-4h-2l-4-1zm-5 10 19 10 2-1-2 2-4-1v-2h-3v-2l-3-1-7-4-2 1zm-23 2 1 2h-2l-2 1v2l-3 1v2h-3zm53 0v3l-8 5zm300 6v19h-1zm-402 19-12 13zm25 6 2 13h-1zm-39 7-3 4-7 4 1-2zm633 16 2 1-5 3-3 4-5 2 7-5zm-528 6 4 2 1 1-5-2-9 6v-1l6-3 2-2zm320 25 11 12zm-301 7 17 19 2 1 3 4-2-2-22-20zm438 5 2 1-1 2 1 6-4 11v-1zm-588 34 17 9-4 6v-1l2-3-1-4zm175 0 16 9v1zm-2 2v3l-2 5 6 7 3 2 3 3 2 1 2 2 3 1 11 6 1 2 2 1 2 1 2 1 2 1h2l1 2h3l30 10v1l5-1v1l-6 1-29-11-2 1-33-17-2-4-2-1-7-8v-5zm19 6 14 6 3 2 21 8h2l5 2-5 1v-2l-2 1-25-9-1-2-2 1 1-2-2 1v-2l-2 1v-2l-2 1-1-2-2 1v-2l-2 1zm242 14h2l7 1-10 1 1 7-2-1zm-97 1 5 1h1l-3 1-2-1v2l-4-1v2l-15 3 1-2zm-80 6 6 1 4-1 11 4-1-1-23-1zm85 3 1 2-3 1-5 7q-3-5 7-10Zm-62 3-1 2-6 17-1-1zm154 0v14l-2 5-1-1zm-126 3 1 2 2-1 5 8-2 1 1-2h-2l1-3-4-3h-3zm-20 3v2l-2 1-1 3-1 11v2l1 1h1l-1 2 6 4v1l2-1v2l1 1h-1l-4-2v-3l-2 1v-3l-4-1-1-12zm283 6 2 1-2 3-2 39v2l1 3-1 9-2-11 1-11-1-2zm-316 4 5 2 2-1v1l-2 1h6l5-1q1 4-10 2l-6-1v-2l-4 1v-1zm136 0 13 14zm226 0 10 5h-2zm-186 4-1 2-6 7 5-6zm-369 1-2 3-4 3-1 4-1-3zm253 3 1 5q-5 8-19 7v-1h7v-2l4 1v-2l1 1 4-5 1 1 1-2zm270 6v17h-1zm-265 6 9 4 8 7 7 10h-2l-2-3v-2h-3l1-2h-2v-3l-10-8-5-2-4 2-3 4-5 4 3 14 1 3-1 2h2l1 4-1 2h2l5 11 4 3h-2l-2-3h-2l1-2-3-1-1-2-8-22 1-2-1-8zm-40 1 2 2h3l5 2 2 2 3 3 1 8-1 2-1-6 1-2-15-10-2 3-3 2-6 4-3 4v2-2h-2l6-7 3-1 2-2zm280 7v23h-1zm-298 11 2 1-3 1-1 2 1 1-2 1-1 3-1 1-1 3q-9 16-7 44l1 6h-1l-2-6 1-2-2-1 1-13-1-10q4-19 16-31Zm267 4 2 1h2l7 2 3 7h-1l-4-7-11-1-11 5-2 4-4 12 4 4 10 2 3-2 3-2-1 2-2 3-11 1-7-5v-2l-1-4 9-16 3-1zm-184 2 2 2 9 25-1 2 1 16h-1l-2-20 1-3h-2l1-4h-2l1-2-7-13 1-2z"/><path fill="#23232c" stroke="#23232c" d="M710 601v2l-1 3-12 8h-3l5-4 2-3 1 1 1-2 1 1 2-2 3-2zm6 1 1 3h-2l1 3h-2l-1 1-3 2v-1l4-3zm-258 1v2l-3 6-1-2 1 1-1-2h2l-1-3h2zm-260 3v2l-13 15-1-1 8-11 2-1zm252 10 2 2-3 4-2 1 1 2-7 9-17 14-1-1 10-9 1 1 2-3 5-4 2-4 1 1 1-2 1-3h1l1-3h1l1-3zm41 2 1 2 9 6 18 12h-1l-17-11-2 1-7-5zm94 2-9 10-1-2 4-2 2-2zm244 4 12 1q-12-2-17 3l-1-2zm-103 4 6 1 4-1 3 1q5-2 4 2l-14-1zm-153 2 1 2-7 5-1 2-2-1h2zm155 18 5 3-1-1-6 3 1 1h-3l2-4h2zm19 40q10 0 14 8l1 6-8 12q-8 5-21 4l-10-5-1-8 8-11 8-4h2zm-2 2-17 8-5 10 1 4 9 5q13 1 21-5l6-8-1-8q-3-7-14-6Zm-30 15q3 0 1 8l4 6v2l-2-4h-2l1-2h-2l-1-3 1-5zm-534 40-4 5-2 3v-3l1 1zm553 14v18h-1zm-42 18 1 2-2 1 1 2-2 4-1 3-1-1 3-7v-2zm-399 8 1 1-7 6-1 3-1-1zm49 10 12 13 13 9-1-1-18-11-1-2-2-3-2-1zm-49 23 7 8-4-2-3-5-2 1zm-90 205 7 2 4 6v1l2 2-2 1 1-2-3-1 1-2-2-1-3-5-7 4-3-1 4-1zm20 21 2 4 5 5-2-2-3-2zm-38 2v2l-1 3h2l-1 2 2 1v1l1 3 12 22-1 2h2l-1 2-4-5 1-2h-2l1-2-2-1q-10-9-11-26zm45 8 2 1 6 7 5 4v2zm455 13 1 2 4 2 3 1 2 3-13-6zm-58 3v2l-4 2-2 3h-2l-1 2-4 2-7 3v2l-2-1v2h-2v1h-2l-1 2-3-1 11-7 3-1 13-9h2zm-31 19v3l-3-1v2h-2v1l-3-1zm-392 1 2 1-1 2h2l-1 2 3 1-1 2h2v1l2 2v1l2 2-5-2zm48 0 2 5 4 3-2 1v-2l-2-1-2 1 1-2zm435 0 2 2-9 6-3 1-24 11 1-2 1 1 1-2 1 1 2-2 20-11 1 1 1-2h3v-2l2 1zm-109 6 1 2-2 4 12 29 9-1v2h-2l-4 1-4-2-2 1-11-28zm-318 2 13 9 2 3 3 1 2 9v2l-1 5q-7 6-20 4l-8-1 24-2 3-2 1-11h-2l1-2h-2l1-2-6-4v-2l-3-1-5-1v-2h-4zm-47 7 2 1v2l1 1h1l1 2 1 1v1l2 2v1l3 2 14 7-2 2-12-7-5-2z"/><path fill="#132b3c" stroke="#132b3c" d="m270 3 4 2 4-2v1l-2 1 3 1h1v1l4 2 2-1-1 2 6 3h1l4 4 3 3 11 18-2 1v-3l-3-1-8-14-3 3 3 5-3-2-3-6h2l-5-2-3-4q-4-6-15-4l-10 7-1 8 4 4 9 6 1 1 3 1 11 9 2 1 9 4 5-3q-3-9 7-6l3 6 2 2-25 11-1 2-18 13 3-4 1-4-17 11-1 3h2l4-2 2-1v1l-7 3-1 2-13 10-3 5-6 5q5-3 0-6l-5 2-4 2v1l-1-1 27-22 2-2 24-17 1 1 2-3 1 1 2-3 1-3-8-10-24-14-1-3-2 1 1-4-1-3 4-10 2-1h3l-3 5 4-2 1 1 4-8-3-2zm-2 34 7 5 4 2h2zm162-22 18 1 10-1 3 1 8 1 2-1 15 3 2-1 4 2 3-1 10 3h2l3 2-9 1-1 3-4-2h-2l-58-4-40 3-1-3h-11l-1-2 4 1 6-2 8 1 3-2 7 1z"/><path fill="#132b3c" stroke="#132b3c" d="m362 24 1 3-4 3 2 3 2 1-31 10-2-3-3-1-13 4-5-3 5 1 19-7 3 1 3-1 8-3 1-2 1 1 4-2 7-3 1 1zm160 2 14 7h1v1l2-1v2l2-1v2l4 2 3 1 2 2 1 1h2l6 6 2 1 8 11v1l1 2 5 9 1 3-1 2 2 4-2 1-3-9-4 2-10-19-5-3 3 1 4-2-5-7-7-3-3 4-23-11 4-2-2-5h-2zm48 66 4 7 2-1 2-5 1 3-2 4-3 12-2 2-1 2v2l-3 7-2 1v3h-3l3-9-4 1 1-2 7-22zm-354 22 1 2-6 6 2 2 3-1 3-2-6 7-16 20-3-1-8 6-4 6-2 1v2l-1 1v2l-1 3 4 1h1l-17 30-5-2v2l-2 1v2l-1 4-1-2h1v-2l4-8v-2l1 1 1-2v-2l1 1 2-7 1-3h1v-2h1v-2l1 1 5-11h1v-2l8-12 1-2 2-4 2-1 4-3 2-6 2-1 2-4 3-1 7-9h1zm285 16 9 1h2l33 4v1l6 2 12-7-1 2-3 4-2 4 1 2-3-2-2 5 2 4v8l-6-18-15-5-4 1-5-1-5 1-25-2-2 2-26 2-4-1-33 8h-2l-4 1v-1l1-1-7-2-9 5v2l-19 6v-1l-3-2-2 4 3-1-1 1-32 14-3-1-11 6v2h-2l-6 4h-2l-3 2v1h-2l-58 37-17 16-1 1-11 10 4-5-2-1-2 4q-5-2-4 3l-2 3 4-1-2 3-3 2-9 12-1-3-13 9h-2l-2 3 2-1q8-1 9 4l1 3 2 1h-1l-3-1v-2l-1-3-6-1-17 1-3-1h-2l2-1-3-1v2l-13-5v-2l-4 1-1-2h2l2 1h2l8 3 1 2 2-1-2-5-6-3h2q10 8 31 5l10-8 4-5 1-1 11-12 1-1 22-18 4-5h1v-2l9-7 18-13 1 1 2-3 16-9 3-2 15-8 1-2h2l11-6 1-2 2 1 31-15 41-13 45-6 7-3 20-1h2z"/><path fill="#132b3c" stroke="#132b3c" d="m554 159 7 3 3-3-2 4 1 3 6 5 1 1 2 1v1l8 7-1 1-7-7-4 2-1 1q-7-11-27-8l2-1-10-4-10 4h-2l-22 2h-2l-23 2-3 1-7 1v-1l2-2-10-1q39-9 90-7h2l6-2zm69 11h2l1 2 6 4-6-4-5 3-2 7 3 1 1 2h1l-4 1v-2l-1 2-7 4-2 3 5 1q-6 8-23 6l-13-6 6-3-5-8 6 5v1l9 4h2l3-1h2l2 1 6-4 1 1-1-2 4-3 2-5 2-1 1-3h1v-2l2-1zm-207 11 1 3 3 1-49 18-1 5 13 13 8 5 3 2v1l-5 1 3 6-4-4-13-8v-2l-6 4-1 4 1 3-5 37-7 15-2-2-1-2 1-3 1-6 2-2-1-2 4-14v3l-1 3 2 3 4-16-2-4-2 4-1 3-1-2 1-3 1-6-1-8h2l2-1 6-14-3-6-9 1-4-1-2-4-3 1-5 2 1-2 46-20 21-5zm220 0v2l2 2-1 2h2l1 4-3-1-3-7zm7 20 1 12-2 1 1-7zm-8 13v3l5-1h1l1 3-2 3v2l-8 17-4 3-2 3-3 2-3 1-1 2-10 7 1-2h1v-2l-1-3-4-1 16-11 5 2 7-8-2-1-1-4-2 1 3-4h1l-2-1 3-7-1-2zm-483 5q4-1 2 6l-1 4 4-1 1 8v2l2 7-2-2-5 4 1-2-3-1 2-3 1 2v-3q-4 1-2-4l-1-9 2-3-1-3zm162 5v2l-2 3 5 2-3 1-1 2q-20 7-33 20l-1 1-7 6-3-6 28-20 3-2zm112 22q22 11 51 16l-10 2 3 3v1q-32-7-57-19l2-1 9 3 3-1zm159 13 1 4 4 9-1 4-2-4 1-3-12-2-20 4h-2l-5 1v-1l3-2-1-3-5-1 4-1h2l4 1zm-342 25-7 8-7 17v2l-4 20-3-10-1 2-2-2 2-1v-2l-2 1 4-14v-2l1-7-1-2v-3l-3-1-1-2 2 1 1 1h1l3 3q11-1 17-9Zm351 8v3l4 2 1-3q4-1 2 5l1 3 6 25-2 1 3 1 1 4 1 3-2 1-2-7-3 11 1 7h-1l-4-19 1-15zm-245 9 1 4-4 10-1 3-18 26-12 11-1 2-3 2-5 7-10 5-7-4h2l2 1h2l3-1-10-5v4l-10-6-4 1-9-1-2 1h-2l-15 10-8 15 1 4-1 4 4 15-2-2-4 2v3l-4-14 4-22 5 1 3-7-3-2 5-6q9-10 32-7l20 7 3-2 1 1 3-2 4-3 3-7 2-1 12-13 2 3 3-2 3-2v-4l4-3-1-4-4 4-4 6h-3l4-3zm-132 28 2 4-8 34 5 1q-5 16-16 26l-2 2-4 5-1-1 2-4q1-5-3-3l-5 2 7-6-1-2h2l1-1 13-20 1-1h-2l3-10 2-1v-2h1l-1-3 1-3 2-4-1-2 1-3 2-5zm397 18v6l1 3v2l-2 11 2 1 1-2v2h-2l-2-1 1-3-4-3-2 1-1-3 1-5-1-3 5 3zm-1 42 1 2 1-2v2l-1 2h2l-1 3 1 3-3 8 1 3v1l-2-4 2-5h-2l-2-3-3 1v5l-2-2 5-11 1 1-1-2h2zm-435 11v2l-1 3-4 2-4 2-1-2 1 1 2-3 2-1 1 1 2-2zm664 0 4 1 2-1 2 4v2l-3 7-3-1-1-3-9-3-6 4 1 2-2-1h-2l16-10 1 1zm-237 10 2 9 5-8 1 3-2 4-1 5 1 3q4 15 16 23l5 4 11 13 3 2 1 2 1 3 3 15-1 4 1 3-11 20-5 4-4 2-1 2v-3l1-3-18 4-1-2 19-6q13-7 12-30l-4-11-2 1 1-2-2-1-12-15-6-4-1-3-5-3-3-5h-2l1-2h-2l3-8-4-2-4 12 2 1 1-2v2l-3 4-1-2q-5 16-16 26l-2 3q-15 19-38 29l-1 3-6 2-2 2-4 2v1h-2v1h-2l-1 2-2 1h-2l-1 2 9 9 1 1-3 1h-2l-2 2-7 4-1 1-4 3 1 1h-2l-2 2-3 2 1 1h-2l-2 1v2h-2l-1 1-4 3 1-2 2-1-1-1-2 1-1-2-2-1v2l-3-1-2 1 1-2h-2l-1-5h-2l-2-1-11-6 3-2 5 2 4-11-18-2-7 2-6-1-4 5 1 2 4 1h1v1l3 1 13-1-1 2-2-1-3 1h-2l-10 4-2 4-3 1 2 1-2 11 4 13-9 3-15 11v3l-4-3-1 2h-2l2-4 2-2 10-6 2-3v-2h2l4-9-2-1-11-2-3 1-9-1v2l-2-1h-3v-2l-2 4-2-1h-2l-2-2-3-5q-10-7-27-7l-2 1v-3l-1 2-1-4h2l1-2v2l39 13 27 2 2-4h2l-1-3 5-12-1-2 1-2-4-2-11-3h-2l-7-2 2-2h2l2 1 31-3 4 1 16-3 3 1 3-1 11-1 17-8 1 2-3 1h-2l-1 3 4 1h1l2 1 3 1 11-7q2-7-5-4h-2l-1 1 2-3 11-4 1 1 2-2 2-1v-2h2l3-2 1 1 4-5 17-12 1-3 1 2 8-11 3-2 4-7 2 1 1-3v-2h2q12-17 16-42Zm34 57-1 3 8 10 3-2v-3l-1 2-4-8zm-135 50-15 5h-2l-3 1-3 6 9 12 1 2 9 4v-1l-4-3 2-1 3-1v-1l10-7q5-3 4-13l-6-3-2 1zM159 412v3l2 2 15-5v1l-19 10-4-1-14 32v2q-1 17 7 26l-3-3-4 2-1 1v1l3 2 4 4 4-4 2 4 28 17-10 18-2 1v2l-2 18q2 15 12 22l6 5 3 1 2 1-1 3-9-3 3 4h1q-3 3-6-1l1-3-2 2-4-3-1-3-2-1-4-2 1-2-5-10-2 1 2-3-2-1 1-3 1 1-3-3v-2l1-3v-2l-1-4v-2l1-6v-2h2v-2l4-10v-2l1 1 1-5-22-15-2-3-5-7h-2l1-3-2-3 1-2-1-4h1l1 2 1-3-1-3-2 1v-3l-1 2h-2l2-4-2-1v-2l-1-3 1-3q0-17 9-25l2-1 2-3v-2l3-1 3-1 5-6zm-20 25-4 2-1 10-1 2 4 4 3-12-1-3h2zm23 84v4l-4 8 5 19 2-24v-6l-3 1zm73-108 2 3 1 2 5 1 2-5 7 12 4 2 17 11-4 1-6 1-18-11-5-7 1-2-3-1zm14 14-2 2 4 2-1 2 4 2 5-1-1-2zm494-9 5 4 2 7 4 9-1 2h2l3 6h-2l1 5-2 1-5-11h-2l-1-4-3-1-8 7-1 4-2 1 1 2q-5 6-4 20l1 3-4-1-2 3 1 3h-1v-2l-2 1 1-5-1-9 2-1 1-4h-1v1l-1-1 4-2-2-4 2-1 1-3 1 1-2-3 6-14 2-2 3-5v-2zm64 9 3 1 1 3-7 10-2-4-4 3-5 12 3 7 3 2-1 7 1 2 1 3 8 10 14 1 13-10 2-4 4-8q-2-19 3-31l3-1 1 7v2l2 14-2 3 1 3v2l-1 2v2l-4 10-2 2-3 1-2 3-1 3-15 10-2 1-1-6-7 2 3 7-1 2 1 6 2-1 2-6 1 4-3 12-2 2 1 2-2-1v-3l-8 21 4-2 3-4 2-2-2-4 2-3 2 4 10 4h1l1 1 2-1 2 3 3-1 2 1 1 2h2l1 2 4 1 13 9h-3l-1 2-7-3v1l1 1h-1l-1-2-2-2-2-1-2 1-2-2-22-9-8 5-10 25-2 1-2-6v-2l-1-5-4-1 2-1 8 4 5-10q-5-2-4 3v2l-14-6 1-2 8 5 3-1 1-3v-2l1 1 3-8 1-3h1l-1-4h2l-1-2 2-4 1 1-1-2-1-2 1 1 4-13v-2l2-4v-1l-2-1 1-3-10-4-3 1-3 7-5-1 1-3h-2l5-13-3-6 1-2-1-5-1-10 1-3 1-2-1-2 2-6h2v-2h1v-2h1v-2l1 1-1-2 2-4 2-1 4-2h1zm39 13-2 5v2l-1 4 1 3-1 7 2 4 3-11z"/><path fill="#132b3c" stroke="#132b3c" d="M295 431q5-1 2 7l4 6h1l-1 3h2l1 1h1l-1 2 2 3 3-1 4 7 2 1 11 12 1 1v1l29 20 3 2 18 10 3 1 8 3h2l6 2 4 1 3 1h1v1l3 3v1h-4l-18-3 4-1-1-2-2-3-4 2 2 3h-1l-12-7-2 1-1-3-24-11-6 1-3 12 14 15 2 2 1 1h2l11 6 1 2 3 2-1 2-3 1v-2l-2 1-3-1 1-2-5-2-6-2-8-6v-2l-1 2-3-5-2-1-1 2-1-2-5 1 1 1-5-1-4 1v-2l-2 3-3-1 1-2-10-1-9 2v-1l28-9 1-4h2l-2-1 5-12v-2l-4-8-11-8-4-7-7-5 1-2-4-2-5-13-2 1-2-4q2-5-2-4l-5-3 2-3zm462 33 3 2 3 7-2 5v2l-5 16-1-4 2-3-2-1-2-4-2 1 3-6q4 1 2-4zm30 40 2 1 1 3-3 8 1 1-2-1h-1l1 3-2 1 2 1h-2v5l-1-2-1-2 2-1-1-3-13 5v-1l5-1v-2l3-2v-2l1-4h2l1-3 1-3 1 3v-2h3zm-55 6v9l2-1 3-6 2 8-3 11 1 3 6 2h4l3-1-1-6 1-4-2-4 3-7v4l4-1q-2-5 3-4l-1 2 1 4v2l3 3 2 2h-5l2 3 13 5 10 12-1-1-2-1-4 1h-2l-4 8-3 2-8 22-3 1 2 1-2 3v2l-2-4v-2l-1-19 2-7-6-11q-10-2-13 3l-2 13-2-3-3 1v12l3 1 1-2v2l-2 10-3-23 1-3v-2l-1-8-8-1 1-5 4-1 2-2 3-10-1-3 2-4-1-4zm30 22-3 1-2 6 1 4-1 6 3 3 4-1 6-16zm-473-10 1 1-1 2-4 2 1 2 2 3 1 1-2-1-6 3h-2l-4 2-5 1-1 2-2-1-2 1v2h-3l1-3-4-1-6 3-4-1-1 5 6 3-2 1-1-2-1 3-14 9h-2v1h-2l8 23v1l2 2 1 2 1 2 3 9-9-4-2-4 1-2-2-1-4-7-5-2-3 1-1 2-23 18-11 16-2 2-4 6-2 2-1 2-6 2-3-1 4-9h1l3-5 12-15v-2l2 1 6-7v-2l1 1-1-4-3 1-1-3-3 2 1-2h-3l2-1-2-1-2 1 4-2 10 4 3-4h2l2-2 6-1-2-1 11-6 3 2 3-2 1-5-2-4 1-3 8-6-4-1-9 6v1l-1-1 24-17 2-2 6-3 1 1 1-2 3-1 23-10 1 1 2-2zm312 1 2 5-1 3 4 4 1-1h1l1 7-1 3-3 11-2 1-1 3-3 5-3 2v1-3h1v-2l1-2-4-3 4-3v-2l3-13h2l-2-1 1-4zm181 4v2l-2 3 1 1-2 1 2 5h-1l-2-3 1-3zm-239 10 6 5 2 3 18 17-1-1-9-2 1 3 7 9-15-12v-2l-2-2-5-2v-2l-1-3-3-1-5-2 1-2 6 5 3 1q4 1 2-3zm165 4 3 2 1 4h-2l-24 14-2 4-18 9h-3l8-9 2-1 2-3 4-2 2-3 2-1 22-13 2 1zm-217 10v4l2-1v3l1 2-2 4 5 2 4-1 5 4v2l2 1h1l-1 2 2 2 1 3q-2 4 3 3v-1l-2-1 5 2-1 2 2 5-2 4 7 10 3-1 4 20-1-1-3 2-2 2q-3-22-13-37h-2l2-1-1-5-2-1-2-5-15-9h-6l-6 2-5 8-2 1 1 2v2l1 14-1 3q-5-2-4 3h3l1 1h-3l-4 2 1 1-2 1v2l-1 2-8 6 1 6h-2l2 4h-2l-2 1q5 2-2 6v1l-1-2 2-1-3-4v-2l10-22h2l-1-3 1-1 1-4v-2l2-9-1-3-6-10 13-4 2 1 11-8 5-8z"/><path fill="#132b3c" stroke="#132b3c" d="m535 552 1 1-1 3 6 19 1 3-1 2 3 6 1 3 1 3v2l-1 3 2 1-1 2 1 3v2l-2 4h4l1-3 5 22h1l1 1h1v1l6-3-1-2 3-1 5-5 2-4h2l5-5 8-11 5 2 4-3 1-2 1 3-3 5-2 1 2 4 3 1h1l3 5 1 1 4 3v1l2-1v3l-6-4h-3l1-3h-1l-3 4 26 17-1-3-10-6-1-3 5 1 7 4 1 3 1-2 1 2 2 1 1 2 1-2 8 3 2-1-2-5v-2l1-12-1-3h2l-1-4 2-4 2-3v-2l10-15v4h1l1 3-8 17-2 18v2l1 2h-2l-1 11 2-2h1l2 1v1l-3 2 3 1h-2l2 3-2 1-1-4-1 2-2 1v-2l-22-10-4-2-10-5-1-2-3-1-6-6-8-6-4 3-1 2-4 1-2 4-10 8-1 2-3 1-5 8 1 1-4-5-3 1-4-1-5-20 3 1v-5h-2l1-3-2-3h-1v2l-4-13 1-2h-2l-1-5 3 2 2-7-1-2 1-2-3-7-5 3-4-9v-2l-2-9 5-1zm331 3-1 2 1 1 2-1 2 1 3 3 1 2 10 17-1 2 1 2 2 1v2l2 8v2l2 9-2 3 2 2-16-33 1-2-2-1-3-7-2-1-1-3-4-2-1-3z"/><path fill="#132b3c" stroke="#132b3c" d="m592 580 6 8h-1l-5-6h-2zm139 2 4 34-2 1h2l2 3h3l-1-3 3-1h-2l10-17v6l-4 14 1 2 4 5 12 5 2-1 3-8h2v-2l16-35 2 2-23 58-6-9-14-8q-13 2-17-4l1-10-1-24 1-5v-2zm-311 1 3 2v2l-11 24-2 29 5 10 6 1 10-8 1 1 3-4 3-2 3-2 1 3 3 1 2-1-4 2v1l-1-2-1 2-11 4-2 5q4 2 0 4l-6 3h-2v1l-2-1-2 1-1-3v-2l-3 1-3-4-2-1-2-6 3-13-2-6-1 3-1-2 2-3v-4l1-3v-2l3-11v-2l3-1 4-2-1-3zm273 2 9 1-10 2 8 2-19 3-1-2h2v-2l3-1zm-107 3 5 7-2 3 1 1-1-2-1-6-2-1zm124 2 4 12-1 3-3-1q1-9-4-11h4zm-36 7h2l1 2-4 8v2l1 8-2 1-1-2-1-6 1-3 3-8zm-343 6 3 1-2 1 4 1 1-2h-2l2-1v5l-3 5-6-1-4 3-4-1-2 5 3 1 2-1v1l-11 6 1-2h2l-6-1-5 3 3 1-3 2v-1l-1-3-6 3 2-3 9-5 2-2 2-1 2-2 1 1 5-5zm142 0 1 2 2-1 3 3 15 19-3 2 4 5 2-4 14 7h-4l-4-2-6 2-3-1-2-4-4-2h3l-11-8-1-4-3-1 2-1-3-2-2-4 2-1zm-220 5 2 1 4 6v1l2 3 5 8 3 2 2 2 1 3 5 2 4 1 14-9 1 2-3 1 1 5-1 4 4-2v5l-2 1 1 5-1-1-2 1 1 2-2 4 1 1h1l-2 6 1 1-5-3-1 2-3 1v2l-1 8v2l-4 21 2 3q5-2 3 4l-2 3v-1l-1-3-2-1-1 2 1 1-2-1-1 3h-2l1-3 1-1-1-3 5-20v-4l2-3-1-2 1-4v-2l1 1 4-14 1 1-1-2v-2l-1-4-3 2-1-2-2 1 1 2-5 2-5-3-1-3-2-1h-1v1l-1-2-4 2-3 4-9 7-1 2-9 7-2 4-1-2-1 4-4 3 1 2-1-1-2 2h-1v-2l-4 1h-2v1l-1-1 9-12 1-1 5-4 6-7 3-1 2-2 4-5 6-4 1-2 1 1 1-5-11-21zm2 34-2 2-6 7-10 6-3 7h3v-2l3-1 2 1-1-2 1-2 9-5 2-3 2-2-1-2h2l1-3zm632-27v2l1 2 1-4v4l-2 4-2-5zm-2 12v2l2 1h1l-1 3 1 2-5 14 1 2-1 2-2-2h2l-1-4 2-10h-1l-8 21 5-2h1v-2l1 4-3-1 1 3-2 5-3 3-3 1h2l-2 6-2 2-3 4v-2l-4-1v-4l1-2 8-12-1-2 2-4h2v-2l4-10v-4l4-7zm-60 1-2 3-1 5 3 6-7 3 2-7v-2h1l-1-2zm-294 10v9l-2 1-1 3-6-1v-2l-2 1 2-4v2l2-1 2-5q5 2 5-3Zm324 4v10l-5 10-2 2q-11 9-33 8l-13-6-1-10 2-1h1l2 5h1l-1 2 6 4v1l2-1v2l6-1 2 1h2l3-2 2 1 12-5 1 1 1-2h3l3-5h1l-1-3h2l-1-8h1l3 6zm-189 6v2q23 0 34 12l1 7-3-1-3-6-31-8-4-2-3-1zm-512 5h2l2 2 3 1-2 4-10 23-2 2-2 6-2 3-6-1h-1v1l-1-1 4-7 1 1v-3l-2 1 3-7h3l-2-1zm-9 25-3 2 1 2-1-1-1 2v2l2 4 3-5zm418-19 3 14v2l6 9 5 4v2h-2l-1 4-10 4v1l-2-2 2-1v-3l-2 1 1-2-2-1v-2l-2-7 2-1-3-1 5-3 1-8zm299 20 1 2h1l-7 6 3 4-2 1-3-6 3-1 1-3 1 1zm-118 5q10-2 10 2h3l7 6 2 13-4 7 1 1h-2l-5 6-7 2q1-4-4-2v-1l15-7 4-11-5-10-14-3-18 7-6 10h-3l1-4h3l-2-1 4-6 6-3 1-2h2zm110 7 3 2-4 2-5 10-7 6-6 4 1 2-6 2-1 2-1-2 5-2 2-4v-2l-7 4 1 1-2-1-4 3-1 2h5l-2 4-9 5-3-1 1 2-2 1 1-2-8 2h3l1 2h-2l-1 2-8 4v-2l-3 2v2l-14 6v-2l-3 1v2l-3-1v2l-3-1 1-3-8-1q-1-3 7-2l13-3-2-1 2-1 4 3 1-2h-3l3-1 2 1v-2l2 1 5-4v-2l4 2 2-4v-2h2l39-31 1 1 1-2v-2l2 1 2-1 1 1zm-646 2q6-2 4 5l-7 10-2 1 1 2-2 1 1-2h-1l-6 2 1-4v-2l1-1 5-6v-2l2-2zm380 0 2 1h1l3 1 2 1h1l3 1 20 7h2l15 5 1 3h1l-4 1-5 1-3-1-3-1h-2l-6-2-2 1-13-4v-2h-2l-10-5-2 1-2-2-3-1q-2-6 5-4zm14 9 1 4 2-1 6 2-1 2h2l3 1 5-1-1-3-2-1h-1zm-30-3 2 7v2l1 5-2-1 1-3-3-2-1 2-1-2-5-1 7-5zm-555 1 2 1h2l6 1h1l-1 1h-2l-1 2-4 1 1 1-4-1-5 2h-2l1 2H9l-4-3-1 2-1-1 3-5v2l2-1v-2zm114 2-1 2 1 2h-2v2h-2l-1 2v-1zm-6 2 1 2-3 1 2 7-15 22v-1l-1-2 2-4-3-2-3-1 1-2v-2l-1-2h2l7-1 2-4 2-4 2-1zm-58 3v2l4-1 1 3h2l1-2 4 2 1 2 2-1 3 2h2l6 3 1 2-2 1-3-1 1 3-4-2-11-1v-2l-2 1-19-5 2-3 6-2 3 1zm611 11 3 1 1 2 2-3-1 2 4 10 3 2 4 4q8 8 24 10h2l5 1 4-1 3 1 11-1h2l5 1-7 2-1 2q1 4 9 3l3-1 1 1-3 1-1 2v3l-1-2-3-1-7-4-8 5-2 15 1 3-1 2 3 7-1 3 1 5h-1l-2-5-2 3-1 4-2-4 2-7v-2l-1-7 1-8v-2l-1-2 1-2v-2l-2-4-2 1 1-2-8 2v-2l-1 2-2 1v-1l-2-5-9-3-5 2 1 3-2-1 1-2-3-1 1-2-2-5-2 1-10-11h-2l2-1-3-1 1-2-1-3-1-4h2l-1-2zm6 9-2 4 2 4 10 6zm-663-6 3 3v1l3-1 32 14-1 3 1 3-3-1-2-1-2-1-2 1v-3l-2 1 1 1-2-3-1 3-1-2-4-1v-2l-1 2-2-3-22-11 1-2v2h6zm182 2 1 3 4 10-1 5-3-2-2 1 2-4-3-6 2-5zm374 3 2 2 1 6v2l1 2v2l1 2v2l-3 1h3l1 3v2l-2-4-4 2 2 1q-2 4-5-2l4-3 1-6h-2l1-6-1-2zm-307 1 2 1 1 4h1v1l3-1-1 6-4-2-6 11-1-2 3-7v-2l2-3z"/><path fill="#132b3c" stroke="#132b3c" d="M108 732v2l-1 3 4 2-3 19 2 4-2 1-3-1q-2 14 8 17l2 2 3 1-2-2-7-13 1-2h-2l2-1 1 3 1 3 2 2v2l5 2 1 2 3 1 2 2-2 2v2l-2 1 2 1h-1l-10-5-1-2-11-19-2-1-2 1-2-2-19-9-3-1h-3l3-1 2-2h4l3 1h1l3 1 3 2h1l-1 2 2-1 9 2 7-5-2-1 2-5-1-2h1l1 1 1-2-2-1zm101 8v4l1 3v2l2 1 2 4 5-2v2l2-1 4 2 2 2 2-1 1 2 2-1 3-1 1 3 4 2h2l-1 1-5 3 1 2 10 4 4-2-1-5-2 1 3-1 2 1 1 2 1-2 1 2h2l2-1 1-2v-2l1 1 1-2-1-2h1l1 3v4l-3 1 2 2-2-1-9 1 2 3 2 2 3-2 5 1 4-2 2-3-1 2 1 2h1v1l16 7 22-8h2l4 1h1v2l-7-1-3 2 4 1 2 2v-2l7-1 2-3 4 2 3 1 3 5v-3h-2l2-1 4 4 1 2 4 1-1 3 1 2h3l-1-3 2 2 2 1 3 2 1 4 1-2q4 2 0 5l-2 3 9 5 2 4 2 2-19-16-4-8-10-6-13-2h-4l-7 1h-2l-11 2-1 2q-9 5-10 18l1 1h-2l-1 2h2l5 9h1l6 7 6 4v2l-8-3-2 3-9-10 2-1 2 4 1-1-2-5-3-1-4-2-1-2h-2v1l-3-1-3-2-2 1 3-4v2l1 2 2-1 2 1-1-1-1-2 1-3h2v-2l1 1 2-6-1-2 1-2v-2l2 1 3 2 1-3-3-2-2 1 1-3h-2l1-2-4-1-2 1v-3l-14-6-1 2-1-2-3-1-2 1v-2h-2l-18-7-1 2 1 1h-3l1 3h-2l-2 1 2 1-1 2v2l-1 3v3l-2-5h2l-1-3-3 1-1-2 3-6v-2l1-3-2-4-5-3h-2l-18-6-3-1q-10 0-14 5l-5 14 1 1-3 2 9 15 1 3h-4l3 1v1l-3 1v2h-2l-2 4-18 4 3-2 2 1 2-1 1 1 1-2 1 1 2-5-2-1-1 2-11-2-3 1 1 3h-2v1l-4-3-2 1 1-2h-4l3-1-3-1 3-4 20 5 8-4 1-4q-6-7-3-22 3-13 12-19l12-1 2 1 7-2h2v-2l2 1zm480 25 3 1-3 17-1-3 2-5-5 2v1l-2-3h2l-1-3h2v-2l3-3h-2z"/><path fill="#132b3c" stroke="#132b3c" d="m709 772 3 2-2 1v2l-4 11-3 1 1 2-15 22-2 1-3-1-2 1-1-2-3-1-1-9 2-4-1-3 2-1-1-2 1-3 1-2v-2l-1-3 2-1-1-2 2-1 1 3-2 1 1 2q-4 2 1 4l3-2 1-2v3l-2 1 1 6-1 4 4 1 3-5 2-1 10-17 1-1zm-122 6 3 1v2l1 4-6-2h-3l3-1-1-3 3 1zm162 6v2l-1 2 1 7-1 3q1 17-7 25l-6-1v-2l-1 2-4-5h2l-3-2 1-2-2-3 2-1q-2 6 4 4 4 6 8 0l4-3v-2l1-16-3 2-4 11-1-2 3-7v-2l2-6-1-2h1l1 1 1-2 2 1zm-525 1 1 4 2 3 3 2h-1l-6-4 1-3zm-6 3v2l-1 2-4 1 4 6h1v2l-3-2-6-2-4-1-2-1v1l-1-1 4-2 11-3zm15 5 3 2h1l2 1h3l2 1 3 1 7 2-2 1h4l2-1 2 1 1 2-1-1-3-1-3 1 1 2h1l-1 2 4-2v2l3-2 1 3 3-2-4 5-1 1-1 3v1l-2-1v2l1 3h-2l1 2h1l-2 5-2-1-1 2 2 4-2 3 1 2-2 5 2 2-3-1-3-2-5 9-1-2 1-3 3-8-1-2 1-3 2-8v-2l2-3-1-1 2-3v-1l-3-1h2l1-3-5-4-2 1 1-3-3-1-7 2-4-1-1-2v2l-4-1-2 1q-1-6 6-3l2-1v-2l1 1zm363 16 2 7v2l1 3v2l1 3v2l1 4-2 3 3 1-1 5 2 3 1 2v4l-3-6-3-1v2l-4 2 1-4-3-6 3-5 3-1-2-16-2 1zm-232 3 3 1 3 1 16 7-17 10h-2l-1 1h-2l-2 1 1 1-12-1-3 4 3 2h-3l-3 1-2-1-9 2-3-1-3 1-7-1-6 1-9-2 9-3 2-4 15 2q23-2 38-13l-2-7h-2zm-122 38 2 3-1 2 5 6h1l1 2h-3l-1-2-4-1zm362 2v3l-2 3-1-2-1 3-4 2 1 1-4-1-1 2 1-4 9-5 1 1zm-350 11 9 4 13-4 2 2 2-2 3 1 1 2 2-1 3 1 3 1-4 3 3 4 6 4-2 1-1-2-5-2h-2l-13-4v-3l-3 1-3-1-1 1-9-4h-2zm294 5 1 1-4 2-1 2-8 1h-2l-3 1 1-2zm-203 10h2l2 2 2-1 11 2 2-1 2 2-4 3 5 2h2l2 1 5-2 5 1 6-3 2 1v-2l3 1h1v1l5-3 2 3 3-1 5 1 2-1 2 1 2 2 11 4h1q1 4-7 2l-3 1-15-4v1l1 2-3-3-12 1-12-1-3 1-15-3-4 1-3-2-3-1-2 1-1-3h-2l-3 1-1-2-3 2h-2l-7-2h-2l-6-1-3 1 1-2 19 1 11-1zm203 0 4 1h2l7 3 2-3 15 28v1l1 2 1 2h-1l-2-3-6-9-2 1-4-1-2 2-7-17-2-2-1-3zm-42 1 5 2 19 1 4-2 3 2-10 2-4-1-11 3v-1l2-1-4-2v2l-2 1 1 1-3-1 2-3zm-16 1q7-2 7 2l-3 1 1 2 1-2v2l2 1-2 1v2l-4-1v2l-4-1-4 2-7 1-3-1-10 2v-2l-10 2q-1-4 6-2l5-1 3-1 10-1 2 1v-2l-1-2 3-1 2-1v-2l3 1zm-178 3 1 1-6 16v2l-2 3v4l-2 1 1 2-1 2-2 1 1 1-2 1v2l-3 6-2 1 1 1-11 6 1 1h-2v1l-4-1 12-21v2l-1 4 5 1q8-7 9-21l-2-4-6 7-1-2 1-1v-2h2l4-11v2l-2 4 4 1zm130 16 2 1-4 6-6 16 4 2 3 5 9 7 1 3 3 2 2 3h1v1l5 5 3 4h1v1l6 5 2 3v1l4 3 1 2 1 2 4 4 3 4-1 2-1 2-3-2h-1l-2 1 1 1-10-8 5 3q7 3 5-3l1-2h-2l1-2-2-1-16-19-6-4-7-9-10-4q-6 4 1 7l-6-3 1-3-6-5-5 3v1l-1-1 1-2-2 3v1l1 2-3 6-2 3-10 15-2 2-1 2-2 2-5 8-2 2-3 4-2 2-1-1-3 2-2 1v-1l1-1h-1l-4-2-3 6h-2l-2 3h-2l2-1 3-4 1-1 10-13 1-1 1-3 3-1 1-4 4-1h-2l3-2 1 1 9-5 9-12v-7l-4-3 2-4h2l1-3 10-17h2l3 1 4-6 4-3zm139 14 9 20-1 2 2 2 1 2 1 2 1 2 1 2 7 15 2 3 3 5 2 4 1 3 10 24-1 2 3 5-2-1-1 3h-2v3h-3l1-2-2-2-5-9-2-4 2-2v2l1 2 1 2 4-3 1-3-1-3 1-2-2-2-12-25-8-7-1 4 1 2 1 2-2-1-2-4 2-4-2-1v2l-8-13 1-2h-2v-2l-5-10 3 2v1l1-1 2-10zm-302 22v2l-3 4-3 2 2 9-3 5-4 4-8 6-1 2-14 12h-2l-7-2-2 4h-3l1-2v-2l2 1 6-5v1l4 2 6-4 1 1 8-10 4-3 3-4 1 2 2-7-5-2 5-4 5-8z"/><path fill="#132b3c" stroke="#132b3c" d="m452 952 4 6 8 8-7-7-4-2zm-197 7-4 5-1 1-3 2zm234 24 3 5-2 3 3 2 1-2 2 2-3 1 1 1-7-5 2-1 1 1 1-2zm-260 1 1 2-3 2-3 3-3 1-1 6h2l-7 12 2 4 3 9 2 2 5 8v1l2 2 5 6 3 3 12 13 17 11h2l1-2 1 1 2-2 8-4 2-2 3-1 2-3 1 1 2-2-1 3-4 3h-2l-3 3-1-1-2 1 1 1-8 5 4 1 4-1 1 1 3-2 20-11 3-6-8 1-4 2-2 1 2-3 12-8-1 2-1 2h4l-1-4 3-1h1l3-5 10-6 3-4 2-1 7-6 1 1 3-4h2v-2h2l4-5 4-2 6-7 15-12v2l2 1-2 1-2-2 1 4 2 1h1l-1 2-1 3-1 1-3 2v-1h1l-1-4-6 1h-2l-2 4-5 3 1 1-9 7-9 7-3 1-6 9 4 1 5-2v-2l3 1 2-3 1-1 2-3 2 1h1l-5 4 1 1-4 2-2 1 1 1h-2l-4 1-1 2-3 1-2 2-3 2 1-2-5 3 1 1 2-1v1l-6 4 2-3h1l-5-3-4 2 1 3 2-1-5 8-3 2 1 1-2-1-1 3h-2l-5 3 1 1-2-1-33 19 2 9 10 4 2 2 7 6 4 8-1 4-19-13v-2l-3-1-10-6-1-2 1-3-3-15-8-10-3-1-2-4-8-5-7-9 1-2-4-3-2-5-2-1-6-10-12-2-1-2 6-4 2-4v4l-2 1 4 4 5 5 22 29 3 1 1-4-3-5-4-2v-3h-2l-4-1v-6l-11-25 1-10-2-1 4-3 2-2zm38 111-3 2 15 6 1-2-2-2-4-2-2-1h-1zm231-100v2l6 9 3 5 2 3 3 5 2 3 8 13 2 2 1 2-1 2 4 2 2 6 2 3 1 1-4 1v2l-1-2-2 4h2l2 5-4-3-5-9h-2l1-3 5 2-1-8-2 1 1-2-2-5-7-2v4l-12-17h2l3-1v-2l-2 1 1-2-8-16-4 2v3l-1-2-2 1 1-2-4-5 2-1 3 1v-2l2 1z"/><path fill="#132b3c" stroke="#132b3c" d="M367 1007v3l-9 7-4 1 1 3-3 1-3 2-1-1zm254 0 3 2-1 2 2 1v1l1 2 8 17 1 3 2 4h1l-2 1-2-6-2-1-1-3h1l-12-5-3-7 1-3-1-2 2-4h2zm-444 28 1 2-1 4h2l-1 2-1-2-1 4-1-5-1 7 1 2h-1l-1-8 1-4h3zm459 6 2 2 1 6-2 3 3 1-1 2 3 1-1 1h-2l1 5h-3l-1-4-4-1v-3l-2 1v-2l-2-6 2-1 3 4 3 2v-2l1-6zm-459 11 3 6 6 4 11 23-2 2-1 3 2 1v-2 4l1 1v2l-4-6-2 1 1-3-6-10h-2l1-4-2-1-4-9h-2l1-4zm6 14-2 2 2 3 2 3v2h2l-1 2 4 1-3-9z"/><path fill="#132b3c" stroke="#132b3c" d="m629 1055 1 2-3 2 4 5 3-2 2 2h-2l-6 4-25 15v2h-2l-2 2-1-1-12 5-5-2q-7 5-8 17h2l3 19 6 7 13 2 19-8h2l16-5v-2l4 2 1-3 1-1 3-1 17-7 1 1 3-2 33-18 2-7-7-14-5-2-3-4h3v-2l3 1v-2l16 13 1 1h1l-1 3 1 3-3 5 1 2h-4l1 2h1l-5 4v2l-1-2-3 5-21 13 1 1-2-1-14 7-4-1v2l-4-2-5 2v2l-1-2-3 1h2v2h-2l-2 2-1-1-3 1 2 1h-1l-3-1 1 2h-2l-1 2 1 2-3-2-1 3-12 5-2-1-16 4-2-1-1 2 1 1h-3l-6-2-1 2-5-2-10-17-1-3-2-7h-2l1-3h-2l1-3-5-9-2 1 1 2h-2v1l-4-2 1 2-1-1-2 1-6-3v-2l-2 1v-2l-1-2 2 1 3 3 2 1 2-3h7l-7-3 2-3 6 2v-2l3 1 13-3 1 2 3-2 1-2 1 1 1-2h4l1-2 1 1 1-2 1 1 2-2 12-6 2-2 3-1 2-3h1v-2l3-1 5-2 2-2zm-8 10-2 1h-2l-2 3-5 3-6 7 18-9zm79 3-2 2 5 14 3-8-2-1zm-84 61-16 5 2 3q13 0 19-7zm-78-66 1 3h-2l2 2 2-1 5 9 2 2 1 2 1 1v1l2 2 1 2v1l1 1-2 1-1-2 1-2h-2l1-2-3-1-3-5-4-2-4 2 1 3h-1l-3-7 1-2h-2l2-1h2l-1-4-1 2-1-1 3-2zm-338 34v2l1 2h1l-1 2 2 1 1 2 1-1-1-2h1l2 5-1 2 1 2 1 1-2-1-8-13zm88 18v2l-2 1 2 1-1 8 1 2h-4v-10l1-3zm-77 3 4 1v1l28 10 27 2 4-1v1l-9 3 5 1 5 1 3-1-2 2-3 1q-25 1-41-5l-5-1-9-5-2 1-2-5-2 1 1-2z"/><path fill="#132b3c" stroke="#132b3c" d="m279 1129 2 3 2 3h1l-3 1-2 2-1-3 2-1-4-2z"/><path fill="#232b34" stroke="#232b34" d="M436 22q66-2 106 23l-1-1-2 1v-2l-2 1-1-3-14-5-2 1 1-2-3 1v-2l-3 1v-2l-6-1-2 1 1-2-4 1-1-2q-36-9-84-6l-47 8v2l-4-1-40 14 1 1-3-1-23 10v-1q53-30 133-34Zm-144 1 6 10-2-1zm-31 4 21 13h1l2 3 3 2 4 5zm283 18 6 4 2 2 6 5 4 7-3-2-6-8-8-6-2 1zM301 57l1 2h-2l-1 1-25 16 1 1h-2l-37 28-8 10 1 1-14 12q-26 28-44 65l-2 2q-9 17-9 44l8 18 2 2q10 12 34 11 10-1 14-8l-1-2 2-1v1l1-1 11-12 1-1h-2l3-1 1-1v-2l2 1 10-9-6 7-4 3-1 1-9 10-2 2-11 12q-7 5-22 2l-21-10q-14-11-13-35 20-68 67-109l1-1 19-18 2-2zm264 56v2l-14 18-8 1-32-3 8-2 31 3v-1h-3l3-1 6-4zm-84 16 19 2h-13l-4-1-14 2 1-2 6 1zm13 6 30 1 5-1q14 0 21 8l2 5-2-2-2-5-8-2-2 1 1-2-5 1-9-3-6 1-4-1-3 1-4-1-3 1h-2l-23 2h-2l-6-1zm-66 2 2 1-74 24 1-2zm13 5 2 2q-44 6-77 23l-1-2 49-18h2zm68 21 38 1h-38zm-48 4 3 2-67 17v-1l4-1 4-2 3-2 2 1q22-10 51-14Zm48 2 41 2-34 1-17-1zm49 2 2 3 7 6 2 4 4 3 3 3 3 3 1 2h2l4 3-1-1-2 1 1 1-1-3-2 1-23-25-2 1zm-87 2 4 1-4 1 4 1h-3l-6-1zm-10 2 8 2h-3l-5-1v1l1 1h-2l-4-1v1l1 1h-2l-4-1v1l1 1h-2l-3-1v2l-5-1v1l1 1h-2l-3-1v2l-5-1-8 3 2 1h-1l-3-1v1l1 1-4 1-4-1-9 3v-1l20-7 3-1zm-153 12 1 1-39 26-1-2 13-9v-2l2 1zm319 0 3 2 2 5v2l1 2-1-1-2-2-1-2 1-2-2-1zm-312 3 1 1h-2l-2 2v2h-2l-1 1-36 24 2-3zm44 9 1 2-60 32-1-2zm-3 11 2 1-6 4-2-1v2l-2-1v2l-2 1-2-1v2l-2-1v2l-2-1v2h-2v1l-2-1v2h-2l-1 2-2 1v-3zm5 3v32l-2-16zm18 0 4 6 2-1 1 4 3 1 3 2 1 2h1v-2l6 6 1 1h2l7 4 1 2h1l1 1h1l1 1h1l1 1h1l1 1h1l1 1h1l2 1h1v1l2-1v2l2-1v2l4 1h1v2l-45-24-2-2-8-6-2-3zm-52 12 2 2h-2l-1 2-2 1-2-1v2l-2-1-1 3v-2l-3 2 1 1-3-1zm304 0v2l-11 15 4-7 2-5h2v-2l1 1-1-2h2zm-250 3 43 27-2-2q-26-9-41-25Zm-132 11-1 2-1 2 1 1-4 2-22 27h2l-1 2 5 7h2l2 1 6-4 2-2 12-10 2-2 25-19-1 2-46 36-2-1-6-3-3-8 13-18 3-2zm120 1v9l-2 14q-4 1-2-4zm-10 6 1 11-1 5-2-7h1l1 2zm250 0-1 4q-22 12-53 15l-10-2 7-1 10 1 17-3-3-1 3-1 3 1v-2l3 1 2-2 2 1v-2l3 1v-2l3 1v-2l2 1 1-2 2 1v-2l2 1v-2l2-1 2 1v-2l2 1zm-330 9 1 2h1l-3 1-2 1-1 3-2-1-3 5-3 1-3 4-5 4h-2l-3 2-2 4h-2l-2 1-3 5v-2l-7 6 8-9zm78 5 1 7-2 9-2-5h1l1 1v-2l-1-4h1l1 1zm147 3 39 2h-15zm67 5 2 2-13 1v-1zm16 1 8 32h-2v-2l-2-5zm-36 2 7 1-18 1v-1zm-43 2 27 1-28 1zm-280 45v4l-1 7 1 4-3 15-2 1 1 3-6 18h-2l1 3-1 2h-2l1 2-3 1v1l-1-1 9-20zm117 1 1 2h-2l-1 2v2l-2 1-1 3-1 2-2 3-1 2-3 1v3l-4 1zm-17 10 2 1-4 2-6 10 2-3v-2l-2 1zm274 5 3 20h-2l1-4zm-284 7-14 15zm-56 12 8 2q-19 0-28 9l-8 16-2-3 2-3 1 1-1-2 9-12 1 1 4-5 2 1v-2l2 1 1-3 4 1zm27 2 2 4 3 1v-2l4 2h1l-1 2-13-4zm-24 5 6 1 2-1 22 11h5l9-7v1l-9 8-2-1h-2l-16-9-14-1z"/><path fill="#232b34" stroke="#232b34" d="m260 361 2 1-4 2-12 9-4 9h-2l10-15zm-56 29-1 2 1 1h1l-12 10-3 4-2-1-1 3-2-1-1 3-11 6v-3l2-1 2 1 1-3 18-12zm36 6 6 17h1l-1 2 4 6-3-2zm-8 10 1 3 1-2v2l1 3-1 2 2 3h1l1 2-1 2 3 1 3 5 1 2h1v1l6 5v1l2-1 3 3-2 1-7-5v-3l-7-4h2l-1-3h-3l1-2-3-1zm-74 20-9 10zm440 2 2 1-8 14 1-2zm210 8 2 1-3 4-2 1 1 1h-2l1 2-2 1 1 2q-5 7-3 22l3 7-2 1 1-2h-2l-1-3-1-7v-2q-1-19 9-28Zm-660 1-2 3-4 12q-4 1-2-4l1-4h2v-2h1v-2h1v-2zm692 9 1 16-1 3-2-3zm-224 3 12 14h1v2l-15-14zm-306 3 25 27 1 1h-1l-7-5-2-4-3-2-3-4-2-1zm273 4-1 2-8 11h-2l4-5v-2l2 1zm149 4 2 18 6 7 6 1 5-4 1 1-1-2h2l-1-3h1l1 1v-2l-1-3h1l1 2 2-13v8l-6 15-10 2-7-5-3-11 1-8h-1v6l-1-8zm-142 2 2 1-3 1-1 2-2 4h-2l1 2q-3 7-6 3l3-1v-2h2l-1-2zm-283 2 10 10v2zm531 1-1 4-1 2-7 9-2 1h-3l5-4h2l4-6zm-202 4 2 4 1 3 3 4-1 2-7-11zm-491 5-1 2 1 1h1l-1 2 3 1 7 9-1 1-6-5-2-3 1-2-3-1-1-3zm174 1 7 10q-10-5-7-10Zm244 3-3 4-17 12 2-3zm9 4 1 2-5 5-9 7-2-1-2 4 2-5 11-8h2v-2h2zm-222 7 15 10h-1zm-7 7 17 8-2 1-15-8-2 1zm-169 5 6 2v-1h-2l2-1v3l2 3h1l-3 2 1-2-2-1zm463 1 1 3-6 4 1 1 1-4 3-1v-2l-2 1zm-301 1 5 11-5-4zm44 2 12 5h-2zm163 0-1 2-15 7 1-2 7-4h3v-2l2 1zm-172 3q9 8 25 10l1 3-1-1-24-8zm258 2v2l2-1-1 2-7 4v-3l2 1 1-3zm-324 4 1 1-2 1 1 1-3-1v2l-3-1v2l-14 5-2-1v2l-3-1 4-2 2 1v-2zm303 3 7 2-15 3v3l-1-5h2v-2l8 1v-1zm-437 3 2 1-4 9-1-2-1 2-1-1 2-5h2v-2h1zm325 0-2 3-10 3-1 2 2 3h1l-1 2 5 5h1l-1 2-1-2-2-1-5-10zm-148 1 14 10-2-2zm183 5 9 7 3 1 6 7-1 1-17-14zm-84 6-1 2-7 18h-12l10-1 1-2h2zm13 0 11 1-16 2-1 2-5 8-1-2 4-7zm-202 1 3 1h1l-6 3-3-1-1 3-2-1-1 2-1-1zm-11 6v3l-2-1v2l-2-1v2-3zm561 1 1 4h-2l-5 15h-2zm-256 2 4 5h-3l-1-4-1 2-1-2zm230 3 11 6h-1l-3-1-2 1 1-2-7-2zm-46 1v17l-2 12 1 1h-3zm-505 3-1 4-7 6-1 2 1 7-3-2 2-8h-2l5-3h1l2-4zm366 0 1 3-5 7-15 7 1-2 12-7h2l2-4 1 1-1-2zm131 0 1 24h-1zm-166 2 14 14h-1l-10-7v-3l-2 1zm-391 3 13 16h-3l-7-10h-3l1-2h-2l1-2h-2zm582 2 1 2-1 16 1 8-3-1v-20l2-3zm-59 1-1 4-2-1-4 3 1-2zm169 3v2l1 2 4 3-7-4zm-97 1-1 6-4 9 1 1-2 2 1 1h-2l-1 2 2 1h-3zm-281 5 11 4-4-2-6-1-12 10 1 9-1 2-1-11 8-9zm-41 2 1 1-6 3-1 2-5 4 6-7zm-258 2 1 3 2-1 1 3 3-1 6 3-3 1-13-6h3zm505 13 11 2q-13-1-19 4l1-2 7-2zm13 2 5 2h1l3 4h1l-1 2 3 9h-1l-4-12zm-487 1 2 2-1-1-6 5 1 1-3 1v2h-2l-4 3-1 1-4 5v2l-5 3-2 3-1 3-3 1-1 2 1 1-4 2-1 2 1 1h-3l19-25zm295 4 8 17-2-2zm177 0 5 1-11 5v-3zm-266 1v4h-2l-9 22v-1q2-16 11-25Zm281 0 4 4 1 2-2 1-1-3-1-2-2 1zm-27 6 2 2-5 12 2 4h-2l-1-6zm49 1v22h-1zm-246 9 3 2 2 3 1 1v1l1 2 3 1 2 5-8-7zm294 0v3l-4 10h-2zm-23 1-1 2-1 7 1 1h-2v1l-1-1zm-294 1-1 2-6 12h-2zm66 8 1 18-2 3-4 1-19-10q3-5 6 2l12 6h1v1l4-1-1-17zm62 1-9 10-2 2 1 1-2-1-9 7-1 2-1 3-2-1zm12 2 10 9-1-1zm-185 1 1 18-1 2 2 1v2l2 5 3 2-1-1-5-1q-4-8-3-21zm336 1 2 1h1v1l9 5v-2l3 3-2 1zm80 2 5 2-12 6-1 4-2-3h2l-1-3 4-2 5-2zm14 0v2l3-1v2l2-1v2l2 1h1l1 2 2 1-1 2 3 4h1l-1 3-9-13-12-2zm-108 3q17 0 25 11v1q-7-9-21-11h-2zm-125 2 10 8-1-1zm-170 6v2l-18 14 2-3zm-189 6 1 2-7 7-10 7-1 2 2-3 7-6 1-3v2l3-2zm432 10 13 5h-2zm-10 5 23 6 2 5h-2l1-2-2 1v-1l-1-3-22-4zm182 0v3l-6 7-2 1 6-7zm-51 10 12 7h-3l-9-5 1 3-2-3zm29 4 3 1-17 3-1-2h2zm-87 17q12-1 17 7l1 12-5 7q-8 8-25 6l-11-5-1-10 6-8v2q-6 2-5 13l5 5 5 1 2-1v1l-2 1h11q12-2 17-10l2-8-6-10-9-2-8 3-3 1-5 2-1-2zm99 7 1 2-3 1 1 1-3 1 1 1h-3zm-126 7v4l-1 7 1 3h-1l-1-10zm119 2-4 5-21 15 1-2 2-1v-2h3v-2l3-1h1v-2l3-1h1l1-3h2l3-2v-2h2zm-118 13 8 7h-1l-6-3z"/><path fill="#232b34" stroke="#232b34" d="m758 717 2 1-13 5v-1zm-638 5v2l-5 9-1-1zm625 0v2l-10 1-3-1h-4l4-1h2zm-705 5 18 9h-2zm712 16 6 2-12 1v-1h6zm-568 1-4 5-2 2-6 11-1-2 11-15zm38 24v3l-5 19h-2zm82 12 11 2-18 3h-2v1l-2-1-1 3-5 3 1 1h-2l1 2h-2l1 3h-1l-1-3 7-9zm429 6 3 13 1-2v5l-2-2zm-390 10 25 20-2 1v-2l-2 1v-2l-2 1v-2l-2 1-2-4zm95 126 11 12zm-253 137 9 16 2 1v1l1 1h-3zm442 9 1 1-19 14-1-2zm-50 28-1 2-1 6 4 14h-1l-4-18zm102 1 1 2-36 16v-1zm-457 23 5 3 10 5h-1q-12-1-14-8Zm392 6-1 2-16 6h-8l-3-1 3-1 5 1zm-335 1v2l-2 2-17 1v-1q13 2 19-4Z"/><path fill="#0d334b" stroke="#0d334b" d="m262 8 3 2-4 6-3 1-2-2zm6 29 8 3 1 4-2-2-7-4-2 1zm8 31-1 2-2 3-14 8-1 2v-1l4-6zm297 8 4 20-1 2-2 1-3-21zm-349 32 3 2-3 2-2 4-11 8 11-13 2-1zm332 35q6 7 5 19l-4-1zm-371 13 1 4-6 7-1-3zm440 16 4 4 8 14-1 2-3-1-5-10-7 2-2-2 4-8zm-56 2 9 8 1 5-4-1-7-9zm39 165 4 15-1 2-3-1-2-14zm-416 54 3 2-4 6-32 16 2-4 15-9 4 1 5-6zm418 6 2 3v2q1 11-5 15l-2-6 3-11v-2zm-4 29 3 2-5 8-3-1 2-8zm-467 9 2 3-4 15-4-4 1-2q-1-9 5-12Zm500 30 3 2 5 10-4-1-6-9h2zm-499 11 5 5 3 7-1-1-6-3-1-3h-2l2-3zm391 26 1 1h-2l-2 5-11 6-3-1v-2l-2 1-3-1 2-3zm-201 10v2l1 1h-1l-2-1-4 2 1 1v-3zm302 2 1 1h-2l-3 5-19 7-1 2 1 2-5 1-1-7 4-5 10-2 2 1zm-316 1v2l2 1h1l-3 1-27 9-3-1-1-2q12-9 31-10Zm464 0 3 1 1 3-2 1v2l-4 10 1 3-2 1-5-6-14-4 5-2q11-1 17-7zm-315 3 18 2-4 11q-8-5-21-3l-2 1-7-3-1-3 2-4h2l6 1zm-300 2v4l-3 19 1 7h-1q-4-8-3-21l3-6v-2zm362 5 21 19q2 4-2 3l-10-7-5 2 3 9-2 5 1 1-4-1-2 1v-2l-1 2-1-1 1-2h-2l1-2-8-20 7-4 2-2zm-268 11 4 1-1 3-13 5-1-2 2-3zm112 3 2 1 10-1q14 2 21 11v1l2 1h-3l-3-1-5 1-15-5v-2h-2l-2-1h-1l-4-1 2-1zm-138 12 4 1-8 6-1 4 2 6-2 3-4 1v-1q-2-14 6-18zm184 0 23 2 2-1v2l-8 14 1 1-2-1-6 4h-3l13-11-18-3 3-1-3-1-4 1v-1h1l-5-3h2zm181 4-1 4-1 2 1 1-11 8-1 5 6 6 2 2 2 2 2 2 1 7-2 3 1 1h-2l-3 1-3-1 2-6-2-4-3-2v-2l-11-8-3-5-11-8-2-6h5l10 8 8 1zm-103 1 1 3 2 1h1v2l-3 1-4-2zm-317 16 24 10-1 2-12-4-3-1-8-5zm361 1 3 8-1 2 1 6-4 3 2 3h-2l-2-6-1-6-1 2-1-1 1-5-1-3zm-122 9v3q1 10-4 14l-3-1-2 1zm101 1 3 2-1 3 3 1-1 2h2l-1 3 2 5-2 1-7-14 2-1zm26 23v4l2 2 1 6-1-1-2-1h-1v1l-1-1 2-3zm-81 2 1 2 1 2-1 2h-2l1 2-1 2-2 1v3h-2l1 2-1-1-3-1 4-11zm-135 2 4 2-2 1-3 1-1 1-5 3-3-1 2-5 5 1zm274 3 2 3h1v1l8 6 2 3 2-1v2l6 5-2 1-23-16 3-3zm-198 5 1 8 1-3 1 7-1 8zm123 0 3 2 1 1 1-2v7q-4-1-2 5l1 5-1 3-4 2-3 4-2 1 1 1-3-2-2 1 1-2-2-1v2l-3-1v2l-17-10 1-2v-2l5 1v-2l13 7h7l3-2 2-13-1-2zm304 8q14-2 18 8l1 2-1 2 2 4h-2l-6-11-11-3v2l-5 3-1 3-1-2h-3l4-6zm-379 7-14 15-3 1-1 2h-2l-4-2 2-5 7-2v-2h2l4-1 2-1-1 2zm100 4h2l3 2 7 33-1 3h2l-4 2-3-1h-2l-2-11-1-3-2-11 1-2-2-2 1-3h-1v1l-1-2zm-297 3 2 1-2 5h2-2l-2 2-2 3-9 5-1 2v2h-2l-2 2 1 1-4-1 3-7 10-6 6-7zm627 2v6l-5 9-1-2 3-12zm-475 3v3l2 3 5 2h1l3 3 1 4-3-1v2l-3-1-2 1-3-4h-2l1-2h-2l1-7h-1v3l-1-5zm-119 13 4 4 1 4h-2l1 5-2 2 1 2h-2l-6 21 1 1h-3l1-2-2 1v-1l4-23-1-6 2-4v-2zm-143 18 1 6-3 5-2-4 1-3 1-2zm457 24 14 3h1l2 1h1v2l-4 1h-5l-1-2-5-2-2 1zm-36 4 1 2 2-1 1 2 1-2 2 3 6 31-3 5-2 1 2 8h-1l-1-3 1-2-2-6-1 2-1-1 1-4h-1v1l-1-2 1-3h-2l1-5h-1v1l-1-2 1-3-2-1 1-3h-2l1-5-2-1 1-3-2-2 1-3h-2zm269 5v2l-3 4-4 2-5 1v-1l2-3zm-151 16 1 2h1v2l8 10-10-6-2-4zm-412 9 3 1h1v2l1 5h-2l1 5-1 3-2 2 1 3h-1v-3l-1 5 1 2h-1v-2l-4 12-8 2-3-1-2 1-3-1q-2-6 8-3l2-1 4-22zm-167 26 3 2 9 17h-2l-2-2h-3l-4-6z"/><path fill="#0d334b" stroke="#0d334b" d="m239 762 12 4-2 3-2 1-11-5zm69 11 8 2v-2l4 1-1 2-2 1 1 1-6-1h-2l-4-1 2-1zm379 3v6l-3 6h-2v1l-1-1zm-102 7 4 1h1v2l6 23-1 6 3 16-5 3-2-5-1 2-1-1 1-5h-1v2l-1-2 1-3h-2l1-6h-1v1l-2-8 1-2-2-4-1-4 1-3h-1v1l-1-2 1-5v-2l-1-3zm-365 7 14 7-1 2-7 1-13-4 2-3zm526 2 1 7-2 10v4h-2l-4 3 1 1-4-1 1-4-7 1-1-6v-2l-1-8h3l5 10 5-1zm-396 1v2l4 1-1-3 4 6 2 1 2 1 1 1 2 1 1 1h1l1 1h1l1 1h1l1 1h2l13 3 1 2h1v2l-2 6-12-3-22-17-1-2 1-2-3-1zm-195 2 11 2 1-2 2 1 2 1h-2l-2 4h-2v1l-2-1-2 1-10-3 1-3zm136 28v2l21 8 1 2 1-2 1 3-13 3-8-4 1-2-2-1-4-1 1-2-1-2zm60 10 10 2-2 1 1 1-3-1-7 2-3-3zm-98 6-1 2 2 8h-1v-2l-1 5 2 2 2-1 1 2h2v1l3-1v2l2-1v2l3-1v2l5 1h1v1l3-1v1l-2 1 4 2v1l-3-1-12 3-19-10-1-3 1-3 1-3 4-8zm346 4 2 1 3 8-1 3-3 1 1 1-2-1-8 5 1 1-7 2-23 11-1 3 1 2-1 2-8-4h-9l-3 2-2-1-4 2-2-1-3 2-19-1-5-2v2l-1-3 25-4 2 1 3-2 8 1 3-2v-2l4-2 3-1v-2l3 1 1-2 2 1 1-2 2 1 1-2h4l3-2 2-1 1 1 2-2 1 1 1-2 2 1v-2l3 1v-1h-2l2-1 3 1 1-3 3 1v-2l3 1 2-4 1-1 1-3zm-311 23 3 1 6-1v2l4-1v2l4-1v2l4-1 2 2 2-1 3 1 2 1v1l4-1v2l22 4 2 3-15 1-15-1-6 4-5 8-4-1 2-5-1-3 1-3-14-9-2 1 2-4zm192 14 3 2 2 2h-2l-3 2-1 2 1 1-4-1-10 3-5-1q-13 0-18 7l-4 7-5 4v2l-3-1-2 1 6-12-2-5-4-1h-3v-2l-4 1h-3v-3l-7-1-1-2v-1l5 1 2-1 3-1 5 1 12-1q-1 4 7 2v-2l14-1 7 2 3-1v-2l8 2 5-1zm-113 1 12 2 7-2v1l-2 1 5 2h-3l-9 2h-2l-4 1-3-2-2 1-3-2-2 1zm-64 14 2 8-9 17-4-1-2 1 6-17zm262 5 5 1h1l1 1h1l3 5 1 3 2 2 2 15-1 2h-2l-1-3zm-149 33q4 2 2 10l-11 14-7 3-1-2 15-21h1v-2zm23 1q11 2 16 11l24 28 2 1-1 4 1 1-7-1-2-3-3-2-3-6-2-1-2-4-3-1-1-3-2-1-6-5-4-6-2-1-4-3-4-5zm-173 16 1 3 2 3-2 3-4 2-1 2 1 1-3 1-6 5-3 5h-2l-5 3-4-2-2 1 2-4 11-8 4-5zm327 3 10 10 12 29-4 6zm-380 46q4-1 2 9l-1 4 13 29 3 1h1l3 4 3 3 1 1h1l-2 5-5-2-24-33-3-2-2 1 1-2v-2l3-10 4-5zm148 2h2l6 2v2l-3 2-1 2-17 14-1 2-2 1h-2l-1 3-13 6-2-3 31-26zm135 0 5 3h1v2l5 14-3 1-2-5-3-1-1-5-4-7zm127 25 8 4 1 3 2 1 2 11-1 6 1 1-3-2zm-109 8 7 2 4 14-7-4zm-218 18h2q7-2 7 2h2l-5 3-1 2-22 10v2l-4-1-5 1 3-4 7-3 3-3 5-3 5-2zm326 12v3l-1 4-17 8 6-7zm-439 2 4 4 3 9-3-1-2-6-2-1-2-3zm517 2q6 3 5 14l-4 3v-2l-3-13zm-159 7 7 6 4 8 2 1-1 2 7 3-11 2-12-20zm-274 20 11 4 2 2-1 2-15-6zm349 34 5 1-4 3 1 1-2-1-14 4-2-3z"/><path fill="#1b3244" stroke="#1b3244" d="m373 21 8 2v-2l15 3-1 1-34 8-2-3 2-4 2 1 2-2 2 1v-2l6-1zm138 2v2l5-1 1 2 3-1 2 1 1 2h1l2 5-5 1-21-6 1-3zm-212 1 1 2h1l-1 2 4 2v2l3 4 3 3 2 3v1l6 1 5-3 5-1 3 3-1 1-14 6-5-2-1-5q-10 4-8-3l-2-5h-2l1-2-4-7h2zm252 17 1 3 4 3 4 5-4 2-6-3-1-3-4-1 3-5zM275 71v2l-13 8v-1zm295 2 3 2 1 1 2 1-5 1 1 19h-1l-2-6 1-7-2-3 1-3q-4-3 1-5ZM231 99l6 4-17 18-5 2 6-7 2-1 3-5 1-2-3 2-13 11 5-6 6-6 3-5 1 1zm332 21q5-2 3 5l1 1h-2l-1 2v2l-2 1-2 4-5 1-3 1-3 1-5-2 15-11zm-10 19 5 5h-3v4l-2-3 1-3zm-135 3 7 2-1 1-9 3-3-1h-3zm-224 5 2 2-14 20-4-1 1-2 3-1 4-7v-4h1l-1-3h2v-2l2 1zm338 18 10 4-13 1-4-1zm-77 5 10 2-2 2-36 8 1 1-5-2 2-3zm172 1 5 7 3 3 1 2-6-3-2-7h-3zm-61 6 9 8 2 2 2-2-1-2v-4l7 12-5 2-7-5zm58 4 6 3 5 8 3-2h1v1l1 2-1 2 2 1-1 3h2l1 12-2 8-1-2q-6 3-5-2l-2-9 1-4-2-3v-2l-1-2v-2l-4-9-2 1-6 4-1 3-1-2-1 4-6-1 2-3 8-5h2zm-463 16 4 3-9 29-3 2h-1l2-11-1-4h1l1 1v-4l1-2v-2l1-1-1-2h2l-1-2h2l1-3v-2h1zm190 9 4 3-1 2-25 12-2 2-12 5-3-1 2-5zm9 4q8-2 8 2l3 5-6 14-4-1v-17l-1 4-1-5h-2zm32 19 35 20-2 1-2 1-17-5-1-2-16-11 2-3zm239 0 1 4 1 3-4 2-1 3 4 2-5-1-5-1zm-390 13 2 2-7 8-3-1 2-5q5 2 4-2zm-86 1 5 3 15 19 9 7-1 2-2 1-1-2-5-2-2 1 1-2-2 1-5-3v2l-3-5-4-1v-4l-2 1v-4l-2 1 1-2h-2l1-2h-2l1-3h-2zm207 0 3 2 1 2-4 16-2-3 1-3-1-6zm244 8 5 1-1 4 1 1-10 5h-2l-2 1-2 4-2 2 3 9h1l2 11-1 4h2l-1 3 1 2h-1v-2l-3-1-2-2-6-16 2-7-4-11zm-379 2 4 1-5 8-1-2 2-5zm42 2 2 6-37 30 1 1-6-1-4 3-3-1 1-3h-2l-3-5 1-2-2-1-4-6-7 1-1-3 3-1h2l12-8v4l-1 5 5 9 6 2zm203 7 12 1h2l16 2 10-1 3 1 29-1 3 1 5 3-2 3-3 1v-2q-17 5-40 3h-2l-12-2-3-1-17-2-3-1-3 1v-1l2-3zm-252 59 1 2 1-2 3 13-9 33q-7 2-4-6v-2l2 1-1-8h4l-2-3 2-10v-2l1 1-1-6h1l1 1v-3l-1-2h3l-1-3-2 1zm115 2 2 3v2l-3 2v4l-3 2-3 2-2-5 5-2 2-6zm272 7 2 4h1l-1 3 2 1-1 3h-4l2 13-2 1 1 2h-1l-1-2v-14l-1 2-1-1zm-319 32 10 5-3 1-3-1-6-3zm-47 6 3 2-2 6 1 1h-2l-5-1 1-3 2-3zm-49 20 1 2-7 5h2l3-2-5 6-3 2-3 4-4-1 10-7-1-2zm2 9 1 1-5 6-13 6-2 2-5 2v-1l22-13zm-25 10-1 2-9 5 1-2zm69 0 5 4 1 7-3 1-3-1-1-5h-2zm11 20 9 5 1 2-5 1-4-2 1-2-4-2zm358 8v3l1 1-3 1v2l-1-3-2 3-1-2 1-3 2 1zm192 1 1 2 2-1 1 5-4 18-3-1-1-7-3-1 3-1 1-6v-2l1 1-1-2h2l-1-2zm49 1-1 2-1 2 2 13-1 9v2l-4-1 1-2 1 1-1-6 1-2-2-4 1-4-1-3 1 1zm-124 34 3 1 4 1q0 11 9 15 9 1 13-4l2 4 2 1-1 2h2l-2 16 1 6-2 4-4 1v-4l-1 2-1-9-1 5-1-8 1-5v-3l-6-1v1l2 1-4 1 1 3h-1v-3l-1 7 1 6h-1v-5l-2 8-3 1 1 2-1 2q-4 1-2-8h-2l2-5-2-10h1l1 1v-5l-3-1v-4h-3 2l-1-3-2 1 1-3-1-3-2 1 2-4 1 2v-2zm88 19 1 2 5 2 1-2 1 5h-2l2 1-1 2v1l-1-2-2 7 1 1-3-1-1-7 2-3-2-4-1 2-1-1zm-201 29 1 2-8 4-2 1-2-4 3-1zm18 2 1 1-7 4 1 1-3-1v2l-5-1v2l-4-1-4 3 3-4 15-5zm-318 1v2l-3 1 1 1-4-1-6 3 1 1-3-1v2l-3-1-2 1 1-2zm453 0 9 2-10 1v-1h2zm-15 3 1 10h-9l7-1zm60 1 2 5-4 5-2-1 3-1-1-6zm-278 1 11 10 4 6-10-10-7-4zm244 9 4 2 2-1-1 2 3-1v1l2-1v2l8 3 2-1v1l-2 1 3 1v1l4 1v-2q-1-5 4-3l-5 10-15-6zm-46 15v3l4 2 1 5-2 7-3-1zm-501 4 1 1q-6 3-4 14l-2 1 1 2-1-1h-2v-2l1-3 1 1-1-7 2-1zm367 2 1 2q-5 8-18 9l2-2zm-28 4 9 4 2-1v1l-4 2zm-4 4 12 12 6 6 5 4q-5 4-11-6v-3l-2 1v-3l-2 1zm24 13 3 2 2 2 3 5-2-1-1-3zm116 7 6 4 1 2h1l-2 3-17-6zm34 26 1 8 1-2 1 3h-3l-1-2zm-165 5-1 4-3 1 1 1-3 1 1 1h-3zm-48 8q6-2 3 10l-3 5h-4l4-3zm310 1q11 1 16 8l2 5 1 3 2 1-1 9-4-11-1 3-7-9h3l2 3h2l-5-7-13-2-7 4-1-1zm50 13v6l-1 2 1 1-2-3-2 1 2-5 1 2zm-324 4v3l-1 4 1 3v1l-2-9zm288 14v3l-3 1-1 2h-2v1l-3 1-11 3-3 1-2-1-2 1-7-1 28-6zm-128 47 2 12q6 6 20 5l7-1v3l-3-1v2l-10-1-3 2-4-2-2 1-1-2h-3l1-2-6-3v-2l-1-6zm44 40 2 2 1 2h4l2-1v3l-20 5h-2q-8 1-9-3l2-3v-2l6 1 14-2zm-539 32-1 2 1 2h-2l1 6v2l-1 3-5 1v-1l4-14zm462 0 3 2-1 2 1 1h-2l-1 6-2 1 1-2 1-8h-1l-1 2-2-1h2zm41 10v3l4 3 3 10-1 2 2 2h3l2-1v2l-5 1-6-12-2 6 1 2h-2v-11h2zm-376 13 7 8 8 6v1l-7-3-3-4-8-5zm-49 30 8 4h-2l-6-3-2 1zm140 68 2 1-1 2-2 2 1 1-3 1 1 1v-3zm-7 42 8 7 2 3h1l5 7zm15 0 6 7-1 1zm-176 193 3 1 1 6h-1l-2-2-6 2v-2l-5-1z"/><path fill="#744d42" stroke="#744d42" d="m271 13 2 1-9 6 5-6zm10 2 8 8-6-6zm151 10 25 1h-25zm126 18 7 8zm-9 8 8 9zm18 31v17h-1zM247 98l-12 13zm-16 16-13 14zm330 2-1 2-9 12 2-3zm-351 21-4 5-4 5 3-4zm-12 15-3 4-9 14v-1zm333 7 20 1h-20zm-199 11-1 2-10 5 1-2zm177 2 48 1 11 11 13 13q6 6 20 6 15-2 21-13l2-5 2 2q7 9 6 26-2 19-14 28-41 27-113 22-88-8-134-56 57-30 138-35Zm6 5-54 5-27 5-39 14-12 8 2 5q19 18 46 28 37 14 86 17l15-2 4 1 47-5 32-16q10-8 13-23 3-14-3-19l-16 12-9 2-17-3-4-2-11-13q-6-10-19-13zm-337 6-1 2-4 9-1-1zm118 8-1 2-9 6 2-3zm-15 10-2 3-8 6 3-4zm76 11q4-1 2 5l1 11q-5 89-59 130l-5 2q-10-11-33-9-15 3-23 13-11 10-11 33 3 27 22 40 9 9 30 8l9-2q14 24 36 42l5 5-7 20q-63 13-104 48l-1 3 2 9-14 8q-24-3-34-19-6-8-6-22l2-9 14-25q-21-5-33-19-10-10-9-30 4-20 19-29 26-12 45-32l14-25 14-64 11-17q48-45 113-75Zm-5 9-54 29-43 33-16 21q-6 41-19 75l1 3-1 2-1 3-1-1-2 1-8 10-36 27-2 2-11 7-12 16q-2 21 8 32 9 13 28 17l4 8-1 9-3 2-9 15q-3 18 6 26l5 3 1 4 13 7 13-2 3-3 2-12q39-36 100-50l5-10-1-7-4-2h-2v-1l-10-14-7-7-4-5q-3-8-15-5h-2q-18-3-28-12-23-16-26-51l1-2-1-5 2-1 12-23q9-13 30-16 13-1 21 5l3-1 4 2 7-1 4-7 1-3h2l6-3q16-16 25-39l12-36 4-37zm-100 3-12 13zm121 0 4 5-5-3v12l-1-12zm-79 8-1 2-9 6 2-3zm-64 14-12 13zm37 5-3 4-5 4 4-5zm-98 2 6 7 8 5h-1l-12-8zm437 116v22h-1zm13 4v15h-1zm217 42 1 1v15l2 30q-3 12-12 18l-14 3-9-5q-5-8-3-21 5-21 20-31zm-4 9-9 6q-17 9-18 34l3 9 4 2 15-4 9-15-2-30zm-88 15q11 11 10 34l-6 12-6 1-6-4q-5-7-3-20zm-1 10-6 10 1 18 7 3 5-7q2-14-3-21zm-138-9 2 2 22 23 3 4q10 6 9 24l-11 17-11 6-22 4 2 21-7 16-16 7-16-13-1-2-36-31 2-3q36-15 60-43zm1 13-19 26-14 11-12 13-23 12-3 6 24 19 10 13 8 6 9-3q9-8 8-25l-1-2 2-13 21-4 11-7 9-13q1-15-7-20zm-288 6 15 16zm257 4-14 15zm-90 63 2 1-3 1 5 6-3-2-3-4zm-52 2 13 1-5 10-1-1 5-7zm293 20v22h-1zm24 12v20h-1zm-263 8 3 2h-1l-2-1-6 5 3-4zm250 1v42h-1zm72 1v2l-2 11 1 2h-1l-1-8zm23 62q12-2 15 7l2 14-4 6-21 7h-10l-6-4-1-4 5-6 13-7 2-8 1 1-1-2zm-594 19-14 15zm618 47-12 13zm-206 7 19 1h-19zm85 51 6 1h-5v20zm-431 26q15-2 23 4l27 24 15 8-1 2q-16 11-41 12-25 0-35-14-9-5-7-20l6-10zm-3 6-8 4-4 6q-2 10 3 15 8 11 25 14l6-1 7 1 27-6 1-4-30-26q-11-5-27-3Zm-161-3q12-2 14 5l-4-4zm275 110 18 2-1-1h-17zm37 41 16 17zm-182 6-7 8zm12 6-13 14zm-27 9-7 8zm10 8-11 12zm121 26-7 8zm-147 53 11 12zm-8 12 8 9z"/><path fill="#814a36" stroke="#814a36" d="m511 140 16 1h-16zm-10 19 22 1h-22zm14 18 34 1q13 3 19 13l11 13 4 2 17 3 9-2 16-12q6 5 3 19-3 15-13 23l-32 16-47 5-4-1-15 2q-49-3-86-17-27-10-46-28l-2-5 12-8 39-14 27-5zm-163 44 4 3-4 37-12 36q-9 23-25 39l-9 6-4 7-7 1-4-2-3 1q-8-6-21-5-21 3-30 16l-12 23-2 1 1 5-1 2q3 35 26 51 10 9 28 12h2q12-3 15 5l4 5 7 7 12 15 4 2 1 7-5 10q-61 14-100 50l-2 12-3 3-13 2-13-7-1-4-5-3q-9-8-6-26l9-15 3-2 1-9-4-8q-19-4-28-17-10-11-8-32l12-16 11-7 2-2 36-27 8-10 4-3 1-2-1-3q13-34 19-75l16-21 43-33zm480 203 2 2 2 30-9 15-15 4-4-2-3-9q1-25 18-34zm-89 25 4 3q5 7 3 21l-5 7-7-3-1-18zm-137 4 23 19q8 5 7 20l-9 13-11 7-21 4-2 13 1 2q1 17-8 25l-9 3-8-6-10-13-24-19 3-6 23-12 12-13 14-11zm-255 64 10 8-1-1zm352 88-1 2-7 6 6-7zm-216 5 7 10-3-2zm9 10 8 8-2-2zm-80 3 1 22h-1zM301 788q16-2 27 3l30 26-1 4-27 6-7-1-6 1q-17-3-25-14-5-5-3-15l4-6zm-98 238 1 1-18 13v1l-1-1zm-14 30 8 17-2-1z"/><path fill="#de4d3d" stroke="#de4d3d" d="M462 28q23 0 38 9l3 5h1q0-4 11-2 11 1 16 8l-1 4h2l1 5 7 2-1-1 1-2 2 3q13-2 16 8l4 15h-1l-3-2-3 9 5 6 3-2q1 21-12 29l-8 1h-2l-5-2-5 1 3-2 5-3-3-2-5-3-1-2h-2l-3 5q-8 1-9-3v-2l-3 1 2 8h3l1 1-3 2-3-1-7-1-20 2-2-1-19 3-3 1-40 7-31 9h-2l-29 9v2h-2l-42 24h-2l-1 1-25 11v2l-3 1-6 3v-1l1-1 1-4-4-2-16 6 4 1q5 3 0 5l-2 3 7-1 3-5 3-1-1 3-3 2-4 6-4 2-5 7-6 3-3 5q-9 12-25 17l1 1-3 1-4 5 1 1-3 1-1 1v2l-7 11-18 1-11-7-1-2h-3l2-3-5-1-1-3q-8-5-6-18l3-5 1 1-1-2 5-1-1-6 1-3h2l-3-1 4-2-1-3v-1h1l-2-4q2-19 14-29l2-1 1-2h2l1-1 7-7 7-17h1l1-3 3-4 1-2 8-7 2-2 16-14 10-14 14-9 1 1 2-3 3-2h2l6-3 1 1 2-2 2-4 2 1 2-1 2-4 4 1-1-3 1 1 2-3 3-2 3-3 18-10 8-1 3-1 5 1 2-3 4-1 3-2q19-12 49-13l1 1 2-2q13-6 33-5l24 1 5-1zm-77 103-1 7v1l4-1 2 1-2-3q2-7-3-5Zm-33 12-2 5 4-1 5 2 5-2-1-2-3 1-4-1zm-161 75-1 4v2l-1 2 1 2 5-2-2-2z"/><path fill="#de4d3d" stroke="#de4d3d" d="M462 147q23-3 35 6h1l-3 3q-20 7-47 6l-2-6-11-2 3-2zm-79 21-1 4 3 4 11 2-9 4-4 2-5 2-3 1-5 2h-2l-1 1-32 13-1-3-8-4-6 2 1-2 18-11 1 1 2-3 18-8 3-1zm-99 53 2 1-3 2 2 2 4 1 4-1-2 4h-2l-2 3-24 15 1-6q-7-1-6 4h-1l10-12 6-3 6-7zm108 304 19 5h-4q-13 2-15-5Zm-10 6 9 3 2 1v1zm40 11 5 2 2-1 5 1 1-2v2l-12 1-4-1zm36 15q3 5 15 2l2-1q-3 5-12 4zm-16 23-3 4-3 7-3-2 7-8zm55 1 7 11-5-4zm-42 5v11l-8 17-1-1 3-11-5-3-1-3 1-6 6 1 3-2zm27 1 4 13-2-1-4-10zm-58 19v3l-1 3 3 4 1 2 3 3 2 2 4 2 6-7 2-1 1-2v2l-7 12-8 6 1-2 1-5-2-5-4 2-4-1-2 7-1-14zm90 4 3 15-1 2zm-16 8 11 8-1 1zm245 75 6 1 3 2-1-1-3 1h-2q-12 2-17 9v-3h2v-2l3-2zm13 9v2l-2 5-10 3 2-2 9-6zm-552 328 6 5 8 13-6-5-4-7-6-3-13 10v4l-2-2 7-9zm24 29 8 6 2 2 7 9 3 23-3-2-2-16v-2l-9-12-5-2zm420 12 24 2-18 2-2-1-10 2-5-1h-3zm-442 7v3l4 3 18 31-1-1-5-3-16-27-1-3zm404 10 1 1-24 11v2l-1-1zm30 20-1 2-16 7-1-1q5-8 18-8Zm-368 8 3 6-12 3-7-1 10-2 2 1 3-2z"/><path fill="#e9543b" stroke="#e9543b" d="m558 80 3 2 1 11q-3 5-6-1l-1-5zm-29 29 2 1 3 4 5 1-1 2-7 3v2l-3-1-2 1 1-3-3-2-1 4-8-2-2-8 3-1 4 5 7-2zm-144 22q5-2 3 5l2 3-2-1-4 1v-1zm-33 12 4 2 4 1 3-1 1 2-5 2-5-2-4 1zm78 11q13-2 18 5l-1 3h-2l-11 3h-2l-22 8-2-1-4 2-15 3-7-3-1-3 8-5 3-1zm-153 32 4 2-1 5-2 2-1-1-7 4-1 2-6 1 2-3q5-2 0-5l-4-1zm49 10 9 6-26 12-14 11-9 2-3-1 2-4 2-1 4-2 7-6 3-2 3-1zm-135 22 2 6 2 2-5 2-1-2 1-2v-2zm159 290q23 16 57 22h2l27 5-2 9-6-1h-2l-4-1-3 1-28-8-1-3-11-2-31-19zm117 30 8 5 2 10-4 6q-13 3-16-2l-2-7 5-10zm21 38 9 7 16 27q-1 11 3 18h-4l-3-1-2-4-11-6q-11-12-15-31l5-9zm-45 4 9 2h1v2l1 3-2 3-4 1-4-1-1 6 3 4 3 2-6 16-6 5-1 2-6-3-2-4-3-1v-2l-2-5 9-19 5-1zm252 20 3 2-2 3-3 2-3 5-8 1 4-11zm-265 23 2 8-3 4-5 1-3-1-1-5 2-6 4 1zm317 72h2l5 3 2 4-4 5-12 5-11-2-1-2 5-7zm-545 338 7 5 22 28 11 10 2 4-1 6 2 11 7 6 19 13-1 6-3 1-7-1-5 1q-19-1-29-10l-4-11-14-21-2-2-16-28-1-8zm467 40 18 4 1 5-1 2-8 4-1 2-26 14-20 5q-13 12-35 15l-6-1-5-20 1-3 19-7 29-18h2l8 1 8-2 4 1z"/><path fill="#db5b4b" stroke="#db5b4b" d="M269 15h2q11-1 15 7l2 2h1l1 3 4 5 1 1v1l1 1v2l4 8-2 3-3-1h-3l-3-5-2 1 1-2-4-3-2 1 1-2-6-4-2 1 1-2-4-2-2 1 1-2-8-4zm3 5-1 1-2 3 6 2h2v-3l-2 1v-2zm156 6q45-2 79 8h4l3 2h2l4 2h2l13 5 1 2h1l2 1 8 6 2 1 2 1q18 13 15 47l-9 21-3 2-4 6q-32-6-72-3l-52 9h-2l-10 3h-2l-2 1h-2l-32 11-5 1-3 2h-2l-3 2h-2l-61 31-4 4-14 8-4 4-32 25-14 16h-2l-1 2-8 9-2 2-3 4-4 3-1 1q-7 5-19 2l-19-8-2-3-1-3-2-1q-8-10-5-30 7-30 22-51l46-58 4-2 33-28 1-2 1 1 2-2 2-1 1-2 4-2 1-1h2l2-2 4-2 2-2 36-19 3-1 57-17h2zm-3 3-55 9-25 10-3 2-4 1-2 3-5-1-3 1-8 1-18 10-3 3-3 2-2 3v2l-4-1-2 4-6 4-2 2-1-1-6 3h-2l-3 2-2 3-1-1-14 9-10 14-15 13v2l-1-1-2 2-8 7-1 2-3 4-1 3h-1l-7 17-7 7-1 1h-2l-1 2-2 1q-12 10-14 29l2 4h-1v1l1 3v2l-3 1-1 3 1 6-4 2 1 2-5 3q-2 13 6 18l1 3 4 1 2 3 1 2 11 7 18-1 7-11v-2l1-1v-2l6-4-1-2h2q16-6 26-18l3-5 6-3 3-4v-2h2v-1l1-3 3 1 4-6 3-2 1-2h2l7-4 3-1v-2l25-11 1-1h2l36-21-1-1h2l5-2h2l-1-2h2l28-9h2l31-9 40-7 3-1 19-3 2 1 20-2 7 1 3 1 1-3 9 2h2l2 1 6-1 5 2h2l8-1q9-6 12-19 1-22-5-36l-2-1v-1q-3-7-13-7l-4 1h-2v-2l-4 2-2-1 2-1-1-5h-2l1-4q-8-10-27-8v2l-2-5-1 2-1-2q-13-9-37-8h-4l-5 1z"/><path fill="#db5b4b" stroke="#db5b4b" d="m494 140 51 2 5 17q-41-3-74 3-48 7-87 22-90 35-155 93l-2 4-3-1-1-3h-2l1-2h-2l3-6 5-7 5-4 11-13 1 1 11-12q22-22 51-36l2-2q69-49 180-56Zm-32 7-24 5-3 2-1-1-41 11-4 2-26 8-3 1-18 8-2 3-1-1-18 11-2 3-10 7-2 2-2 1h-2l-3 2-3 2-2 3-4 2-4 3-8 3-6 7-6 3-10 11 3 4 27-16 2-3h2l2-5 3-1 1-2 9-4 2-4 3 1 15-9q23-5 41-16l1-1h2l5-2 3-1 5-2 4-2 16-7 3-1 2-1h2l34-10h2l41-4 9-3-1-2 1-2h-1q-11-9-33-5Zm-89 237 1 1-11 8 6-7zm-32 116 55 23 45 6 2 4-6 16q-63-7-98-41l-1-3zm9 8-2 2 1 3 39 22q20 2 35 10h11l2-10-58-13zm154 14q7-3 6 3l-12 12-7 1-4-6v-2l1-2v-2zm-43 13q13-2 17 6l3 11-6 10-12 2-11-7-1-5v-2l1-3-1-2 1-3h2l2-4zm5 3-4 1-7 10 2 9 6 4 10-2 5-10-1-5zm21 31 16 14q16 17 17 49l-2 4-26-18q-13-15-16-40h2l2-4 1 1 3-4zm0 7q-7 3-7 13l4 10 2 1-1 2 12 17q5 9 19 9l1-3-2-12-18-32-2-1zm-43-4 15 6 1 3q-4 38-27 57l-5 2-1 3-10 4-1-24q5-35 28-51Zm0 7-4 2-7 8-2 2-12 26 1 17 5 3 13-8 7-12 2-3 8-17-1-12-1-3zm248 14q9-2 12 3l2 1 1 5-1 2-12 9-4 5q-11 1-13-5-1-11 4-14zm2 7-8 2-4 11 7 1 3-6 4-1 2-5zm52 91 12 5 1 9-5 6-18 5-11-4-1-5 9-11zm-3 2-9 5-3 2v2h-2v4l-1 3 3 2 12 1h2l9-3 2-5-1-5-6-5zm-537 332 3 2v1l2 2v1l3 3 1 3 1 1 1 3 2 2 1 3 3 2 5 7 1 1h1l3 4 3 2 7 7q7 4 7 16l-1 4 2 8 5 2 1 2h1l2 1 2 1 2 1 5 3h1v1l6 5v1l1 6 1 2-2 5-24-1-3-1-6 1v-2l-5 1-1-2-3 1v-2l-4-1-2 1-1-3-5-3-23-38 1-2-2-1-12-24-1-9 4-5zm-2 5-10 6-7 9 1 2 1 3 13 20 3 11 1 3 16 27 7 4h2v2l32 8 12-3-1-3-23-17-4-4-2-22-7-9-2-2-9-6-17-24zm448 37q18-2 30 3h1l2 1h1l2 2 5 5 1 5-4 5-4 2-5 4h-2l-1 1-6 2v2h-2v1h-2v1h-2v1h-2v1h-2v1h-2v1h-2v1h-2v1h-2l-9 3v2h-2l-17 6v2h-2l-6 1v2l-2-1-20 7 1 1-6-1-2 1 1-2-2-1-9-22v-4l4-4 3-1 29-15 1 1 2-3 3-2 3-1 1-2 4-2q7-6 23-5Zm-4 4-11 2-51 28 1 10v2l4 10 5 1 25-7h2l60-28 5-6-1-6q-14-8-39-6Z"/><path fill="#fb8a52" stroke="#fb8a52" d="M579 363q16-4 21 5l2 10-1 2 1 2-4 19q-6 6-20 4l-15-7 1-2-2 1-1-2h1l-4-2-1-12 5-10zm-191 16 9 1h2q15 0 21 10 7 4 5 18l-7 10q-11 11-35 9-15-3-23-13l-3-13 6-12q9-8 25-10Z"/><path fill="#85bdd1" stroke="#85bdd1" d="m219 108-7 8zm414 134-8 9zM150 416l-8 9zm662 1-9 10zm-177 35 7 8zm167 38 9 4-11 39-2 1 1 2-3 7-16-7zm-661 1 7 8zm605 5 2 38-9-1 2-36zm-409 26q36 34 99 41l-15 14q-22 22-18 71l6 14 5 2q21-8 35-24 13-15 20-36 7 18 22 30 14 13 37 19l4-3 1-21q-4-46-32-67l-6-3 2-6 21-16 33 116 42 197q-68 34-172 33-98-2-167-31l10-41 12 3 13 17q14 14 43 13 36-4 57-24l1-5-3-5-23-8-29-25q-10-8-28-7l-22 7-14-6 20-96 11-39 37-26 1-6-1-3-5-1q15-17 13-50zm429 11 2 3-7 14-1-16zm97 13 9 10zm-191 15-13 14zm148 0q24 1 36 16l3 13-9 14-17 5q-14 1-19-7l-5-16h-2l1-2-1-6q1-12 10-16zm-257 7 18 19zm25 5 7 10-9-8zm-391 17-10 11zm377 23-11 12zm-308 30 8 8-7-7-4 3zm386 75 18 1h-18z"/><path fill="#85bdd1" stroke="#85bdd1" d="m231 768 46 18-4 15-45-9v-3l-1 2-1-10zm197 164 29 29-28-28-2 1zm-68 65-9 10zm10 10-9 10zm330 56 7 8z"/><path fill="#e1a66a" stroke="#e1a66a" d="M598 364q8 3 5 16h-1l-1-9 1-2-2-1zm218 178q23 3 35 18l1 3-5 1-10-4-3-1-2 1-4-2-3 1q1-4-4-2l-3 1-11 5zm-74 5 3 1 1 5h1l-1 23-1 5 1 3-5 9-2-27h2v-17h1zm37 5 8 5q-9 36-27 63l-4-1-1-4 16-49zm-63 2q8-3 5 6l1 4-1 3 1 15-1 8-3-1-3-5q-9-8-25-7l2-4 3-1 3-4 15-11 2-2z"/><path fill="#e1a66a" stroke="#e1a66a" d="m801 586 2 2q4 14 14 22 8 5 24 3l17-11 8-14 6 2q5 10 4 26l-5 21-7 2-12-15q-7-6-20-5l-16 7-7 12-14 12-5 10 10 15q10 6 28 4l25-7v3l-18 22-44 30-38 11-30 2-25-10q-7-6-6-21l14-23q5-9 3-24l-6-10q-14-9-34-10l-6-4 3-8 8-1q6 5 20 3l20-12q-1 11 6 15l6 3-4 1 5 2v2l-1-2-2 4-3 2-1 9 3 4 15 6 3 1q25 3 33-11l2-16zm-61 91-19 10q-10 7-13 21l5 15q10 10 31 10l16-5q11-7 14-23 3-15-4-19-9-11-30-9Zm47 4-7 11q-1 11 4 16l3 1q14 2 20-5 8-3 6-15l-4-5zM52 722l32 5 16 7-4 10q-25-7-44-19zm139 35 5 1h2l10 4h1l2 1 4 3-4 18-7-1-3-1-2 1-1-2-2 1-1-2-2 1-7-2-1-2q-5-2-3-9l5-10z"/><path fill="#dcaa74" stroke="#dcaa74" d="m284 38 8 8-4-4zm531 500q26 5 41 23 21 17 22 56-9 54-43 83-24 22-56 34-23 10-56 8-20-2-30-13-6-7-4-20l16-26 2-18-6-11-12-6q-19-1-31-8l-6-14q2-17 9-28h2v-2l11-16 3-2 2-2q17-18 43-28 4 5 2 16l-1 2 1 3v2l-1 46-2 3-3 2-1 7 3 3 6 1v2l-3 1 1 1-8-5-2-12-14 10-18 2-14-3-4 3-1 6 9 5 22 4 11 8q7 5 4 21-5 18-16 30l-1 11 6 13q13 12 42 10l51-13q30-15 52-38l11-15-4-2q-14 9-38 7l-15-6-7-16 14-16 7-5 7-12q7-6 21-5 13 2 19 12l6 8 7-2q6-10 5-28l-4-19-6-2-13 19q-9 9-28 6l-14-8-8-19-4 2-4 14-19 38-1 14-7 8q-9 7-27 5l-3-1-15-6q-4-2-3-11l3-4 2-1 1 3-4 3 3 9q10 8 31 6l13-7 5-14-1-5zm1 4-9 21 11-5 3-1q5-2 4 2l-11 2-10 13v11l10 21 12 5q17 2 25-5 9-6 11-19l-5-13q-11-11-30-14l1-2 4 2 2-1 3 1 10 4 5-1-1-3q-12-15-35-18Zm-100 12-1 1-2 2-15 11-3 4-3 1-2 4q16-1 25 7l3 5 3 1 1-8-1-15 1-3-1-4q3-9-5-6Zm-23 26q-13 2-19 10l-4 2q-6 5-6 18v2l4 10 2 3 12 5 17-2 7-9 9-6 5-9-4-14q-7-10-23-10Zm142 41-15 5-7 12-8 5-9 11 2 15 14 8q26 2 40-9l8-14q2-16-5-23-6-9-20-10Z"/><path fill="#dcaa74" stroke="#dcaa74" d="m742 546 5 2-1 5-1-5-5 2 1 16h-2v-16zm36 4 11 5q-10 38-28 69l-7-2-2-3q8-39 26-69Zm1 2-8 14-16 49 1 4 4 1q18-27 27-63zm-33 3 2 1v20h-2z"/><path fill="#dcaa74" stroke="#dcaa74" d="m738 568 2 1v24l3-2 3-7-1-3 2-4 1 2-7 20-3-5zm2 109q21-2 30 9 7 4 4 19-3 16-14 23l-16 5q-21 0-31-10l-5-15q3-14 13-21zm2 2-20 10-10 15q-1 10 3 16 6 8 20 9 21 0 31-11l6-13q1-12-4-17-7-11-26-9ZM25 714l21 2 56 15-4 16q-42-13-73-33Zm27 8v3q19 12 44 19l4-10-16-7zm652 32 3 3-9 18-1-1zm-515 1q18 2 29 11l-5 20-14-2 2-2 3 1 7 1 4-18-6-3v-2l-2 1-10-5-2 1-4-1-4 1q-6 4-5 17l4 2 1 2 7 1 1 2-15-6-1-3 8-17z"/><path fill="#c6b38d" stroke="#c6b38d" d="m274 13 7 4-1-1-5-2-4 1v-1zm231 262 40 1h-40zm-178 75-12 13zm485 185q32 8 51 30 17 18 17 54-8 54-43 82-24 22-57 35-22 10-55 8-24-2-35-15l-4-17 18-31 2-13-8-14-31-8-13-6q-6-8-5-21 8-34 33-50l5-4 1 1 2-3 9-6 1 1 2-3 24-11-1 76-7 5 3 6 8 1h-9l-3-8 3-4 2-1 2-52v-2q2-12-2-17l-12 5-33 23-2 4-3 2-11 19h-2l-7 27 6 12q13 8 34 9l11 8q6 5 4 19l-16 28-2 16 9 13q16 12 47 9 65-11 100-52 17-18 26-44h2l-1-2q7-14 6-35-4-35-25-52-15-14-38-19l-42 105 1 3-8 15q-9 6-26 4l-15-6-3-6 2 2q8 11 30 9 10-2 15-9l3-13-1-5q24-48 41-102Z"/><path fill="#c6b38d" stroke="#c6b38d" d="M739 544h9v5l1 34-10 31h-2v-50zm3 2-3 4-1 19v25l3 5 7-21v-4l-1-26zm35 1 15 7-29 74-14-7q10-41 28-74Zm1 3q-18 30-26 69l2 3 7 2q18-31 28-69zm42 9q24 1 37 15l5 13q-2 13-11 19-8 7-25 5l-12-5-10-21v-11l10-13zm0 2-7 3-7 13v6l8 19q5 8 19 7l17-5 9-14-3-13q-12-15-36-16Zm-127 19 14 2 1 2 2 1 1 1 5 4 3 8v1l1 5-5 9-9 6-7 9-17 2-12-5-2-3-4-10v-2q0-13 6-18l4-2q6-8 19-10Zm0 2-13 5q-10 6-13 20l2 14 16 8 12-2 6-8 10-7 5-9-5-14q-5-9-20-7Zm-478 9-18 19zm372 28-16 17zm248 2q14 1 20 10 7 7 5 23l-8 14q-14 11-40 9l-14-8-2-15 9-11 8-5 7-12zm-6 2-5 2q-8 4-9 15l-12 7-5 7 1 13q5 8 17 9 21 0 34-9l8-14q1-16-6-23-6-9-23-7Zm-87 56q19-2 26 9 5 5 4 17l-6 13q-10 11-31 11-14-1-20-9l-3-7 1-3-1-3v-2l10-16zm5 1-21 8-12 16 2 14q5 7 17 9 18 0 29-8l8-13q2-12-3-16-5-10-20-10Zm-73 21 3 2q-4 5-16 2v-1l13-1zm-31 3 14 1h-14zm-506 2-9 10zm-121 5q50 4 89 20l-5 19q-47-15-84-39Zm9 3q31 20 73 33l4-16-56-15zm678 37 7 2-20 42-1-3zm1 3-7 20 1 1 9-18zm-516-1 9 3h-2l-6-1-4 3-6 15 4 5 30 8 5-20-17-8 2-1 18 8q-7 8-7 24l-30-9-6-4q1-14 7-22zm554 3v15l-3 30h-2v-12l-1-32zm-616 19 7 8zm42 6 4 7-4 3v-1h1l-1-3h2zm378 100 4 1h1q43 77 76 165v2l-1 7-9 7v1l-3 1-3 2-1 1-5 2-1 2-34 15h-2l-10 1-3-1-64-106-55-61 13-25q54-1 97-14Zm-232 4 55 8 62 5q-19 40-44 72l-3 2-2 4-2 2-19 20-11 9-2 1-2 3-5 3 1 1-11 8-2 1-2 3-5 4-3 1-3 3-17 10-1 2-8 4-1 2-5 2-1 2-4 3-5 3-5 1v2l-2-1v2q-20-9-32-26-13-12-17-33l64-59q24-25 32-64Z"/><path fill="#fcb16e" stroke="#fcb16e" d="m382 250 5 1 3-1 16 6h2l41 18 3 1 4 2 3 5 3-2 3-1 1 2 4-1 5 2 7-1 5 1 3-1 7 1 3-1 12 1 18-1 6 11 10 2 3 4 2 6-3 1-3-2-7 11 2 7q-2 11-9 16l-4-1q-4 6-13 4l-1-3q-5-6-16-5l-7 4-4-1 1 4-4 1-1 6 14 16 7 4 2 10-12 7-3 11 14 5q16-4 25-16l14-2 4 2 2-1 4-3-2-6 2-3-5-12q14 2 19-4l6-12 2-21-3-10 3-7 9-3 2 1 8 34-2 5 1 4-1 7 3 11q-23-3-33 9l-2 3q-5 4-3 16l5 6q8 9 27 8l9-4 3-8 1 3-11 34-5 4q-1 15-10 21l-6 2-1 4-11 13-14 7-1 3-16 11-38 13-49 5q-26-1-42-12l-5 1q-14-2-22-9l-5-8-4 1-3-2-1 2-18-11-3-8-4-2-4-7-14-8-8-14 1-4-3-10-3-2-5-1-17 8-24-8-9-23q-1-14 8-18l20-5 13 8h2l7 3 12-4 4-5 4-3v-4l10-12q6-9 20-9l3-4 1 3 2-2q-4-3 1-5l3 1-1-1 1-6 2-3-3-1 3-1 1-5q-8 2-4-8l14-30 4-1 1 1 2-3-1-1 3-17v-2l3-8zm57 32-7 6-7-2h-27l-9 5 1 3-6 12-1 3 2 7 4 1h6l15-9 4 1 3-2 3 1 2 4 3-1v2l5-1 2 1 4-2 1-4 5 2 3-6 3-2 1 2 2-5-4-1 2-8-1-3-3 1zm-23 47-2 1-10 13-7 6-2-1-2 6 3 1q5-2 3 4l24 17 3-1 8 4 1-2 3-1 3 1 5-3 1 4 3 1 3-5-3-11-6-6-4-3-6-19q-4-8-18-6Zm-49 12-7 4 1 3v-2l5-2 3 2h2l-2-3zm8 8-2 2 2 7 5-2 2 1 2-4-1-4-3 2 2 3-2 1-1-4zm-14 4v3l10 5v-1l-4-2 1-2-2-1zm27 26q-16 2-25 10l-6 12 3 13q8 10 23 13 23 2 34-8l8-11q2-14-5-18-6-10-21-10h-2zm56 31-1 2-9 5 2 2 12 22 8 5 4-1 17 5 1 3 11 5 3-1 3 1 19-5 1-1q4-6 14-6l1-2 8 3 6-11-3-1 3-10-1-7-5-5-8 1-8 9q-10 8-25 11l-11-1-22-10-6-8-7-5-5 1z"/><path fill="#fcb16e" stroke="#fcb16e" d="M448 366v3l1 2 2-1 1 1-3 1-3 1-2 1-3-1 2-3 1 1 2-2zm154 12 1 4-1 6 1 2-1 2-1-9 1-2zM220 596l2 8-8 4-5 1-3 1 1-5 10-6 2-2zm9 7 4 3 6 12-2 1-1-4-5 1-6-3-3 1 1-2 4-8zm-45 33 5 1-2 5 5-3 5 4-2 2-4-2-2 6 4 1 2-1-2 7 6-1 3 6 7 2 3 8-6 9-3 2-5 3-3-1-2-8-8-3-2-8-5 2-1-8-4 1-2-5zm423 24 10 2 5-1 3 3-1 6-11 5-4 6-6 2-1 2-7 2-19-11 3-4v-2l3 1 16-4 3 1 3-7zm180 21 22 3 4 5q2 12-6 15-6 7-20 5l-3-1q-5-5-4-16zm-115 2 6 2-2 6-2 2-4 6-7-1-1-2 3-1 2 1 1-5 1 1 2-2zm-526 22h3q-2 8 2 7l2-2 2 4 1 3 3 5-3 1 1 3-4 1-4-1q2 6-4 4h-3l1-4h-2v-2l1-2-2-2-6 1v-3zm30 12 6 3 3 7-2 4-5-2-2 1-2-6-4 2-3-4 7-2zm-19 51 5 2 1 13-7 2q-6-5-17-4l-4-3 2-2 4-1h2l9-6 3 1z"/><path fill="#f4b37c" stroke="#f4b37c" d="m382 243 4 2 3-1 7 3 2 2 12 5h2l41 16h1l2 3 15 4 3 2 3-1 11 2 2-1 7 1 3-1 3 1 5-1h2l4 1q6-5 21-2l1 2-2 1 1 2-1 5 2 3 4 2 5-1 13 3h2l11 3 3-1 2 2h2l10 1 9 39-2 13 2 9 3 2 2 3-4-1 1-2-4-2-3-14 1-5-1-3 2-8-8-29-3-1-8 3-3 8 3 14-3 20-6 9q-5 5-16 3l-2-1v2l-2 3 2-1 1 4-2 1h4l2 5-5 2h3l1 4h1v2l-5 3-3 1-3-1-13 1q-8 11-22 15l-3 1-8-1 1-2-2 1-3-1-2-5 6-11 9-4-1-6 1-2-3-2-10-7-10-13 1-6 4-1-1-4 6 1 4-3 2 1h2l5-1h2l7 6q0 3 8 1l4-2 2-2 3 1 7-8v-2l1-6h2l-3-9 7-9 5 2-1-3-3-8q-10 1-13-4l-3-9-24 1h-2l-6-1-3 1-7-1-5 1-3-2-5 2-7-3h-2l-2 1-3-1-1 2-3-1-2-4h-1l-5-1-2-4-40-16h-2l-11-5h-2l-2-1-3 2-5-1-1 3v2l-3 8 1 2v2l-3 9 1 2-2 6-6 3-13 28v8l4 2-1 2-3 2 3 1-2 5-1 4 1 1-3-1q-5 2-1 5l-2 2-1-3-3 4q-16 1-23 12l-10 16-6 4 1 1-12 4-8-4h-2l-12-7h-7l-19 9-2 16 6 13v1l1 3 4 5 16 3 6 4 21-8 2 1 2 4 3 11v2l12 17 11 7 4 5 8 11 15 9 3-1 4 1 2 1 6 7q8 8 24 8l2-1q16 12 45 12 41 1 67-14h2q20-4 31-16l3-5q13-2 19-11v-2l1-2 3-2 3-5 4-2q9-8 11-22l3-3 12-37v4l-4 12 1 2-8 23-3 1 1 3-6 11-2 3-7 8-3 1 2 1-11 12-14 11v-2l-2 3q-17 14-43 19v2h-2l-25 6h-2l-38 2-22-3-22-7h-2l-20-7-1-3-2 1-3-1-1-4-4-1h-2l-24-16-1-2-15-16-2-1-6-10-2-1-4-8 2-5-2-7-6-2-9 4-2 2-14 3-8-2-1-3-2 1-8-6-5-8 1-3-2-4-2-3-2-13 4-11 13-5 3-2 8-1 28 8 4-3v2l3-1 4-2 1-6 20-22 2-1 2-1v1q8 1 10-4l6-12q4 1 2-4l-2-7 14-34 7-4 3-14-2-1 3-4-1-3 3-14zm169 67-4 2-3 6h2l-11 22-2 2-3 1-1 3-3 4 1 3-7-3-2-3-12-8-2 1q-2-4-9-3l-4 2-3 1 1 11 2 1 5 9 13 6-1 2 2 3-1 2 1 2-15 5-2 5 1 7 9 3 16-6 7-10 8-3-1-2 5-4 3-5q1-5-4-3v-6l7-4v-2l9 6 10-2 8-13-1-9 1-4v-2l-1-5-4-10-5-1h-2zm26-37 6 3-1 5-3 4-5 1-1-2-11-6 2-3z"/><path fill="#f4b37c" stroke="#f4b37c" d="m438 283 3 2 2 2h2l3-1 1 3-2 4v2q-1 4 4 2l-1 2-5 4-3 6-5-2-1 4-4 2-2-1-3 1-3-1-4-1-1-3-2-1-3 1-3-1-16 10h-6v-1h5l23-13h2l6-1h2l2-1 2-3 1 2 1 3 4 1 4-3-2-10-5-1-3 2q-5-8-20-4l-9 3-2-1v2l-4-1 1 2h1l-11 10-2 4-1-1 5-10h2l-2-5 9-5h27l7 2 4-2zm-22 46 2 1-10 8-2 8-4 4-2 5 4 4 4 2 4 6 4 2q4 5 15 3l4-5 9-4-1-4-6-2 1-9-4-12-5-4-5-2 3-1 7 6 6 19 4 3 2 2 2 1 3 8 2 1-3 10-3-1-1-4-5 3-4-1-2 3-9-4-2 1-14-7-1-2-7-5-2-3-1-4-6-1 2-6 2 1 7-5 10-14zm32 37-1 2-4 2-2 3 3 1 4-3 3 1 1-2-2 1zm-81-25 2 2 2 3h-2l-3-2-5 2v2l-1-3zm8 8 4 2 1 4 2-1-2-3 3-2 1 4-1 3-8 2-2-7zm-14 4 7 2 2-1-1 1-2 3 3 3-9-5zm243 20v17h-1zm-157 37 11 5 1 4 2 2 10 5 18 8h8q15-3 25-11l8-9 8-1 5 5 1 7-3 6-2 1h2l2 4 1 3-4 2-2 6-7-3-16 8-1 1-19 5-3-1-3 1-28-14-5 2-5-3v-2h-3l-1-4 1-2-4-2-1-2-7-12h-2l9-6 3-2zm1 2-5 2-4 6 1 6q14 16 40 22l1 2q4 7 19 4h2l6-2 1-1 1-3 20-10-2 3 4 1 2-4 1-2-3 1 10-13-2-9-2-1-7 1-6 8q-11 10-29 13l-20-5-2-1h-1v-2l-2 1-12-7-7-8zM225 588l8 11h1l14 26 2-1 3 9-4 6-2-1-5 2-2-1-4 1-4-2-3-5-1 3 1 2-5 1 4 3-5 1-6-9 5-1-1-4 5 4-1-7-6-2-1-2-3-1-6 4 1 3v2l-2 1 1-4-5-1-1-2 1-3 3-1-1-3-6-1q-1-9 4-12l4-2zm-5 8-1 1-2 2-10 6-1 5 3-1 5-1 8-4zm9 7-2 1-4 8-1 2 3-1 6 3 3-1h2l1 3v1l2-1-6-12zm-44 28 3 1 3-1 4 2 5-2 5 3-1 4 1 3v6h6l2 6 2-1-1 2 2 4 2 5-5 12-2 2-8 10-5 2-6-4-6 1-1-2-2-2q5-3-1-6l-7-1-3-7h-3l-1-3-2-7 9-17 2-2 3-4 1 1-1-2zm-1 5-8 12-2 1v2l-2 3-2 1 3 5 4-1 2 9 4-3 2 8 8 3 2 8 3 1 5-3 3-2 6-9-3-8h-1l-6-2-3-6-6 1 2-7-2 1-4-1 2-6 4 2 2-2-5-4-5 3 2-5z"/><path fill="#f4b37c" stroke="#f4b37c" d="M215 632v5l1 4-3 1-4-1 2-8h2zm512 1q15 3 24 14l-5 2-18-5-1 2-2-3 2-2-3-2 2-1-3-2 3-1zm-106 12 3 1 3 1 19 8 4 1v1l2-1 3 2-4 1-2 8-3 2-4-1-4 3-3 4-5-1-5 3h-4l-3 6-3 1h-2l-7 2-1 4-8-1-3-1-20-9-1-5 10-8 2-3 6-3 3-7-1-2 3-2 1 3v2l2 1 2 1 3-4 3-1h2zm-14 15-3 1-3 7-3-1-16 4-3-1v2l-3 4 19 11 7-2 1-2v-6l1 4h5l4-6 11-5 1-6-7-3-3 1zm80 8 3 2-3 12-14 20-21 1-6-1 4-6 1-3-2-8 14-6 3-1 7-2 4 1 4-6 5-1zm-15 15-1 7-2 2-1-1-1 4-2-1-3 2 1 2 7 1 4-6 2-2 2-6zm-40-2 6 2 5-1 1 4-4 1-1 3 2 3-2-2-3-2q1-4-4-2l-2-2zm-483 17h5l9 6 3-1 4 2 2 3 2 2 3 3 7 3q5 4 3 17l-4 2q1 4-4 2l-5 2h-2l-6 2-6-2-5 1h-2l-4 2-3-3 1-4-2-1-4 1-3-1-1-2-4-8-4-1 6-13 7-4 2-3 3-2v-2zm-3 6-12 17 6-1 1 2v2l2 5-2 1h4l4 1v-5l5 1 3-1 2-4-3-5-1-3-2-4-2 2q-4 1-2-7zm30 13-2 2-5 1-3 4 4 2 4-2 2 6 2-1 5 2 2-4-3-7zm-55 32 19 4-2 4-8 4-4 1-5 1-5-6zm25 12 9 2 3-1 6 1 2 1-1 2-1 8 1 2v2l1 6-1 2v2l-6 1-7-5q-14 1-20-4l-2-4 5-3q4 1 2-3l-1-5 3-1 6 1zm11 7-2 2-3-1q-5 7-15 7l-2 2 4 3q11-1 17 4l7-2-1-13z"/><path fill="#f3bc8b" stroke="#f3bc8b" d="M373 227q57 53 172 49l39-5 19 84 2 37q-8 55-42 83-42 42-126 40-79-7-118-54l-17-23v-4l2-7-2-4-4-1q-8 11-29 9-12-3-18-12-10-11-8-33 3-12 12-18 6-5 19-4l26 12 27-25q42-43 46-124Zm4 7-8 46-20 46-15 19-2 1-21 23-2 2-9 7-27-10q-13-1-18 4-9 5-11 17 0 20 10 31 6 8 19 10l14-3 2-2 9-4 6 2 2 7-2 5 12 19 2 1 15 16 1 2q23 20 57 31h2q18 8 44 10 37 1 65-8h2l33-14 26-19q34-28 41-83-5-65-23-117l-17 2-2 3 12 6 3 6-2 5-4 3-20-6h-12l-5-4 2-10q-46 3-78-7l-4-1h-1q-44-12-76-36Zm171 42-8 2-5 6 4 7 7-1h10l12 7 4-1 3-5-2-5q-9-9-25-10Z"/><path fill="#f3bc8b" stroke="#f3bc8b" d="M411 288q14-3 19 4l1 6-3 4h-3l4-3-2-9-13-1q-19 3-28 17l-1 6-1-4 11-13z"/><path fill="#f3bc8b" stroke="#f3bc8b" d="m418 301 6 2-6 1h-2l-23 12v-1q9-10 25-14Zm132 14q13-2 16 6 6 6 5 21l-8 13-12 1-9-6-3-17 8-16zm1 2-4 2-6 12q-1 11 3 18l9 6 10-2 6-9q2-15-4-21-3-8-14-6Zm-134 13 13 2 2 4q7 6 6 20l-9 14-8 1-11-5q-5-7-5-19 2-11 10-16zm1 1-4 2-7 13 3 17 9 6 11-2 6-10q1-14-4-20-3-7-14-6Zm77 6q9-1 10 5l5 9 17 12 1 15-9 12q-6 6-19 5l-6-3-1-5 4-6 13-5 1-8q-12-3-19-12l-3-11zm2 1-4 2-2 6 3 10q5 8 17 10l3 6-1 4q-3 6-14 5l-5 8 4 4q13 2 20-4l8-12-2-14q-5-9-16-11l-6-11zm-50 75 8 5 4 4q10 10 28 13h-5q-19-4-29-16l-1-3-7-1q-5 2-4 10 18 22 59 23 25-3 37-18l4-11-8-4-4 3-7 10q-9 7-23 7v-1q18-1 26-11l6-8 6-1 5 5q-1 14-11 19-14 14-44 12l-4-2h-2q-27-5-41-22l-1-5 5-7zM226 583l2 2 30 49-31 27-31 40-8 15v5l10 16v2l-1 3-13-1-7 4q-12 11-11 35l4 7-3 1 2 2-8 2-9-4-1-3-15-1q-6-9-18-11l-4-5-2-16q6-31 27-47l5-4q24-69 74-112zm-1 5-15 12-6 4-18 25-2 2-2 1-5 7-2 2-27 57-1 1v2l-3 2-2 3-7 4q-15 15-20 41l1 13 12 9 4 7q6 5 20 4l7 5 6-1v-2l1-2v-2l-1-4v-2l-1-2 1-8v-2l8-18q6-8 18-10l-6-18q8-26 26-41l2-2 15-19 1-1 20-16 4-5-3-8-1-2-20-33zm364 30q20 19 47 31 22 11 53 14l4 4v9l-16 26-2-4 2-2q11-9 13-26l-2-4q-20-1-33-7v-2h-5v-2l-5-1-20-9h-2l-35-21-20 19-1 7 7 29 22 11h2l47 12 25 1 4-2v2l-16 2q-56-2-88-27l-8-35zm141 13q19-1 27 10l2 5h-2l2 1v1l-3 1 1 1-13 2-17-5-2 1 7-3 4 1q-1 4 9 2l4 1 3-4-17-10-14-2z"/><path fill="#fbba82" stroke="#fbba82" d="m380 235 30 19h-2l-12-5-1-2-8-3h-2l-3-1-3 1-3 16v2l-2 4 2 4-6 13-2 1-1-1q7-19 8-43l4-2 1 1zm74 35q26 9 63 9l-5 1-2-1h-2l-7 1-3-1-7 1-2-1-5 1-8-3-5 2-3-2q-12-1-14-7Zm128 11q4-1 2 6l4 13h-2l-9-2-3 1-1-2 3-2v-2l1-3-2-3 5-3zm-148 9 6 3 1 8-4 3-4-1-3-10zm117 20 8 1h2l5 1 4 10 1 5v3l-9-14-12-1-5 3-1-3zm-198 9 1 10-4 2-5 11-9 3v-1zm186 14q-1 13 5 20l-7 4v6q5-2 4 3l-3 5-5 4 1 2-7 3 1-14-6-10-10-4 1-2h-1l-5-1-5-11 3 1 13 8 2 3 7 3-1-3 3-4 1-3 3-1 2-2zm-48 6v2l-2 8 1 3h-1l-1-12zm106 0 5 26v2l-3-4 1 1-1-3-2-3-2-6zm-192 7 2 15-2-2-4-2-1-2 2-7zm33 11 6 4-1 3-12 7q0 4-10 1l-1-2 6 1 9-6zm-173 11q17-1 26 8h-1q-9-7-25-6l-4 1-1 2-10 5 5-6zm47 0v5l-5 1-1 3h-3zm198 80 1 1-2 3-7 2h-2q-15 3-19-4l5-1 18 1zm-189 9 3 1 2 3h1l3 6zm-95 131 3 3 4 8-5-4zm-26 22v6l7 1-1 4-2 2v2l5 1 2-3 6-2 2 1 2 3 4 1 1 7-5-4 1 5-5 2 6 7 5-1-4-3 5-1-2-3h3l2 3 4 2 4-1 3 1 4-2v2l-18 15-1 1-10 12-1-4 1-2-2-4-2-4 1-2-4 1q3-9-6-6v-6l-1-3 1-4-7-3-5 2-4-2-3 1h-3l1-3 3-1zm15 22-2 1h-2l-2 8 4 1 3-1-1-4zm28-18 6 11h-1zm345 10 35 22h-1l-4 2-10 4-2-1-5 4-1 1-3-1-1-2v-2l-1-2-2 3 1 3-4 6-7 4-1 2-9 7v1l-6-30 16-17zm67 34 11 5 23 5 1 2h-1l-3-1-1 2-4 2-7 4h-2l-8 3-4 2-11 3 2 11-4 3-1 3-46-11 5-1 1-4 8-3 3 1 1-4 7-3 5-3 5 1 5-6 5-1 3-1 1-2 2-6zm-23 23-2 4 2 2q5-2 4 2l3 1 1-3 4-1-1-4-5 1zm-466-21 2 5 1 3 5 3 1 4 10 5-2 3 3 1q-1 4 5 2h2l7 3 2-1-15 21-2 9 1 1-2-3-10-5-1-3-3-1-1-2-5-2h-2l-14-5zm-36 58v2l-1 3 4 1 4 8 3 2 3 1 3-2 1 5 1 3 1 1 5-3 5 1 5-1 4 2 5-3 4 1 6-2 2-2q4-3 3-12l3 13q-12 2-18 10l-8 18-2-3-5 1-5 1-7-2-1 4-6-1-3 1 1 8-3 1-3 1-15-11-1-13q3-21 15-33Zm-9 31-5 8 5 6 5-1 4-1 8-4 2-4z"/><path fill="#fefefd" stroke="#fefefd" d="m333 521 5 4q11 15 9 44-4 18-13 31l-56 36q-27-32-44-73 40-30 99-42Zm202 24 53 49-28 33-3-1z"/></svg>