<svg xmlns="http://www.w3.org/2000/svg" width="1587" height="1536" viewBox="0 0 1587 1536"><path fill="#1c2b4c" stroke="#1c2b4c" d="M694.5 120q25-1.5 34.5 12.5l4.5 6.5 50-3q62.7 3.3 107 25l6-8 5-1 5.5 4.5 2 16 2.5 2.5 12 7 5-6 6-1 4.5 3.5q3.7 8.3 2 22 31.1 29.4 49 72 10.6 22.4 15 51l-2 7q6.6 17.9 7 42 8.9 12.6 13 30l3 32q-1.5 33.5-18 52-1.7 38.8-14 67-14.5 35.5-39 61l2.5.5 199-49 7 1 29-12 84-24 25-6h18q8.4 2.1 12.5 8.5 5.1 4.9 4 16l-9.5 14.5q-17.9 12.6-41.5 19.5 9.7 16.3 8 44-2.4 23.6-17.5 34.5-9 7-25 7l-21-5q-11 6-30 4l-14-4-6 8L890 758l-4 37 30.5 1 28-21q11.6-5.9 31-4l11 3q18.8-22.2 45-37l29-11 24-2q30.4 4.1 44.5 24.5 16.9 21.9 14 62.5 12.9-6.4 33.5-6l2.5 1 94.5 126q57.4 19.6 104 50 65.1 41.4 116.5 96.5 23.6 25.4 40 58 11 22.3 10 55.5 24.4.2 35 15.5 9.3 10.7 7 33-2.9 13.6-11.5 21.5l-13 8-16.5 3.5q1.8 10.8-4.5 13.5h-168l-3.5-2.5-2-12.5h-44.5l-1.5 1.5q-12.8 25.7-33.5 43.5-24.5 22-60 33-23.5 7.5-57 5-60.8-8.2-93.5-44.5-16.5-17-28.5-38.5h-558l-5.5 5.5-22.5 23.5q-25.8 22.7-61 36-32.1 13.4-79 12-40.9-2.1-70-16-44.1-19.9-73.5-54.5-22-25-35-59-14.7-33.3-13-83 7.2-72.3 45-114v-36l-1-32 1-3v-2q-1.6-11.1 5.5-13.5l58-1 1.5-1.5 11-32-1.5.5-40-1-5 1q-30 .5-41.5-17.5l-48-115-4-18q1.8-10.2 8.5-15.5l15-5 138 32 15.5 9.5 28 50.5q51.1-43.7 116.5-74l69-26 27-7h16q14.9 3.6 23.5 13.5 9.4 9.6 12 26l6 71 1.5 1.5q10.8-61.7 31.5-113.5 13.2-32.3 37.5-53.5l11.5-8-1.5-2q-28.4-17.1-49.5-41.5L599 582q-10.2 4-25.5 4-28.8-2.7-42.5-20.5-16.7-15.8-17-48l4-18q6.2-15.3 18-25v-4q-5.9-15.2-7-34.5-33.3 19.5-73.5 33l-24 5h-22q-18.1-1.9-26.5-13.5l-4-16q3.4-16.1 15.5-23.5l24-14L521 362l1-2.5v-25l3-22 12-40q18-41.5 49.5-69.5 32.2-29.3 76.5-46.5 1.1-19.9 13.5-28.5zm2.5 16-9 4-7 10 29-7q5 2 4-1-5-7-17-6Zm77 16-51 5-29 7-8 5q-42 33-51 100-2 54 10 92 54-21 116-34l-5-24q-4-46 17-66l19-16 53-22 30-22 1-4q-25-11-56-17zm-111 23q-39 15-66 41-28 25-44 61-12 27-15 63-2 38 5 67l92-41q-10-30-12-68-1-82 40-121zm230 4v2q-17 17-38 30-21 12-46 19l-16 9q-21 13-22 44 49-13 111-14l14-10q25-19 30-57l-15 12-17 8h-7l-4-4 8-16 4-16q2-8-2-7Zm46 42q-7 25-24 40 10 20 14 47l2 1h18l36 4 1 1q-14-56-47-93Zm-65 62q-56 3-102 15l3 26q33-8 72-12l37-3h28l2-1-5-22-2-3zm19 42q-137 10-241 52l-3 6-3 28 13-2 12-21q19-23 55-29l212-14h22l1 1-5-19q-28-4-63-2Zm80 3 5 22 15 6-5-25zm-42 32-195 12q-29 3-46 17-21 15-22 51 0 36 18 54 18 19 53 22 44 2 68-17 18-15 28-37 5-10 18-12l13 3 17 22q16 20 48 25 39 3 58-14 18-14 22-42 4-44-15-65-19-24-65-19Zm-409 19-97 43-19 11-9 9-1 9q4 6 14 7h21l28-7q38-14 69-34l-5-36zm111 6-89 41q-2 7 2 9l84-20 1-1 3-24q2-6-1-5Zm19 40-75 17-30 9 4 16 14-3q17 0 28 8l18-3 45-3-2-13 1-25q1-5-3-3Zm201 40-2 1-23 33q-24 28-72 31-47 2-71-18-16-12-23-31l-27 1-14 31q-2 5-9 4l-15-21q-9-12-25-15-17-1-25 6-12 9-16 26-2 24 8 37 11 17 37 20 16 0 26-8l6 1 3 10 19 26q28 31 69 50 34 16 83 18 46 1 80-11 37-13 65-36 48-39 63-112v-6q-16 11-40 13-39 0-61-15l-6 14-15 8q-17 2-23-5l1-7 3-1 9 2q10 1 16-4l4-7-2-10-8-6q-9-1-13 2l-4-1-1-7 7-5q7 3 6-2-2-6-10-6Zm-238 18-7 2 5 7 2 1 3-8q1-4-3-2Zm690 57-106 29-32 12 16 66q5 5 16 6h18l3-1-4-9-1-19-1-2-15 6h-5l-5-5 1-6 20-12 28 13q10 2 12-4l-1-8-6-7-25-15-2-6 7-5 18 10 54-19 19-9q7-3 7-12-4-6-16-3Zm-158 45-20 5 18 74 24-6-18-71zm122 3-12 4 7 14q2 11-3 17-5 7-15 9l-14-1-3 1 5 15 14 7q11 1 17-3 11-8 13-24 2-25-7-37zm-159 6-176 43q-30 21-67 34-6 14-15 25-12 13-33 17l-1 79 50 3 2-1 9-78 5-4 7 1 2 4-1 23 239-70 3-2-19-72q1-3-5-2Zm-423 67-19 13q-15 13-25 31-14 25-22 56-20 63-24 144 20 4 47 2l1-1v-22l4-38 9-44-1-6-11-16 1-7q2-5 10-4l61 81q15 21 45 29 47 7 104 4l1-1 1-16-1-53-1-2q-43 0-81-5l-75-100 1-5 6-5 7 2q35 41 65 88 4 7 15 5l1-76q-50 1-75-24l-15-16-3-4zm163 15q-17 6-38 7-44 3-75-5l-1 2q20 20 59 23 27 1 43-11l12-14zm-319 56-7 3q-9 5-11 17l1 28 10 116q6 30 23 50 14 16 36 25 1 4 3 1l-21-212-6-16q-7-14-28-12Zm540 8q-35 7-55 27-18 15-31 35l27 3 8-10q19-24 54-32 20-1 28 9 8 9 11 25 2 19-3 32l1 3 12-9 3-3 2-11q1-33-12-51-12-20-45-18Zm-574 3q-100 32-170 95l22 44 4 3h153l-9-112v-23l2-5zm-364 5-4 4 1 9 48 115q7 8 21 9l106-1 3 1 23-1-52-97q-4-7-13-9l-127-30zm941 31q-31 8-47 31l6 13-1 13-12 15-4 18q-9 9-13 24-6 8-17 11l2 9 30-25 7-7q-2-26 10-37 9-17 32-18l16-44v-3zm-112 7-14 5-23 19-7 3 3 26-2 38q16 12 42 15 18 2 27-6l16-27 4-18 6-5 4-6-1-6-6-4-30-4q-12-2-18-9l2-6 5-4 6-10zm133 5-15 44 12 9 7-27q2-15-2-22 1-5-2-4Zm-427 21q-11 42-12 94l2 1h16q0-40 8-72v-4zm212 0 1 31-1 20v19h22l3-27q2-23-3-39v-4zm287 9q-25 5-40 19-51 45-61 130l104-28q38-8 81-10l-80-109zm-103 19-8 4q-16 8-16 32l28 20 19-38zm-371 4q-8 28-7 63 57 0 111-5l1-3-28-2-14-3q-19-5-32-16zm344 47-34 30-1 2h9l16-6 21-17zm-121 3-4 3-40 2-2 19 33-3 23 1h7v-15zm-576 7-69 1q-15 26-21 62v1q27-12 63-16 54-3 91 12 39 15 67 42 22 21 36 49h155l28 4q63 13 102 51 35 33 53 84l2 1h186q1-30 12-52 10-23 25-39 36-46 112-53 71 3 109 41 39 35 48 101-1 4 4 2l3 1 10-1 5 1 6-1 6-19q6-9 17-12h15l27 8 50 23h45q3-27-6-43l-12 3q-51-3-78-30-13-9-19-24-4-8-2-20-111-70-247-116l-69 18-95 36-33 10-38 6-60 4q-105 2-190-16-42-8-77-22-31-11-53-29-31-23-39-67l-57-1-2 1-49-1-2 1-31-1-24 1h-2zm609 5q1 21 11 34t32 16l26-3q20-6 35-17l4-4 5-20v-4l-28 22q-11 6-25 8-17 0-25-7-11-7-12-23zm-99 1-39 5-1 14 20-2 22 1 3-15q1-6-5-3Zm-53 6-27 3-63 3h-93l-16-1 1 23 134-1 64-12 1-11zm106 18-1 1q-9-2-8 2 21 6 36 19 25 21 38 54 28-6 51-17l-9-14-3-4q-21 2-34-4l-19-12q-11-9-16-23-15-3-35-2Zm-82 10q-43 4-78 16-8 0-10-6l-43 2 5 11q11 11 33 12 41 1 78-3 54-5 79 19l20 25q26-1 47-6-10-22-25-37-33-37-106-33Zm428 7q-31 2-57 8-7-2-6 2 125 43 228 108l2-1 10-8 18-3q-46-42-102-74l-65-30-6-2zm-1057 3-1 5 1 13-1 2 1 32v1l37-27 2-3 5-21v-2zm410 2v8l5 20q29 14 66 21h4l-3-3q-21-15-26-44l-1-2zm58 0q3 18 13 30 17 20 54 22 42 1 80-3 24-2 43 3 13 4 21 14l19-1-4-7q-17-26-58-27l-60 3-52-1q-15-2-24-10-11-7-14-21l-1-2zm390 3q-11 8-25 11l10 16 13-4 4-22zm-735 10q-71 9-110 50-26 25-42 60-12 26-15 62-1 43 11 74 12 32 33 56 41 53 125 64 41 2 71-8 36-12 63-35 53-41 64-124 2-38-6-65-13-42-38-71-28-33-71-51-19-8-41-11zm473 48-16 2 18 2 58 2 3-1-14-5zm391 51q-53 5-82 33-38 30-47 88-3 30 4 52 9 31 28 53 30 37 89 47 38 3 63-8 26-11 46-29 34-30 42-87 2-36-8-59-11-28-29-47-22-24-55-36-21-8-51-7Zm-662 4q11 26 15 62 3 36-4 63-8 35-26 61h340q-3-39-16-68-15-35-39-60-38-41-102-55l-22-3zm919 1-4 2-6 7v10l7 13q23 26 65 34 10 1 16-2-19-32-44-56-12-10-34-8Zm-42 107-4 2-6 8v83l2 1h142v-26l-2-5q-26-23-60-38l-42-18-18-6zm-542 32 7 42 1 4h181l-8-35v-11zm487 0q-1 25-9 44l1 2h36v-46zm176 0 2 3 15 9q14 10 13 35 14 0 20-7l5-10q2-14-3-20-4-8-13-10z"/><path fill="#1c2b4c" stroke="#1c2b4c" d="M880.5 290q7.3-1.2 8.5 3.5 1.3 7.3-2.5 9.5l-5 1-4.5-2-1-7.5 2.5-3.5zm-78 8 5.5 3.5 1 7q-2.1 4.4-8.5 4.5l-4.5-3.5-1-5 3.5-5.5zm128 74q43.1-4.6 58.5 18.5 11.6 16 11 44-2.1 28.4-19.5 41.5-15.6 14.4-48 12-28.1-4.4-42.5-22.5L869.5 442q-6.9-5.6-21-4-11.6 2.9-17.5 11.5-11.6 23.4-30.5 39.5-20.8 16.7-62 13-26.9-3.6-39.5-21.5-11.4-15.6-12-42 1.2-29.8 19.5-42.5l19-9 25-4q92-3.5 180-11Zm5.5 10-192 12q-19 2-30 10-13 8-16 27-2 30 11 46 12 13 35 15 32 2 50-11l12-12 17-26q8-11 23-15 22-3 32 7l17 21q13 19 44 22 22 1 34-9 15-11 17-36 0-26-12-39-13-15-42-12Z"/><path fill="#1c2b4c" stroke="#1c2b4c" d="M929.5 414q11.8-1.8 15.5 4.5 8.5 8 6 27-2 10-9.5 14.5l-11 1-8.5-6.5q-5.7-7.8-5-22 1.2-10.3 7.5-15.5zm-163 11q15-2 18.5 7.5 5.9 7.6 4 23-2.1 9.4-8.5 14.5-3.7 3.3-12 2l-9.5-7.5q-5.1-6.9-5-19 1.3-13.7 10.5-19.5zm20 121h7q17.8 8.7 41 12l34 1 16-3h10l3.5 7.5q-5.2 22.8-20.5 35.5-14.3 15.7-46 14-23.9-4.1-36.5-19.5-13.4-14.1-12-43zm21.5 26-10 2 6 13q10 12 31 15 16 2 24-4l-2-6q-15-20-49-20Zm-489.5 458q34.1-2.6 56 7 25.2 9.8 42.5 27.5 18.1 18.4 28 45 8 20.5 6 51-7.6 53.9-42.5 80.5-28.5 27.5-84 28-52.1-6.4-79.5-37.5-16.7-17.3-26-42-8.3-19.7-7-49 7.6-55.9 43.5-83.5 23.4-21.6 63-27Zm13.5 16q-48 3-72 30-27 24-31 70 1 44 23 68 24 30 71 38 48 0 74-23 30-23 37-68 2-25-4-42-7-21-19-35-16-19-39-30-17-8-40-8Z"/><path fill="#1c2b4c" stroke="#1c2b4c" d="M325.5 1104q28.3-1.3 39.5 14.5 13.3 11.7 11 39-3.9 18.1-16.5 27.5-11.1 9.9-33 9-20.7-3.2-30.5-17.5-9.6-10.4-9-31 3.1-20.9 16.5-31.5 8.4-7.6 22-10Zm1.5 17-11 5q-9 7-12 20-1 13 5 20 6 8 18 11 15 1 23-6 7-5 9-15 2-18-6-25-7-11-26-10Zm850.5-13q27.5-1.5 45 7 20.6 9.4 34.5 25.5 12.8 14.7 19 36 4 13.5 3 32-5.3 43.2-32.5 64.5-22 22-65 23l-29-6q-21.1-8.9-35.5-24.5-13.9-14.6-21-36-5.6-14.9-4-37 6.8-42.2 34.5-63.5 19.1-16.9 51-21Zm-.5 17q-24 4-38 16-24 18-30 54 0 39 20 59 18 22 56 25 32-2 50-18 21-17 27-49 2-18-2-29-6-20-18-33-12-14-30-21-14-6-35-4Z"/><path fill="#1c2b4c" stroke="#1c2b4c" d="M1180.5 1165q24.9-.4 34.5 14.5 8.3 9.2 7 28-2.8 14.7-12.5 22.5-8.9 9.6-28 9-17.2-2.7-25.5-14.5-7.7-9.3-7-27 2.4-15.6 12.5-23.5zm.5 17-6 3q-7 4-9 13-1 11 4 17l12 7q10 1 15-3l8-12q1-11-3-16-5-11-21-9Z"/><path fill="#de2d2e" stroke="#de2d2e" d="M696.5 139q9-2.5 11.5 1.5l-21.5 6.5-.5-1.5q3.1-5.4 10.5-6.5Zm54 16h48l15 2q33.1 4.9 58.5 17.5l-1.5 2.5-23 18-24 12-29 10-20.5 15.5q-24 21.1-20 70l4 23.5q-59.6 11.7-110.5 33l-3.5-7.5-4-19-4-51q5.2-77.3 52.5-112.5l24-8z"/><path fill="#de2d2e" stroke="#de2d2e" d="m652.5 182 1.5 1.5q-19.4 23.6-28 58-7.2 30.3-4 71l10 52-88 39.5-4-30.5v-37l6-34 10-28q16.8-35.2 44.5-59.5 22.2-20.3 52-33Zm287 44q30.6 34.1 43.5 85l-11.5-2-39-2-2.5-2.5-4-21-8-19v-4q14-14 21.5-34.5Zm-75 59h41l1.5 1.5 5 19-1.5 1.5h-31l-42 4-61.5 10-2-22 40.5-8zm17.5 3-6 2-2 5 1 7 8 4 4-1 4-5-1-8zm-83 9q-7 2-5 13l7 5 7-2 3-6-3-8q-2-4-9-2Zm-279.5 85 2.5 4.5v10l4 19q-30.4 20.1-67.5 33.5l-20 6-23 2q-12-.5-17.5-7.5v-6l6.5-7.5 22-13zm590 214q6.3-2.2 4.5 3.5l17 67-23.5 8.5L894 737l1-19.5-3.5-5.5-10-1-5.5 7.5-4 42-2 7v13l-3.5 12.5-46.5-3 1-69.5-1-2 2.5-4.5q22.3-4.7 33.5-20.5l12.5-21.5q36.9-12.1 65-33zM856 740l-18 1-6 2-4 6 2 8 4 2 30-2 4-5-2-9q-3-4-10-3Z"/><path fill="#de2d2e" stroke="#de2d2e" d="m686.5 663 21 8 8.5 6.5 16.5 17.5q24.5 22.8 71.5 22v64.5l-2.5 7.5-7.5-1q-31.5-48.7-69.5-92l-9-1-3.5 2.5q-3.4 2.6-2 10l72 98.5 9.5 3 73 4 1.5 1.5 1 53-1 12-1.5 1.5h-67l-36-4q-29.6-9.4-45.5-32.5L659.5 769l-8-2-5.5 3.5-2 9 12 18v5l-10 49-4 53.5h-36.5l-5.5-1v-27.5l4-31 10-52 10-37 18-47q11-21 28.5-35.5zm20.5 70-25 14-5 6 1 6 10 17 6 3 6-1 11-8 7 1 2 4-1 7q-6 6-18 6l-4 5 1 6 4 2h12l15-8 7-13q0-12-6-18l-11-7h-9l-12 7-3-7 15-8 3-5-1-5zm-573.5 17 104 23 32 8 6.5 4.5 42 76 9 21.5H194.5q-11.1-2.4-16.5-10.5l-46-112-1-8zm65.5 41-23 1-8 6 1 10 6 3 56-1 3 1 13-1 4-2 1-2-1-10-6-4-30-1-2 1-12-1zm0 34-3 1q-6 2-4 12l7 5 38 1 35-2 4-6-2-7-3-4z"/><path fill="#de2d2e" stroke="#de2d2e" d="m693 850 6 4.5 20.5 22.5 24 15q16.2 6.3 36.5 8.5l-58.5 4.5H688v-19.5zm-418.5 53h231l2.5 1q1.4 16.2 8 28.5 10.3 20.2 26.5 34.5 17.9 15.6 41 26 37.3 16.2 81 26l40 8 38 4 6 2 50 4 57 1 62-3 52-8 37-12 77-30 71-20h11q133.7 45 242.5 114 .2 29.5 18.5 42 18 16.4 43 26l22 6h23l4-2 5.5 12.5 2 25-2.5 2.5h-39l-53-24-27-8h-14q-10.5 2.5-16.5 9.5l-6 9-3.5 13.5h-23l-1.5-1.5q-2.4-32.1-14-55-15.3-31.2-40.5-52.5-24.6-20.9-60-31-24.2-6.8-58-4-58.2 10-91.5 44l-2 3.5q-18.8 17.7-30 43l-8 21-4 19v11l-2.5 2.5h-180l-3.5-2.5q-18.5-52.5-56.5-85.5-39.8-37.7-105-50l-30-3h-145l-3.5-3.5q-15.3-29.2-39.5-49.5-32.9-29.6-81-44l-34-6h-40l-33 6-25 9-1.5-2.5q6.8-31.6 20-55.5zm825.5 97-7 12-4 3q-9-1-13 3l10 12-2 7q-2 6 2 8l13-6 12 6 4-1-2-11v-4l10-13-14-2zm-244 56-7 3-24 49 2 7 8 4h4l5-3 24-48-2-7q-2-6-10-5Zm45 0-3 1-6 6-22 43 2 8 6 4 10-2 6-8 19-40-1-6q-3-6-11-6Zm58 0-4 1-5 6 1 10 5 4 14 2 8-1 6 1 73-2 5-6-1-9-8-6zm-21 39-7 2-6 7 1 10 5 3 95-1q6-3 4-14l-8-7-51 1-2-1-2 1-14-1-6 1h-2l-2-1-2 1zM108.5 921q19.1-1.1 33 3 18.2 6 31.5 16l1 2.5v20l-1.5-.5-20-8h-13l-10.5 4.5 7 6 4 7q-19.4 1.6-31.5 10.5l-15 2-8.5-2 10 17q11.9 12.4 35.5 14l1.5-.5-5.5 8.5-8.5 5.5q10.7 8.3 29.5 8.5l20-5-2.5 3.5-15.5 24.5q-16 6.5-41 4-33-5-51.5-24.5 17.9-2.6 28-13 1.4-5.4-6.5-2.5l-15-6-34-25-11-4H4l12.5-14 31-17q13.4-4.1 31-4l21.5 4q-1.6-11.1-9.5-17L74 930.5q13.8-8.2 34.5-9.5Z"/><path fill="#de2d2e" stroke="#de2d2e" d="M902.5 933h26l9.5 4.5q6.8 14.3 18.5 23.5l19 10q12.4 4.1 30 3l4.5 4.5 6 10.5-45.5 16q-13.8-29.2-36-50zm-84 10q79.3-5.3 111.5 36.5 12.8 12.7 19 30.5l-17.5 3-26 2q-9.3-15.7-23-27-24.2-21.3-74-17l-19 2-65 1-15-3-13.5-9.5-2-6.5 37.5-2 10 6 37-10zM604 955h40.5l1.5 1.5q5.8 26.2 23 41l-2.5.5-29-7-24-8-5.5-4.5zm212.5 60 19.5 1.5-8.5 1.5-15.5-1.5z"/><path fill="#646564" stroke="#646564" d="m760.5 136 6.5.5-6.5.5zm24 0 7.5.5-7.5.5zm-73 3 2.5 4-2-.5zm-49 36 .5 1.5-3 2 .5-2.5zm231 4q3-.5 1.5 6.5h-1zm-3 3-8 9zm34 20 1.5 2.5h-1l-.5-1.5-4.5 3.5zm-328 14-10 11zm312 29-3 4zm-9 9-4 5zm-26 14 8.5.5-8.5.5zm-16 1 6.5.5-6.5.5zm-234 4 .5 6.5h-1zm148 5 .5 4 2 .5-3 .5zm-16 2 .5 14.5h-1zm118 3 10.5.5-10.5.5zm26 0 7.5.5-7.5.5zm0 25 12.5.5-12.5.5zm-7 17 7.5.5-7.5.5zm35 0 9.5.5-9.5.5zm-406 20 .5 14.5h-1zm-130 78-5 6zm598 2 .5 7.5h-1zm-139 2 8.5.5-8.5.5zm0 39-3 4zm-434 8 6.5.5-6.5.5zm522 3 6.5.5-6.5.5zm-129 3-5 6zm-217 11 4 5zm94 2 3 4zm-11 10 5 6zm182 7 7.5.5-7.5.5zm-250 3 3 4zm699 11 9.5.5-9.5.5zm-499 48 11.5.5-11.5.5zm-3 14 4 5zm477 70-3 4zm-500 10 18.5.5-18.5.5zm3 17 7.5.5-7.5.5zm-251 32 8.5.5-8.5.5zm586 23 7 8zm-104 29-3 4zm-14 14-4 5zm30 2-4 5zm-227 6 .5 2-7-.5zm323 3 .5 16.5h-1zm16 1 .5 11.5h-1zm-124 2-4 5zm94 5 .5 12.5h-1zm56 4 6.5.5-6.5.5zm-582 18 1.5 5.5-2-1zm493 12 5 6zm-38 1-5 6zm-350 9 2 3-2-1-1.5.5zm383 5 3 4zm-365 16 7 8zm314 4 .5 11.5h-1zm-222 13 7.5.5-7.5.5zm188 0-3 4zm-792 2 105.5.5-105.5.5zm154 0 46.5.5-46.5.5zm63 0 8.5.5-8.5.5zm43 0 47.5.5-47.5.5zm-292 3 4 5zm868 5-3 4zm-24 1-3 4zm15 7-5 6zm-830 1 8.5.5-8.5.5zm416 5 7.5.5-7.5.5zm87 0 8.5.5-8.5.5zm361 3-3 4zm-45 1-5 6zm-204 10 .5 5 2 .5-3 .5zm92 11 19.5.5-19.5.5zm58 8 6 7zm-413 6 7 8zm-225 3 18.5.5-18.5.5zm313 5h11l1.5 1.5-.5 1.5-.5-2h-11.5zm-444 2 .5 12.5h-1zm800 0 9.5.5-9.5.5zm-816 10 .5 21.5h-1zm139 1 44 1q22.7 3.3 41 11 43.4 17.6 71.5 50.5 25.3 29.2 38 71 8.3 27.2 6 65-11.4 83.1-64.5 124.5-26.5 22.5-63 35-29.4 10.1-71 8-83.1-11.4-124.5-64.5-20.8-23.7-33-56-12.4-30.1-11-74 2.5-36 15-62 16-34.5 41.5-59.5 39.5-40.5 110-50Zm.5 14q-60 8-94 41-29 24-45 61-11 25-14 59-2 10 2 15l4 2q8 1 11-2l2-7 2-27 8-28q9-25 25-42 20-24 50-39 26-15 69-15l6-5-1-9-4-4zm4 50q-40 5-63 27-36 28-44 84-1 29 7 49 9 24 26 42 27 31 80 37 55 0 84-28 34-27 42-80 2-31-6-51-10-27-28-45-17-18-42-28-22-10-56-7Zm-143.5-42 .5 34.5h-1zm490 3 4 5zm-469 9-3 4zm576 15q8.2-1.7 11.5 1.5l-6.5.5zm59 4 16.5.5-16.5.5zm-20 16 6.5.5-6.5.5zm57 0 7.5.5-7.5.5zm306 13 6.5.5-6.5.5zm294 4 18 19zm-290 13q30-1 51 7 33.6 11.9 55.5 35.5 18.3 19.7 29 47 9.7 23.8 8 59-7.5 57.5-42.5 87.5-19.2 18.3-46 29-24.7 10.8-63 8-58.5-9.5-88.5-47.5-18.8-21.7-28-53-6.7-21.3-4-52 9.4-57.6 46.5-87.5 30-27.5 82-33Zm-.5 43q-32 4-51 21-28 21-35 64-2 22 4 37 7 21 21 36t36 24l29 6q43-1 65-23 27-21 32-64 1-19-3-32-6-22-19-36-14-17-34-26-18-8-45-7Zm231.5-30 .5 8.5h-1zm-123 7 3 4z"/><path fill="#646564" stroke="#646564" d="M326.5 1121q19.3-1.3 26.5 9.5 8.2 7.3 6 25-2.4 10.1-9.5 15.5-7.3 7.2-23 6-11.6-2.9-17.5-11.5-5.7-6.8-5-20 2.6-12.9 11.5-19.5zm909 22 6 7zm-1006 2 .5 6.5h-1zm147 0 .5 7.5h-1zm-78 34 4 5zm882 3q16.7-1.7 21.5 8.5 4.4 5.2 3 16l-8.5 12.5q-4.8 4.2-15 3l-11.5-7.5q-5.2-5.3-4-17 2.2-8.3 8.5-12.5zm-51 71 5 6zm256 17 135.5.5-135.5.5zm-664 2 23.5.5-23.5.5zm27 0 35.5.5-35.5.5zm65 0 21.5.5-21.5.5zm217 0 18.5.5-18.5.5zm292 0 44.5.5-45.5 1.5zm-842 11-13 14zm-295 2 7 8zm886 19 5 6zm8 8 5 6zm99 43 14.5.5-14.5.5z"/><path fill="#bc444d" stroke="#bc444d" d="M698.5 136q10.7-.7 14.5 5.5l-32 8.5 4-8zm-1.5 3q-8 1-11 7l1 1 21-6q-2-5-11-2Zm60.5 14q33.8-1.8 61 3 32.4 5.6 57.5 18.5-14.4 15.1-33.5 25.5l-53 22-18.5 16.5q-16.9 19.1-16 56l5 32.5q-61 12.3-113.5 34-14-37-11.5-90.5 7.7-67.3 49.5-100.5l7-5 18-5zm-6.5 2-38 6-24 8q-48 35-53 113l4 51 4 19 4 7q50-21 110-33l-4-23q-4-49 20-70l21-16 29-10 24-12 23-18 1-2q-25-13-58-18l-15-2z"/><path fill="#bc444d" stroke="#bc444d" d="m658.5 177 2.5.5q-21.6 23.9-32 59l-6 37v30q2.8 34.4 11 62.5l-82.5 38-8.5 2-4-24.5-1-37q2.5-42 17-72 18.2-37.3 48.5-62.5 23.9-20.1 55-33Zm-5.5 5q-30 13-52 33-28 24-45 60l-10 28-6 34v37l4 30 88-39-10-52q-3-41 4-71 9-35 28-58zm285.5 41 4.5 3.5q30 34.9 42 86.5-22.5-4.6-51.5-4l-4.5-2.5q-4.1-25.9-14-46 16.2-14.3 23.5-37.5Zm1.5 3q-8 21-22 35v4l8 19 4 21 3 2 39 2 11 2q-13-51-43-85Zm-55.5 57 23.5 1q4.6 9.7 5 24l-68.5 4-69.5 11-3-25 49.5-10 35-4zm-19.5 2-50 6-41 8 2 22 62-10 42-4h31l1-1-5-19-1-2z"/><path fill="#bc444d" stroke="#bc444d" d="m881.5 288 8.5 3.5 1 8-4.5 5.5-4 1-7.5-4.5-1-7 2-4.5zm-1.5 2-4 5 1 7 4 2 6-1q4-2 2-9-1-5-9-4Zm-81.5 7q7.5-2 9.5 1.5l3 8-3.5 6.5-7 2-6.5-5.5q-2-10.5 4.5-12.5Zm2.5 1-2 1-4 5 1 6 5 3 5-1q5-1 3-9-2-5-8-5Zm-281.5 82 3.5 1.5 4 36.5q-30.4 18.4-66.5 32l-31 8h-19l-13.5-6.5-1-7 8.5-10.5 29-16zm.5 2-93 41-22 13-7 8v6q6 6 18 7l23-2 20-6q37-13 67-33l-4-19v-10zm590.5 212q5.8-2.1 4.5 2.5l18 71-3.5 2.5-236 70-1.5-6.5 1-18q-1.9-4.6-9.5-3.5l-4.5 3.5-2 6-6 64-2 8.5h-22.5l-27-2-1.5-1.5 1-76 1.5-1.5q21.1-4.4 32.5-18.5 9.2-9.6 13-23.5 37.1-11.3 64.5-33zm-.5 2-176 43q-29 21-65 33l-13 22q-11 15-33 20l-3 5 1 2-1 69 47 3 3-12v-13l2-7 4-42 6-8 10 1 3 6-1 19 214-62 23-8-17-67q2-6-4-4Z"/><path fill="#bc444d" stroke="#bc444d" d="M684.5 662h5l25.5 11.5 16.5 18.5q13.1 11.4 31 18l15 4 26 1 1.5 1.5 1 53-1 19-1.5 1.5q-10.2 2.3-12.5-3.5-30.6-46.9-66.5-88.5l-7-2-4.5 2-2 7.5L785.5 806l81.5 6 1 2.5 1 47-1 16-2.5 5.5-78-1-28-4q-25.1-7.9-39.5-26.5L656.5 769q-8-1.5-9.5 3.5l-1 7 12 20-9 44-4 36v22l-2.5 5.5-43-1-1.5-1.5-1-5q5.2-80.3 26-145l18-46q8.2-16.3 20.5-28.5l5-4zm2.5 1-16 11q-18 15-29 36l-18 47-10 37-10 52-4 31v27l6 1h36l4-53 10-49v-5l-12-18 2-9 6-4 8 2 56 76q16 23 46 32l36 4h67l1-1 1-12-1-53-1-2-73-4-10-3-72-98q-1-8 2-10l4-3 9 1q37 43 69 92l8 1 2-7v-65q-47 1-71-22l-17-17-8-7z"/><path fill="#bc444d" stroke="#bc444d" d="m706.5 733 5.5 3.5 1 5-3.5 5.5-14.5 8 2.5 7 12-7h9l11.5 6.5q5.5 6.5 6 18l-7.5 13.5-15 8h-12v-1q19 .3 27.5-9 6.7-5.2 5-19.5-2.1-8.3-8.5-12.5l-13-3-16.5 8-4-8.5 19-12 1-4-3.5-4.5-8 2-21.5 13.5-1 5 12.5 21.5 1.5.5-1.5.5q-10.1-9.4-13.5-25.5l4.5-5.5zm-573 15 131 30q10 1.5 14.5 8.5l51 97.5H191.5l-12.5-7.5-4-6-40-98-6-15v-5l2.5-3.5zm.5 2-3 3 1 8 46 112q5 8 17 10h132l-9-21-42-76-6-5-32-8z"/><path fill="#bc444d" stroke="#bc444d" d="M709.5 769q9.4-1.4 11.5 4.5 1.2 8-2 10.5-4.9 5-16.5 4l-3.5 2.5-1 6 2 3-2-1-1-6 3.5-4.5q12.6.1 18.5-6.5l1-7-2.5-3.5-7-1-12 8v-1zm-511 22h2l12 1 2-1 30.5 1.5-69.5.5v-1zm-26 2 1.5.5-5 4-.5 2.5-.5-2.5zm74 0 4.5 2.5 1 10-1 2.5-4.5 2-13 1-3-1-56 1-5.5-3.5-1-4h1l3.5 5.5h74l4.5-3.5q2-9.5-3.5-11.5zm-48 32h72l3.5 3.5 2 7-4.5 6.5-35 2-38-1-6.5-5.5q-1.5-9 3.5-11.5zm.5 1-2 1q-6 2-4 11l6 4h71q6-2 4-11l-5-5zm493.5 20 4.5 3.5 20.5 23.5q14.2 14.8 37 21l21 4 20.5 1-1.5 3-61 4-45 1-2.5-1 3-44.5zm.5 4-5 36v19h34l58-4q-20-3-36-9l-24-15-21-22zm-420.5 52h236l.5 3.5q7.2 32.4 26 52.5l2 1.5 4 2.5 1.5 2q17.9 17.6 43 28 41.4 18.1 91 28l46 8 56 6 33 2h64l55-4 36-6 38-12 77-30 80-22q136.9 45.1 247.5 116.5 1.7 31.8 22.5 44.5 16.9 14.6 40 23l24 6h15l9-3q10.1 15.7 7.5 43h-44.5l-48-22-24-8-16-2q-15.4 1.6-21.5 12.5-6 7.2-6 19.5h-27.5l-.5-4.5q-10.1-67.4-52.5-102.5-23.4-20.6-57-31-22.8-7.7-55-6-70.9 9.6-106.5 54.5-15 18-25 41l-8 26-2 21-1.5 1.5h-184l-2.5-2.5q-18.3-50.7-54.5-83.5-38-37-100-50l-26-4h-156l-2.5-2.5q-15.2-28.8-38.5-49.5-27.5-25.5-66-40-32.6-12.9-79-12l-41 6-31.5 10q5.9-35.8 22.5-62Zm2.5 1-3 1q-13 24-20 56l2 2 25-9 33-6h40l34 6q48 14 81 44 24 20 39 50l4 3h145l30 3q65 12 105 50 37 33 56 86l4 2h180l2-2v-11l4-19 8-21q11-26 30-43l2-4q33-34 92-44 33-3 58 4 35 10 60 31t40 53q12 22 14 55l2 1h23l3-13 6-9q6-7 17-10h14l27 8 53 24h39l2-2-2-25-5-13-4 2h-23l-22-6q-25-10-43-26-19-13-19-42-109-69-242-114h-11l-71 20-77 30-37 12-52 8-62 3-57-1-50-4-6-2-38-4-40-8q-44-10-81-26-24-10-41-26-17-14-27-34-7-13-8-29l-2-1z"/><path fill="#bc444d" stroke="#bc444d" d="M896 932h37.5l5.5 3.5q5.8 13.7 16.5 22.5l22 12q11.9 3.6 29 2l2.5 2.5 9 15q-21.8 11.2-48.5 17.5-15-33-41-55-13.7-12.1-32.5-18zm7 1 32 22q22 21 36 50l45-16-6-10-4-5q-18 1-30-3l-19-10q-12-9-19-23l-9-5zm-812.5 6 4 5zm83 1 2.5 3.5-1.5 20.5z"/><path fill="#bc444d" stroke="#bc444d" d="M824.5 941q77.2-3.2 108.5 39.5 11.5 12.5 18 30l-1.5 1.5-30 4H903q-7.3-15.4-20.5-26-13.6-11.9-35-16l-44-1-44 3h-30q-15.4-.6-26-6l-10.5-9.5-2-7.5 42.5-1q2.3 5.2 10 5 35.9-12.6 81-16Zm-5.5 2-40 6-37 10-10-6-38 2 2 7 14 9 15 3 65-1 19-2q49-4 74 17 13 11 23 27l26-2 17-3q-6-18-19-30-32-42-111-37Zm-215.5 10 43.5 1q5.5 26.3 22.5 42l5.5 4.5-1.5 1.5q-36.7-7.3-66.5-21.5l-5-26zm.5 2 4 24 6 4 24 8 29 7h2q-17-15-23-41l-1-2zm-560.5 2 1.5.5q-25.6 8.9-41 28l.5 1.5h14l16 7 32.5 23.5-1.5.5-39-27q-9.9-4.6-25.5-3.5L14.5 973zm1056 43 9 14 14.5 2-10 12.5v4l2 11-4.5 1.5-12-6-13 6q-3.2-1.7-1.5-8.5l2-7-9-10 3.5 2.5 6.5 5.5-2 16.5 15.5-7 13.5 7-3-15.5 10.5-11.5-14-2-2.5-2.5-5.5-11.5-8 14-15 3 1-2 11-1 4.5-3.5zm-308 14h45l12.5 4.5-36.5.5-20-1-10.5-2.5zm25.5 1-5 2 16 1 8-1zm-646.5 13-1.5 2.5-16 27.5-4.5 1v-1l3.5-2.5q6.3-16.7 18.5-27.5Zm-104 6 1.5.5-11 3 19 14-1.5.5-20.5-15.5zm789 22q8.1-.6 10.5 4.5l2 7-24 48.5-5.5 3h-4l-7.5-4.5-2-7 24-48.5 4.5-2v1l-5.5 4.5-22 45 5.5 8.5 7 1 6.5-5.5 21-41 1-6-4.5-6.5-7-1zm45 0q8.9-.4 11.5 5.5l1 6h-1q.4-6.4-3.5-8.5l-8-2-6.5 4.5-23.5 47.5-.5-3.5 22-43 5.5-5.5zm58 0 94.5.5-94.5.5-5.5 3.5-2 8 5.5 7.5 96 1 7.5-4.5 1-9-3.5-4.5-3.5-1.5 1.5-.5 5.5 4.5 1 9-5.5 6.5-73 2-6-1-8 1-14-2-4.5-4.5-1-10 4.5-5.5zm-841 6 7.5.5-7.5.5zm794 7 .5 2.5-18 36-6.5 8.5-10 2-5.5-4.5-1-3h1l3.5 5.5 8 1 5.5-4.5zm26 26 3 1 2-1 2 1h2l6-1 14 1 2-1 2 1 51-1 8.5 6.5q2 11.5-4.5 14.5l-95 1-4.5-3.5-1-10 5.5-6.5zm-4.5 2-2 1-5 6q-1 7 2 10l4 2 93-1 4-6-1-7-5-5z"/><path fill="#05a9e9" stroke="#05a9e9" d="M930.5 360q45.3-4.3 64.5 17.5 19.4 21.1 16 65-4.5 27.5-21.5 42.5-18.6 17.9-58 15-30.5-4.5-46.5-23.5L870 456q-5.5-6.3-18.5-6-12.2 2.8-17.5 12.5-9.9 21.1-26.5 35.5-23.9 19.6-69 18-38.5-3.5-56.5-27.5-16.8-20.7-13-62 4.3-23.7 19.5-36.5 17.2-15.3 47-18l149-8zm-2.5 12-187 12q-26 3-40 16-12 12-14 36 0 33 16 50 12 13 35 16 45 4 67-16 16-16 27-37 6-8 17-11 15-2 22 5l18 22q14 18 42 23 33 3 50-12 17-13 19-40 1-30-11-45-9-13-26-18zm-275.5 53 2.5 1.5-1 27 2 11-1.5 1.5-63 5q-10.7-7.3-29-7l-11.5 2-3-15.5 28.5-8.5zm495 160 3.5 1 18 70.5-6.5 3.5-17.5 4-18-72.5zm-301 92 2.5 1.5-11.5 13.5q-18.7 13.8-55 10-27.2-4.8-43.5-20.5l-1-2 2.5-.5q22.7 5.3 51 5l32-2zm-350 66q2.8-.6 1.5 5.5l-1 26 9 109.5-48.5 1-5-1-10 1-4-1h-2l-2 1h-2l-4-1-2 1-3-1-9 1-6-1-3 1-4-1-2 1-48-1-2.5-2.5-22-43q69.1-63.4 169.5-95.5ZM451 792l-9 20-22 2 6 8 1 2 8 7q1 12-3 20l1 3 18-10 21 10-3-15v-8l9-9 3-2 3-4-1-2-20-2-10-18zm429 20h20.5l1.5 1.5q4.5 17.5 3 41l-2 23-2.5 4.5H880v-13.5l1-32zm-213 1 3 1.5 12 16v3q-8.1 32.6-8 72.5l-15.5 1-2.5-3.5q1.3-49.9 11-90.5Zm183.5 94 4.5 1.5-3.5 16.5-26-1-14.5 1v-11.5l1.5-1.5zm-65 7H797v12.5L747.5 938l-16 2-128 1-4.5-1-1-22 15.5 1h93l66-3zm463 34h22l6 2 65 30q55.8 31.2 101.5 72.5.5 3-6.5 1.5-15.2 2.3-23 12-102.7-64.8-226.5-108.5l11.5-3.5zm-583 5 12.5 1q2.9 15.2 14.5 23 11.7 8.3 30 10h45l60-3q41.1 1.4 58.5 26.5l4 7.5-18.5 1q-9.5-10.5-25-15-18.7-4.3-44-2l-20 2-54 1q-36.6-1.4-54.5-21.5-11-11.2-14-29.5zM517 1069h144.5l23 3q59.9 12.8 96.5 48l1.5 2q27.5 26.5 43.5 64.5 13.3 29.5 16 68.5H504.5l-1.5-1.5q27.7-39.3 30-104-1.4-47.3-16-80.5Zm134 40-3 1-6 8q-1 7 2 11l9 4 28-1 4 1 10-1 4 1-44 86 1 8 5 3q12 3 19-2l51-100-1-14-8-5zm-62 58-10 20-1 1-18 2q-5-2-4 2l16 15-4 22 21-10 20 10-3-18v-4l16-16q-9-4-21-3l-11-19zm805.5 10 11 1 18 6 42 18 39 21 21.5 16.5 2 5v25.5l-6.5 1-136-1-1.5-1.5v-81l5.5-8.5zm-541 32h178l1.5 1.5q.7 26 8 44.5H859.5l-.5-5.5-7-39zm487 0h25l1.5 1.5v44.5h-37l5-15.5 4-29z"/><path fill="#8c8d91" stroke="#8c8d91" d="m941.5 200 8 9zm-41 125 26.5.5-26.5.5zm45 19 7.5.5-7.5.5zm-268 36-4 5zm262 2 11.5.5-11.5.5zm-394 44-.5 1.5-.5 4.5-.5-4.5zm244 19 .5 6.5h-1zm-405 17 3 4zm179 19 6.5.5-6.5.5zm-19 8-3 4zm203 2 8.5.5-8.5.5zm101 67 16.5.5-16.5.5zm-215 43 3 4zm310 1-3 4zm-322 11 5 6zm214 0 8.5.5-8.5.5zm97 0-3 4zm361 1 .5 8.5h-1zm-663 8 3 4zm584 4 .5 6.5h-1zm-560 37-7 8zm549 5 9.5.5-9.5.5zm-128 72q25.8.2 37.5 14.5 17.3 18.7 14 58l-2 8.5-15 10q5-11.8 4-30.5-2.4-21.1-15.5-31.5-8.6-8.4-28-6-36 10-55.5 36.5l-4.5 5.5-24.5-3q10.1-17.6 25.5-31 15.6-14.4 36-24zm-75 19-9 10zm-37 27 6.5.5-6.5.5z"/><path fill="#8c8d91" stroke="#8c8d91" d="m1095.5 792 2.5 4.5 1 16-6 28-2.5 2.5-9.5-8.5 13-40.5 2-.5zm-204 2 9.5.5-9.5.5zm147 4-4 5zm-6 6-3 4zm29 37h4l21.5 18.5q-12.2 15.6-19 35.5l-27-19.5-1-3q2.1-18.9 14.5-27.5zm37 33 75.5 66.5-50.5 13.5-1-3-42.5-37.5q6.2-22.8 18.5-39.5Zm-135 17 7.5.5-7.5.5zm73 0 9.5 7.5 1 2-19.5 15.5q-9.5 7-24.5 7l5.5-7zm-35 3-3 4zm0 7-3 4z"/><path fill="#8c8d91" stroke="#8c8d91" d="m949 907 22 1q2.1 17 14.5 25 9.1 6.9 27 5l22-8 27-22 .5 2-2 .5 1 3-6.5 20.5q-15.2 11.3-35 18-12.9 4.6-32 3-19-4-28.5-17.5-8.8-12-10-30.5Zm-762.5 27 53.5.5-53.5.5zm141 63 7.5.5-7.5.5zm-107 24-4 5zm16 10-3 4zm-30 4-4 5zm22 3-9 10zm1236 10 3 4zm23 23 4 5zm-1088 1 8 9zm-71 31 7.5.5-7.5.5zm851 22 13.5.5-13.5.5zm-1017 15 .5 11.5h-1zm18 0 .5 8.5h-1zm929 57 .5 8.5h-1zm464 4 3 4zm-1165 15-3 4zm-7 7-3 4zm756 3 4 5zm-831 25 11.5.5-11.5.5zm917 0-7 8zm-744 21 213.5.5-213.5.5zm291 0 6.5.5-6.5.5zm54 0 185.5.5-185.5.5zm530 15 154.5.5-154.5.5zm-1181 6 3 4zm1103 15-5 6z"/><path fill="#cb8d31" stroke="#cb8d31" d="m891.5 183 1.5.5v11l-10 19v5l2.5 3.5 6 1q19.2-5.8 32-18l.5 5.5-5 18-14 21.5-3.5 2-12.5 10-1.5 2-6 4-56 4-51 10-2.5-1q1.4-24.4 15.5-37l3-2 19-12 9-2 32-14q21.5-12 38.5-28.5l1.5-1.5zm83 147q8.6-.9 12.5 2l5 22q-8.5-.3-13-5.5l-6-17zm-344 56 2.5 1-2 22.5-3.5 5.5-81 19-1.5-6.5q40.3-23.2 85.5-41.5Zm-19 98q6.3-2.2 4.5 3.5l-1 2.5-4-1-1-3.5zM804 575l7 .5-.5 1.5 1.5-1.5 2.5 1.5 4-2h2l7 3 2.5.5.5 1.5 4.5-1 .5 2 2-1 12.5 6 4 5.5v2l-1.5 2.5v-2l-3 2v2l-7 2h-10q-13.4-2.4-21.5-9l-4.5-6-1.5-.5 1.5-.5 4.5-.5-1.5-2.5-4.5 2-2-4.5 2.5 1.5 1.5-1.5-3-1.5zM521.5 737l-3 4zm31 0 5 6zm303 3q8-1.5 10.5 2.5l-1.5-.5-9-1zm-18 1 13.5.5-13.5.5zm-324 12 .5 7.5h-1zm353 0-3 4-1.5-.5zm-36 3 3 2 13.5.5-13.5.5zm-719 164 10.5.5-10.5.5zm28 34 13.5.5-13.5.5zm-9 3 1 4q-4.5-2-1-4Zm34 1 6.5 3.5-1.5-.5zm-66 42 3 4zm7 5 4.5 2.5-1.5.5zm1332 65 10.5.5-10.5.5zm32 8 10 11zm14 15 3 4zm-47 11 5 6zm96 117 5 6zm37 7 .5 7.5h-1zm-24 19 .5 8 4 .5-3.5.5q-3.6-2.1-1-9Z"/><path fill="#babbbe" stroke="#babbbe" d="m953.5 344 7.5.5-7.5.5zm-125 154-8 9zm112 17 6.5.5-6.5.5zm-203 15 15.5.5-15.5.5zm-195 22 6 7zm716 40 1 4q-4.5-2-1-4Zm-376 2-5 6zm362 7 3 4zm-607 4 6 7zm302 1-6 7zm338 9 .5 6.5h-1zm-8 30-3 4zm-66 7 9.5.5-9.5.5zm-235 144-4 5zm-60 118 11.5.5-11.5.5zM192 951h42.5l.5 2.5-5 21-2.5 2.5q-19.9 11.1-35 27zm128.5 29q14.7-2.7 19.5 4.5l1 6-3.5 5.5q-80 5-118.5 51.5-17.6 18.9-28 45-10.9 24.6-11 60l-3.5 4.5-8 1-4.5-3.5-1-20q9.5-71 52.5-108.5 37.2-38.3 105-46Z"/><path fill="#babbbe" stroke="#babbbe" d="M323.5 1047q29.8-1.3 49 8 23.4 10.6 38.5 29.5 22 24 23 69-4.4 46.1-31.5 69.5-26.2 29.3-83 28-40.2-7.3-62.5-32.5-13.4-14.1-21-34-7.4-18.1-6-45 6.7-44.3 34.5-67.5 21.7-20.3 59-25Zm5.5 56q-18 2-27 12-11 10-15 27-2 24 9 36 11 15 35 17 21-1 32-12 11-10 14-28 1-21-8-32-11-20-40-20Zm844.5 23q24-2.5 39 4 19.4 7.6 31.5 22.5 17.6 18.4 18 54-4.9 37.6-29.5 55.5-18.6 16.9-55 16-32.6-5.4-49.5-26.5-10.6-12.4-16-30-3.7-12.7-2-31 6-30 25.5-46.5 14.3-13.7 38-18Zm4.5 39-13 6q-12 8-16 24-3 22 8 32 7 9 21 12 19 2 29-6 14-9 16-30-1-16-8-24-10-16-37-14Zm366.5 13 .5 11.5h-1z"/><path fill="#8bcce9" stroke="#8bcce9" d="m928.5 383 32 1q12.3 3.8 19.5 12.5 11 14.5 9 42-2.8 17.7-13.5 27.5-13.3 13.7-43 11-22-3.5-33.5-17.5L879.5 436q-9.7-10.3-31-9-15 3-23.5 12.5l-18 27-11.5 12.5q-18.5 15.5-56 12-21.2-2.9-31.5-16.5-10.6-14.4-10-40 2-20 14.5-29.5 11.9-9 30.5-10l-32 45.5-2 6 4.5 6.5 4 1 6.5-4.5 39-55.5 2.5-1 139.5-8-16 25-2 1.5q-5.8 2.7-5 12l2.5 3.5 7 2 7.5-6.5 26-38.5zm2.5 30-4 2q-8 5-10 15-2 18 6 27l10 5 10-2q7-6 9-17 1-15-5-22-3-10-16-8Zm-162 11-6 3q-7 5-9 16-1 16 6 24l11 6 9-2q9-6 10-19 0-14-6-21l-9-7zM448.5 798l.5 1.5-2.5 4.5-.5-1.5zm-5 11-.5 1.5-1.5 2.5-3.5-.5 4-.5zm-14 4 6.5.5-6.5.5zm36 0 6.5.5-6.5.5zm-45.5 1 6 .5-5 1 5 6-5-4zm56.5 0 7.5 1.5-2 1q.6-2.7-5.5-1.5zm688 8q6.3-1.2 7.5 2.5l79 106-3.5 1.5-39 3-33 6-76.5-67.5q8.8-16.7 22.5-28.5 16.5-16.5 43-23Zm-6.5 16-5 2-2 4 1 9 21 28 2 1q13 23 32 42l8-1 4-6-8-16-41-56-7-7zm-682.5-15-7 8zm-46 1 6 7zm33 24 5.5 3.5-1.5-.5zm616.5 66 44 38.5-2.5 1.5-53.5 16q2.7-31.4 12-56Zm-428.5 195 71.5.5-71.5.5zm-3 1 1.5.5-5 4-.5 1.5-.5-1.5zm83 6 .5 11.5h-1zm-88 1 .5 7.5h-1zm87 12 .5 1.5-2.5 4.5-.5-1.5zm-77 3 27.5.5-27.5.5zm32 0 9.5.5-9.5.5zm12 8-.5 1.5-4.5 8.5.5-1.5zm28 0-.5 1.5-10.5 20.5.5-1.5zm-38 19-.5 1.5-8.5 16.5.5-1.5zm-98 8 1.5 1.5 3 6h-1l-2-5.5-2.5 1-.5-1.5zm-6 12 .5 1.5-4.5 7.5.5-1.5zm13 1 2.5 5.5h-1zm79 2-.5 1.5-8.5 16.5.5-1.5zm-105 6 6.5.5-6.5.5zm-9 1 6.5.5-6.5.5zm-4.5 1 2 .5-1 1 10.5 11.5zm64 0 2 .5-16 16-.5 3.5-.5-3.5zm-50.5 13 3.5 5.5h-1zm92 4-.5 1.5-5.5 12.5-.5-2.5zm-73 11-1 2-4 2 1-2zm2 1 7.5 4.5-1.5-.5zm65 4 3 5 4.5 1.5-2.5.5-4.5-3.5zm-78 1-1 2-8.5 3 .5-3 .5 2zm31 0 .5 5-8-3.5 1.5.5 5.5 2z"/><path fill="#fdd415" stroke="#fdd415" d="M532.5 733q16.9-1.9 22.5 7.5l8 15L584 970q-21.7-8.5-36-25.5-17.8-19.2-23-51l-11-138q1.3-13.7 10.5-19.5zm319 8q10.8-2.3 14.5 2.5l1 9-5.5 4.5-28 1-3.5-2.5-1-8 3.5-4.5zm-713 214q24.6-2.1 35.5 9.5v59l-3 4.5q-11.2 7.7-32.5 6l-18.5-6 1.5-3 9.5-8.5 2-4.5q-27.5-.2-40-16.5l-7-11 2.5-1.5 15 1 24-10 12.5-2-6.5-11-2.5-1.5q-1.2-3.7 2.5-2.5zm1298 116q16.4-.9 28 3l12.5 12.5q20.1 20.4 35 46-3.6 3.9-12.5 2.5-39.3-6.3-61.5-29l-11-17.5v-10l3.5-4.5zm82.5 139h34.5l12.5 9.5q4.2 5.8 3 17-1.5 10-8.5 14.5l-13 4-4.5-21.5-13.5-15.5-10.5-6z"/><path fill="#fdc59d" stroke="#fdc59d" d="m923.5 204 1 2-3.5.5zm-34 122 64.5 1 6 17-233.5 14q-37.1 5.9-56.5 29.5L657.5 408l-9 2-1.5-4.5 4-27.5q102.7-42 238.5-52Zm-37 140q7.3-1.2 8.5 3.5l1 2-11 2.5q-2.8 2-2 8.5l2.5 3.5 17-1 6.5 4.5q3.6 2.9 2 11l-4.5 6.5q-5.1 4.3-16 3l-8-2-3.5 2.5-1 6q6.3 8.7 23.5 6.5 10.5-2.5 16.5-9.5l6.5-12.5q20.8 14.7 56 15l17-2 25.5-9q-13.2 74.5-62.5 114-29.3 25.2-71 38-33 10.5-78 9-98.7-8.3-146.5-67.5l-18-24-5.5-12.5-6-1q-9.8 8.7-29 8-22.2-3.8-32.5-19.5-8.4-11.1-9-30 1.8-21.7 15.5-31.5 8.2-7.8 26-6 14.9 3.6 23.5 13.5l12 20.5 7.5 2 6.5-5.5 13-29.5 24.5-2q9.2 19.3 25 32 24 19 68 18 51.9-2.6 76.5-32.5l21.5-31.5zM787 545l-5 7q-1 27 12 42 13 16 39 20 30 1 45-14 14-12 20-32 2-11-3-13l-24 3-37-1q-24-3-41-12zm524.5-5 8.5 2q.3 9-6.5 12l-16 8-57 20-15-9h-6q-4.4 2.1-4.5 8.5l2.5 3.5 25 15 6.5 6.5 1 4-3.5 5.5-9 1-25-12h-4l-19.5 12.5q-1.7 8.8 3.5 10.5l5 1 15-6 1.5 1.5v11l4 16.5q-22.3 3-34-5.5l-16-64 36.5-14.5 86-24z"/><path fill="#fdc59d" stroke="#fdc59d" d="M807.5 573q33.9-.4 48.5 18.5l2 6.5q-8.6 4.2-23.5 3v-1h8l7.5-2.5-.5-1.5 3-2 1.5.5-1-2 1-1-4-4-1.5-1.5-12-6-1.5.5q.9-3-3.5-1.5l-1.5.5-1.5-2.5h-2l-6-2h-2l-4 2-2.5 1.5-.5 2.5v-2l-1.5-.5 2-1-2-1 .5-1.5q-7.6-1.5-6.5 2l3 1.5-2 4.5 4.5-2 1.5 2.5-3 1 3 5 1.5 1.5 8.5 5.5-1.5.5-13.5-9.5-7-12zm461 16 2.5 1.5q8.4 13.1 6 37-2.1 15.4-12.5 22.5-5.8 4.6-18 3l-12.5-7.5-4-13 2.5-.5 11 1q12.7-1.8 18.5-10.5 4.5-5.5 3-17l-6-13.5zm-745 147-5.5 6.5-2.5 5.5-.5-1.5zm32 5 5.5 7.5h-1zm-41 17 .5 11.5h-1zm211 1 5 6zm-8 10 3 4zm-202 4 .5 9.5h-1zm175 3 6.5 1.5-4.5.5zm-174 10 .5 9.5h-1zm444 1h12l1.5 1.5-4.5 7.5-5.5 4.5-2 5 4.5 5.5 18 7 21 2 10.5 3.5 1 6-3.5 5.5-6.5 5.5-4 18-15.5 26.5q-8.9 8.1-28 6-22.9-3.4-38.5-13l-1-12.5 1-38-2-13 28.5-22.5zm-786 6 71.5.5-71.5.5zm73 1 3.5 4.5h-1zm270 4 .5 7.5h-1zm-348 6 3 4 1.5.5-1.5.5zm38 4 8.5.5-8.5.5zm311 4 .5 6.5h-1zm51 2 .5 6.5h-1zm-50 9 .5 7.5h-1zm51 1 .5 6.5h-1zm-372 2 43.5.5-43.5.5zm322 9 .5 9.5h-1zm-327 1 3.5 4.5-4-3zm5 5 70.5.5-70.5.5zm323 6 .5 9.5h-1zm52 8 .5 6.5h-1zm-51 6 .5 8.5h-1zm53 15 .5 6.5h-1zm340 19 16.5 7.5 1 12.5-24.5-1-36 4-1.5-4.5 1-12 1.5-1.5 37-2zm-381 29 4.5 7.5-2-1zm7 12 14.5 16.5-9-8zm17 18 3 4zm491 3 1.5.5-3 19-2.5 2.5-11 3-8.5-13.5zm-875 7 .5 59.5-4 3 3-3zm403 3 6 3 1.5-.5-.5 2.5zm-564 6-5 6zm-8 8-3 4zm54 33q9.4 8.1 25.5 9.5-7.6 8.9-21.5 11.5v-1q3 .9 1.5-3.5zm1017.5 3 2 .5.5 3.5zm38.5 6-4 5zm-1061 12 6.5.5-6.5.5zm1 3 3 4zm903 19 94.5.5-94.5.5zm-106 1-3 4zm45 0 1.5.5-4.5 3.5zm163 5 .5 6.5h-1zm-198 13-.5 1.5-2.5 4.5.5-1.5zm97 0 92.5.5-92.5.5zm-53 2-.5 1.5-4.5 8.5.5-1.5zm571 9 5 6zm-646 9-.5 1.5-3.5 7.5-.5-1.5zm99 2-3 4zm94 0 3.5 4.5h-1zm410 3 3 4zm-508 2 .5 6.5h-1zm513 3 4 5zm-412 4 .5 1.5-4 3zm-184 2-3 4zm45 0-3 4zm627.5 97 34 .5-31 .5 1.5 2 1 2-5.5-3zm44.5 4 5 6z"/><path fill="#fefefe" stroke="#fefefe" d="M915.5 384h9l.5 1.5-31.5 42.5-5 1-5.5-3.5-1-6 24.5-34.5zm-165 10h12l.5 1.5-41.5 56.5-8 1-4.5-7.5 34-50.5zm-47 342q7-1.5 6.5 1.5l1 5-19 11.5 4 11 11.5-7 11-1q8.9 1.6 12.5 8.5l3 13q-1.3 9.2-7.5 13.5-8.4 7.6-24 8l-3.5-2.5q-1.5-7 2.5-8.5 14.1.6 19.5-7.5l1-7-4.5-5.5-7-1-11 8-7 1-3.5-2.5-10-18v-5zm-252 57 11 20 19.5 2q.8 6.3-5.5 8l-8.5 7.5 3 21.5-20.5-9-17.5 9 3-21.5-14-13-1-2 20.5-2.5 1.5-1.5zm-278 1h73l3.5 3.5 1 6-3.5 4.5-22 1-3-1h-2l-4 1-9-1-33 1-4.5-3.5-1-6 2-4.5zm69 32h23l7.5 4.5 1 5-2 4.5-2.5 1h-72q-4.4-2.1-4.5-8.5l2-4.5 2.5-1zm915 12q8.3-.8 10.5 4.5l47 64 4 10-4.5 6.5-8 1-7.5-7.5-46-63-2-9 4.5-5.5zm-59.5 165 3 1.5 6.5 11.5 13.5 1-4.5 6-5.5 4.5 2 15.5-14.5-6-12 7-.5-5.5 2-10-10-10 1.5-1.5 12-1 1.5-1.5zm-244.5 55q9-1.5 11.5 3.5l1 7-22 43-4.5 4.5q-8 1.5-10.5-2.5l-2-8 20-40zm46 0q8.3-1.3 10.5 3.5l1 8-20 39-6.5 7.5-4 1-7.5-4.5-1-8 19-37 6.5-8.5zm58 0h97l5.5 4.5q1.8 9.8-3.5 12.5l-98 1-4.5-2q-2.9-2.9-2-10.5l3.5-4.5zm-23 39h86l6.5 4.5 1 8-4.5 5.5-89 1-6.5-3.5-1-10zm-285 13h75l4.5 3.5 1 15-47 94-4.5 5.5q-5.4 3.1-15 2l-6.5-3.5-2-5 46-89-50.5-.5-6.5-4.5-1-11 4.5-5.5zm-61 59 1.5 1.5 8 17.5 22 2-15 16.5v3l3 18.5-19.5-10-19.5 10 4-21.5-16-15 1.5-1.5 17-1 4.5-2.5z"/></svg>