<svg xmlns="http://www.w3.org/2000/svg" width="1379" height="1424" viewBox="0 0 1379 1424"><path fill="#733a2d" stroke="#733a2d" d="M1001.5 138v2l2-1 1 3 2.5 1.5.5 1.5 2.5.5-1 3h1l.5-1.5.5 1.5-1 4h1l.5-1.5.5 1.5-3.5 9.5-.5-1.5.5-1.5-2-1-.5 2-3-1.5 2-1-4.5-1.5-1.5 3.5v2l-2.5 1.5v2q-3-.9-1.5 3.5l-2 3.5-2 1.5-1.5-.5-4-3-1.5.5 1-2-1.5-2.5-1.5.5 1-13 3-8h-2l4.5-2.5 1.5-1.5.5-2.5q2 4 4 0zm120 17 6.5.5-6.5.5z"/><path fill="#733a2d" stroke="#733a2d" d="m1119.5 156 9 1 1.5-.5.5 1.5q2.2-3.2 4.5 2.5l-1 2h2l-1 2h2l-1 4h1l.5-1.5.5 1.5-1 10 1 2h-1l-.5-1.5-1.5 4-2-1.5-1.5-3.5-3.5.5 2-3-1.5.5-1.5-1.5v-2l-.5-1.5-3 5 1.5-2.5-.5-1.5h-2l-3 2-2.5 1.5 2 1-2 .5-.5 4-1.5-.5-1.5 5.5q-4.9-3.1-3.5-12.5l2-3v-2l1.5-1.5-.5 3.5.5 1.5.5-2 2-.5v-2l1-2 1-3-1-3 .5-2.5 2 1zm-98 43 6 1 2-1v2l2-1v2l3-1v2l2-1 .5 2 2.5-1v2l3-1v2l4-1v1l-1.5.5 5 2v2l-3.5 4.5-1.5.5.5 1.5-2.5.5.5 1.5-13 1-5-1v2l-4-1v2l-4.5-1-.5-2-1.5.5 1-9-1-4h2l-1-3 3-2 .5-1.5 2 1zm46 10 10.5.5-10.5.5zm-9 15 6 2 1.5-.5.5 1.5 4.5-1.5-.5-1.5 1.5 1.5 3 4h-2l-1 6 3 1-2 .5-1.5 3-1.5.5.5 1.5-2.5-1-1.5-3-1.5.5 1-2-3-1 1-2-1.5.5-5.5-5.5v-2z"/><path fill="#3e76a3" stroke="#3e76a3" d="m554.5 581-4 5zm-35 104q4.6 54.9 37 82 17.4 16.6 39 29 40.7 21.8 88.5 36.5L587.5 943l-9 1q-81.3-34.7-140.5-91.5-5.5-4-4-15l70-109q11-18.5 15.5-43.5Z"/><path fill="#5b8fbd" stroke="#5b8fbd" d="m557.5 578 3 1 16 7 50 12 99 30L841 673l.5 2 2.5.5.5 1.5 1.5-.5.5 1.5 1.5-.5.5 1.5h2l4.5 1 .5 2 1.5-.5.5 1.5 1.5-.5.5 1.5 1.5-.5.5 1.5 1.5-.5.5 1.5 2-1 2.5 1.5-.5 1.5 2-1 1 2 1.5-.5.5 1.5 1.5-.5.5 1.5 1.5-.5.5 1.5 1.5-.5.5 1.5 1.5-.5.5 1.5 1.5-.5.5 1.5 1.5-.5.5 1.5h2l17.5 8 .5 2h2l4.5 2.5.5 1.5 1.5-.5.5 1.5 2.5.5.5 1.5q1.7-2.7 3.5 1.5l1.5 1.5v2q2.8-.6 1.5 5.5l-12 9.5-1.5 2q-24.4 23.1-44.5 50.5l-25 40-15 35-5.5 6.5q-3.5 4-13 2l-24.5-6-.5-2-3 1-43.5-13-.5-2-3 1-41.5-13-.5-2-2 1-3-1-2.5 1.5 1.5-2.5q-47.7-14.3-88-36-23.9-13.6-42.5-32.5-30-27-34-80v-2l1-2-1-15 2-14 2-2-1-3 8-26.5 2-.5-1-2.5 2-.5-.5-1.5 1.5-.5-.5-1.5 1.5-.5v-2l1.5-1.5.5-2.5 2.5-4.5 1.5-.5-.5-1.5 1.5-.5-.5-1.5 2.5-1.5-.5-1.5 1.5-.5q-2.7-1.7 1.5-3.5l1.5-.5q-2.7-1.7 1.5-3.5l5.5-4.5zm103 283-4 5zm-7 8-3 4zm-6 7-4 5zm-7 8-4 5zm-7 8-4 5zm-8 9-3 4zm-7 8-4 5zm-14 16-3 4zm-8 9-7 8z"/><path fill="#dc6c42" stroke="#dc6c42" d="m613.5 1088 2.5 1.5 16 29 67 93q15.6 22.4 35.5 40.5 27.3 24.7 64.5 39.5l-7.5 8.5-14 4-14-3-22-13q-27-18-47.5-42.5l-81-108-11-18-2-12q2.3-12.7 11.5-18.5zm128 60 3 1 21 1 8.5 5.5 1 9-3.5 5.5-29-2-9.5-3.5q-3.8-3.2-2-12zm4 32q16.7-1.2 29 2l5.5 4.5 1 6-3.5 7.5h-29l-8.5-4.5-2-9 4.5-5.5zm-726 1 4.5 1.5 20 97 6 47 6 28q6.7 20.8 21.5 33.5 28 20 77.5 18.5l-8.5 11.5-10 4-24 1q-38.1-3.7-59.5-23-13.8-16-21-39.5l-31-158q.9-12.6 9.5-17.5zm87 101 9 1 23.5 12 2 11.5q-3.1 5.4-10.5 6.5l-29.5-17.5-1-8 2.5-3.5z"/><path fill="#dc6c42" stroke="#dc6c42" d="M99.5 1314q21.8 2.7 32.5 16.5.2 9.2-5.5 12.5l-4 1-8-6-19.5-8.5-2-10 2.5-3.5z"/><path fill="#79b46e" stroke="#79b46e" d="M826 227q14-1.4 22.5 4 18.5 6.5 30.5 19.5l4 16q-1.5 38.5 4 70 6.6 26.4 23.5 42.5 10.1 12.4 35 10 16.2-3.8 24.5-15.5l6-10 7-23 7.5-11.5q10.7 3.3 16.5 11.5l8 14 1 20-3 31-5 26q-14.3 43.7-35 81l-34 49-28 35-70 76.5-115.5-45-99-30-50-12-17.5-8.5q-3.7-4.3-2-14l4-9q35.1-41.9 65-89L687.5 357l4.5 24.5 7.5 10.5q12 9 36 6 38.3-9.2 60.5-34.5 19.5-19 31-46l10-33 1-26q-3.6-18.6-12-31.5Zm24 206q-12 3-19 10-10 8-13 22-2 16 4 25-15 1-24 7-16 11-19 34 0 22 11 33 15 16 41 22h18l18-9q12-9 16-26 3-23-7-33 11-1 19-7 13-9 16-28 1-19-7-27-10-13-24-20-12-5-30-3Z"/><path fill="#79b46e" stroke="#79b46e" d="M858.5 459q15.8-1.7 20.5 7.5 3.9 4.1 3 13-2.4 9.6-9.5 14.5-4.3 3.7-14 2l-10.5-7.5-3-13 6.5-12.5zm-30 55q18.1-1.1 23.5 10.5 4.7 4.8 3 16-2.7 10.3-10.5 15.5l-13 3q-13.5-2.5-19.5-12.5-3.1-4.4-2-13 2.4-11.1 10.5-16.5zm90 213L889 757.5q-35.2 38.8-58.5 89.5l-.5-1.5q30.1-64.9 79.5-110.5l3-2zm-89 121 .5 1.5-2.5 4.5-.5-1.5zm-387 9 9 10zm13 12 3 4zm103 66 12.5 6.5-1.5-.5z"/><path fill="#f48456" stroke="#f48456" d="M1029.5 230h2l1.5.5-2 1 2 7.5-2.5-1-1 2-.5-3-3-1.5-.5-1.5-1.5.5 1-2-.5-1.5 2 1zm-357 815h2q11.5-1.5 15.5 4.5l2 29q4.4 11.6 13.5 18.5l14 8 10 1 16-9 14-1 12.5 6q6.6 4.2 5 17.5l-9 19v12.5l-24.5-3-3 1q-7.3-.8-9.5 3.5-2 10.5 3.5 13.5l25 4H771l2 12q-10.9-3.3-27.5-2l-6.5 4.5-1 7 4.5 6.5 6 2h27l1.5-.5 5 16 14 27.5 2 1.5 6 16-2 12v2l-5 15 .5 1.5q-46.6-19.9-78.5-54.5l-87-118-17-30 14-11.5 1.5-2q17.3-18.7 42-30Zm-596 119h2l7 1h2q8.7-1.2 11.5 3.5l1 5-5 28q3.8 20.2 17.5 30.5 4.1 4.9 15 3l14-1q10.5 2 16.5 8.5l5 10v2l-1 4v2l-6 9.5-13 11.5-6 12 .5 1.5-22-12-9-1-5.5 3.5-1 8 3.5 4.5 26.5 14q1.7 9-2 13.5l1.5 2.5q-9.9-12.1-30-14l-5.5 3.5-1 8 3.5 5.5q16.3 4.5 27.5 13-1.8 12.4 5.5 17l11.5 7 4 5.5q11.1 9.6 8 32.5-56.2 2.5-83-25.5-12.8-14.7-17-38l-9-63-20-96 28.5-14.5z"/><path fill="#e39275" stroke="#e39275" d="M955.5 180q21.3-1.2 29.5 10.5l3 9-6.5 8.5q-7.6 4.9-22 3-12.7-1.8-18.5-10.5l-1-9 4.5-6.5zm171 26q21.3-2.3 28.5 9.5l2 10-5.5 6.5q-5.6 3.9-16 3-11.2-1.6-17.5-7l-4-9.5 5.5-9.5zm-87 15 1.5.5-.5 1.5 4-1 1 2 1.5-.5 1.5 1.5 1.5-.5-.5 1.5 2-1v2l2 1 1.5-.5q-2.7 1.8 1.5 3.5l1.5-.5-.5-1.5 4 5-1.5-.5 6.5 11.5 1.5-.5q1.3 3.8-2.5 2.5-5.8 3.7-17 2-17.6-2.9-26.5-14.5l-6-11 3.5.5 2.5-.5-2-1 1.5-.5 4 1zm-9.5 9-5 2 1 4 3 1 1 3 1-2 2 1q1-7-3-9Zm-145 18h2.5l8.5 8.5 21.5 23.5 3.5 2.5-.5 1.5-2.5-1q-1.7 4.1 2.5 3l3.5 2.5.5 1.5q1.8-2.7 3.5 1.5l1.5 2.5 2.5-1.5-1.5-2.5q26.7 19.8 63.5 29.5l-3.5.5-16-5v1l2.5.5-2 1 2 .5 2 2 .5-2 .5 2 3.5-1-.5 1.5-1 11.5-2 .5 1.5 4.5-1.5-.5-.5 2.5-1.5-.5 1 3h-2l-1 3-1 3-1 4 .5 1.5-3.5-1.5 1.5-3.5 1 2 1.5-3.5-1.5-.5-2.5.5-1.5 1.5v-2l-2.5 1.5-.5 2.5-2.5-.5 2-1-7-5-1.5-1.5-2 1-2-1-4 1-27.5-19-1.5-2-10.5-12.5 2-.5 1.5 3 1.5-2-4-4q3.7 1.4 2-4.5l-2-1q1.3 4.8-2 3.5l-2-3.5-1.5-3.5-3 1v-1l1.5-.5-1.5-3.5-2.5.5 1 2-2-1q-14.6-15.8-16-43.5 3.3 1.1 2-3Z"/><path fill="#e39275" stroke="#e39275" d="m924.5 285 3 4-3.5-2.5zm386 12 4.5 2.5q1 8.5-3 12l-12 17-1 12-6 12v4l6.5 7.5 9 2q8.4-2.1 12.5-8.5l21.5-25.5 6-2 3.5 2.5q1.1 8.1-3 11l-20 22q-4.8 4.2-4 14 2.7 7.3 14.5 5.5 11.2-4.3 18-13h4q4.5 1 3.5 7.5l-12.5 13.5q-7.1 6.9-23 5-10.2-2.7-15.5-10.5l-3-8.5q-18 .8-26-9.5l-5.5-8.5-.5 2.5q4.3 9.7 4 24l-5.5 11.5-3 1-4.5-2-1-2.5v-20q-1.5-11-8.5-16.5l-13-5-3.5-3.5-1-3 2.5-4.5 7-1q9 5 25 3l9.5-6.5 1-10-5.5-7.5-12-7-16.5-4.5.5-3.5 1.5.5 1.5-2.5 1-3 8-1q16.4 4.6 27 15l12-16zm-605 26h7l15 6 24.5 16.5 2 10q-4.3 8.7-20.5 5.5-23-3.5-37.5-15.5l2-6-.5-1.5 1.5-1.5v-2l2-3-1-2 3.5-5.5zm313 69 2.5 39.5q-3.3 53.7-19.5 94.5l-3-5-1.5 4.5 1 2.5-3 1.5h-1l-.5-1.5-.5 2-2.5-1-3 2-1-5-3.5-1-.5-4-3 2-.5-2.5V518l-3-1.5-1-2q4.8-17.7 15-30V481l2-.5 1-3 5-10v-2l2-7.5 2-1.5v-2l3-8v-2l7-20 3-17-1-2 3-8-.5-1.5q3.3.8 2-4Zm-709 11 4.5 2-1 8.5-11.5 21.5q-5.5 1-6.5-2.5.8-19.2 11.5-28.5zm93 26 6.5 3.5-1 7-13 16-3.5 12.5-4 1-5.5-4.5-1-5q3.5-19 16.5-28.5zm-63 6 5.5 3.5q-1.4 19.6-10.5 31.5-6.2 1.3-7.5-2.5v-8q2.7-14.3 10.5-23.5zm545 344-.5 1.5-3 7.5-2-.5 1-3.5-2-2 2 1.5 3-2zm-9.5 9 5 1.5-3 6.5-2 .5v2l-.5 1.5-1-3-3 2q-.9-4 5-8l2.5 1zm-22.5 38 2 1 2.5-1 1.5 5 2.5.5-8 24.5-7.5-4-1.5.5 1-2-3-1-1.5-1.5-1.5-2.5 1-3-.5-1.5 1.5.5 1-2q-3.7-1.8-.5-3.5l1.5-.5-1-2h1l.5 1.5 4.5-2-2-4.5 5 1-1-2h2zm-410 44 3.5 1.5.5 1.5 3-1 3 2 3.5 1 1.5 3 4.5 3.5 1 4.5-2 1.5-2.5.5-1.5 1.5-2-1zm41 33 1 3 2-1 1.5 2.5-.5 1.5 2.5.5-.5 1.5 3.5 1-4-5.5h3l.5 2.5 1-1 5.5 5.5-2 3h2l-.5 1.5 2.5 1.5 1.5 1.5 1.5-.5v2l3.5 4.5 3-2 2.5 1.5-.5 1.5 2.5 1.5-5.5 3.5-1.5 2 2 .5.5 2.5.5-2 2-.5-2-1 2.5-1.5.5 2 2.5-1 1 3 .5-2.5-1-2 2.5 1.5 1.5.5-.5 1.5 9 2v-2l7.5 4.5-4 1 5.5 1.5 1.5-.5-.5 1.5 3.5.5-.5 1.5 6.5 2 1.5 3 1.5-.5.5 2.5 2.5.5-3 1 2 1q-.5 7.5-5.5 10.5-17.1-6.4-29.5-17.5l-.5-1.5-1.5.5-.5-2.5-2 1-2-3 1.5.5-1.5-1.5-3-4-4.5-2.5 2-3-2-.5-1.5 2-3-1 1 2 2.5 1.5-1.5-.5-25.5-22.5h2l-1-5.5 3-1.5-2-.5.5-2 3.5.5zm31.5 33-3 3 2 2 2-1z"/><path fill="#e39275" stroke="#e39275" d="m509.5 921 1.5 2.5-4-1zm167 121q10-.5 13.5 5.5l1 9h-1q1.8-7.8-2.5-9.5-4.4-3.1-13-2l-3 1q-25.4 10.7-42.5 29l-1.5 2-13 11 2-3 1.5-1.5q23.4-26.6 58.5-41.5Zm22 47 7 8zm-90 2-3 4zm152 5q12.1 1.4 17.5 9.5l3 12-10 20-1 13.5-2-.5v-12l9-19v-9l-5-8.5zm-674 64 10 1 4.5 3.5 1 4-2.5 11.5-.5-5.5v-2l-1.5-5.5-11-3-3 1-5-1-3 1h-8l-15 4-28 14-2-3q27.4-14.6 64-20Zm685 10 4.5 12.5-1.5-.5-1.5-1.5zm-762 15-4 5zm86 10 .5 6.5h-1zm681.5 5q3-1.2 2 2.5l24 46q5.4 10.1 3 28l-7.5 14.5-.5-2.5 5-15v-2l1-11-6-17.5q-3 1.3-2-2.5-13.1-17.1-19-40.5Zm-671.5 24 7 8zm51 16q9.9 4.6 8.5 20.5l-20 22-6.5 12.5-.5-2.5q4.6-14.9 16.5-22.5l1.5-1.5 7-9v-2l-1-4v-2zm544 12 15 16zm-567 60-1.5 2.5-1 12.5-3-1.5q3.5-4.2 2-12.5zm-9 35q.2 8.3 5 12 11.6 4.4 18.5 13.5 10.2 9.3 8 31l-1 2.5-2-.5v-17l-8-16.5-5.5-4-12.5-9.5q-4.4-3.9-2.5-11.5Z"/><path fill="#e39b82" stroke="#e39b82" d="m957.5 179 8.5.5-8.5.5zm10 1 5.5 1.5-2.5.5zm13 5 4 5zm-38 17 3 4zm44 1-3 4zm143 2 6.5.5-6.5.5zm-167 6 8.5.5-8.5.5zm189 0 3 4zm-126 10 13.5.5q-13.1-1.1-20.5 3.5l1-2zm22 3q10 3.5 15.5 11.5l4 9h-1l-8.5-13.5zm109 2 .5 1.5-5 4zm-37 2 4.5 3.5-1.5-.5zm-233 19 6.5 5.5-5.5-4.5zm-2 1 .5 3q-3.7-1.3-2 4.5h-1zm12 9 4 5zm9 10 12 13zm14 13 6 8 1.5-.5-1.5-2.5 9.5 7.5-2 1 .5-1.5-4 2-4-5-1.5.5-1.5-2.5-1.5 1.5.5 1.5-2.5-1.5 1.5-2.5q-4.2 1.1-2.5-3l2.5 1 .5-1.5zm-23 11 3 4 1-2 2.5.5 1 3-2 1 2.5.5 1.5-.5 1 4.5 4 2 .5-4 1.5 6-2 2 4 4-2 1.5 4.5 5.5-15.5-18.5 2-1-4-2zm408 8-3 4zm-46 1 1.5.5-2 1-.5 2.5-1.5 2.5h-2l1 4-2-1q.3-7.2 5.5-9.5Zm-285 14 4 1 2-1v1l-1.5.5 2.5.5 2-1v1l-1.5.5 2.5.5 2-1v1l-1.5.5 9 3-4 8-1 3-9 22.5-5-.5v-2l-1.5-3.5-1 4 1.5.5-1.5.5-6.5-2.5 3-2 .5-2.5 1.5.5-.5 1.5 1.5-1.5 2.5-.5 2 1 .5-2.5 2.5-6.5 1.5.5 1-3-.5-3.5q3 .5 1.5-6.5l1-5.5-3-1.5h-1l-2 1.5-1.5-2v-1l1.5-.5zm-50 10 4 5zm-195 5 5.5 3.5-1.5-.5zm621 1 3.5 2.5-.5 3.5-2-5zm-8 2-9 10zM697 336l2 2-2 .5v2l-1 5 1.5 2.5-3.5-4.5z"/><path fill="#e39b82" stroke="#e39b82" d="m953.5 342 3 1 2.5-1 1.5 3 2 1 1.5-.5.5 2.5 1.5.5-3.5 1.5-4.5-2.5.5-1.5-2 1-6.5-3.5zm388 10-8 9zm-588 4-3 4zm567 1-5 6zm-60 2 3 4zm-524 2 10.5.5-10.5.5zm280 9 2.5 21.5-1 4.5-2 .5v2l-2 8 1 2-5 23-6 14-1 3-2 7 1 2.5q-3.3-1.3-2 3.5l-3 5-1 3-5 10 .5 1.5q-3-.9-1.5 3.5l-10 16-4 13 .5 1.5-1.5-.5 1 3.5q4.1-1.7 3 2.5l1.5-.5 2.5 1.5q-1.5 4.4 1.5 3.5l4.5 3.5-.5 1.5 2-1 2.5 1 .5-2 1 2 .5-2 3-1.5h-2l2.5-5.5 1 3 2.5-1 .5 2 1-2 .5 1.5-2.5 5.5-1.5-.5 1 3-6.5 10.5-15.5-14.5-9-13q23.4-37.6 38-84l5-26zm-109 5 3 4zm455 8-8 9zm-47 6 3 4zm-296 4 .5 8.5h-1zm312 5 7.5.5-7.5.5zm-311 9 .5 12.5h-1zm0 25 .5 10.5h-1zm-614 9-6 7zm514 287-.5 1.5-28 39-11.5 20.5-5.5-1 3 3.5h1l.5-1.5.5 1.5-2.5.5-2-1-2 4-2.5.5-.5 3.5 3-2 1 3 1-2 .5 1.5-3 2 1 2-12.5 28.5-3.5-1.5-.5-1.5-3 2-1-2h2l1.5-3-3.5 1-1.5-.5-1.5 3.5-3.5-.5 1 3.5-2 .5.5 1.5-2-1-4.5 3.5 1 3-2 6 2.5 1.5v-2l1.5 1.5-1 2 3 1 2 3.5h3.5l1.5-.5-1 2.5 2-1.5h1l-3 11.5-23-5 3-11.5-1-2 12.5-23.5 1.5-.5-.5-1.5 1.5-.5-.5-1.5 1.5-.5-.5-1.5 1.5.5 1-2-.5-1.5 1.5.5-1-2 3-1-1-2 3-1 1-3-.5-1.5q1.7 2.8 3.5-1.5l3-6-.5-1.5 2.5-.5-1-2 3-1-1-2 3-1-1-2 4-3q-2.8-1.7 1.5-3.5l1.5-.5q-2.7-1.8 1.5-3.5l2.5-1.5.5-2.5 2.5-.5 1-2 .5-2.5 1 1 6.5-6.5zM883 782l-4 6h2l2-4zm9.5-28-3 4zm-454 103 13 11 2.5.5.5 2.5 4 3 1.5-.5-.5 1.5 3 2 1.5-.5-.5 1.5 6 4 1.5-.5q-3.2 2.2 2.5 4.5l26 17 1.5-.5-.5 1.5 2 1 1.5-.5-.5 1.5 4 2 1.5-.5-.5 1.5 61.5 35.5-19.5 22.5-2.5-.5q5.4-3.1 6-11l-2-1-.5-2.5-1 2-1-2 1.5-.5-2-.5q1.7-4.1-2.5-3l-4.5-2.5.5-1.5-9.5-2.5 4-1-6.5-3.5-5 2v-2l-4 1v-2l-2.5 1.5-.5 1.5-3-4-1.5-1.5-1.5.5-1.5.5 2 1-2 .5-1 2.5 2.5 3.5 1.5-.5-2-3q2-4.5 4-1l.5 3.5-2-1 1 3-1.5-.5 1 2q-2 3.5-4-1l-.5-1.5q-1.8 2.7-3.5-1.5l-.5-1.5q-2 3-4-2l-4.5-3.5 2.5-.5 4.5 1-1-3.5h1l1.5 1.5-.5 1.5-1 2 4.5 2.5v-3l-1.5-2 4-2.5-2-3 3-1-3.5-1.5q-2.8 4.8-5.5-1.5l-1.5-2.5-1.5-1.5-4-3-1.5-3.5-.5 2-2-.5-.5-2.5-2 1v-2l-1.5-.5.5-1.5-2.5-.5 1-2-2.5-1.5-1.5.5-.5-2.5-2.5 3.5.5 1.5h-2l-1.5 1.5h2l-2 5 11 10 .5-1.5.5 1.5.5 3.5-35.5-38.5h2l1.5-1.5 2.5-.5 2-4-4.5-5.5-2.5-1.5-2.5-1.5-2.5-1-1.5-2-3.5.5-1.5-2.5-1 3-1-3-2.5-1.5-3-9zm55.5 53q-2 3 2 2l1 3 2-1zm-42.5-26 3 4z"/><path fill="#e39b82" stroke="#e39b82" d="m492.5 928 2.5.5.5 2.5 1.5-.5-.5 2.5zm25 16 1.5 3.5 2 3-2.5-1.5-3.5-2.5zm174 119 .5 7.5h-1zm-60 7-3 4zm-513 164 6.5.5-6.5.5zm578 14 3 4zm110 13 .5 11.5h-1zm-645 5-5 6z"/><path fill="#e4bca5" stroke="#e4bca5" d="m1012.5 1 2 1h2l10-1 4 2 11-1q28.3 3.3 48.5 14l.5 2 2.5-1 .5 2h2q27.4 12.6 45.5 34.5 14.1 15.4 23 36l-1.5-.5-1.5-1.5-3-5 .5-1.5-1.5-1.5-23-31.5-2-1.5q-19.9-20.1-48.5-31.5l-27-8-35-3-6 2-17-1q-6.4 3.1-17 2L968 11l1.5-2q12.9-5.6 30-7h2l7 1zM959 12l2 2q-32.4 9.9-53 32.5l-1.5 1.5-4.5 6-2 1.5-14 17-18 36-7 33v30q2.5 26.3 12 44.5l-2-1.5q-14.4-28.1-11-74Q870.6 73.6 913.5 39L932 27l1.5-2 24-12 1.5.5zm206.5 81 1.5 3.5-1 2h2q14.1 30.4 12 77l-5.5 31.5-.5-3.5v-2l3-18v-2l1-12-1-28 .5-1.5q-2.7.6-1.5-5.5l-3-14 .5-1.5-1.5-2.5.5-1.5q-3 .9-1.5-3.5l-4-9 .5-1.5-1.5-1.5-2-4zm-595 76q7.5-2 9.5 1.5l-1.5-.5-4 1-3 1-20 3-38 20q-45.6 31.4-85.5 68.5l-2.5 1.5-1 3-7.5 5-2 3.5-2-1 36.5-33.5 58-45 35-20 16-6 8-1 4 1zm18 0h4l27 2 33 5 97 22q42.2 11.5 76.5 30l9 19.5-1 3h1l.5-1.5.5 2.5-1 5 1.5 9.5 1-7 .5 8.5v2l-.5 8.5-1-5-.5 7.5 1 4h-1l-.5-2.5-.5 4.5 1 3-3 11.5-2 .5 1 2.5-2 .5 1 2.5-2 .5 1 2h-2l1 3-1 2.5-2 .5.5 1.5-1.5-.5 1 3-1 2.5-2 .5.5 1.5-1.5-.5 1 2h-2l1 2-2 1 .5 1.5-1.5.5v2l-1.5 2.5-1.5-.5 1 2h-2l1 2-3 1 1 2-2 1 .5-1.5-1.5 1.5-4 6h2l-5 3 1 2-8 6-4.5 5.5-5.5 4.5q3.3 2.2-2.5 4.5l-2.5.5-2.5 3.5-1.5-.5-1.5 2.5-1.5-.5-1.5 2.5-1.5-.5-1.5 2.5-16 8-1.5-.5-.5 1.5-2-1v2l-4-1v1l1.5.5-1.5.5-4-1-28 4v-1l2.5-.5-4.5-.5-2 1v-1l1.5-.5-3.5-.5-2 1v-1l1.5-.5-2.5-.5-1.5.5.5-1.5-2 1-2-4-1.5.5.5 1.5q-4.2-1.8-1.5-3.5l-1.5-2.5-2.5-.5h2l-2.5-4.5-1.5.5 1-2-2-.5-1-5.5 1-8h-1l-.5 4.5-.5-10.5v-2l4-12.5 2 .5-4 15 2 6-1 3 1 3q1.6 12.9 10.5 18.5 10 6 28 4l5-2 3 1q28-8.2 46.5-25l3.5-4q21.8-18.7 33.5-47.5l11-34 1-20q-1.9-21.3-11-34.5l-38.5-18-21-7-9-1-11-5-78-18-43-7h-2l-8-1-3 1-9-2h-4l-4-1-5.5 1zm583 48 .5 2.5q-4.6 23.4-15.5 40.5l-1.5-2.5 8-13 8-25zm-290 35 4.5 22.5 2 46 3 13v2q4.3 22.4 16 36.5l3 1.5 2.5 3.5q9 9 26 10l3-1q13.4-1.1 20.5-8.5l1.5-2.5 1.5-1.5q8.8-6.8 11-19.5l3 1.5h-2l1 2h-2l1 3h-2l1 3-2.5 3.5-1.5.5.5 1.5-1.5.5.5 1.5-1.5-.5-1 2q2.7 1.8-1.5 3.5l-2.5.5 1 1-4.5 4.5-1.5-.5-1.5 2.5-7 3-2-1v2l-10 1-5-1-5 1v-1l1.5-.5-2.5-.5-2 1v-1l1.5-.5-2.5-.5-2 1v-1l1.5-.5-2.5-.5-1.5.5.5-1.5-2 1-1-3-1.5.5.5 1.5-1-3-2 1q-18.6-14.4-25.5-40.5l1-3h-1l-.5 1.5-.5-1.5 1-4h-1l-.5 1.5-.5-2.5 1-6-2.5-19.5-1 7-1.5-19.5v-2q1.3-24.2-1.5-41.5Zm264.5 19 3 .5-4 3 1 1-4 4-12.5 13.5-16 11-1.5-.5-.5 1.5-.5-1.5 3-1 1.5-1.5 22.5-18.5zm143.5 0q14.8.7 21.5 9.5l4.5 12.5 13-1q12.3 2.7 18.5 11.5l-1.5 1.5-5-6-11-5h-14l-2.5-2.5q-1.5-9.5-7.5-14.5l-9-4h-9q-14.5 3.5-21.5 14.5l-5.5 9.5.5-3.5 10.5-14.5q6.7-6.3 18-8Zm-877 6-6 7-2.5 1.5-2.5 3.5-16.5 14.5-14.5 16.5-.5-1.5 12-14.5 6-5.5 16-13.5 3.5-5 1 1zm167 6 26 5 43.5 15 1.5 2 1.5-.5-2.5 1.5-22.5-8-.5-2-2 1q-19.3-10.2-47-12l-57 38-11.5 5-1.5 2-72 46 1-2zm664 24q7.9-1.7 7.5 1.5l-2.5.5-11 1-12.5 8-9.5 19-.5-2.5q3-13.6 12.5-20.5zm-145 2 1.5 2q-28.5 15.7-77.5 12l-17.5-2q-1.4-4 5.5-2l17 3 2-1 19 1 3-1q29.3-.2 47-12Z"/><path fill="#e4bca5" stroke="#e4bca5" d="m675.5 313 1.5 1.5 1.5-.5 5 3 1.5-.5 1.5 1.5h2l5.5 1.5-3 1.5-.5-2-2 1-14.5-5.5zm318.5 5 3 .5-4.5 3.5 1.5-2.5zm-625.5 2 .5 1.5-9.5 7.5-30 13-15 12q-3-1.5 0-3l12-9 31-14zm327 0 5.5 3.5-1.5-.5-5.5-1.5zm658 3 2 5q11.4 1.6 17.5 8.5l3 8-2-1-6.5-9.5-14.5-6zm-138 15 .5 4.5-1 20 3 11-2 .5q-3.9-12.6-2-32.5zm161 15q3.3 1.8 1.5 8.5l-6.5 18.5-.5-2.5q6.3-8.7 5.5-24.5Zm-361 4 .5 2 19 16.5q-1.5 3-3 0l-.5-2.5-8.5-6.5-1.5-1.5-2.5-1.5-1.5 11.5-1.5-12.5 1-2h-2zm-722 14 .5 1.5q-13.7 13.3-13 41l8 12-1.5.5q-7.4-5.1-8.5-16.5l1-3q1.1-23.4 13.5-35.5Zm742 6 2 4 4.5 3.5 29 52 49.5 58.5h3l16.5-14 17.5-19 19.5-16 1.5-3 3-1-2 3-2.5 1.5-1.5 1.5-31.5 29.5-1.5 1.5-13.5 12.5-1.5 2.5-6 3-5.5-3-24-33-4-2.5-19-22-21-40-13-17zm188 14 .5 4.5q-14.2 22.3-33.5 39.5l-.5-2.5 30-32zm136 7 .5 1.5-15.5 19.5-1.5-.5-1.5 3.5-17 12q-14.7 3.3-25 11l3-4q32-9 49.5-32.5zM436 435l2 .5-1 3q-.9 15.1-10.5 21.5-4 5.5-15 4v-1q13.5-.5 18.5-9.5 5.9-7 6-18.5Zm-139.5 5q2.3 13.4 9.5 21l9.5 5 11.5 2.5-3.5.5q-14.6-1.4-21.5-10.5l-6-13zm988 25 .5 1.5-19.5 29.5-1.5.5-1 3-1.5 2.5-1.5-.5zM388 469l2 .5-8.5 13.5q-8.9 9.6-28 9-11.9-2.6-17.5-11.5l-4-9 3 2 7.5 12.5q2-3 4 2l11 3q19-2 27.5-14.5zm861.5 47q3.3 1.8-.5 3.5l-31.5 40.5-1.5 1.5-3 1.5-1 3.5-13.5 14.5-2.5 1.5-9.5 10.5q-17.1 17.9-41 29-14.1 6.9-38 4l-17-5-32.5-19.5-1.5-2.5q-2 3-4-2-27.4-20.6-50.5-45.5l.5-2.5 6.5 8 3 1.5 5.5 6.5 32.5 28.5.5 1.5 1-1 4 4 32 20q9.2 5.3 24 5h2l8 1 13-3h2l11-2 25.5-16 1.5-2 19.5-17.5 1.5-2.5 5.5-3.5-.5-1.5 1.5-1.5 3-1.5 3.5-5 1.5-1.5 6.5-7.5 1.5-.5-.5-1.5 2.5-1.5 3.5-4.5 1.5-1.5 23.5-31.5 1.5-.5zm-327 208q55.6 27.8 102.5 63l1.5 2q16 13.5 24.5 34.5 7.1 15.9 5 41l-3 8 1 3-7 19.5q-3.3-1.3-2 3.5l-9 13.5-11 8-4.5 6-3 2-13.5 9.5-1.5 2.5-12.5 8-3 3.5-34.5 25.5-11.5 6-1.5 2-2.5 1-1.5 3-34.5 23-1.5 2-123 87 1.5-2.5 1.5-1.5L967 965l1.5-2 34.5-25 1.5-3 18.5-13 1.5-2 18.5-21.5 10-28v-2l1-5v-20l-5-20q-9.4-22.6-27.5-36.5l-43-30-43-25-11-4-6 5 1.5-2.5-.5-1.5-45 48 2.5-3.5q20.1-27.4 45.5-49.5Zm-52 58-3 4zm-4 5-.5 1.5-20.5 31.5.5-1.5zm-34 58 .5 1.5-5.5 14.5-1.5-2.5zm-393 11Q497 908 572 942.5l-2.5 1.5-36-19-43-27-51.5-40.5zm-3 4 .5 2.5-39 61-15.5 19.5-13.5 8q1.3 3-2.5 2l-20 10-25 8-28.5 13q1.3 3-2.5 2-27.5 15.3-48.5 36l-13 16-3 1.5-49 57.5-2 1.5-5 3.5-27.5 30-13.5 11-1.5 2q-10.1 12.4-25 20v-1l43.5-37 4-5.5 13-14.5 2-1.5 63-71 24.5-24.5 41-28q26.6-14.9 59-24l25-13 8.5-8.5z"/><path fill="#e4bca5" stroke="#e4bca5" d="m853.5 866 12.5 6.5-4.5 6.5-15.5 9-1.5 2-24.5 19.5-1.5 1.5-9.5 10.5v2.5l-4 2.5-10 14.5-2 1.5-26.5 33.5-2.5 1.5-17.5 19.5-2.5 1.5-4.5 5.5-2.5 1.5-2.5 3.5-16.5 13-1.5 3-22 19-5 2v-1q39.1-30.4 72.5-66.5l42-54 24.5-25.5 20.5-13 1.5-3 3.5-.5-.5-1.5 11.5-6.5-1.5-2.5-9-4zm-284 79-4 5zm-20 22-14 15-3.5 3.5-3 4.5-6 4.5-4 6-4 5.5-2 1.5q-13.2 17.8-33 29l-4.5 3.5q-20.2 16-47.5 24l-1.5 2q-58.4 25.6-108 60l-99 68-59 47 10-11 2.5-1.5 1.5-2.5 3.5-1 1.5-3q83.6-64.4 175-121 45.6-28.4 99-49 25.5-13.5 45.5-32.5l1.5-1.5 8-9 1.5-1.5 33-36.5zm-394 305-7 8zm1 118 .5 10.5h-1zm-40 33 8.5.5-8.5.5z"/><path fill="#f6ba9e" stroke="#f6ba9e" d="m1021.5 4 35 3 27 8q28.6 11.4 48.5 31.5l2 3q25.3 24.2 37 62 9.5 28.5 6 70l-1 3-6 38-7 22q-13 28-34.5 47.5-18.2 14.3-42 23-15.8 5.7-36 7h-2l-20-1-2 1-23-4h-13l-26-9q-38.1-16.9-63.5-46.5L887.5 247l-1.5-.5 1-2-17-34-4-12q-7.3-23.7-5-57l5-27 7-18q10.9-24.3 27-42.5l2-1.5 6-4.5 6.5-8 14-11 38-18 15-4 33-2 2 1zM994 137l-4 2q-8 5-10 17l1 10 2 4 2 2 2 4 8 2 10-3q6-6 8-16l-1-6 1-2-3-8-9-6zm127 17-2 1q-8 5-11 16-2 11 2 17l10 7q7 1 11-2 9-7 9-23l-1-3-1-2-2-5-6-6-2 1-3-1-2 1zm-163 25-11 4-8 11 3 9q7 8 21 9 13 1 21-5l4-5q1-9-3-12-8-11-27-11Zm65 19-3 1-7 11v6l7 17q10 15 34 17 15-1 24-9l11-16 3-5-3-10-4-2-8 1-23-2-25-9zm107 7-11 4-5 7 1 9q5 8 17 10 14 2 21-3l5-7-3-10q-8-10-25-10Zm-557.5-34 22 1 3-1 5 1 10 1h2l8 1h2l32 4 88 20 11 5 9 1 21 7 38.5 18q12.3 17.4 11 49.5l-8 30-13 27q-9.9 17.1-24.5 29.5l-5 4q-17.8 18.2-47 25h-2l-20 1q-12.9-1.6-18.5-10.5l-5-13v-2l1-3-2-8 3-12.5q19.5 14.2 52.5 16l7.5-5.5 1-5-4-8.5-26.5-16-18-5-5 2-8-5-66-24-37-11-11-1-100 62-45.5 31.5-2 7 4 18v2l1 31q-2 16.5-12.5 24.5l-5 3-18 3-6-1-1.5.5 3-12q9.8-6.2 13-19l-3.5-4.5h-6l-8.5 6.5q-11.1 8.4-11 28l3.5 4.5 3.5 1q-2 9.2-9.5 14-7.8 7.7-23 8-10.2-1.7-15.5-8.5l-7-11 3-1.5 8-20.5 1-12-6.5-2.5Q328 446.5 326 466.5l.5 1.5q-13.2-1-20.5-7l-8-14.5V436l6-2.5 11-26-2.5-3.5-5-1-3.5 2.5-10.5 23.5-9.5-8.5q-5.1-6.9-3-21 4.9-20.6 18.5-32.5l1.5-1.5 6-5 1.5-1.5 21-17 30-13 14.5-12.5 12.5-14.5 17.5-15.5 1.5-2.5 9.5-7 3.5-4 7.5-6.5 2-3q39.9-37.1 85.5-68.5l38-20zm313 99q14.9 35.6 42 59 19.8 17.4 48.5 25-3.3 13-11 21l-3 1.5-1.5 2.5-20 8h-2q-19.3-1.2-28.5-12.5l-1.5-2.5-1.5-1.5-10-15-7-21v-2zm402 3h9l11.5 6.5 7.5 14.5q21.1-2.6 28.5 8.5 8.9 8.8 9 25.5l14.5 6 4.5 4.5q6 9 4 26-12.4 36.1-38.5 58.5l-14 10q-16.9 3.6-27.5 13.5-34.8 59.2-77.5 110.5l-1.5 1.5-15 17.5-2 1.5-6 5-8.5 9.5-12.5 9-1.5 2q-13.3 14.2-36 19l-2-1-3 2-13 1-5-2-8 1-17-5-27-16-48.5-42.5-1.5-2.5-1.5-1.5-13-14 9-20 12-49q6.1-28.4 4-65l-3-26v-16l1.5-2.5 3.5 2 1.5 3 7.5 6.5 16 22 21 40 21.5 24.5 1.5 1.5 24 31.5 6.5 3 6.5-4.5 1.5-2.5 13.5-11 13.5-15 19.5-16 1.5-3 7.5-5 3.5-5 3.5-2.5 27-30q4.9-3.1 4-12l-9-28v-19q1.5-16.7 10-25.5 7.7-9.2 24.5-10l2 1 1.5-.5 1.5 2.5q21 2 31.5 14.5l2 9-4.5 7.5q-6.9 4.6-20 3l-16-3-4.5 3.5 2 7.5 13.5 5 6.5 6.5q5.4 9.1 4 25l-1 5 4.5 5.5 6.5-1q6-7.2 4-23.5l-3-11 3 2 6.5 7.5q7.7 6.6 21.5 6 1.3 8.4 7.5 13 6.4 6.6 20 6 16.9-3.1 24.5-15.5l3-7-3.5-4.5-7 1-14 11-9 1-6.5-4.5-1-4 4-10 22-25 2-9q-1.2-3.7-7.5-2.5l-13.5 11.5-17.5 21.5q-3.7 3.3-12 2l-7.5-5.5-2-6q7.5-8 7-24l13-19 3-10q-1-4.5-7.5-3.5l-7.5 5.5-7.5 11.5-19-12-15.5-2.5q5.8-13.2 16.5-21.5zm-363 455 11 4 66 40q20.1 12.9 35.5 30.5 18 20 17 59v2l-2 6v2l-9 27-18.5 21.5-3 2-18.5 14.5-1.5 1.5-34.5 25-1.5 2L778 1097l-2.5 5q-8.2-8.3-26-7l-23 11q-18.1-3.9-27.5-16.5l-7-14-2-29.5 28-22.5 1.5-1.5 17.5-15.5 1.5-2.5 5.5-4.5 1.5-2.5 12.5-11.5 7.5-9.5 2.5-1.5 25-33.5 2-1.5 12.5-15.5 1.5-2.5 9.5-10.5 1.5-1.5q11.1-12.1 26-19.5l1.5-2 18.5-13.5-1.5-3.5-13.5-6.5q21.7-80.8 70.5-134.5zM436 863l2 1.5q21.9 36.1 52.5 63.5 25.2 23.8 58.5 39.5l-6 3.5-33 38-6 4.5-3.5 4.5-1.5 1.5-11.5 10.5-34 22q-53.4 20.6-99 49-92.5 57-176.5 122.5l-1.5 1.5-3.5 2.5-1.5 2.5-11.5 10.5.5 1.5q-9.5-9.5-29-9l-15 1-9.5-8.5q-11.3-10.2-11-32l6-21v-7.5l5.5-2 21.5-18 1.5-2 29.5-28.5 10-12.5 5-3.5 2-3 50.5-57.5 1.5-1.5 13-14.5q21.5-22 51-36-1.2-3 2.5-2l26-13 25-8 22.5-10 1.5-2 14.5-10.5 45-65z"/><path fill="#e3c4b2" stroke="#e3c4b2" d="M1011.5 0q24.1-1.1 42.5 3.5l-4.5.5-18-2h-2l-7-1-6 1h-2l-2-1-4 2-7-1h-2L991 3.5l.5 1.5-6-1L968 9l-.5 2-1-2-1 3-1-2-.5 2-2.5 1-2.5-1-.5 2-2-1L932 25l-1.5 2Q909.9 39.4 895 57.5 874.5 82 864.5 117l-.5-2.5q14.1-45.4 45.5-73.5 36-35.5 102-41Zm49 5q53.1 12.9 82.5 49.5 20.3 22.7 30 56h-1l-2.5-7.5-1.5.5 1-3-1.5-2.5-1.5.5 1-3-3-1-2-5h2l-4.5-8.5-1.5.5 1-2q-12.1-22.4-30.5-38.5-14.6-13.9-34-23l-1.5.5-1.5-1.5-1.5.5-2.5-1.5-3-3-24-7zm113 107 1.5 5.5h-1l-.5-2.5-1.5.5zm3 11 1.5 8.5h-1zm-315 5 .5 4.5-1.5 7.5-.5-6.5zm318 12 .5 8.5h-1zm-320 1 .5 32.5h-1zm321 12 .5 18.5h-1zm-52 1 7.5 5.5-4.5-3.5zm-559 14q22.9-1.9 40.5 1.5l-9.5.5-8-1-4.5.5-.5 1.5-.5-2-4 .5 2 1-4.5.5h-2l-1.5-.5 2-1-8.5-.5v2l-5-1-23 7-35 20-58 45-24.5 22.5.5 1.5h-2l-1.5.5.5 1.5-1-1-8.5 8.5.5 1.5-5 4q-2.2-3.3-4.5 2.5l-1.5 1.5-14.5 13.5-6 7-11 11-1.5 4.5q-2-3-4 2l-5 3 1-2 17.5-16.5 11.5-12.5q52.9-52.6 114-97l40-23zm570 1 .5 8.5h-1zm-528 1 6.5.5-6.5.5zm16 2 18.5 2.5-5.5.5-13-2zm26 4 33.5 6.5-3.5.5-30-6zm526 0 .5 6.5h-1zm-491 7 15.5 3.5-3.5.5-12-3zm21 5 27.5 6.5-3.5.5-24-6zm468 3 .5 5.5-1.5 5.5-.5-4.5zm-435 5 6.5 1.5-2.5.5zm8 2 5.5 1.5-2.5.5zm10 3 14.5 4.5-2.5.5zm414 1 1.5 4.5-10.5 36.5-.5-1.5 6-21-.5-1.5 1.5.5-.5-2.5-1.5.5 1.5-3.5 1.5.5-1.5-1.5v-1q3.8 1.3 2.5-2.5h-1l-.5 1.5-.5-2.5zm-398 4 26.5 10.5-1.5.5-23-9zm237 3 .5 6.5h-1zm-145 1 2.5 6 3 1.5 11 21 1 8-4 3 3-5-2-3 .5-1.5-2.5-1.5zm-64 7 17.5 8.5-1.5-.5zm23 9 7.5.5-7.5.5zm47 19 4 5zm288 4 .5 1.5q-12.8 25.7-33.5 43.5-14 12-33 19v-1l3.5-1 .5-2 1.5.5.5-1.5h2l1.5-.5-.5-1.5 3-1 1.5.5.5-1.5 1.5.5 1.5-2.5h2q15.9-8.1 26.5-21.5l4-5-.5-1.5 3.5-2.5-2-1 9.5-13.5 2.5-.5zm-327 3 1.5 13.5h-1zm449 19 4.5.5q-14.7 2.3-22 12l-7 11q2.9 2.8-1.5 5.5l-2 1 .5-1.5q4.8-13.2 14.5-21.5zm8 0q14.3.2 19.5 9.5l1 2-2-1-4.5-5.5q-4.2-4.8-14-4zm-456 2 .5 7.5h-1zm477 11 1.5 8 2 .5-1.5.5zm-736 1 7.5.5-7.5.5-9 6 1-2zm19 3 16.5 4.5-2.5.5-14-4zm723 3 7.5.5-7.5.5zm-753 1-1 2-3 2 2-3zm48 1 6.5 2.5-1.5.5zm719 0 6.5 3.5-1.5-.5zm8 4q15.2 7.2 13.5 30l2 .5-1.5.5-2-5-1 2-4.5-19-2-.5 1-2zm-784 1-2 3-5 3 1-2zm79 3 9.5 3.5-1.5.5zm13 3 14.5 5.5.5 1.5 2-1 8.5 3.5-.5 1.5 1.5.5-1.5.5-27.5-10.5zm-104 2-1 2-51 32 1-2 14.5-8q-1.2-3 2.5-2zm699 0 8.5.5-1.5 2.5-.5-2h-6.5zm-5 1 3.5.5q-14.6 2.9-22 13l-4.5 9.5-.5-1.5q3.5-10 11.5-15.5zm-354 1 2.5 24.5h-1zm208 5 1.5.5-8.5 3.5v-1zm-267 2-.5 1.5-1.5 3.5.5-1.5zm-149 1 7 2 2-1v1l-1.5.5 4.5 1.5 1.5-.5 1.5 1.5 2-1v2l7.5 2.5-1.5.5-21-7zm320 2 3 1 4.5.5q.9 3-3.5 1.5l-6.5-1.5zm9 3 6.5.5-6.5.5zm-183 1-.5 1.5-1.5 3.5-.5-1.5zm191 0 7.5.5-7.5.5zm43 0 6.5.5-6.5.5zm-31 1 28.5.5-28.5.5zm-675 6 1.5.5-16.5 7.5v-1zm466 4-.5 1.5q-11.3 20.7-28.5 35.5l-6 5 9-10 5.5-4.5 5-7.5 2-1.5 7-10.5 2-1.5zm71 1 1.5 6.5h-1zm326 1 1.5 2.5-1.5 3.5zm-880 2-1 2-6 3 1-2zm157 3-1 2-5 3 1-2zm884 0q4.7 7.2 3.5 20.5h-1q1.2-6.7-2-9v-2l-1-4 1-3zm-1050 2-1 2-10.5 7.5v2l-1.5 1.5-5.5 4-1.5 3-4.5 3.5-1.5 1.5-4.5 3-.5 2q-1.7-2.8-3.5 1.5l-7.5 14.5-.5-1.5q7.9-18.1 22.5-29.5zm888 0 .5 21.5h-1zm-730 3-1 2-8 5 1-2zm209 1 .5 1.5-2.5 4.5-.5-1.5zm285 9 .5 1.5-3.5 7.5-.5-1.5zm39 3 6.5 5.5-5.5-4.5zm-556 2-2 3-2 1 1-2zm917 2 .5 4.5-1.5 3.5-.5-2.5zm-353 2q14.2 11.8 23.5 28.5l-2-1-7.5-10.5-4.5-3.5-3-4 1-1zm-334 1 .5 7.5h-1zm524 0 1.5 9 2 1.5 5 11-.5 3.5 1.5.5-4 10-30.5 34.5q-1.8-2.7-3.5 1.5l-.5 2.5-2.5.5-1.5 2.5-4.5 2.5-1.5 1.5-35.5 33.5-1.5 1.5-15 14 6-7 3.5-3.5 75-71 13-16 1-6q-7.2-10.9-7.5-26.5Zm-766 3-1 2-11.5 8.5-1 11q7.3 16.7 5 43l-2.5 9.5-.5-3.5v-4l2-5-2-.5 1-3.5v-2l-1-2v-2q1.7-11.2-2-17l1-2-2-3-2-15 1-3 1-3.5zm523 1-.5 1.5-4 6.5-6.5 5 9.5-10.5zm403 5 .5 1.5q-12 28.5-33.5 47.5l-16 11 1-2 16.5-11.5 2.5-4.5 2.5-.5-.5-1.5 1.5.5 9-11q3.8-14.7 12.5-24.5l1.5.5zm-462 4q6.8 7.3 18.5 9.5l-2.5.5q-11.4-2.6-16-10Zm-219 3 6 9q6.1 5.9 17.5 6.5l-4.5.5q-11.3-1.7-16.5-9.5zm53 12 2.5.5q-11.5 6-30.5 4.5v-1q16.9.9 28-4Zm-467 6 .5 7.5h-1zm773 2 11.5 21.5-2-1zm-771 17 6 8 6.5 3.5-1.5 2.5-8.5-7.5zm783 6 4.5 7.5-2-1zm5 9 5.5 6.5-4-3zm-774 1 .5 2q4-1 2 8.5h-1l-.5-4.5-1 5zm1027 0 1.5.5-20.5 8.5-7.5 7.5-15.5 24.5.5-1.5 4-9.5 3-1.5-1-2 8.5-12.5 1.5-.5-.5-1.5zm-247 7 27.5 30.5-4-3zm-182 4 3 4zm-458 1 .5 1.5-3.5 5.5.5-1.5zm-135 10 6 7 2.5 1.5-1.5-.5-6.5-5.5zm128 2-2 3q-10.6 8.9-33 6l2-3 6 1 3-1 5 1 10-1zm432 0 7.5.5-7.5.5zm-542 10 9.5 1.5-4.5.5zm72 1-.5 1.5-7.5 12.5 2.5-3.5zm520 3 .5 9.5h-1zm193 1 5.5 6.5-4-3zm-770 3 6 8q2.3-3.3 4.5 2.5l-.5 1.5 9.5 3.5-3.5.5-14.5-11.5zm946 0-.5 1.5q-39.7 66.8-94.5 118.5-17.2 18.3-43 28v-1l25-13 29.5-26.5 1.5-2.5 2.5-1.5.5-2.5q2.3 3.2 4.5-2.5l-1-2q3 2 6-4l-.5-1.5 2.5-.5 1-3.5 3-1.5 1.5-1.5v-2l2.5-.5-.5-1.5 2.5-.5 3-4-.5-1.5 2.5-.5 21-28-.5-1.5 1.5.5 1-2v-2l4.5-6.5 1.5-.5q-2.7-1.7 1.5-3.5l1.5-2.5 4-3 2-3-.5-1.5 2.5-1.5zm-170 5 11.5 13.5-6-5zm-733 5-1 2-5 2v-1zm501 3-4 5zm-523 3 6.5.5-6.5.5zm438 10-3 4zm109 1-7 8zm-82 14-5 6zm26 0 6 7zm-66 14 .5 6.5h-1zm202 0 11 12zm-126 1 .5 6.5h-1zm139 11 4.5 2 1.5 3q3-.9 1.5 3.5l3 1-1 1 18.5 18.5 27 23 1.5-.5.5 2.5 4 3 2.5.5 1.5 2.5 3.5 2.5-1.5-.5q-33.7-24.3-61.5-54.5zm-181 5 5 6zm37 2-5 6zm-59 14 3 4zm-235 1 .5 6.5h-1zm-1 14-7 8zm354 19-3 4zm-6 7-5 6zm161 1 25.5 14.5-1.5.5-22-12zm-169 8-5 6zm-9 10-6 7zm251 0 2.5.5-6.5 1.5v-1zm-28 2 21.5.5-21.5.5zm-233 9-13 14zm-18 19-6 7zm-340 22 .5 14.5h-1zm408 49 18.5 10.5-1.5-.5zm20 11 12.5 7.5-1.5-.5-10-5zm29 17q26.7 14.3 48.5 33.5l-4.5-3.5zm50 34q13.4 10.6 21.5 26.5l-2-1q-6.7-14.2-18.5-23.5zm28 43 1.5 6.5h-1zm3 14 .5 18.5h-1zm-617 11 5 6q-3.7-7.7-7.5-3.5zm412 10 6.5 4.5-1.5.5-5.5-3.5zm204 0 .5 5.5q-7.8 36.7-33.5 55.5l-50 38L777 1101.5l-.5 1.5-.5-1.5 125-87.5q-1.2-3 2.5-2l33.5-24.5 1.5-1.5 2.5-1 1.5-2 44.5-31.5 4.5-3.5 12.5-9.5 1.5-2.5 13.5-8 1.5-2 4.5-6 11-8 9-13.5V895l2-1.5 7-20 1-3zm-625 4-.5 1.5-18.5 27.5.5-1.5zm429 1 5.5 2-1.5 4-2 1 1-2 1.5-1.5zm0 7-1 2-5.5 2.5.5 1.5-3.5.5.5 1.5-1.5-.5-1.5 1.5q-22 12.5-37.5 31.5l-40 52-41.5 42.5-38 33 7-8q33-26 61.5-56.5l61.5-75.5q17.2-16.3 39-28Zm-449 22-.5 1.5-9.5 14.5 1.5-2.5zm203 16-3 4zm-214 1-.5 1.5q-8.5 16-21.5 27.5l-22 11v-1q17.3-5.7 28.5-17.5zm201 14-3 4zm-35 20-3 4zm-213 6 1.5.5-5.5 2.5v-1zm-7 3 1.5.5-9.5 3.5v-1zm-14 5 1.5.5-6.5 2.5v-1zm222 0L540 978.5l-50.5 53.5q-32.2 24.8-74 40v-1l12.5-5q-1.3-3.3 3.5-2l24-11 21.5-13 3-3.5q19.8-11.2 33-29l2-3 4-5.5h2l2-4.5 6-4.5 3-6 3.5-2zm-230 3 1.5.5-12.5 5.5v-1zm-14 6 1.5.5q-49.8 22.2-83 61l-63 72.5-2 1.5-13 14.5-5.5 4q-18.4 21.6-43 37l-2-3 4 2q29.3-23.2 54.5-50.5l85-95.5q28.7-26 66.5-44Zm328 91-3 4zm-7 6-16 17zm-218 2 1.5.5q-136 72-249.5 166.5l4-5q71-58 150-108 43.9-30.1 94-54Zm196 18-3 4zm-9 15 .5 7.5h-1zm-514 54 7.5.5-7.5.5zm689 8-.5 1.5-.5 4.5-.5-4.5zm-766 18-4 5zm691 67 15 16zm-537 14-6 7zm634 30-3 4zm-22 8 6.5.5-6.5.5zm-642 15 .5 11.5h-1zm-3 21-3.5 4.5-.5 5.5-.5-5.5zm11 24 9 10zm-90 33 5 6zm101 17-3 4zm-42 9 6.5.5-6.5.5zm16 0 6.5.5-6.5.5z"/><path fill="#fefffd" stroke="#fefffd" d="m416.5 270-3 4zm722 15-5 6zm-744 6-3 4zm-16 16-4 5zm829 106-6 7zm-355 20q34.6-.6 48.5 19.5 11.5 9.5 9 33-4.3 17.7-17.5 26.5l-16.5 6 6 13.5 1 15q-2.6 17.9-13.5 27.5-11.5 12.5-36 12-29.1-5.4-44.5-24.5-10.5-11-9-34 3.5-18.5 15.5-28.5l6-4 21.5-5.5q-5.7-7.8-5-22 3.5-17.5 15.5-26.5 7.2-6.3 19-8Zm8.5 25-7 3q-7 4-9 13-1 12 4 17l11 6q9 1 14-3l8-12q2-13-4-17-5-8-17-7Zm-34 56-7 3q-9 6-11 20l4 12q6 7 16 10 11 2 17-3 8-6 10-17 1-11-4-15-6-12-25-10Zm336.5-59-3 4zm-764 12 7.5.5-7.5.5zm743 8-7 8zm-147 70 4 5zm203 37-7 8zm-336 68-3 4zm-11 11-3 4zm-333 8 .5 6.5h-1zm299 239-4 5zm217 6-6 7zm-276 66-3 4zm-23 23-3 4zm-488 10-3 4zm258 3-11 12zm-263 2-7 8zm-69 77-3 4zm-39 40-3 4zm673 128 .5 7.5h-1zm-654 12-5 6z"/><path fill="#6e362a" stroke="#6e362a" d="M993.5 138q11.5-1.5 14.5 5.5l4 14q-.9 11.1-7.5 16.5-2.6 3.9-10 3l-9.5-5.5-4-14q1-12 8.5-17.5zm1.5 1-5 3 2 3h-2v-1l-1-1-6 11q-2 10 2 16l5 3 1 1 2-2 2-6v-2l2 1v-2l2-1h-1l1-2-1-3 1-3v3l2-1 4 2-2 1 3 1 1-2 2 1-1 2 1 1 2-8-4-10q-3-6-12-5Zm125.5 17 8.5.5q-8.7-1.2-12 3l1 3-2 4 .5 1.5 1.5-.5-1.5 3.5-2.5-1-.5 2-1-2q-4 2.5-2.5 10.5l1.5 3.5 1.5-.5.5 2.5 2-6 1.5.5q-1.5-4.4 1.5-3.5v-1l-1.5-.5 4-1.5-.5-2-4 2 1-2 1.5-1.5 2.5 1.5 2 1 1.5-.5.5 1.5 1-3 2 3 1.5-.5v2l-1 2 3 1 1 4.5 2-1.5q3.8-3.2 2-12-1.3-8.2-7-12l5 4q4.2 5.8 3 17l-7.5 13.5q-3.7 3.3-12 2l-7.5-6.5q-3.5-6.5-2-18l7.5-11.5zm-91 44 6.5 2.5-1.5.5zm8 3q16 7.5 40 7l7-1 5.5 4.5-1 10-10.5 15.5-9 6-12-17q-8.5-7-22.5-8.5l9-1q-2.7-1.7 1.5-3.5l2.5-1.5.5-2.5 1.5.5-1-2 .5-1.5-10-3zm20.5 22 10 16 4-1 1-3h2l-3-1 2-7-1-3-1 2h-1q1-3-3-2v2l-2-3-5 1zm-42.5-15 .5 7.5h-1zm1 9 .5 2 6.5-1v1l-6 2z"/></svg>