<svg xmlns="http://www.w3.org/2000/svg" width="835" height="1085" viewBox="0 0 835 1085"><path fill="#3c1b0c" stroke="#3c1b0c" d="M490.5 1q12.4-1.4 20 2l18 12q9.4-8.1 28-7 28.7 4.3 42.5 23.5 15.6 16.9 14 51-4.6 21.4-19 33 6.8 7.7 5 24-3.4 15.1-13.5 23.5-10.2 12.3-36 9l-16-7q-6.5 10.5-26 8l-5-2-1.5 1.5V202l-15 1-9-34.5-2.5-2.5q-63.9-12.6-98.5-54.5l-8.5-10.5-1.5 1.5q-13.3 32.2-37.5 53.5-23.7 21.3-55 35-20 10.9-47.5 13l-6 32.5q-3.3 16.7-13.5 26.5l-3.5-1.5-4.5-5.5q-8.5-10-28-9-15.8 4.4-25.5 14-8.5-20.8-12-47-7 6.8-22.5 6l-16-6q-10.3 14.2-38 11-16.2-3.8-24.5-15.5-8.1-8.9-6-28l2-8.5q-9.5-3.1-15-11.5-12.7-13.8-12-41Q6.1 85.6 29.5 69q13.1-11.9 40-10L84 63l10.5-13q8.4-7.6 26-6 21 4 31.5 18.5 10.5 12.5 11 35l-9.5 9.5h-4l-10-2-3.5 4.5 7 14q-5.4 4.6-6 14 2.5 4 11.5 1.5l7-1 8 9 3 1 2.5-1 3.5-16 12.5-6.5 1-3-2.5-3.5-12.5-5.5-3-14L192.5 70q28.6-25.9 70-39 35.9-10.1 83-9 30.8 2.2 55 11 29.4 11.3 51.5 29l-1-21.5q4.1-19.4 17.5-29.5 8.4-7.6 22-10ZM457 56l-3 3 1 12-9 6-4 8 14 5 4 14 6 2 8-11h15l3-2q-1-10-8-14l5-17-2-1q-10-1-13 3zm36 48-4 11-8 3-3 5 9 6 3 13 12-6 12 2 1-2-4-9 5-13-3-3-3 1q-8 2-8-1l-6-7zm-261 1q-6 4-7 13l-15 4-1 5 11 10-2 12 1 3h5l12-7 11 6 5-2-3-12v-3l9-12q-4-6-15-4l-5-9q-1-5-6-4Zm-30 41q-6 4-7 13l-15 3-1 3 10 12-2 10 4 6 14-7 14 6 2-3q1-9-3-13 8-3 9-13-4-6-14-4l-6-9zm-59 4-7 9-2-1q-10-2-13 3l7 10-4 12 3 3 12-4 9 7h4l1-3-1-9 6-4q5-1 4-7l-12-5-2-8z"/><path fill="#3c1b0c" stroke="#3c1b0c" d="M423.5 169q19.9-2.4 28.5 6.5l1 5-3.5 2.5q-10.2-5.3-27-4l-3.5-2.5 1-5.5zm-131 21q8.7-1.7 11.5 2.5l1 2-4.5 5.5-10 2-18 9-2.5-4.5 6.5-8.5zm149 12q18.8-.3 25.5 11.5 5.1 6.9 5 19-2.5 12.5-10.5 19.5-6.5 5.5-18 6-13.8-1.7-20.5-10.5-6.4-7.1-6-21l3.5-9.5 2.5 8 7.5 1q4.4-2.1 4.5-8.5l-4.5-5.5-7 1 5-6zm-132 19q18-.5 24.5 10.5 7 8 6 24-2.5 10.5-9.5 16.5-6.3 7.7-22 6l-15.5-8q-7.5-7.8-8-23.5l3.5-10.5q-.1 7.6 5 10 6.9.9 8.5-3.5l1-6-4.5-5.5-4-1-3 2 4-5zm48 75 20 3 13-2v1l-20 2-11-2zm57 6 .5 3.5-4.5 12.5-.5-2.5zm-207 24 1.5 1.5 3 4-4-3zm-140 115 9.5 5.5 1 7-4.5 5.5q-3.3 3.2-11 2l-8.5-5.5q.1-8.4 5.5-11.5zm51 2q7.9-.9 9.5 4.5l1 7-4.5 6.5-7 1-6.5-5.5q-1.2-8.7 3.5-11.5z"/><path fill="#7c3d1d" stroke="#7c3d1d" d="m24.5 73-4 5zm575 36-5 6zm-374 58-6 7zm277 4-.5 1.5v29l-1.5 1.5-5.5-.5 6-.5v-29.5zm53 1 6.5.5-6.5.5zm-493 53 6.5.5-6.5.5zm136 31 4 5zm211 33 5.5 2.5 1 10.5q-3.3-1.3-2 3.5l1 2h-1l-.5-1.5-3.5 11.5.5 1.5-1.5.5-1 3-4.5 5.5-5-6q-13.3-13.2-42-11l-15 5v-2l-1.5-.5 1-2.5-2-1.5 1-2.5q-4 1-2-8.5l3.5-4.5 7-1 3 1 3 2 2.5-1 1.5 2 2-1v1l-1.5.5 19.5 2.5 8.5-1.5-3-1 2.5-.5 4 1v-2l3 1v-2l3 1v-2l2 1 .5-2zm-274 72q18.3-2.2 23.5 8.5l3 7h-1l-6.5-9.5-2.5-1.5-1.5.5-4.5-1.5 2-1q-2.5-4-11.5-1.5l1 2 2.5 1.5 2 3-5 3 .5 1.5-5-4-3 5-2.5-.5 1-2.5q-3.3-1.3-2 3.5h-3l-.5-1.5-5 8-.5-1.5 8.5-13.5zm-1.5 2-1 1-2 2 2-1 1 1-1 2 2-1q4 1 3-1z"/><path fill="#7c3d1d" stroke="#7c3d1d" d="m139.5 371 2.5.5 1 2-1.5.5-3.5.5zm24 10 1.5 9-14-.5 9-2 2-1.5 2 2zm-47 1 1.5 14.5 1.5 1.5 2-1-1 2-2 1q-3.8-7.4-2-18Zm597 10 4.5 2.5-1.5.5zM44 529l9.5 4 2-3-.5 1.5-1.5 4.5-7.5-3zm83.5 12q5.3-1.7 3.5 3.5l-23 29q-4 5-3 15l8.5 11.5q4.3 3.7 14 2 18.4-7.6 29.5-22.5l5.5-7.5 4.5-2q-4.9 18.7-19.5 29l-17 9h-14q-8.9-2.1-13.5-8.5-5.7-6.3-4-20l7-15zm-79 5 .5 1.5-7 21.5q-13-1.3-19-10.5l-1-3h1l2 4.5 2 1.5q2 3.2 4 0l-1 2.5 3-.5-.5-1.5 1.5-.5-1.5-2.5 1.5 1.5.5 2.5 3.5-1.5-.5-1.5 1.5.5-2-3 3-1-3-2 2-1-.5-1.5 2.5-.5-3-2 1.5-.5 2.5 1 1.5 2 1.5.5-.5-2.5-1.5.5 5-3zm-4.5 7-1 2-1-1-1 2q2 3 3 0zm444.5 198 2.5 1 6 12.5-1.5-.5q-31.8 21.2-68 38-22.6 11.4-50 18L356 784.5l6.5-2.5 42-6 36-9zM195 775q50.2 11.7 112.5 12l29-2-.5 1.5-9.5 26.5-.5-1.5 4-9v-2l1-2-1-2.5-2 1.5h-1l-1-3.5-8-1-.5 2-1-2-2 1 1-2 3.5-.5-2.5-.5-16-1 1 4 3-2-.5 1.5 2 3-3 1 1 2h-1l-1.5-1.5v-1l2.5-1.5-3.5-1.5-1 2-2-1-2 3-.5-2-5 1.5 1.5 2.5h2l4-1 2.5 1v2l6.5 2q1.8-2.7 3.5 1.5l-3-1 1 2-1.5-.5-3 2-2-1-1 2 4 1 2-1 2 1h4l10.5.5-20.5.5-48-5-64.5-13zm95 15 2 2 1 2 1-2zm5 0 1 2h-1v1l3-1 1 2 2-1zM22.5 936q3.4-.9 1.5 4.5l2 10h-1l-2-4 1-3-5 2 3 8-3 .5 1-4.5-3-1-2.5-3.5-2 4-.5-2.5 8.5-9.5zm-5 20 1 2 1.5-.5.5 1.5 4-2 2.5.5-2.5.5-4.5 2.5-1 2-1 3-.5 3.5-.5-5-2.5 1-.5-4.5 2-1 .5 2.5zm-5 8 2.5 13.5h-1zm592 3 2.5 1.5-3 1-1 4.5-2-1.5zm-497 32 3.5.5-5.5 1.5v-1zm25 0 8.5 5.5-2 1.5-3.5-5zm-30 2 1.5.5-6.5 4.5 2-3zm-70 19 6.5 10.5-2-1zm7 12 4.5 5.5-3-2zm604 15-2 3-2 1 1-2zm-116 20 4.5 6 2 .5-1.5.5zm8 8 11.5 5.5-2.5.5q-7.4-1.4-9-6Zm-424 6 6.5.5-6.5.5zm437 0 9.5.5-9.5.5zm-427 1 8.5.5-8.5.5z"/><path fill="#8c522c" stroke="#8c522c" d="m92.5 51-5 6zm54 5 3 4zm467 12 .5 9.5h-1zm-138 26 11.5.5-11.5.5zm-314 5-4 5zm308 2-4 5zm-259 26 3 4zm-176 85 4 5zm138 35 6.5.5-6.5.5zm-22 10-3 4zm63 77 1.5 1.5 5.5 6.5zm-77 28q9-2.5 11.5 1.5l-2 1 4.5 1.5 1.5-.5 2.5 1.5 6 8 1.5-.5-1 2.5 2 .5-1 2.5 2 .5-1 4h1l.5-1.5.5 1.5-1 3.5-4-2-1.5 3h-7q1 3-4 2l-4-1v2l-5-1v2l-3.5-1-.5 2-3-1v2l-2.5-1-.5 2-2-1v2l-2-1-.5 2-2.5 1-3-2-1 2-.5-1.5 1-6h-1l-.5 1.5-.5-1.5 1-9-.5-1.5 1.5-1.5-.5-1.5 1.5.5 3.5-5.5 1 2 2.5-.5q-1.3-4.8 2-3.5l1.5 3 3-5 4 3 3-4-5-1-1.5.5 1-2-1.5-.5-1.5.5 1.5-1.5zm474 2q10.1-1 14.5 3 1.5 6.4-1.5 6l-2 3-2-1-7.5 1-.5-2q-1.7 2.8-3.5-1.5l.5-1.5q-3.4.9-1.5-4.5zm107 20q8.8-1.3 11 4l2.5.5-1.5 4.5-1.5 1.5h-2q.9 3-3.5 1.5l-2-1-2.5 1-1.5-2-4.5-2.5v-2l1.5-4.5zm40 9q8-.5 11.5 3.5l-1.5 6.5.5-1.5-1.5-4.5-2-1-.5 2-4 .5.5 1.5-3-1q-3.4-.8-1.5 4l2 .5-1.5.5q-4-1.5-2.5-8.5zm-481 9 12.5.5-17.5 2.5h-2l-10.5 2-.5 2-2-1-6.5 3.5.5 1.5-2-1-6.5 4q1.3 3-2.5 2l.5 1.5-1.5 2.5-3.5 1-.5 2-1-2-4.5 3 2.5-4q16.8-15.7 45-20Zm98.5 0q24 .2 33 16.5l3.5 4.5 2.5 1.5v2l9 24h-1l-3-10-11-20.5-3-1.5-2-3-4-3-1.5-1.5q-6.7-8.6-21.5-8l2 4.5 9 11 15 35h-1q-10-27-26-48zm-56.5 10 15.5 13.5-7.5-6.5zm-45 13 6.5.5-6.5.5zm-9 2 2.5.5q-13 4-21 13l-8.5 10.5-.5-2.5 5-7-1-1 4-4 .5-1.5h2l4-2zm30 0 14.5 4.5-1.5.5-13-4zm42 2q10.6 9.5 12.5 26l-27-16.5 1.5.5 12 6 1-2 2 1h2l1.5-.5-3-5 1-2zm87 23 6.5 23.5-3.5 4.5q-3.3 5.2-12 5l-6.5-14.5 2 1 5.5 12.5 5.5-1 4-7q3.3 1.3 2-3.5v-2l-1-2 1-2-2-4v-2zm-358 60 1.5.5-2 1q3 2-2 4L57 530l-2 .5 1 2h-1l-.5-1.5-1 2-9.5-4 3.5 4 6.5 3.5-3 7.5-2 .5 1 2h-2l1 2-4 2-2.5 6.5-3-4-2.5 1.5 3 2-1 3-1.5 2.5-3 1-2-1v2l-2.5-1.5q-3 2.4-6-2l1-2-3-1 1-2.5-2-.5.5-1.5-1.5-1.5 1-5-1-2h2l-1-3 2-1 1-3 8.5-9.5 13-7 1.5.5.5-1.5 1.5.5.5-1.5 1.5.5 1.5-1.5 1.5.5.5-1.5 2.5 1 .5-2 2.5 1 .5-2 2.5 1zM41 550q-2 3 2 5v-1l1-2zm254.5-13 24.5 15.5-6 10-26.5 28.5q-16.9 15.6-38 27l1-2 27-18 20.5-19 9-12 2-1.5 9-11V551l-22.5-12-5.5 9-2-.5 5-9.5zm-13 18L272 566.5l-1.5 2.5-10 8 3-4zm-31 28-2 3-25 14 1-2zm-8 37-1 2q-21.1 12.9-52 16l-1.5-3.5 1.5.5 3-1h2l3 1 18-3zm253 143v2l1.5.5-.5 1.5 1.5 1.5 58 106-.5 1.5 1.5 1.5 13 22 1 10-6.5 8.5-40 28-35 17-17 6h-5l-8.5-6.5-49-84 .5-1.5-1.5-1.5-30-50-2-6.5 12.5-3v1l-4.5 1.5 2 1-3 5 .5 1.5-1.5 1.5 3 5 16 28.5 5.5 3 3-2 6 2h2l3.5 1 1.5 2 1-2-1.5-.5 1.5-.5 3 4-1.5-1.5h-1l-.5 2.5-3-1 1.5 4.5.5 1.5.5-2 3 1.5-1 3h1l1.5-1.5-1 4-1.5.5 2 .5-1.5 2 1 2 3 2 5-2v1l-3.5 1.5 2 4-2-1-.5-1.5-3.5 1.5 2 4.5-4 1.5-1 3 1 5 15 25.5 2 1.5h1l.5-1.5 2 3 3-1 4.5-1 .5 2 2-4 .5 2.5-3 5.5 2 1.5 1.5-.5 2-1 3.5 7.5v2l1.5 2.5-.5-1.5.5-2.5 1 2q1.8-3.7 3.5-.5l-2 .5-.5 3-2.5.5.5 3.5-1.5 1.5h-1l-.5-1.5-2.5 1-1 2.5 2 .5.5-2 1 2 1.5-.5-4 2 1 2.5 2 1.5 1.5 2.5.5-2.5-.5-1.5 7 3-2-3-1.5-1.5-.5-1.5 3 2-3-5 1.5.5.5-1.5.5 1.5-.5 1.5 2-1 2 3 1.5-1.5 4.5-.5 2.5-1.5-.5-1.5 1.5 1.5q-3.7 1.8-.5 3.5h2l5-1 3 1q18.7-4.3 31.5-14.5l-.5-1.5-2.5 1q2-6.2-2-5l-1.5 3-.5-1.5v-4l-1.5-1.5-3 1-1.5-.5 2-.5 4-6.5-1-4.5-2.5 1-.5-4.5h1l3 1.5 1.5-2 1.5-.5.5 2.5 3-1v2l4-1-1.5 2.5 3 1.5 1-2.5-.5-1.5 1 3 5-3-.5 1.5.5 3.5 6-3 1.5 3 2.5-1 3 1 2.5-.5-2-1q7.6.1 10-5l2.5-1.5 4.5-6 3-1.5 1-3-1.5-3.5-4.5-1q1.3-3-2.5-2l-3-2v2l-1.5-1.5 1-3h-1l-1.5 2.5.5-1.5-1.5-3.5-1.5-.5 2-.5-.5-2-1.5.5 3-2-4-1.5-.5 2-2-5-1.5.5 1.5 2.5-5-2 .5 1.5-1.5 2.5-4.5-2.5 3-1-3.5-1.5-3 2-1-2 1.5.5-1-2 3-1 .5-2.5 3.5-.5-.5 1.5 4-2 2.5-.5-3-.5-.5-2-3.5 1 .5-3 1 2 .5-3-2-1.5 4-3 .5-1.5 1.5.5 1.5-1.5-1-2-1.5.5 1-3-7.5-13.5-1.5.5-1.5-2.5-1.5.5.5-1.5-1.5-.5v-2l1-4-1-2.5-2 .5 1 2-2-1 2-3-4.5-7.5-2.5-.5-1.5-2.5-1 3-2.5-.5-.5-2.5-1 2-3.5-2.5-2.5 1.5-2 1-2.5-1 .5-3 2.5 1.5-.5 1.5 1.5-1.5-.5-2.5-7.5 2.5.5 1.5-3.5-1.5 3-1-1.5-4.5-1 3-2.5-.5 2-3-1-3 .5-2.5 3.5 2 2.5 5 3 1 1.5-4-2.5 1 1.5-4.5 1.5-1.5v-1q-4.4 1.5-3.5-1.5h-2l1.5-2.5 1 2 .5-2q4.9 1.8 3-4.5l.5-1.5-1.5-.5 2-1-10-18.5-2-.5v-2l-.5-2.5-1.5.5-.5-1.5-3 2 .5-1.5-.5-2.5-1.5 4-2.5-1-1 2-2.5-.5-.5-1.5-1 2-1.5-.5 2 3-1.5-.5-3-2v2l-2 1-4.5 1.5-1.5-1.5-3 2-2.5-.5-1.5-1.5-5 3 1-2 14-8 .5 2 2-1.5-.5-1.5zM559 887l1 5h1zm-40 41 2 3 3-1zm-4 4v2l4-1 1 2 3-2zm-54 5-2 4 2 1zM270.5 785l6.5.5-6.5.5zm58 0q6.8-1.7 8.5 1.5l-1.5-.5h-7zm-35 1 14.5.5-14.5.5z"/><path fill="#8c522c" stroke="#8c522c" d="m457.5 786-1 2-8 4 1-2zm-168 4 4 1 4-1 2 1 14-1 3 1 2.5.5-5 2 1.5.5 1.5-.5.5 1.5.5-2 8 1 .5 2h2l1.5 1.5v2l-1 2 1.5 2.5-1.5-.5-1 4 .5 1.5-1.5-.5-1 4v2Q310.8 862 282 895l-2 1.5-64.5 50.5-20 14-14 5q-19.1-8.9-31.5-24.5l-24-33-12-24-2-13 6.5-7.5q21.5-18.4 46.5-32l1.5-2 4.5-2.5 1.5-2.5 9.5-8.5 7-23.5 6 .5-5 .5-6 22.5-3 4 .5 1.5-2.5 1.5 1 4-1.5-.5-1.5.5 1 2.5 2.5 1 3.5-2 2 4.5-2-1-1.5-2.5-.5 1.5-1 3 1 2-1.5.5-2.5-1 1 2.5-2 .5-.5-2-4 3v-2l-1.5 1.5-2.5-1.5-3.5-.5 2-1q-1.7-3.2-3.5.5l-1.5.5 2 1-2.5 1.5-1-3-.5 2-7.5 2-13.5 10.5.5 1.5q-7.7.3-10 6l-2.5.5-1.5 1.5-2.5 4-3 1.5v2l.5 1.5 1.5-.5-.5 2.5-2.5-.5.5-1.5-2-1-.5 4 6 .5-1 3 .5 1.5 1.5-.5-2 3.5 2 .5.5 2.5 2-4 1.5 3 3.5-1 .5 2.5-1 3 .5 1.5-2-1 .5 1.5-.5 1.5-2.5-.5 1-2-1.5-.5-2.5.5 1.5 1.5-.5 1.5 2.5 1.5v1l-3-1-1 3-1.5.5 6 12.5q4.8-1.9 4 1.5h1l.5-2.5 3 2 2-4q3.3 1.8-.5 3.5l.5 1.5 1.5-.5-1 3 1 2-4 5 1.5.5 2-1v1l-1.5 2.5 6.5 9.5 1.5 1.5 8 6.5 1.5-2 2 1 1.5-2.5h-2q1.5-3 3 0l-1 2 1.5 2.5.5-2h7.5l.5 1.5-1.5-.5-1.5.5 2 3-.5 1.5 1.5-1.5h1l2 4h-1l-1.5-2.5-.5 1.5v2l1 4.5-2-1.5h-1l1.5 3.5 1.5 1.5 6.5 4.5 3-2-1 3 4.5-3.5q-.7-5.7 3.5-6.5l2.5 1.5-1-2 1.5.5 1.5-1.5 1.5.5 3-2v2l3-2 4.5 1 .5-2 3-1 2 1 1-4 3-1 2 1 .5-2 2-.5-2-1 2-1-.5-1.5 2.5 1.5.5-1.5 1.5.5 1.5-1.5v-1l-1.5-.5 2.5-1.5 1 2 1-2h2l5-2 16.5-13.5-1-4.5-3-1.5 1.5-1.5-1-2-2.5-.5 4-3-1-2 4-1 .5 2.5.5-2 3.5 1 1-2 2.5-.5-1-2 3-.5-.5-2-1.5.5 3-1 .5-1.5.5 4 2-.5-.5-1.5 1.5.5 4.5-7.5 1.5 2.5-.5 1.5q3 .9 1.5-3.5l1.5.5 1.5-.5-2-3 2.5-.5 3.5.5v2l1.5 1.5-.5-1.5 1.5-1.5v-1l-1.5-.5 2-1-2-1 2.5-1.5 2 4 1-4 2.5 1-1-2.5 3.5-1.5 1.5-1.5 6-10.5 2-1.5 6-12.5 2-1.5 2-6-1-3.5-3 1.5-2-1-1-3.5-3-1.5 1-3 1.5-1.5 2.5-.5 2-1.5.5 2 1-3 2.5-.5-2.5-1.5-3 2 1-2 1.5-2.5q3.8-1.7.5-3.5l-2 3-2.5-1.5-1.5 2.5.5-1.5 2.5-3.5 1 2 3-1 1.5-.5q-3.2-2.2 2.5-4.5l2 3 4-2q1.8 2.8 3.5-1.5l2-6.5-21-.5 19-1-11.5-1.5-3 1-3-1-2 1-5.5-2.5 2.5-1.5 2 1 3-1 1.5-2-6.5-2v1l1.5.5-2 1-1.5-1.5v-1l1.5-2-4.5-1v1l1.5.5-2 .5.5 2 1.5-.5-1.5 1.5-1.5-2.5.5-1.5-2-1-4 2v-1l2.5-1.5-2-1-1.5 1.5 1.5-2.5-1.5-2.5.5-1.5zm.5 1-1 3 6 2h2l2-1 1 1-1-2-1-2v2l-4-2-1 2-1-2zm-21 103-3 3 3 1-1-1 2-1zm-21 13-2 2 1 2 2 1z"/><path fill="#8c522c" stroke="#8c522c" d="m284.5 795 1.5 3.5h-3zm150 3 1 3 3.5-1-1.5 2-2 5-2.5-1 2 6-2.5-1-2.5 1.5 1 2-3-1-2.5 1.5-2 3-3-6-3 1-2.5-1.5 1 2-2 .5-.5-2-8 2v-1l1.5-.5-2.5-.5-2 1v-1l28-12v2l3.5-1.5-2-1zm-7.5 10-1 2v1l2-1 1 2 1-2zm-208.5-9 8.5 1.5-4.5.5zm10 2 25.5 4.5-5 .5-1.5 2-4-2-1.5.5 1.5 2.5-2.5-1-.5-3-4 3-2.5-1 1 2.5-2-1-.5-1.5-1.5.5 1.5-2.5-3 1-1.5-.5-.5 1.5-.5-1.5.5-2.5 3 1 1-2z"/><path fill="#8c522c" stroke="#8c522c" d="m437.5 804 2.5 4.5h-3l1-2zm-182 2 14.5 1.5-7.5.5-7-1zm16 2 30 2 1.5 1.5-1.5-.5-2 1-28-3zm10.5 3 7 2.5-2 1 .5 1.5-2.5-1.5 1-2.5-3.5 1zm11.5 1 .5 1.5-1 2.5 4 2q-1.9-4.8 1.5-4l-.5 1.5.5 1.5 1.5-.5-3 1.5 1 2.5h-3q3.3-2.2-2.5-4.5l-1.5-2zm105 1 2.5.5-3 1 1 2h-1l-2.5-1.5-3 1v-1zm-6 4-1 4-1.5-3zm-100 19 2.5 1 1 2.5-2.5-1.5-1.5.5.5 1.5-2.5-1.5 2-.5zm-106 2-.5 1.5 1.5 1.5v1l-2-1-1 2-.5-1.5zm247 26 2 3 2-1 1 2-2-1h-2q-3.1.7-1-3Zm3 0 4 1 1.5-.5-2.5.5zm-7.5 6 3.5 1 1.5-.5-1 2 2 .5-.5 2-3-1-2.5-1.5zm7.5 5 5.5 1.5-4.5 1.5v-2zm-203 23v2l2-1 .5 2.5-.5 1.5-.5-2-3-1.5zm15 1 2 1 1.5-.5-.5 1.5 2-1 .5 2.5-1.5-.5zm219 38 1 2 1.5-.5-1.5 2.5-4.5-2.5zm-449 1-2 5-2.5-.5zm191.5 1 2 .5.5 2.5 1.5-.5-3 1.5zm-188.5 2 1 3 1.5-.5-1 3 2.5 4.5 1-2 .5 3-2 .5.5 2.5 2-1 1.5 7.5-1 3h1l.5-1.5q10.8 47.2 39 77l2.5 1.5 3.5 4.5q29.6 25.4 88 22l5-1 1 2-1.5.5 1 1-6.5 6.5-4 2-10 3-1.5-.5q.6 2.8-5.5 1.5l-13 1v-1l2.5-.5-8.5-.5-4 1v-2l-8 1v-2l-5 1v-2l-4 1v-2l-3 1v-2l-2 1-.5-2-2.5 1v-2l-2 1-1-2-2 1v-2l-2 1-1-2-1.5.5-.5-1.5h-2l-1.5-.5.5-1.5-2 1-2-3-3-1-7.5-5.5-1.5-1.5-5.5-4.5-5.5-5.5q-7.1-4.5-7-9l-3.5-2.5v-2l-.5-1.5-1.5.5-.5-2.5-1.5-.5v-2l-.5-1.5-1.5.5v-2l-.5-1.5-1.5.5 1-2h-2l1-2h-2l.5-1.5-1.5-.5 1-2h-2l.5-1.5-1.5-1.5-13-30 .5-1.5-1.5-.5 1-3h-2l1-6-2.5-9.5-1 2-.5-2.5v-2l1-4-1-9h2l1.5-3.5 3 4 2-4 2.5-.5-2-1zm-.5 8-2 5h3zm-3 7-1 6-3-1 1 4 2-1 1 5v-3l2-4-1-2 1-2h-1zm449.5-6 3 2 1.5-.5-2.5 1.5-2.5-.5zm136 17-.5 1.5-1.5 3.5-.5-1.5z"/><path fill="#8c522c" stroke="#8c522c" d="m607.5 967 .5 3.5-1.5-.5-1.5 2q3.3-1.1 2 3l-2 .5 1 3-4.5 12.5-2.5-.5.5-1.5q-3.2.4-1.5-7.5l2.5-8.5 2.5 1 2.5-6 1.5.5zm75.5 2 2 .5-.5 1.5 2.5 1.5q5 5.5 4 17l-1 3-2 3 1 2h-2l1 3h-2l1 2-2 1 .5 1.5-1.5.5.5 1.5-2.5 1.5v2l-1.5 2.5-1.5.5q3 2-2 4l-15.5 17.5-8.5 5-2.5 4-2.5.5-3 3-3.5 1.5-1.5.5-.5 2.5-5.5 1.5.5 1.5-3.5.5.5 1.5-2 1-1.5-.5-1.5 1.5q-20.1 12.4-46 19l-1.5-.5q.9 3-3.5 1.5l-9 2-6-1v2l-12-1-3 1v-1l1.5-.5-2.5-.5-1.5.5.5-1.5-3 1v-2l-4-2q-1.7 2.8-3.5-1.5l.5-1.5-1.5-1.5-4-2-.5-2.5-1.5-1.5 1.5.5h16l29-5 31-11q36.7-15.8 61.5-43.5l4.5-6.5 1.5-.5 1-3 10-19zm-567.5 28 12.5.5-2 1 3.5.5 4-1 1 3 2-1 2.5 4.5q.9 3-3.5 1.5l-13-2-20 6-5.5-2.5 1.5-1.5 3-5 2.5 1 .5-2 2 1v-2l4 1v-1l-1.5-.5 2.5-.5 5 1v-1z"/><path fill="#a95d34" stroke="#a95d34" d="m181.5 168 3 4zm-30 222 12.5.5-12.5.5zm613 6 3.5 2.5-1.5 5.5-1.5-.5-.5 1.5-5-1-2 1v-2q-3.4.8-1.5-4l2.5-1h2q4.5 1.3 4-2Zm-475 6q4.4-1.5 3.5 1.5l1.5-.5h6l12.5 5 3 3.5h2l1.5 2.5 1.5-.5.5 2.5 2 1 1.5-.5.5 2.5 4 3 1.5-.5q-3.3 2.3 2.5 4.5l2.5 1.5 4 10-1 2 3 4-2.5 1.5-3-2-1 2-5-2-1.5.5.5-1.5-7-4-1.5.5-1.5-1.5-7-4-1.5.5-.5-1.5-1.5.5-1.5-1.5-13-4-1.5.5q.9-3-3.5-1.5l-2.5 1q1.4-4-5.5-2h-2q-7-1.5-6.5 1.5l-1.5-.5q-4.4-1.5-3.5 1.5l-1.5-.5-2.5.5.5 1.5-3-1-12.5 5-1.5 2-2.5.5-3 4-1 3-3.5 5.5-1.5-2.5-8-20 1.5.5 4-3 1 2 .5-2 5-1-1-3.5 3-.5 1.5-2 4.5-3.5-.5-1.5 2 1v-2l2 1 2.5-1.5-.5-1.5 2 1v-2l3 2 .5-1.5-.5-1.5 3 1 3.5-1.5-.5-1.5 5 1 3-1zm86.5 1q15.5 0 23 8l1.5 3 2.5 1.5 2 3 3 1.5 11 20.5 7 21v2l1 4v2l1 2-1 4.5-2 1.5-4 5.5-5.5 1-3.5-1.5 1-3-4.5-9.5-1.5-.5-1-3-2-5-.5-4.5-1.5-.5.5-1.5-1.5-.5 1-2h-2l1-3-14-31-9-13.5zm449.5 3 7.5 4.5 1 15-7.5 13.5-4 1-5.5-3.5q-4-5-2-16 2.1-8.9 8.5-13.5zm-747 89-1 2-6.5 1 .5 2 1.5-.5-3.5 7.5-8.5-10.5 2.5-.5 9 1zm217 44 14 7 1.5-.5-.5 1.5 2 1 1.5-.5-.5 1.5 2 1 1.5-.5-.5 1.5q3-.9 1.5 3.5l-9 12.5-2 1.5-2.5 4.5-1-1-5.5 5.5-1.5 1.5-16.5 16.5-.5 2.5h-2l-3.5 2.5.5 1.5-2-1-22.5 15.5.5 1.5-1.5-.5-.5 1.5-1.5-.5-.5 1.5-1.5-.5-.5 1.5h-2l-10.5 4.5.5 1.5-2-1-5.5 2.5.5 1.5-3-1-6 3-18 3-3-1-3 1-3-1-.5 2.5.5 1.5-2.5-1.5q-3.5-4-2-13l8.5-12.5 7-3 2.5 1 1.5-2 2 1v-2l2 1 9-5 1.5.5.5-1.5 1.5.5 1.5-1.5 3-1 7.5-3.5-.5-1.5 2 1 15.5-9.5-.5-1.5 2.5-.5 1.5-2.5q1.7 2.8 3.5-1.5l1.5-2.5 6.5-3.5.5-2.5q2 3 4-2l2.5-1.5 13.5-16.5 4.5-4.5-.5-1.5 2.5-.5zm-170 3-7 8zm-1 10-3 4zm31 39-5 6zm12 96 2.5.5-6.5 1.5v-1zm325 86 .5 1.5.5 2.5 1.5-2.5 2-1 1.5 2.5v-2l2 3 1.5-.5 1 3-.5 1.5 1.5 1.5 10 17-2 1 2 1-1 5.5-3 1.5.5 1.5-1.5-.5q-.9 3 3.5 1.5v1l-1.5 1.5-.5 3.5 1.5 2.5-2.5 1.5-3-2-1.5 5 7.5-2h2l1.5 1.5 4 3 .5-1.5 1 3q2.3-5.2 4.5-1.5l.5 1.5q1.7-2.8 3.5 1.5l3 6-.5 1.5 1.5 1.5v2l1 4-.5 1.5 3.5 1 .5 3q1.8-2.7 3.5 1.5l6 12q-3 2 2 4l-.5 1.5-.5-2-2 1.5.5 1.5-2.5-1.5-1.5 2.5-1.5.5.5 1.5-1.5-.5 2 4h-1l-.5-1.5-.5 3 3.5-1 .5 2 4.5 2 1.5-.5-1 2 1.5 2.5-3.5-1.5 1-2q-2.7-3.7-5.5.5l-3-1-3.5 1.5.5 1.5-2.5.5 1.5 2.5 2-1h4l1.5-.5-2-1 2.5-1.5v2l1.5.5-2 1 3.5.5 2-1 5 1 2.5 1.5-1 2 1 2h-1l-1.5-1.5.5 1.5-1.5 1.5v1l2.5 1.5.5 2.5 1-2 .5 3 6 2q-1.2 3 2.5 2l3.5 2.5-1 3-1.5 3.5-1.5 1.5-7 4.5-2.5 4-7.5 2.5 2 1-2.5.5h-4l-1.5-1.5-2.5-.5-5 2-.5-3.5.5-1.5-5 3-1.5-.5-3 1.5 2-3.5-2.5-.5-2 1v-2l-3 1-1-3-2.5 1q1.1 3.3-3 2l-.5-2-.5 4.5 1.5-.5q3-.9 1.5 3.5h1l.5-3.5 1.5 2.5-.5 1.5 5 1 1.5-.5-4.5 2.5h-2l-1.5-1.5h-1l-1 2 8 1 .5 2.5 1.5 1.5-1.5-.5-2.5-.5.5-1.5-2 1-.5-2-2 .5v2l1 2-1 3 .5 1.5 1.5-3h2q-2.2 5.8 1.5 5l1.5-.5-1.5 2.5-2.5 1.5.5 1.5-3-1-7.5 4.5.5 1.5-3-1-1 3-4-1-5.5 3.5.5 1.5-5-1-3-1-1.5.5.5 1.5-5-2-3 1-3-2-2.5.5-1.5 1.5-3 1-2-1-.5 2 3.5 2 2-1v1l-3 1-5-2-1 3-1.5-4-2-1.5-.5-2.5-1.5-.5 1-2.5 2.5-1 1 2 .5-2 2-.5-.5-4.5-1.5-2.5v-2l-.5-3.5-1.5.5 1-2-2-1q1.9 5.4-1.5 4.5l-2.5-.5h2l1-2-.5-2.5-2 1-.5-2-2-1.5 2-3-3 1 1-2.5-5.5 2-5.5-1.5-2-3-15-24-1-5 1.5-3.5 1.5-.5-2-1 1.5-.5 2.5 1-2-4.5 4-1 .5 1.5.5-2.5-.5-1.5 1.5-.5-2.5-.5-3-1-3 1v-1l1.5-.5-.5-1.5 1.5-2-3-1.5q.9-3.4-4.5-1.5v-1l4-1 1 2 .5-2.5-.5-2.5-1.5 1.5h-1l-1-2-.5-3.5 3 1 .5-2.5-1.5.5-3-2-2-1-3-1-6-1v2l-5-3-2.5-1.5-18-29-1-3 1.5-1.5-1-2-1.5.5 1.5-3.5 1 3 2.5-4.5-2-1 21.5-7.5v2l5.5-.5-1.5-2.5 2.5 4 2-.5-1-2 2.5 1.5 3-1 3 6 2-3 2.5-1.5 3 1-1-2 3-2-.5-1.5 1.5.5-1-3.5 2.5 1 .5-3.5-.5-1.5h2l1.5-2-3.5 1-3 1-4 1v-1l43-22v1l-1.5 1.5 3.5-.5 3.5-1.5-2-3.5 2.5-1-.5 1.5 1 3-1 2 5.5-2.5 1.5-.5-.5-1.5 3 2-.5-1.5.5-1.5 1.5.5.5-1.5 1 2 2.5-.5-1-2zM438 804v3l-1 2 2-1zm64 9-1 3 1 3-2 3h3l-1-1 4-2-1-4zm-73 57v3l3 1 3 1v-2h-2l1-2h-1zm114 17-4 2 5 2 1-2zm9 0v4-2l3 1h1zm-37 45-2 3-2 1 3 1 3-2-2-1zm-47 5-4 2 5 2 1-2h-1zm-2 7 2 5v-3h2q-2-4-3 0zM190 794l42 8.5-2.5 1.5-2-1 2 3 3-1 .5 2.5.5 1.5.5-2 2.5 1 3.5-2.5-.5-1.5 1.5 4 2-.5-.5-1.5 3 2 2-3 .5 1.5-.5 1.5 2-2h5l45 6 2-1 3 1h20l.5 2.5-4.5 6.5-3 1-2.5.5.5 1.5q-4.8 1.7-3.5-2.5l-2 1 .5 1.5-1.5.5-1 3 1.5 3.5 1.5.5-3 1q2.8 1.8-1.5 3.5l-2-1-.5 2 2 .5-1.5 2.5-2.5-3.5.5-1.5-1.5 1.5.5 4.5 1.5 1.5h2l-1 2 2 1 3-1.5 1 4.5-2 6 .5 1.5-2.5-1-6 14q-3-1.2-2 2.5l-6 9.5-4 2.5-1.5 1.5-1.5-.5-.5 3.5-3-1-1.5.5 3 2-1.5-.5-1.5 1.5.5 1.5-1.5-1.5-.5-2.5-4.5 1.5.5 1.5 2-1v1l-3 1-1.5-.5q1.5 4.4-1.5 3.5l-2.5 1.5.5 1.5-2.5-1.5h-1l-1.5 3.5-3 2-.5-2-3 .5 1 2-3 1-.5 1.5-3.5-1 .5 2 1.5-.5-2 5 .5 1.5-1.5-2.5.5-1.5-2-1-.5 1.5 1 3-2.5.5-1.5 1.5 1.5-.5 1.5.5-2 1 2 .5.5 3 1.5-.5-6.5 7.5-10.5 7.5.5 1.5-3.5-1q1.3 3-2.5 2l-2.5.5-.5 1.5-1-2-2.5 1.5 2 1-2 .5-.5 2-1.5-.5-.5 1.5h-2l-1.5.5 2 1-2 .5-1.5 3-2-1-2.5.5-.5 3.5-2-1-1 3-2.5-1.5q.9 3-3.5 1.5l-2.5-1-1.5 2h-2l-2-1-.5 2-2 1.5 1 2h-1l-1.5-2.5-1 2-1-2-3.5 6.5 3 1-2.5.5-3 1-1.5-.5 1.5-2.5-3 2-6.5-4.5-1.5-1.5-1.5-4-2-.5 2-1 .5 1.5 2.5-3.5-1-2.5-2-.5 1-2-1.5.5-2-1-.5 2-2-1.5-2.5-.5-1.5-.5 2-.5-.5-2h-2l-2 1v-2l-3 2-6.5-8-2 .5.5 1.5-2.5-4.5-1.5-2.5-1.5.5 1-2-2-5.5-2-.5 4-5-1-2-1-3-.5-1.5h-2l-2-1-1 3-.5-2q-4.8 1.9-4-1.5l-3.5-4.5-1.5.5 1-2h-2l1-4-.5-1.5 1.5-.5 1-3 1-2-2-.5-1-2.5 2-3-1.5-3.5-1.5-2 2-1.5h-2l-.5-1.5-1 2-1.5-2.5 4-2-6-.5.5-4 2.5 1-1-2.5 4-2.5 2.5-4 1.5-1.5 7.5-5.5 5.5-1.5q-2.8-1.7 1.5-3.5 6.8-8.2 18.5-10l.5-2h2l3-2 2.5.5-3 2 5.5 2.5.5-2 2.5 1 3-2 .5 2 2-.5-2-4h1l1.5 1.5 2 1-.5-1.5-1-2 2-3-3 1 .5-1.5-1.5-1.5-.5-1.5 2 1 .5-3.5.5-2.5 1.5-.5v-2l2-6-.5-1.5 1.5.5 1-5-.5-1.5 1.5.5zm-58 88-5 3h4l-2 3h2l1-3zm29 58v2l3 1v-1h1l2 1-1-1 2-1 1 1v-2z"/><path fill="#a95d34" stroke="#a95d34" d="m233.5 803 4.5 1.5-2 1 .5-1.5zm193 5 3.5 1.5-1.5 2.5-1-2-2 1 .5-1.5zm132 77 1.5 1.5-1 2 2 3-1.5.5-2.5-5.5zm-130 1 .5 2-2 .5.5 1.5-1.5-3zm-143 4-3 4zm-216 14-2 3-9 6 2-3zm457 28 1.5 2.5.5 1.5-2.5-.5 1-2zm47 7q13 0 17.5 8.5l-3.5-2.5q-4.5-5-14-5l-5 2v-1zm46 20-1 2-8 6 3-4zm-470 22-.5 1.5-3.5 4.5-3 2-.5-2 6-3.5zm454 7 .5 1.5-3.5 2.5v-1l2.5-1.5zm-481 16 7.5.5-7.5.5zm542 2-10 11zm-567 2 5.5 2.5-3.5.5zm-47 6 3.5 4.5-3-2zm600 5-3 4zm-579 23 3 4zm15 11 6.5 3.5-1.5.5zm436 6 2.5 4 5 2.5-2.5.5-2.5-1zm51 0 2.5.5-5.5 1.5v-1zm-437 8 26.5.5-26.5.5z"/><path fill="#4382a6" stroke="#4382a6" d="m124.5 158 8.5.5-8.5.5zm1 9 3.5 5.5h-1zm27 11 .5 7.5h-1zm453 240 26 12 35.5 24.5 1 6q-19.9 35.1-48.5 61.5-22.4 21.6-52 36l-27 8h-24L482 555q39.2-40.1 69.5-90 19.8-10.2 32.5-27.5l13.5-14.5zm-192 5q23.9 10.1 43.5 24.5L433 475l-3.5 2 .5-1.5-11-39-6-11zm-150 87 33.5 26.5-4 1.5-3.5 7q-18-14.3-26-35Zm56 41q27.6 17.4 62 28 15.8 6.7 40 5 24.6-3.4 40-16l6.5 18.5q-12.7 12.3-31.5 18.5-13.5 5-34 3-24-4-42-14l-44-27-5.5-1.5 9-13zm-42 234 13.5.5-13.5.5zm36 0 14.5.5-14.5.5z"/><path fill="#c4794a" stroke="#c4794a" d="m521.5 9 4 5zm-195 12 12.5.5-12.5.5zm-267 37 6.5.5-6.5.5zm130 14-7 8zm188 41 4 5zm7 7 4 5zm215 10 .5 6.5h-1zm-262 17-7 8zm36 101q6.1-1.2 5.5 1.5l-1.5-.5q-3.7-1.2-2.5 2.5l7 4-6.5.5-4.5-2.5q-1.9-5.4 1.5-4.5zm15 4q6.1 3.4 4.5 14.5l-6.5 8.5-8 1-1.5-2.5 8-10V257l2.5-1-1 3 3.5-2.5zm-223 21q13.6-1.6 19.5 4.5l-1.5-.5q-6.4-4.1-18-3l-2 1v-1zm29 15q4.8 5.1 3.5 15l-6-1.5-2-9 2 1 .5 2.5 2.5-.5-1-5zm358 50-9 10zm39 14 3.5 1-2.5 4-10 5v-1l4.5-2.5-3.5-1.5-11 9 5-6zm-387 22 8 1 3.5-1 .5 2 1.5-.5.5 1.5 1.5-.5.5 1.5 2.5.5.5 1.5 1-1 4.5 4.5q7.7 6.3 6 22l-1.5 4.5-1.5-.5 1 2-2 1 .5 1.5-1.5.5v2l-1.5 2.5-1.5.5.5 1.5-1.5.5 11.5 29.5 1.5-.5-4 9L200 607l3 .5q-10 1-14 8-5.5 5-4 17l3.5 5.5 1.5 1.5-13 43-3.5 4.5-2-1v2l-4-1v1l1.5.5-1.5.5-4-1v1l1.5.5-2.5.5-4-1v2h-28l-2-2-5 1-24.5-6-.5-2-2 1v-2l-2 1-1-2-2 1v-2l-2 1-8.5-5.5-.5-1.5h-2l-3-1q-11.4 4.1-27 4-14.7-1.3-22.5-9.5l-1.5-1.5q-8.5-6-8.5-20.5 1.2-10.3 7.5-15.5l1.5.5 1.5-2.5 1.5.5 1.5-2.5 2 1 .5-2 4.5-1q1.8 2.7 3.5-1.5l-1-9 .5-3.5-1.5-.5v-19l4-19.5-2-.5 3-.5q7.5-33.4 25-57.5l1-3-1-2h2l2-6-1-2.5 7-1.5-4.5-.5-9 1-4.5-1-1-2.5 1.5.5 11 2q14.6-.9 20.5-10.5 5.5-8.5 5-23-1.6-15.4-11.5-22.5l-3.5-1q8.5-16.7 22.5-29l12.5-8 .5-3 1 2q18.2-13.2 51.5-10l1.5 2 5-1 9.5 2 3.5-9 1.5-.5-1-1 4.5-4.5zM120 442l-7 3-3 6q-1 9 6 11l10-1 4-7-2-7q-2-5-8-5Zm9 27-9 4-5 7 1 8 10 7q11 2 16-4l3-5-2-9q-4-7-14-8Zm0 71-3 2q-19 15-28 40 0 15 7 21l14 6q10 1 17-2l15-10q11-10 17-25l-3-2-11 13q-11 13-29 19-10 1-13-4l-6-8q-1-10 2-15l24-32zm494.5-159q7.3-1.2 9.5 2.5l3 11h-1q.2-9.2-5.5-12.5l-7.5 1.5-.5 1.5-.5-1.5zm10.5 20 9 3 6 18.5-1 2.5-3-1.5-2-9zm-232.5 10 4 5zm433 4 .5 7.5h-1zm-503 7 3 4zm483 0 .5 7.5h-1zm-785 108-4 5zm254 23-7 8zm-10 10-7 8zm28 13-3 4zm-185 289-3 4zm-29 28q8.6.4 12.5 5.5l13 28-.5 1.5 2.5 1.5-.5 1.5 5.5 4.5 20.5 22.5 5.5 4.5 1.5 1.5q5.9 3.1 4.5 13.5l-1.5 3.5-1.5.5.5 1.5-1.5-.5-1.5 2.5-2.5 1.5.5 1.5-2.5-1-.5 3h-2l-1.5.5.5 1.5-1.5-.5-3.5 6.5-21-1q-11.1 1.4-16.5 8.5l3.5 5.5 19-6h14l8 2h2l5.5 1 .5 2 2-1 2 3h2l9.5 7.5q12 10 11 33l-4.5 13.5h-2l-36 1q-44.4-4.1-66.5-30.5-18.8-21.7-30-51-8.6-22.9-11-52l3-1 1.5-2.5 3-2 1.5.5 1.5-2.5 17-11 1.5.5 1.5-2.5 1.5.5 1.5-2.5h2l1.5-.5-.5-1.5h2l1.5-.5-.5-1.5h2l1.5-.5.5-2.5 1.5.5 1.5-2.5 13-8zm484 46 6 1 2-1v1l-1.5.5 6.5 2.5 2.5.5-.5 1.5 6.5 4.5-.5 1.5 2.5 1.5-.5 1.5 2.5 1.5-.5 1.5 2.5 1.5-1 2h2l-.5 1.5 1.5.5-.5 1.5 1.5 2.5-1 3-4 18 3.5 4.5 3.5-2.5 5-21-.5-1.5 6.5-3.5.5-2.5h2l1.5-.5-.5-1.5 1.5.5.5-1.5 1.5.5.5-1.5 1.5.5.5-1.5 1.5.5.5-1.5 1.5.5 2.5-1.5q9-5 25-3 17.1 3.4 26.5 14.5l1 7q-9.8 29.2-31.5 46.5-43.5 40.5-121 47l-5-3-1.5.5 1-2-3-1 .5-1.5-1.5-1.5-18-34 .5-1.5-1.5-1.5-10-20-1-9.5 2-1.5-1-2 5.5-6.5 1.5.5.5-1.5 1.5.5.5-1.5 1.5.5 1.5-1.5 4-2 1.5.5 1.5-1.5q25.1-9.9 44-26l1.5.5 2.5-3.5 1.5.5 1.5-2.5 1.5.5 1.5-2.5 2-1 2 1v-2l3 1v-1zm-561 13 .5 8.5h-1zm41 96 6 7z"/><path fill="#76acd5" stroke="#76acd5" d="m143.5 150 3.5 2 4.5 10 8.5 2 1 3.5-.5 2.5q-1.7-2.7-3.5 1.5l-1.5 1.5-3.5 2v11.5l-1.5.5-3 1-8-6h-3l-7 3-4.5-3.5 4-11-6-6v-4l1.5-1.5h11l2.5-2.5 3-5.5zm148 244 4.5 1.5 1 5.5-11-1 3.5-5zm203 12 12 2 21 10 28.5 21.5 2 9-6 15 .5 1.5-3.5 2.5q-28.4 49.6-68.5 87.5L462 567.5l1 2h-1l-.5-1.5q-19.4 17.6-58 16-48.2-10-83.5-32l-1.5-3-23-13-32-26 .5 1.5q9.4 19.6 25 33L262.5 573q-24.3 22.2-60 33l-1.5-3.5 36-146q5.1-12.9 15.5-20.5 10.8-9.7 32-9l28 8 29 18 8.5 3-3-12.5-12-21.5q29.4 3.2 40.5-13l12.5 19.5 22 52 4.5 5.5h4l8.5-5.5 4.5-5.5 1.5-1.5q30.7-28.8 55.5-63.5zm89 31-4 5z"/><path fill="#76acd5" stroke="#76acd5" d="m311.5 566 5 1 38 24 20 9 28 8h21q27.6-4.9 44-21l27.5 83.5 12 30 8 27v6l-4.5 7.5-20 9-49 16-56 13-48 6h-2l-44 1q-44.1-1.4-82-9l-38-9-14.5-7.5-1-12 27-81 6-25 3.5-4.5q7.7 1.2 11-2h2l12-2 32-14q23.6-13.7 42.5-31l1.5-2zm28.5 46q-6 3-7 11l1 8-4-1-10 1-6 9 1 6q4 6 13 7l1 3-3 5q-1 7 2 11l5 3 8-1 6-9 3-1 1 3 9 5 8-2 4-5q1-13-7-17l8-3 4-6-1-8-6-6-13 2-6-13q-3-3-11-2Zm104 47-5 2-6 10 1 7v3l-4-2-9 1-6 7 2 9q2 6 13 5v3l-3 6 1 8 9 6 6-2 6-10 10 7 10-1 4-5v-9l-8-9 9-3 3-5-1-9-7-6-12 3-4-10q-2-6-9-6Zm-205 19-4 2q-7 4-6 15v2l-8-4-8 1-6 7 1 8 10 6 1 3-6 10 2 7 7 4 11-4 1-2 3-2 2 4 10 7 7-2 5-8q0-8-5-11l1-3 9-2 5-7-2-8-6-5-10 1-4-13q-2-6-10-6Zm286.5-112 6.5.5-6.5.5z"/><path fill="#eb9582" stroke="#eb9582" d="m158.5 103-4 5zM.5 123l.5 6.5H0zm201 24 4.5 2.5 5 10.5q10.3-2 15 2.5-.8 10.2-9 13 3.9 4.1 3 13l-1 2.5-14.5-6-11 7H190l-1-11.5 1-5-10-9 2.5-4.5 11-1 2.5-2.5zm284 56 9 1 9-1 12.5 10.5q7.8 8.7 8 25-2.8 23.2-18.5 33.5l-12.5 5q3.2-44.3-7.5-74Zm-112 44 4.5.5-6.5 1.5v-1zm5.5 1q8.8.6 13 6.5 3.2 3.3 2 11h-1q1.4-9.4-3.5-12.5l-.5 1.5 1 2-3.5 2.5v-2l-1.5 1.5-2.5-1.5-5.5-.5 5-1-5.5-2.5-2 1v-1l1.5-.5-1-3.5 3.5 1zm-8.5 2 2 5 2.5.5-2.5.5q-3.8-1.3-2-6Zm-174 5 8 9zm188 7 .5 1.5-8.5 10.5.5-1.5zm78 3q19.2-1.2 25.5 10.5 3.3 3.7 2 12-2.7 9.8-10.5 14.5-7.9 7.7-25 6-11.8-2.2-17.5-10.5l-3-9q1.6-10.9 9.5-15.5zm-70 2 .5 1.5-5.5 6.5 3.5-4.5zm-226 5q21.2-1.2 27.5 12.5l3 6h-1l-.5-1.5-.5 2.5-1 6 .5 1.5-4-7-.5 1.5 2 7h-1q-.6-10.9-7.5-15.5-6.4-5.1-19-4l-5 1-.5-2.5-.5-1.5-1.5.5 2.5-3.5 5-2 15 2v-1l-13-1zm211 3 6.5 1.5-5.5.5zm-101 13q25-1.5 35.5 11.5 5.3 3.7 4 14-2.7 9.8-10.5 14.5-8.7 7.3-25 7-20.5-.5-29.5-12.5l-3-12q2.6-11.4 11.5-16.5z"/><path fill="#eb9582" stroke="#eb9582" d="m197.5 292 1.5 10.5-5.5 1.5-1-2 5.5 1zm173 5 10.5.5-10.5.5zm-8 14q28.8.7 41.5 17.5-9.3 11.7-30.5 11.5-18.2-2.7-27.5-14.5l-5-8q7.5-6.5 21.5-6.5Zm194 24 1.5 1.5 3 1-2 3.5-16 14.5q.8 3.8-5 1.5 2.3-11.6 11.5-18zm17 8 5.5 1.5-19.5 16.5-4.5 1q-.3-9 6.5-12zm21.5 10 4 1.5-5.5 2.5 1.5-2.5zm55.5 0q8.3-.2 11.5 4.5l2.5 4.5q3.5-4.5 13-3l8 7h6l5-1 4.5 3.5 2 12-6.5 9.5-10 2q-2.9-4.1-11-3l-3 1-7-4h-8l-6-6H642l-1.5-2-3.5-2.5v-2q1.5-4.4-1.5-3.5l.5-1.5q1.2-9.8 8.5-13.5zm-65 1-1 2-1.5.5 2.5.5 4.5-1.5-1 2.5 2.5-1-1 2-18 12H569q1.4-7.3 7.5-11v2l2.5-1.5q-2.8-1.8 1.5-3.5v2l2.5-1.5.5-2.5zm16 10-9 10zm22 18q8-1.5 9.5 3.5l.5 1.5 1.5-.5-1 3h2l-1 5 2 7-1.5-.5-1.5 2.5 7 7 5.5 14.5 1.5-1.5 1-3-6-16.5-2-.5 1.5-.5 48.5 10-5 12.5-18.5 21.5-6 3-36.5-23-.5-2-1.5.5-1.5-1.5-2.5-.5-1.5-1.5q-5-8.5-2.5-24.5l4-10.5 2-.5-.5-1.5 1.5-1.5zm-326 1q28.8 7.2 67 5l9.5-1 1 18.5-2.5.5-32 1q-26.5-3.2-44.5-14-2.2-7.7 1.5-10Zm-216 54 .5 2 9 6.5q6.8 8.7 6 25-1.6 14.9-11.5 21.5-7.3 4.2-19 4l-6-2-1.5.5.5-1.5-2.5-1.5q-5.8-10.2-6-26l2-8.5 4.5 2 4 3 2-1 3 1 9.5-3 2-7 2-.5-2-3 .5-1.5-1.5-.5q3.3-2.2-2.5-4.5l-1.5.5 1-2.5zm47 32q10.2.8 14.5 7.5l2 9-3.5 5.5q-4.4 5.6-16 4l-9.5-7.5-1-8 4.5-6.5zm-106 194 4 5zm116 28 13.5.5-13.5.5zm42 126-4 5zm-32 123 11 12zm-23 2 15 16zm19 18 4 5zm468 3-3 4zm54 67-4 5zm-136 42 3 4z"/><path fill="#8cd2ab" stroke="#8cd2ab" d="m493.5 104 5.5 3.5 4.5 5.5 10-1 1.5 4.5-5 10 4 10-3.5 1.5-10-2-10 6q-4.6-3.6-2.5-13l-9-5.5 2.5-5.5 8.5-3.5q-1-8 3.5-10.5Zm-261 1 4.5 2.5 4 10.5 14.5 1 1.5 1.5v2l-7 9-1 6q3.3 3.7 2 12h-2l-1.5 1.5-13-6-14 7q-3.2-1.7-1.5-8.5l1-8-10-9v-2l1.5-2.5 13.5-3.5 5-12.5zm-72 60 1.5 2.5-5 4 4-5zm127 231-1.5 2.5q-.9 3 3.5 1.5l7.5 1 .5-2 .5 3-14-1zm87 12 2.5 1.5q20.6 29.9 33 68h-1Q396.5 439 375.5 409l-4 3zm111 5-3 4zM333 421l9 .5-7 .5 8 13.5-2-1zm10.5 0 9.5.5-9.5.5zm252 3-8 9zm-319 2 6.5.5-16.5 2.5v-1zm-13 3 1.5.5-5.5 2.5v-1zm-6 3-1 2-3 2 2-3zm49 0 23.5 12.5-1.5-.5zm-55 4-8.5 9.5q-6 6.5-7.5 17.5l-.5-3.5q4.3-15.7 16.5-23.5Zm327 6-5 6zm-239 8 4.5 3.5-1.5-.5zm-105 14 .5 3.5-1.5 3.5-.5-3.5zm-2 8 .5 3.5-1.5 3.5-.5-2.5zm178 7 2.5 4.5-2-1zm-180 1 .5 3.5-7.5 27.5-.5-2.5zm-8 32 .5 3.5-1.5 3.5-.5-2.5zm-2 8 .5 3.5-1.5 4.5-.5-3.5zm-2 9 .5 3.5-1.5 3.5-.5-2.5zm-2 8 .5 3.5-1.5 4.5-.5-3.5zm83 0 20.5 12-.5 2zm-11 8-.5 1.5-13.5 16.5-22 19 4-5 27.5-25.5zm-74 1 .5 2.5-2.5 7.5-.5-2.5zm263 10-3 4zm-267 5 .5 3.5-1.5 3.5-.5-2.5zm100 5-.5 1.5-16.5 19.5-3 2-30 24 2-3q22.8-13.7 39.5-33.5zm-102 4 .5 2.5-1.5 3.5-.5-2.5zm-4 15 .5 3.5-1.5 4.5-.5-3.5zm30 7-1 2-8 4 1-2zm-32 2 .5 3.5-1.5 4.5-.5-3.5zm16 6 1.5.5-7.5 3.5v-1zm-18 4 4.5 2.5-3.5.5zm58 9-1 2-23 12v-1zm75 9 .5 6.5h-1zm-102 5 1.5.5-5.5 2.5v-1zm-45 24 .5 2.5-3.5 10.5-.5-2.5zm-4 14 .5 2.5-5.5 14.5-.5-1.5zm169 1 3 4zm82 4 .5 6.5h-1zm-95 114 4.5.5-5.5 1.5z"/><path fill="#fbc746" stroke="#fbc746" d="m163.5 100 4.5 3.5q-.2 9.2 5.5 12.5l9.5 4.5-1.5 4.5-10.5 5-1 10.5-3.5 5.5-11-9h-6l-9 1-1.5-4.5 5-9v-4l-5-8v-4l5.5-1.5 7 2q9.2-1.3 12-9Zm263 229 96.5 19-11.5 29-68-14-20-2-5.5-3.5-2-13q1.5-9.4 7.5-14.5zm176 35 4.5 1-1 4.5 2 4.5q2.8 4 11.5 3l5.5-3.5 1-5.5q6.8-1.1 10 2.5.1 6.4 4.5 8.5l11 1 6 6h8l9 4 7-1q2.9 4.1 11 3l8.5-6.5 1.5-1.5h2l7.5 1-1 5.5 2.5 3.5 10 3 7.5-4.5 1-3-.5-1.5 23.5 4-2 8.5 2.5 3.5 7 2 6.5-3.5 1-5-.5-1.5 50 8 4.5 2.5-4 3q-6.6 6.4-6 20l4 9-1.5-.5q-43.7-5.8-82-17h-2l-50-9-22-6-17-2-7.5-3.5q2.1-13.6-4.5-18.5l-8-1-9 17-31-6-3.5-2.5q1-9 7.5-12.5zm-258 270q8.3-.8 10.5 4.5l1 10-2.5 3.5q-2.6 3.4-10 2l-6.5-5.5q-1.7-9.7 3.5-12.5zm100 48q9.4-1.4 11.5 4.5l1 9-3.5 4.5-8 2-7.5-5.5-1-6 5.5-7.5zm-209 19q8.7-1.2 11.5 3.5l1 10-4.5 5.5-7 1-7.5-5.5-1-7 4.5-6.5z"/><path fill="#edc2ac" stroke="#edc2ac" d="m546.5 7 10.5.5-10.5.5zM456 57h3.5l11 8h3q4.1-3.9 13-3l1.5 4.5-5 12 8 13q-4.3 5.2-16.5 2.5l-2.5 2.5-6.5 8.5-4.5-1.5-3-13.5-15-6.5 4.5-6.5 8.5-5.5-1-12zM24.5 72l-5 6zm139 27q4.4-1.5 3.5 1.5l1 2-3.5-2.5-9 8 3.5-4.5 2.5-3.5zm202.5 3 5 3.5 19.5 21.5q17.1 15.4 39 26l46.5 15.5 16 63 2 46-8 31-16 28.5 54.5 10 9-10q6.5-5.5 18-6l7.5 4.5-1.5-.5-12.5 8.5-7 13.5q5.8 2.3 5-1.5l16-14.5 2-3.5-.5-1.5 9-1 6.5 3.5 2 5-1.5-.5-8 2-12.5 10.5-1 6.5 4.5-1 20-17h6l6.5 2 1 6q-14.4 2.7-22 13.5l-2 5.5h3.5l23-16 3.5-.5-2-1 1.5-.5q5.3 2 3.5 10l6 1.5-2.5.5-4-1-19.5 18.5-2 7 3 2-4 .5q-5.2 28.1-24.5 43l-18-13-3-1-6.5-3.5-.5-2.5-18.5-9.5-1-4 5-23.5-20-3.5 4.5-.5 16.5 3 11-29-98.5-19-4.5 3.5-5 9v2q-1.6 11 2 15.5l4.5 2q22.5.5 39.5 6.5l-3.5.5-15-4h-7q-24.8 17.5-61.5 22l-.5 15-.5-14-43.5 1-33-5-3-1q-43.8-11.2-72.5-37.5 3.3-2.2-2.5-4.5l-1 1-4.5-4.5 5 3-10.5-14.5-2.5 1.5 2.5 3.5-6-3q-9.3 5.2-25 4-19.9-3.1-29.5-16.5-10.1-9.9-10-30 .9-13.6 7.5-21.5l1.5-1.5q9.6-13.9 33.5-13.5l13 5 13 11q8-7 11.5-18.5l9.5-40.5q36.3-5.2 62-21 30-15.5 51.5-39.5 17.3-17.3 25-42.5Zm59 66-4 2-3 4 1 4 5 2q13-1 22 3 7 2 8-2l-1-5q-8-10-28-8Zm-131 21-17 8-8 10 4 5 5-1 10-7 14-4q4-1 3-7-2-6-11-4Zm138 3-18 8q-10 8-14 22-2 22 8 32 8 9 22 13h14l14-7q9-7 13-18l-1-2 3-9-3-11 1-2h-1v-1l-4-9q-9-17-34-16Zm-135 20-16 8q-13 8-14 28 0 16 8 26 9 11 28 13 16 0 25-8l7-9-5 3 5-5 1 1v-3h2l-1-2 4-10q1-10-3-15l1-2h-2l1-2h-1v-1l-2-5-17-15q-8-4-21-2Zm77 35-3 1-1 6 3 2 10 1 2 3q-2 9-9 14l3 3 9-2 6-9q1-8-2-11-5-8-18-8Zm89 18-19 8q-8 5-10 16l3 9q6 8 18 10 17 2 25-6 7-5 10-14 1-9-2-12-6-12-25-11Zm-296 7-7 3-3 4 3 3 5-1q12-1 19 4l4 5 6 14 5-1q1-13-5-18-6-14-27-13Zm110 16-17 6q-9 5-12 17l3 12q9 11 30 12 16 0 25-7 7-5 10-14 1-11-4-14-11-13-35-12Zm131 1-22 8q-24 2-38-5l-6 1-5 7q1 16 9 26 9 11 28 14 17 0 27-8 13-11 16-32l-1-8q-1-4-8-3ZM140.5 106l2.5.5-4 2-.5 3.5-.5-5zm460 3-5 6zm-420 9 4.5 3.5-3.5 4.5-1.5-.5 3-2-1.5-4.5zm329 88 5 6z"/><path fill="#edc2ac" stroke="#edc2ac" d="m289.5 233 .5 6.5h-1zm176 15-4 5zm49 15-7 8zm-222 6 3 4zm17 9 8.5.5-8.5.5zm334 77-5 6zm27 3 6.5.5-6.5.5zm10 2q2.1 6.4 11.5 5.5l-6.5.5zm-57 5 11 3 1.5-.5q.9 3-3.5 1.5-7.5 0-9-4Zm-160 3 27.5 5.5-3.5.5-24-5zm-270 11-3 4zm509 2 11.5 3.5-3.5.5-7-2-1.5.5zm27 5 33.5 6.5-7.5.5-24-5zm-434 6q26.2 17.8 73 15l5-2 2 3-4.5 3.5-1.5 2.5q-9.3 8.2-27 8l-9-1h-2l-11-9-22.5-11.5zm289 0 7.5 1.5-3.5.5zm184 2 56.5 10-1.5 2-4-2-50-8zm-665 16-8 9zm588 3 42 9h2l83.5 17.5-3.5.5-83-18-41.5-7-.5 2-.5-1.5zm-140 21 4 5zm126 2-7 8zm-609 4q6.1-1.2 5.5 1.5l3.5 4.5zm-17 28 .5 7.5h-1zm16 41-3 4zm561 4-4 5zm-605 47 3 4zm321 73 10.5 3q3.1 3.6 2 12.5l-4.5 5.5-1.5-.5 4-3 1-10-4.5-5.5-7-1-6.5 4.5-1 10 3 4-3-2-2-7 4.5-8.5zm-1 21 6.5.5-6.5.5zm101 27q8.7-1.2 11.5 3.5 3.2 3.3 2 11l-4.5 5.5-3 1v-1l5.5-3.5 1-9-4.5-5.5-8-1zm-4 2-1.5 2.5-1.5 3.5-.5-1.5zm-4 7 2.5 9 10 3.5-3.5.5-8.5-5.5zm-202 10q10.8-1.8 13.5 4.5l1 10-2 4.5-10.5 3-7.5-4.5-2-10 5.5-6.5zm.5 1-2 1-5 7 1 7 8 5 7-1 4-5-1-10q-3-6-12-4ZM114.5 887q16.1 38.9 45 65l1.5.5-14.5 9.5-23.5-22.5-12-16q-3.3-16.7-13-27 2.8 3.7 5.5-1.5zm170 5-8 9zm272 33 3.5 2.5 7 13q-29.6 25.7-70 39.5l-8-16q38.6-14.1 67.5-39Zm-60 56-3 4zm177 42-4 5zm-498 20 .5 7.5h-1z"/><path fill="#fefefc" stroke="#fefefc" d="M431.5 192q26-1 34.5 15.5l5 11h-1q-2.4-8.6-9.5-12.5-6.2-5.3-18-5-13.6 1.4-19.5 10.5-7.4 7.1-7 22 2.6 12.9 11.5 19.5 7.2 7.3 24 5l14.5-9.5 4.5-8.5.5 1.5q-4.1 11.9-13.5 18.5l-14 7h-14q-13.9-3.6-21.5-13.5-10-10-8-32 3.8-13.7 13.5-21.5zm-135 20q13.4-1.9 21 2l17.5 14.5 4 9h-1l-8.5-11.5q-6.6-5.9-19-6-13 2-19.5 10.5-6.8 6.7-7 20 2.1 14.9 11.5 22.5 7.4 6.6 22 6 11.3-2.7 17.5-10.5l3.5-5.5-.5 1.5-10.5 14.5q-8.7 7.8-25 8-18.5-2-27.5-13.5-8-9-8-26 1.5-19 13.5-27.5z"/><path fill="#fefefc" stroke="#fefefc" d="m426.5 212 6.5 3.5 1 5-3.5 4.5-3 1-5.5-4.5-1-4 3.5-4.5zm-133 19 7.5 3.5 1 6-2.5 3.5-6 1q-4.8-2.2-3.5-10.5zm47 381q10.4-1.4 12.5 5.5l2 10.5 13.5-3 6.5 4.5 2 8-3.5 6.5-9.5 3.5q8 4 8 16l-3.5 5.5q-3.3 3.2-11 2l-7.5-6.5-1.5-1.5-8 11-7 1-6.5-5.5-1-8 4-8.5q-9.5-.1-14-6.5l-1-10 3.5-4.5 9-2 7.5 3-1-13.5 4.5-6.5zm4.5 21-5 2-5 9 2 7 7 4 9-1 4-5q1-9-2-13zm99.5 26 8.5 5.5 3 10.5 11.5-3 8.5 5.5 1 9-5.5 6.5-7.5 1.5 7 6q3.2 3.3 2 11l-3.5 5.5-10 2-7.5-5.5-1.5-2.5-1.5 1.5-6.5 9.5-8 1-5.5-4.5-2-7 4-10.5q-9.1 1-13-4l-3-9.5 4.5-6.5 9-2 6 3 .5-1.5-1-13 3-5.5zm.5 22-4 2-5 8 1 7 9 5 8-2 4-5q1-8-2-11-3-5-11-4Zm-205.5-3 8.5 4.5q4.1 5.4 3.5 15.5 3.3-3.2 11-2l5.5 3 3 8.5-5.5 8.5-10 2-1.5-.5q7.6 3.9 6 17l-4.5 5.5-9 1-7.5-6.5-2.5-4.5q-3.4 9.1-17 8l-3.5-2.5q-3.4-2.6-2-10l6-9-11-7-2-9 4.5-5.5 8-2 10.5 4-1-5.5 5.5-11.5zm-4.5 22-2 1-6 7 2 10 8 4 10-3 2-4-1-10q-3-7-13-5Z"/></svg>