<svg xmlns="http://www.w3.org/2000/svg" width="683" height="388" viewBox="0 0 683 388"><path stroke="#000" d="m498.5 6 5.5 6.5-3-2zm25 9 15.5.5-15.5.5zm-12 2 2.5.5-5.5 1.5v-1zm-60 2-.5 1.5-1.5 3.5-.5-1.5zm104 0 5.5 2.5-1.5-.5zm17 8 4.5 3 1.5 2 3.5 4.5-3-2-1.5-1.5zm21 16 3 4zm12 23 .5 16.5h-1zm-53 1-3 4zm11 7-3 4-4 2 1-2zm-137 4 2.5 4 2 .5-1.5.5zm28 0 5.5 3.5q-1.5 3-3 0l-.5-2.5zm-51 8 12.5.5-12.5.5zm21 0 8.5.5-11.5 1.5v-1zm102 4 1.5.5-2 1 2 1-3.5.5zm62 2 2.5 1.5-2 1.5-.5-2-8 1v-1zm-160 3 6.5 1.5-1.5-.5q-6 1.3-5-1Zm-41 1-3 4-8 6 1-2zm213 0 .5 2.5-1.5 3.5-.5-2.5zm-218 1-4 5zm99 3 7.5 5.5-4.5-3.5zm53 2q6.3-1.2 7.5 2.5l-2.5-1.5-8 2 1-2zm-165 2-7 8zm76 0 .5 2.5-1 3 1 3h-1l-1-5zm3 0 5.5 8.5-2-1zm78 1h2l2.5 1.5-1.5-.5-2 1zm53 0 5.5 1.5-1.5-.5-6 2zm14 0 .5 6.5h-1zm-117 3 7.5 2.5 2 4.5-2-1.5-8-4.5-1.5 3 .5-1.5zm-117 5 .5 3.5-6.5 5.5v-1l5.5-4.5zm233 1 .5 9.5h-1zm-27 2 5.5 12.5-1 2.5-2 .5.5 1.5-1.5-.5-2.5 1.5v-1l4.5-3.5-4-9zm-101 2 .5 9.5h-1zm-17 1 .5 7.5h-1zm158 2 .5 3.5-1.5 3.5-.5-2.5zm-254 2-3 4-21 17 4-5zm2 1-4 5-5 4 4-5zm141 0 3 4 1.5-.5-1.5 1.5zm-13 8 6.5.5-6.5.5zm-139 1-3 4zm-5 4-4 5-5 4 4-5zm204 4 4.5 2.5q-1.5 3-3 0l-1.5-1.5zm47 1 1 3 1-2 .5 1.5-2.5 4.5.5-1.5-.5-2.5-2 3 .5-1.5zm-41 3 2 1 2-1v1l-3 1zm19 0 2.5.5-5.5 2.5-1-2zm-212 3 6.5 8.5-3-2zm147 0 8 9zm-182 1-3 4zm180 0 5 6zm113 1 .5 10.5h-1zm-298 3-5 6-5 4 4-5zm39 0 4.5 5.5-3-2zm200 0q10.8-1.3 15.5 3.5l-1.5.5q-4.2-4.3-14-3zm-5 2-2.5 3.5-.5 4.5-.5-4.5zm-234 1-4 5-4 3 3-4zm268 1-4 5zm-70 1 6.5 5.5-2.5-1.5zm-164 3 1.5 1.5 1 2-2 1 1-2-1.5-1.5-3.5 2.5zm-19 1-3 4zm2 0 13.5 17.5-4-3zm33 0 1.5 3-3.5 1-1-2 2 1zm180 2-2.5 3.5q.9 3-3.5 1.5l-4.5-1.5q8.3 1.3 10.5-3.5Zm50 0-3 4-2.5-.5zm-265 2 3.5 2.5 2 3-3 2q4.5-2.5-1-5l-1.5-1.5-5 4 2-3zm-34 1-3 4zm25 2-3.5 4.5 2 3-3-2 1.5-2.5zm-30 2-3 4-6 5-.5-2zm318 1-2.5 3.5-1.5 1.5-2.5 1.5zm-273 2 2.5 1.5 2 3-3-2-1.5-1.5-2.5 1.5zm-16 4 12 15 3-5-1.5 2.5 1 2-3.5 1.5zm-289 5 6.5.5-8.5 1.5v-1zm13 2 8.5 1.5-4.5.5zm29 0 6.5 2.5-1.5.5zm124 0 4.5 3.5-.5 1.5-3-4z"/><path stroke="#000" d="m328.5 185 3 2 2.5-1.5-3.5 2.5zm88 1 .5 3.5-2.5 5.5-.5-2.5zm-385 8 3 4zm417 1 .5 3.5-4.5 11.5-.5-2.5zm-61 3-3 4zm-269 3 9.5.5-9.5.5zm87 4 1.5 12.5-2-1zm-145 9 5.5 2.5-1.5.5zm118 6-2.5 3.5-1.5 5.5-.5-3.5zm-75 4 16.5.5-16.5.5zm456 0 1.5 6.5h-1zm-345 1 6.5 5.5-2.5-1.5zm108 2 1.5.5-4.5 2.5v-1zm-33 4 4 5-4.5-3zm12 12-3 4zm-113 1 4 5zm-65 2-1 3 1.5.5-1.5.5h-2l-4 3 3-4 3-2zm500 1 6.5.5-7.5 1.5zm-374 2 4.5 3.5-1.5.5zm388 1 6.5 4.5-2.5-1.5-3-1v2l-2.5-1.5 2-1zm-117 1-3 4zm-370 3 1.5 4 5 3.5-3.5-2.5-2.5-1.5zm364 2-3 4-4 2 1-2zm-404 1-4 5zm89 0 4.5 5.5-3-2zm411 0-.5 3.5-3.5 3.5 1-3-5 1v-1zm-352 1 3 4zm15 3-2 3-3 2 2-3zm-170 2 1.5.5-7.5 6.5-.5-2zm541 2 1.5 1.5q4.1 1.9 3 9l-1.5 2.5-.5-1.5 1-6-1.5-2.5-1 2-1.5-2.5zm-542 2-4 5zm512 1 1.5 3.5h-2l-.5 1.5-.5-3.5zm11 0 .5 9.5h-1zm-530 2-3 4zm426 0 1.5.5-7.5 4.5 1-2zm107 0 1.5.5-2 .5-.5 7-.5-6.5zm-449 1 13.5.5-13.5.5zm-89 3-2 3-3 2 2-3zm441 1 2 3 5.5 2.5-1.5.5-6.5-3zm-31 1 5.5 1.5-1.5.5zm144 0-2.5 3.5-2.5 1.5-2-1v2l-6.5-.5 5-1-6-1 11.5-.5zm-133 2 1.5.5-9.5 4.5 2-3zm-437 6 1.5.5-4.5 2.5v-1zm528 2 5.5 6.5-5-4zm19 1 3 1 2-1v1l-3 1zm-554 1-1 2-4 2 1-2zm495 2 16.5 1.5-12.5.5zm-7 3 .5 1.5-3.5 4.5-.5-1.5zm67 1 15.5.5-15.5.5zm21 1 10.5 1.5-4.5.5-6-1zm-25 1 16.5.5-16.5.5zm45 3 7.5 3.5-1.5-.5zm-622 1 1.5.5-5.5 2.5v-1zm85 0L113 314.5l-1.5 1.5zm425 0 .5 2.5-3 2zm-137 3 .5 1.5-6.5 3.5-3.5-2.5 1.5-.5 3 1 4.5-1zm37 0 .5 2.5-1 2.5-4.5 3 4.5-5.5zm86 0 9 1 1.5-.5-8 2.5-1.5-2-2 1zm-37 2 5 6zm177 1 3.5 5.5h-1zm-216 1-1 2-4.5 3.5-1.5 2.5.5-1.5 4.5-5.5zm-292 1 4.5 2.5-1.5.5zm375 0 .5 1.5q-2.6 5.4-11.5 4.5l-4.5-1q-1.2-3 2.5-2l10 1zm-525 1 1.5.5-8.5 3.5v-1zm527 2 3.5.5-6.5 2.5 1-2zm-132 1 1.5.5-5.5 2.5v-1zm3 1 4 7 1.5.5-1.5.5q-6.1-1.6-4-8Zm-413 3L3 318.5 1.5 325l-.5-4.5zm522 3 7.5.5-7.5.5zm31 0 .5 13.5h-1zm58 0 7.5.5-11.5 1.5v-1zm-513 5-4 5zm575 1-6 7zm-671 4 4.5 2.5-1.5.5zm578 0 9.5 1.5-4.5.5zm-8 1 11.5 1.5-6.5.5zm-156 4-2 3-5 4 4-5zm28 1 .5 7.5h-1zm-21 3-1.5 2.5-.5 2.5-.5-2.5zm230 1 1.5.5-12.5 5.5v-1zm-385 2 7.5 5.5-1.5-.5zm-252 1 4 5 1.5.5-1.5.5zm218 0 7.5.5-7.5.5zm167 0 6.5.5-6.5.5zm-330 1-1 2-4 2 1-2zm324 2-3 4zm24 2-.5 1.5 2 10h-1l-2-10zm-138 2 6.5 1.5-4.5.5zm343 0 2.5.5-8.5 1.5v-1zm-234 3 .5 1.5-1.5 9.5-.5-9.5zm23 2 .5 6.5h-1zm136 4 6.5.5-6.5.5zm14 4 4 5zm-166 1 4.5 3.5-1.5.5zm-6 3 5 6zm26 0-5 6-1.5-.5zm107 0 .5 2.5-5.5 7.5 1.5-2.5zm-123 7 6.5.5-6.5.5zm113 7-1 2-3 1v-1zm-19 4 8.5.5-8.5.5zm-18 1 12.5.5-12.5.5z"/><path fill="#042c32" stroke="#042c32" d="M478.5 1 496 4l1.5 2 9 13 10-3 5.5 1 .5-2 16 1h2l4 1h2l4 1 1.5-.5 2.5 1.5 6 3 4.5.5 4.5 3.5 7 6 1.5-.5-.5 1.5 1.5 1.5 6.5 4.5 1.5-.5 1.5 1.5 4.5 2.5 3.5 4.5 1.5.5 1 3 4 11.5 2 .5-1 2.5 2 .5-1 18-3 12.5q-3-1.2-2 2.5l-1 3 2 8.5 2 .5-1 2 2 4q-.2 8.7 4 13v2l-1 2 6 16-1 11-1 3-1 7-8.5 9.5h-2l-1.5 1.5-1.5-.5-8 2h-2l-9.5 5.5.5 1.5-9.5 4-1.5 2-5-1h-2l-3-1-4.5.5 2 4-1 2.5 2 .5-1 2 2 3v2l2 14.5 2 .5-1 3 5 13v2l2 4-1 3 1 2.5q4.3-1 3.5 2h4l4 2 4 1 3 1 3 1 1.5-.5 1.5 1.5 1.5-.5q-.9 3.4 4.5 1.5l9 2 2-1-1.5 2.5q-5.6 5.4-6 16l3 6v2l4.5 5.5 4.5-8.5q-3-3 2-6l1-3-1-4 2 1q-.7 6.8 4.5 7.5h2l3.5-2.5q1.2-11.4-3-16.5l-3.5-2-4-1h-2l-2.5 1.5-.5 1.5q-3.5-2 1-4l7.5-1.5 1-3 1-3 .5-1.5h2l12 2 1.5-.5.5 1.5 1.5-.5-.5 1.5 6.5 3 1 5.5-2 5 3 1v2l1 7-1 3.5-2 1.5 1 3-4 10 1 2.5 6.5-1v2l7 1h2l12 5q2-3 4 2l2.5 1.5 5 11-2.5 4.5-1.5-4.5v-2l-1.5-6.5-1.5-1.5-20.5-8.5-3-1-3 1-.5-2-11 2.5q-5.5 7.5-4 22l8 18.5 4.5 2 19.5-8 1.5-3 6.5-4 1.5-3 1.5-1.5 2-1 1 2q-5.4 2.8-3.5 5.5-2.2-3.3-4.5 2.5l-2.5 1.5-6 5-2.5.5-.5 1.5-2-1-14 7-3-1-1.5.5.5 1.5-5 2-2-1-10.5 2-2 2v5l-3.5 3-12 6-4-1-3 1-9 2-5-1-3 1-6 1-.5-2-7-5.5-2.5-3.5-4 1-7-1-4 2-5-1-3 2-5-1-6.5 2.5-10.5 17.5-10.5 3-.5 2-9-1-5 2-13-1-6 1-3-1-1.5.5-1.5-1.5-5.5-2-1.5-3-1.5-1.5-7-10V364l-2-.5 1-2-2-8.5-2-.5 1-5-2-4 1-8-1-2 2-7-.5-1.5 1.5-2.5 2-4 6.5-9.5 5.5-3.5-4.5-2.5h-2l-3-1-3 1-1.5 2.5-8 6.5q1.3 3-2.5 2l-5.5 9.5.5 1.5-1.5 1.5-.5 2.5-1.5 1.5.5 1.5-3.5 4.5-4 6 .5 1.5-1.5 2.5-2 3 3 10-3 5-5.5 6.5-1.5 1.5-2.5.5-8 1-9.5-8.5-1.5-1.5.5-1.5 1-10-.5-1.5 1.5-1.5 5.5-6.5 2.5 1 .5-2 7.5 1 1.5-2 7.5-6.5-.5-1.5 1.5-1.5 4-6-.5-1.5 1.5-1.5-9-6-1.5-4.5-7 3-.5-2q-4.8-1.9-4 1.5l-2.5.5-12 7-3 1-9.5 3-.5 2h-2l-4.5 1-.5 2h-2l-5 3h-2l-11 5-2-1-8.5 3-.5 2-3-1-4 3-2-1-9 4-2-1-19 5-5-1-2 1-11.5-4-.5-2-1 2-.5-1.5.5-1.5h-3l-10-8-5 1-1.5 1.5-1.5-.5-5 2h-2l-6 2-8-1-3-1q-14.6-1.9-23-10l-1.5.5-1.5-1.5-4-3-1.5.5-1.5-1.5-2.5-.5-1.5-1.5-7-4-1.5.5-1.5-1.5-4-3-1.5.5-1.5-1.5-7.5-3-1.5-2-5-3-1.5.5-1.5-1.5-8.5-4 1.5-3 71 38 15 3q28.6-5.4 53-15l55-24-1.5 2.5 2.5 1.5 21.5 5.5-9.5 1.5-18-5q-33.7 17.8-73.5 29.5 8.2 14.8 34.5 11.5l47-14 47.5-21-1.5-2-13.5-9.5q-.3-8.4-5-11.5l-2-1.5-3-1.5-3.5-5q-3.5 4-12 3l-3.5-1-9-16.5-1-10 8-4.5q1.3-3.3-3.5-2l-25 11-63 39-25 12h-10l-38-17-26-9-15-3-1.5 1.5V296l6 2.5-.5 2.5-6-3-3-1-5-2-5 1-2.5 1.5-2.5.5-19.5 17.5-3 5.5-10 7.5-.5 1.5q-1.8-2.7-3.5 1.5l-2.5 1.5-6.5 4q1.3 3-2.5 2l-3.5 2-.5 2h-2l-6.5 3.5-.5 1.5h-2l-14 6h-8l-6-4-1.5.5q.9-3-3.5-1.5h-2l-9-3-2.5-.5v-2l-5.5-8.5-1.5-1.5-3-1-1.5-1.5-3-2-1.5.5-2-3-1-3v-2l4.5-6.5 3-2h2l9.5-3 .5-2 2 1 25-12 1.5.5.5-1.5h2l8.5-3 .5-2h2l4.5-2.5.5-1.5h2l5.5-2 .5-2 3-1 1.5-1.5 3.5-1.5 20.5-15.5 1.5-1.5 4.5-6 4-2.5.5-1.5q2 3 4-2l1.5-.5-.5-1.5q1.7 2.8 3.5-1.5l.5-1.5h2l8.5-2 .5-2 5 3 1.5-.5.5 2.5 2.5-1 2.5 5 1.5.5 1 3 2.5 5.5 4.5 3.5q-1.5 4.4 1.5 3.5l11 4h2l4 1h2l26 3h2l6 1-1.5-2.5-10.5-15.5-1.5-1.5-1-2.5-2-1.5-6.5-7.5-1.5-.5.5-1.5-3-2-3.5-2.5-1.5-1.5q-11-8-29-9l-3-1-4 1-6-2-2 1-32-2-2 1-6-2h-2l-5-1h-2l-5-1-5-1-2-1-6-2-18.5-7-1.5-2-3.5-1-1.5-2-6.5-5.5-.5-1.5-1.5.5-3.5-4.5-1.5-1.5-3-5 .5-2.5 11.5-1 .5 2 1-2 11 3 2-1 5 1 11-3 26 11 1.5-.5.5 1.5 3 1 10.5 2 .5 2 1-2 4 2 11 1 3-1 7-3h2l4-2 2 1 3-1 1.5-1.5 2.5-.5 5-2h2l18-5 2.5 1 .5-2 3 1 12-2 2 1 1.5-.5.5 4.5 2.5 1.5 2 5v2l1 2-1 3 1 13 3 4.5 6 3 3.5 5 5.5 2 1.5 3 6 4 1.5-.5 1.5 1.5 15.5 9 3.5 5 5.5 4.5 4 6.5 3 1.5 2 1.5.5-2 3-1 5.5-3 .5-2 2.5-.5.5-1.5 1.5.5.5-1.5h2l18.5-12.5q1.5-4.4-1.5-3.5l-3.5-1-1.5-3-9.5-7.5-1.5-2.5-1.5-2.5-2-3.5-2-.5v-2l-1.5-1.5-.5-2.5-3-5v-2l-1-13 1-3-.5-1.5 1.5-.5-.5-1.5 1.5-1.5 1.5-3.5 24.5-17.5 2.5-1.5 6.5-5.5-.5-1.5 1 1 4-4 4.5-3.5 1.5-1.5 3.5-2.5 1.5-2.5 1 1 4-4 17.5-13.5-.5-1.5q1.7 2.7 3.5-1.5l2.5-1.5 7-10q5.7-7.8 16-11l1 1 6-6 5.5-3 .5-2 2.5-.5.5-1.5 2 1 6.5-2 .5-2 17 2h2l12.5-2.5-1.5-2.5-1.5.5-2-3-3-6-.5-3.5 2.5-1.5-.5-1.5 2.5-1.5q2.5-4.5 10.5-3.5l3.5 2.5 1.5 2.5q3.5 2 2.5 8.5l-.5 1.5 4 1 2-1 6 4 3.5-10.5-1-2 2-4-.5-1.5 1.5-2.5-1-2.5-8-2-1.5-2-7.5-10.5 1-2q-3.2-2.3-2-9l2-5-.5-1.5 1.5-2.5 3-5-.5-1.5 1.5-.5.5-2.5 1.5-1.5h2l1-3.5 3-1.5 6-5 2.5-.5zm2.5 2-13 4-2 2-4 3q13-1 19 5l8 10 14-7q1-7-1-6l-2-2q-6-9-19-9Zm-20 11-3 2q-8 7-9 20 1 11 6 16l11 5 10-17 11-10-2-5q-5-13-24-11Zm63 4q-25 2-37 16l-2 2-4 2q-11 12-16 32-2 17 2 28l-1 2 1 3 3-1 9-5q9 1 13 9v7l-3-7q-2-8-13-6h-2l-5 10-1-4h-1l-4-7-5 4 4 11 1 3 1 11 3 2 2-1 4 2-2-4-2-2v-1l-1-3-1-3-1-3 1-5v4l1 2v2l3 7 5 4 2 1 3 1v2q7 1 10-2l5 10 2 1 2 4 1 3q10 13 27 19l6-1 4 1-1 2 1 2 1 3-1 6 6-1 2-5-2-6h-2l4-6v-6h2l5-3q16-1 22 8l5-4 2-3 2-3 1-3 2-1 4-9-1-3 2-3-1-6 2-3 1-12-1-7 2-3v2h1q2-6-2-5l1-2-3-18 1-3-1-1-1-2-6-10 1-2-4-2h4l9 18-1 3 2 6v-1h1l-1 6h2l2 1 3-10V67l-7-19h-1l-2-2-11-6q-8-10-20-16l-21-6zm-86 47-7 5 1 3 4 1-1-5 4 2h6l-3-5zm-10 8 4 7q3 1 1-3zm15 0-5 3-3 4-2 2q6 2 5-2l8-4 1 1-1-2q1-3-3-2Zm1 5-2 1-4 5 2 1h-1v1l3-1 6 5-1 6q-2 3-8 1h-2l1 3 7 2 3-4 8-5 1-3-3-1-6-9zm10 2-3 4 2 3 7 2 1-2-2-4zm-15 7v5l-1 2 7 1 1-4zm-37 2-3 1-3 1-18 13-3 6-1-5-2 2-10 7q4 33 26 49 9-1 12-8l-5-5q-16-13-21-37l2-1-1 3q5 2 2 4l9 17 2 1-1 2 6 5-1-4-1-3-3-10 2-11 1-3 1-1 2-6 3-2v-2l1-1 11-8 1-1h2l1-3-9 1zm22 0-18 8q-11 8-15 23-1 21 10 32 13 14 33 22l37 7q29 1 52-4 7 2 4-5l-36 4q-50 2-77-19-14-9-18-27v-10l7-14q11-13 33-13v-4zm37 2-2 2 2 3q4 1 2-3zm-33 4-1 4 1 3q3 8 14 7l1-5-4-1-4-4v-2zm28 0-7 6 2 2 5-1 3-5zm-33 1-3 1-9 6-2 2-4 1-3 7-1 3h-1v2l-2 4 1 12 10 14 9-7 1-1 16-11 10-2q1-10-2-16l-3 1-10-5q-5-3-4-10zm22 8-1 4 4 11-1 8 6 2 4-2-3-12v-2l-2-5q-1-5-7-4Zm10 0-2 2 4 12v1q3 0 1 8l4 1q2-15-5-22zm143 0-3 13v16l5 17q2 10-2 15-3 5-10 6l1 9 12-3q6-4 8-12v-2l1-13v-2l-5-16 1-3h-2l1-3-1-3zm-239 16-3 4-13 9-4 5-1-1-5 4-5 6-3 1-2 3-3 1-3 4h-2l-5 4-4 5-5 2-3 8 2 3-1 4 1 3 3 7 2 4 2 1-1 2 6 7 2 1 2 4 15 10 11-4-2-3q1-10 5-14l15-11 3-4 2-1 9-7 5-5 1 1 1-3 5-3-2-4-4-2-6-9-2-2-2-3-2-2-6-13v-2l-1-2v-2zm80 11q-17 7-28 20l11 7 12-7 7-1-2-6-5-5 2-2 3 1q4 3 3 10l16-4q10-1 16 3l5-2 1-2 4-3 1-3-22-6zm50 4-2 5 2 12v2h2l-1 2h2l4 9 8 7h6l14-2-5-4q-2-5-4-2l-1-2-4-2-2-3h-1l-2-2-6-6-1-2-7-10zm103 2q-2 11-8 19l-1 1-6 7 1 2 3 1 2-1 5 3 1-2 3 1-1-1h2q5-4 6-12l-2-4 1-2-1-3-2-7zm-109 6v2l-6 5v4l9 19 13-1q-9-9-14-23 2-7-2-6Zm-19 4-14 1 3 4 4 1 7 12 1 7 2 1 13 1q-1-13-7-21l-5-6zm-23 5-2 1h-2l-1 2-1-1-10 7q15 9 37 11 0-9-5-13l-7-7zm111 4-2 1-2 4 11-3 3 1h4q-4-5-14-3Zm-149 1-5 4-2 2-41 33-11 13q-2 6 2 8l14-8 8-2 5 2 40-42-6-5zm152 4-9 6 1 4q-1 4 2 3l3-7 6-5zm11 0-8 3q-7 4-8 13-1 7 3 11l8 5q8 1 12-3l5-4 2-6-2-12q-4-6-12-7Zm17 7-1 5v10h2q4-2 3-9v-2zm-166 1-5 12-7 27v4l-4 25v14l-1 2q0 16 5 27l12 8 19 8 2-1 20 5h2l19 3h2l15 3h1v-12l1-5 4-10-29-10-3-1-26-11q-13-1-19 4l-2 1 12-7q6 2 5-2l-12-2v-1q10-1 15 2l3-17 2-2-1-2 7-23 2-2-1 2 1 2q4-2 1-3 6-9 6-23l-5-2h-2q-23-3-39-13Zm112 1 1 4-1 4 2 2 6-1-1-7q0-4-7-2Zm-233 1-1 1-2 2h-2l-4 5-5 4-3 2v2l-3 5 1 17 1-2 11 20 1 2 6 4 1 2 6 3h3l19-15 1-1-5-4q-19-12-24-37v-2q2-8-1-8Zm113 3-2 4-3 2-11 13-2 3-3 2-4 5-9 8 1 3v2l4 13 5-1 16-12 5-27 1-3 2-5v-2l2-3zm113 6-20 3q-8-2-8 2 5 6 16 8l5-9 3-2-5 11v1q8 1 11-3l5-8zm26 0-7 4 8 6h3zm-16 2-2 2 1 2-1 25 9 1 2-6 1-17q-2-7-10-7Zm-66 1-2 15 13 4 3-18zm17 1q-2 31-18 49l-16 14q-4 2-3 8l22 8 5-3q26-23 35-63-11-4-17-13zm-451 2q4 9 17 12l-2 1q22 11 53 13l32-3 66-19-4-3-21 4-39 12-2-1-3 2-16 2q-38 4-61-7v-1l25 5h11q-18-4-29-14H47zm36 1-1 1q-6-2-5 2 15 9 37 13h11v-2l-14-3-16-8zm459 4-12 6-2-1-3 3q-3 19-12 34l-17 23-6 5-3 4 12 5 5-1 12-10 1-1 3-2q19-20 23-54v-10zm17 0q1 31-13 49l-2 1v2h-2l-2 5q1 11 7 18l2 1 1-4q2-5 10-3h2l6 3q7 3 5 13l-5 4 2 4 1 2 5 1h2l2 1h2l23 1q-3-4-2-14v-2l5-11-25-8-13 4h-2l11-6-6-20 1-2-2-4v-2l-7-29zm-346 1-53 17-24 5 16 9q20 0 35 6l2-7 11-7 6 1q9 2 12-2l-3-19v-2zm-158 5 3 4 1 2 30 14q15 5 36 5h17l-9-8q-51 3-78-17Zm424 3-3 6-1 3h-1v2l-1 2-2 4q5 5 15 4l2-5v-2l2-1 2-9zm-99 10-3 2-2 2-1-1-10 6-3 2-1-1-4 2-2 4 5 20 5 3 28-13q-1-4 2-3l-5-18-4-5-1 1-2-1zm166 2-3 1 1 3-4 14h9v-2h-1l-5-1 1-4v-2l2-6 3 2h-2l-2 6q-2 5 5 3l5-11-2-2h-2zm-347 6-3 1-2 1-5 6 3 5q3-1 2 2l7 4 2 2 2-5h2l1-4 8-5 1-1 3-1-1-5-6 1-6-1-3 1zm215 1-14 10-8 11 7 1q8 8 11 21 1 5-2 7l8 11h1l-4-9-1-16 3-30q1-7-1-6Zm55 0-6 22 1 3 8-7 2-2 8-11zm-118 3-15 7-2 2h-2l-2 3-2 1-3 4-4 3-1 1v2l-4 4-1-1-1 2-6 4-3 2-1-1-7 5-2 2-1-1-1 2-4 2-2 2-3 1-3 3h-2l-2 3-5 3-2 2-2 1-4 4-1-1-1 2-12 6-1 3h-2l2-4q-12-9-28-14l-25-2-4-2-5 1-13-3q-7 4-8 11l10 3h2l32 11 35 16h9l18-8 74-45 10-4 4-2-5-8-3-18 1-3zm-129 2-11 8-1 1-5 9 12 14 2 1 2 4 2 1 9 15 20 10 25-18-4-6-2-3-10-10-2-2-10-5zm316 7q-4 14-13 24l-3 4 8-5q10-9 16-22zm-151 10-11 6-2 3 15-8zm5 2-10 6-2 2-9 4-6 7 12 20 7-1 20-12 4-5-9-18zm-244 2-10 4v2l-14 10-3 5-2 2-1-1-5 6-6 4-2 2-6 4-3 2-3 1-2 2h-2l-3 2h-2l-3 2-2 2h-2l-2 1-3 1-8 4-3 1-2 1-3 1-1 2-1-1-17 8h-2l-13 6v1l25-6 39-14 32-18q9-6 12-19l2-1-2 8 1 1 19-11q6-2 8 2l-10 1-17 9-3 4q-7 9-18 14-6 2-6 10l1 7 8 4 12-1 21-14-5-8q-1-11 4-15 4-6 14-7h10v-2l-9-2 5-1-5-1 4-1-3-6-7-3 3-1q-2-4-9-3Zm491 5v2l5 2 5 3q4-1 3 2-9-1-14-7l-1 5 12 6h8l1-5-7-6h-2l-1-1h-1zm-103 1-5 6-1-1-23 14-2 3 16 5h2l22-10-1-2-1-2-1-2v-1l-4-7q1-4-2-3Zm19 11-1 1q-3-1-2 4 5 6 14 8l5-2-1-3q-4-8-15-8Zm57 1q-5 3-6 11-2 11 2 15h8l-3-8q0-12 5-17zm32 0-2 2 1 2 1 1h7l1-2zm11 3-2 4-7 1-2-1-2 8q2 3 9 2v1l-9-1-3 1q-5 3 0 5l1 2 16 1 3-5-2-3q5-3 4-12l-3-1q1-4-3-2Zm-487 1-12 1-3 1-4 2-1 3-5 8 2 8 5 3 10 2 1-2-1-2q4-2 2-8l7-11 2-4zm236 4-13 9 11 12 1 2 12-6 1-2zm137 0-7 4-2 2-11 3-6 11-1 3 1 4-1 5 1 3 6 5 1-1v2l7 3v2l2-1 5 3 3-1 3 2q9 2 11-3-2-6 4-4l3-5-3-2 5-1 2-3 1-3-1-3-9-2 3-1 4 2 6-1 2-3-2-6q-13-1-21-8l2-4q0-4-8-2Zm12 0-3 6 14 5 2-5zm77 9-4 13q0 2 6 1l2-13zm-208 5-16 10-2 4v2l12 7q3-1 2 2l8 2h2l3-4 10-5 1-3-1-3-10-5zm214 2-2 2 4 6 16-1 1-3-5-1h-2l-3 1zm-62 2-3 1-4 8 1 2h-2l-3 10 3-1h2l8-2-1-1 2-1 2-3h2l20-5 2 1 6-1h2l10-2-2-3q-26 2-45-3Zm-473 5q-35 19-79 28l-2 3 11 6q6 4 8 13l18 4 6 4 5-1 3 1v-2l30-15 1-3 13-8 11-12-6 1-8 9q-14 14-33 22l-2 1 26-18 12-14-10-4-4-4 1-10zm533 2-7 2-5-1-7 2-2-1-6 1h-2l-12 1-3 1-4 1h-2l-2 1-3 2-6 10 1 2-2 3q-2 15 4 23v-5l1-2q3-6 13-5h2l6-2 2 1 15-2 4 5q0 12 8 17l9-1h2l4-2 2 1 3-1 10-4-4-3-5-11v-2l-2-3v-15l5-11-1-2zm-189 1 2 3h6zm11 4v2l-18 10q-6 3 1 6h4l16-9q6-2 5-8zm-11 1-8 5-3 4 3 1 13-8zm46 4-2 1h-2l-12 3-8 16 1 2-1 2q-3 31 11 46l9 7h25l4-1-7-4q-11-12-14-33l1-24v-2l5-12zm14 1-8 14 1 2-2 6q-1 31 15 46l3 4 8 3 7-2 2 1 1-2 5-4q4-2 1-3l2-1 2-6v-4l-4 6-2 1-2 5-6 4q-10 1-13-4-9-7-12-19v-2l-3-11 1-19 1-3 2-1-1-1 4-8zm6 2 3 4 1 2 3 1 1-3zm57 1-10 4-2 1-1 4-8 3q-6 2-5 9l3 1q7 1 10-3l9 2-1 2h2l1 3-1 8-8 4q-16 2-23-4 1 10 9 15l35-4-1-3-5-11v-2l-2-7q-2-10 2-14l-1-3 2-1v-2zm-63 7v2l17 8 1-2-2-1zm17 0-4 3 6 2 2-3zm9 2-1 2 10 4q4 1 2-3zm-84 1-9 15q-4 2 1 4l10-17zm78 4-1 3 1 11-3-1-15 3q-6-1-4 3l22-4 2 9v2l8 9h4l-6-8-6-19v-2l-1-3 1-2zm4 0-1 3 3 10 9 7 2-1v2h3l8-1q3-1 2-6-2-5-11-3-6-2-5-8zm-25 3-1 10 7-1-1-5zm12 0-3 9 7-1q5 1 2-5zm88 3v2l-1-1-15 3-2-1-4 1-3 4q-1 12 3 19l-2 1h3l7 8 6-1q-6-4-7-12l1-3q2 10 9 15l7-1-6-12 1-4 4 11 7 5 8-1-3-3-1-2-5-10 1-3q2 11 10 16l7-1 4-8-2 1-6-1q-8-6-9-18l-3-4-2 1zm-47 1-3 1 3 5-1 6q-1 4 4 2l4-5-1-6q-1-4-6-3Zm-123 8-3 5 6 2 1-2-2-3zm87 3-7 3 3 6 7-3-1-4zm-98 2-9 4-4 10 3 9 10 5 8-3 3-2 3-6q1-8-2-11-3-6-12-6Zm87 0-6 3 3 12 7-4-3-9zm15 6-12 8-3 5 1 2 6-5 3-4 5-3zm1 6v2l1 2 3-1zm-6 5-7 8 4 2 3-5zm9 0-3 1-6 11h3l6-10zm4 0-4 9-3 2 1 2 3-1 6-7 2-2q2-5-5-3Z"/><path fill="#042c32" stroke="#042c32" d="m577 49 3 1.5 5 7-5.5-2.5-1.5 1.5L566.5 73l-18 11h-2l-1.5-.5 3-5.5 5-3.5 5-11-4.5 3.5-4.5 3.5-2.5 1.5-6 5-1.5-.5-1.5 1.5-8 5h-2l-20 4-4.5 3.5q-5.8 8.7-7 22l2 10-1 3 1 2-2-1-.5-1.5-1.5.5v-2l-1-2 .5-1.5-1.5-1.5-1-3.5h3v-8.5l7-17-12.5-.5h-2l-2.5-1.5 16-13 1.5-1.5 13-17 1.5.5q-7.9 15.6-20.5 26.5l-3.5 2.5 3.5.5q24.2-7.8 39-25l-.5 1.5-3 5.5-3.5 2L507 84.5l2.5.5 26-8Q550 69 560 56.5l3-5.5 2 1.5-9 23 1.5-.5 9.5-6.5 9-13z"/><path fill="#042c32" stroke="#042c32" d="m532.5 89 6 1 2-1 4 2 1.5-.5 1 2-2.5.5-5-2h-2l-5 1-3.5-1-.5 2-2.5-1.5zm54 2 2 3-8-1-4.5 1.5 1.5-1.5zm-52 12 3 1 2-1q5.8 2.3 2.5 4.5l1 4-3.5 4.5-4.5-1.5-2-6 1-3.5-5.5 2-1-2 2 1zm45 3 7.5 1-1.5 2-4 9-5.5-2.5q-1.1-7.6 3.5-9.5Zm-35 37 4 2 3 1 1.5-.5-1.5 2.5-4-3q-2.2 3-3-2ZM349 146l2.5 1 2.5-1 8.5 14 1.5 2.5-.5 2.5-2.5-1.5-8.5-11.5-4 1q-3.2-1.7.5-3.5zm206.5 1 7.5.5-7.5.5zM330 161l2 .5 1 3 2.5 4.5 1.5-.5 1 3 7 10-12 8 1 2h-1l-.5-1.5-1 3-3-4-1.5.5-1-3-9-13 13-11zm0 5-3 2-3 4-3 2 2 3 1 2 3-1 3-4 5-2-2-3zm6 8-9 8 2 2 2 4 5-3 2-3v2l2-1v-2l-2-5zm12.5-12 1.5 2.5-5.5 4.5-1.5-2.5zm217 6q6.4.1 8.5 4.5l1 8-3.5 5.5-8 2-5.5-4.5-1-8 4-6.5zm.5 2-5 2-2 5 1 6 5 3 5-1 3-4-1-8zm-153.5 31 3.5 2.5-2.5.5-2.5-1.5zm54 3 6.5 2-1 3.5.5 1.5-1.5 1.5h-1l2-4-7-2.5-3 7.5 5.5 2.5 3-2-3 4-7.5-3.5 2-3-.5-1.5 1.5-.5 1-3 1.5-1.5zM367 214q3.3-1.3 2 3.5l3 10-2-1zm-13.5 8 7.5 1.5v2l1 2-2 .5-1.5-4-2-1-3.5 2.5 1.5 5.5 6-2-2 3-4 1-3.5-2.5zm17 10h2l3.5 1.5-1.5-.5-28 12v-1l20-10 1.5.5.5-1.5 1.5.5zm7 14 7.5 13.5h-1zm-10 10 6.5 1.5-3.5.5h-2l-2.5 1.5q-1.2 6.1 1.5 5.5l3 1 3-7 1.5 4.5-2.5 3.5-4 1-4.5-3.5 1-7.5zm18 9-2 3-20 11-.5-2 19.5-11zm21 27 13.5 7.5q1.3 3.8-2.5 2.5l-2.5 1.5 1.5-1.5q3-1.5 0-3l-11-5-6.5 5.5 1.5 1.5 5.5 3.5-2 1-1.5-1.5-3.5-1q1.3-3-2.5-2l1.5-2.5 2.5-1.5 1.5-3zm-326 12-2 3q-21.2 13.8-49 21v-1q27.6-9.4 51-23Zm9 11-6 7q-17.1 13.4-40 21l1-2q25.6-9.9 45-26Zm316 33 2.5.5-5 3-1.5 1.5-1.5.5 2.5-3.5zm4 0 7.5 3.5-1.5.5-5-3zm-10 7 1.5 3.5-1 3 4 5-1.5-.5-1.5-1.5q-3.6-2.8-1.5-9.5Zm11 1 3.5.5-4.5 3.5-2.5-1.5zm7 5 .5 1.5-3.5 4.5-9 1v-1q6.9.9 9.5-2.5z"/><path fill="#3b3c3c" stroke="#3b3c3c" d="M466.5 7q14.8 1.9 22.5 10l-5.5-8-1.5-.5 3.5-.5 12.5 7.5 2 4.5 2 .5-13.5 6.5-8-10q-5.6-6.4-18.5-5.5l4-3zm30 1 3 4z"/><path fill="#3b3c3c" stroke="#3b3c3c" d="M460.5 14q19.1-1.6 24.5 10.5l2 5.5-11 9.5L465.5 57 455 52q-5.4-5.5-6-16.5 1.4-12.6 8.5-19.5zm57 10q23.7-2.7 38 4l18 9L592 52.5l9 19V80l2 1.5-3.5 10.5-1.5-1.5h-2l1-6h-1l-.5 1.5-1-2-1 2-.5-1.5 2-8h-1l-.5 1.5-1-2-1.5.5 3-1-6.5-13.5-2.5-.5-.5-1.5-1.5.5-.5-2.5-2.5-1.5 3-1-4.5-6.5-1.5 2.5L565.5 70l-11 7v-1l1.5-1.5 2-6-.5-1.5 2.5-.5 5-15.5-2 1.5L547.5 69 534 77.5l.5 3.5-5-2-22 6 1-2L529 70l2-3.5 3-4.5q-15 17.3-41.5 24l2-3 9.5-8.5 12-18-1.5-.5-13 17-1.5 1.5-16 13 2.5 1.5h2l12.5.5-1 3 3 1h-4l-5 13v8.5l-4-.5q3.8-1.7 2-9-3.7-7.3-13.5-8.5l-8 4-2.5-1-.5 3-1-3-1.5.5 2-3q-4.3-10.7-2-28L475.5 46l2.5-.5-.5-1.5-1.5.5 3.5-1.5 3-2q13-13 35-17Zm-70 57 1.5 1.5-5 2z"/><path fill="#3b3c3c" stroke="#3b3c3c" d="m594.5 89 .5 7.5h-1zm-129 16 2.5.5 1 6.5q-3.7 1.3-2-4.5zm36 47q3.2 6.6 6.5 4.5l-1.5 1.5zm-4 13q1.8 6.7 10.5 6.5l-4.5.5zm-68 24 6.5 2.5-1.5-.5-4.5-1-.5 3-.5-2-3 1.5-1 3 8.5 2.5 1.5-.5.5 1.5 1-6 .5 5.5-3.5 2.5v-1l1.5-.5-5.5-1.5h-2l-1.5.5 1.5 2.5-3.5-6.5 1-3.5zm202 81 6.5.5-6.5.5zm-240 4 6 7zm-11 11 6 7zm193 59 1.5 6q-4.4 1.3-1.5-6Zm-70 10-3 4zm87 4 4 5zm-11 5q3 1.5 0 3l-2.5-.5 3-1z"/><path fill="#25545a" stroke="#25545a" d="m437.5 65 2.5.5-4 2 2 .5 1 2.5-4-2 1 5.5-4-1.5-1-3z"/><path fill="#25545a" stroke="#25545a" d="m446.5 72-.5 1.5 1 3-1.5-.5-7.5 3.5q1.2 5-5 2.5l-1.5-2-3.5-7 5 3.5q-1.5 4.4 1.5 3.5v-2l1.5.5 1.5-2.5zm1 10 1.5 4-7-.5zm-71 30-.5 1.5-1.5 3.5-.5-1.5zm-5 2 3 6 2.5.5-.5 1.5-1.5-.5 1.5 1.5q6 16.5 18 27l5.5 4.5q-3.4 7.1-12.5 8.5-18.8-14.7-25.5-41.5zm20 6 .5 8.5h-1zm53 14 28 3 9.5 3.5-3.5 4.5-5 2q-5.1-4.3-16-3l-15.5 4q1-7.3-3.5-10l-1.5-2zm-10 3q-2.1 3.3 4.5 6.5l2 6.5-7.5 1-12 7-6.5-4 2.5-4zm-84 10 2.5.5-.5 2.5-2.5-1.5zm134 1q4.6 14.4 14.5 23.5l-13.5 1.5-8.5-21.5h1l.5 1.5zm116 2 .5 8.5h-1zm-196 9 2 3 6.5 4.5-10.5 11.5-1.5 1.5-28.5 29.5-5-2-8 2-14 8-1-2 2.5 1 1-7.5 10.5-10.5 45.5-37.5zm193 6-3 4zm-208 2-3 4zm132 13 7.5 2.5-5 8.5q-2.8 4-11.5 3l.5-1.5 5-10.5-3 1.5-5.5 9.5q-10.3-1.7-15.5-8.5-.4-3.2 7.5-1.5zm-228 1 9 18 1.5-.5q5.8 12.2 16.5 19.5l5.5 3.5-1.5 1.5-19 15h-3l-5.5-3-1.5-2-5.5-4.5-1.5-1.5-10.5-17.5h2l-1-13 3-5q-2.7-1.7 1.5-3.5z"/><path fill="#25545a" stroke="#25545a" d="M483 184h7.5q6.1 8.9 17.5 12.5-8.8 40.7-35.5 63.5l-5 3-21.5-8q-1-5.7 2.5-8l8.5-5 17-22.5q8.1-14.6 9-35.5Zm-451.5 2 5 6zm17 3q10-2.5 12.5 2.5l-2.5-1.5h-10z"/><path fill="#25545a" stroke="#25545a" d="m526.5 191 1.5.5v10q-4 35-23.5 54.5l-2.5 1.5-1.5 1.5-12 10-5 1-11.5-5 2.5-4 6.5-5.5 17-23q8.9-14.1 12-34l2.5-2.5 2 1zm-464 1 4.5 2.5-1.5.5zm135 0 2.5.5v2l3 19q-3.1 4.4-12.5 2.5l-6-1-10.5 6.5-2 6.5-20.5-4-15-1-14.5-8.5q-.9-3 3.5-1.5l26-6zm-159 4 2.5 1 .5 2 1.5-.5-.5 2.5zm316 0-6 7zm-305 1 2.5.5-.5 1.5 3.5 1 1.5 2 2-1v1l-3 1-8.5-4.5zm4 7 5.5 2.5-1.5.5zm29 2 23.5.5-23.5.5zm17 5 9.5.5-9.5.5zm-3 3 18.5.5-18.5.5zm21 0 4 5zm281 5q2.8-.6 1.5 5.5l-3 30 1 17 4 8-1.5.5-7.5-11.5q3.3-1.2 2-7-3.2-12.8-11.5-20.5l-6.5-1.5 7.5-10.5zm-289 2 13.5.5-13.5.5zm97 3 27 19 10.5 5 1.5 2 10.5 9.5 2 3 4 6-25.5 18.5-19.5-10-9-15-2-1.5-2-3.5-2-1.5-12-14 4.5-8.5 1.5-1.5zm-70 24 2.5.5q-2.7 1.7 1.5 3.5l1.5 1.5 3 5.5 5 .5-5 1 9 4q-16.7-1.2-24 7-5.2 4.3-4 15l3 6.5 2 1.5-24.5 15.5h-9l-7.5-4.5-1-7q.3-7.2 5.5-9.5 11.6-4.9 18.5-14.5l2.5-3.5 17-9 10.5-1.5q-1.7-3.2-8.5-1.5l-19 11-.5-1.5 2-8 4.5-4.5z"/><path fill="#25545a" stroke="#25545a" d="M352.5 251q4.8-1.3 3.5 2l-8 4.5 1 10 9 16.5 9.5 1 6-3 3.5 5 3 1.5 2 3 9.5 14.5 9.5 5.5-1.5 1.5-3.5 2.5.5 1.5-2-1q-33.2 18.3-74.5 28.5l.5 1.5h-2l-11 2h-18q-9.9-3.1-15.5-10.5l1.5-1.5q38.2-11.8 71-29 8.8 5.2 23 5l4.5-1.5-24-5.5 2-3.5-1.5-.5-54 24-38 12-19 3-11-3-46-24-15-10-11-4-2 1v-2l-3 1v-1l1.5-.5-4-1.5v-10.5l1.5-1.5 15 3 26 9 38 17h10l25-12 63-39zm244 12 6.5 1q-5.9 4.5-5 16.5l3 8-5.5.5-2.5-.5q-4.4-4.1-2-15 .5-7.5 5.5-10.5Zm32 0 8.5 2.5-3.5.5-5-2-1 2-.5-1.5zm0 4 7.5.5-7.5.5zm-91 4 6.5 4-1.5 3-2-1v2l-5.5-3.5zm-428 2-7 8zm440 4 1.5 1.5-2.5 3.5-1.5-.5 2-.5 1-2.5zm65.5 3 4 1-2 13q-6.4 1.5-6-1.5zM73.5 296l1.5.5-5.5 2.5v-1zm356.5 1 7 2.5-5.5.5zm-349.5 6 1.5 1.5-2.5.5-2 1 1-2zm-8 4 1.5.5-5.5 2.5v-1zm423.5 2 8 4-1.5 3-2.5-1-1.5-2zm137.5 1 .5 11.5h-1zm-526 2 2.5 1.5-11 10 9.5-10.5zm-71 1 1.5.5-6.5 2.5v-1zm63 0 .5 1.5-13 12zm-10 1 1.5 1.5-6 5zm13 1-5 6zm-16 1-1 2-3 2 2-3zm420 1 4.5 1.5-2 3.5-6-2.5zm166 1 2.5.5-6.5 8.5-20 10-6.5 1-.5 2-5.5-9.5q20.5-4 36.5-12.5Zm-619 1 1.5.5-5.5 2.5v-1zm462 0 11.5 3q1.7 4.1-2.5 3l-9.5-4.5zm162 0 1.5 3.5h-1l-.5-1.5-1.5.5zm-671 3 2.5.5-3 .5 2.5 4q9.1 2.4 13.5 9.5l-6.5-5.5L5 324.5zm21 5 2.5 1.5-1.5.5h-2l-1.5-.5zm461 0 5.5 4 1 4.5-7 1.5zm-9 2 .5 10.5h-1zm186 2-.5 1.5-2.5 1.5-3 2 1-2zm-589 3-2 3-2 1 1-2zm-15 1-1 2-3 1v-1zm15 2v2l2-1-1 2-2 1v-2l-2 1 1-2zm430 0 3.5 1.5-3 1.5zm-457 1v2l1.5.5-1.5.5-2.5-1.5zm14 4v2l3-1 1 2-2-1v2l-3-2-1.5.5zm431 2 1.5 1.5 3 9-7 4.5-3-12.5zm-11 15 10.5 19 4 1.5-1.5-.5-26 1-2-1v2q-9.1-7.9-13.5-20.5l1.5.5q15.6 1.1 27-2Zm30 2 .5 1.5-6.5 10.5-2.5-.5 4-9.5zm4.5 0q6.7-2.2 5 3l-2 1.5-6.5 7.5-3 1-1-2 3.5-2.5zm-29.5 21 8.5.5-8.5.5z"/><path fill="#4c6364" stroke="#4c6364" d="M437.5 66q4.4-1.5 3.5 1.5l1 2.5-2.5 1-1.5-3-2-.5zm12 19 3 4zm-22 4 8.5.5-8.5.5zm0 3 8.5.5-8.5.5zm-24 7-3 4zm49.5 6 4 1.5 2 4.5-4-1.5zm5.5 13 1 2 2.5-1q1.5 5.8-2 7.5l2 1-3 .5zm-63 3 .5 6.5h-1zm17 23-3 4zm-8 4 4 5zm-2 4 5 6zm7 3 4.5 2.5q-2.7 1.8 1.5 3.5l1.5-.5-.5-1.5 2.5 1.5-4 2 .5 1.5-1-3-2 1-1.5-4 2-.5-2.5-.5zm143 7 2 1 1.5-.5-5 4 2.5-3.5zm-84 10 9.5.5-9.5.5zm47 1 7.5.5-7.5.5zm-19 2h5q-1.5 4.5 5 3v1l-11.5-1.5 3-1zm-88 1 1 2-3.5.5zm64 0 14.5.5-14.5.5zm3 4 8.5.5-8.5.5zm61 3 3 4zm-5 5 .5 7.5h-1zm9 5 .5 8.5h-1zm-151 4-6 7zm-310 3 6.5 2.5-3.5.5zm21 20 6.5.5-6.5.5zm355 16-6 7-1.5-1.5 1.5.5zm-94 10-1 4q-3.5-2 1-4Zm262 7q3 7 14 6l3.5-1-1-2.5 2 1-1.5 2.5v1l1.5 1.5-5.5 1.5v-1l1.5-.5-5-1.5-.5 2-10.5-6.5zm-85 10 4 1 2-1v1l-3 2-2.5 1.5 1.5 2.5-2.5-4.5zm14 4 2.5 3.5-6.5 3.5-4.5-2 .5-2 2 1zm-8 9 5.5 2.5-1 2.5-9-3.5 1.5-.5 2.5 1zm-182 1v3l-2 1-1-2 1.5.5zm208 11 6.5.5-6.5.5zm-333 2-4 5zm352 2 7.5.5-7.5.5zm-505 3 1.5 2.5-2.5.5-5 1v-1zm412 0 .5 7.5h-1zm-48 9-3 4zm-16 16 1.5.5-10.5 17.5-.5-2.5zm-336 2-.5 3.5-3.5 3.5-2.5-.5 4-2.5zm574 3q3.5 2-1 4-3.7 1-2.5-2zm-85 10 7.5.5-3.5 2.5-4.5-2-.5 2-3.5-1.5zm-13.5 2q6.9-2 9 1.5l-1.5.5h-2q-6.9 2-5.5-2Zm29.5 0 .5 2.5-1 2h2l2 4-2-1-.5-1.5-2.5-.5zm-531 4 .5 2-10.5 5-.5-1.5zm494.5 2 3 1.5q1.8 6.8-1.5 8.5zm-159.5 2 10.5 1.5-9.5 1.5v-1l5.5-.5-6.5-.5zm-3 4-2.5 3.5-1.5 8.5-1-7-1 3-.5-2.5 1-2.5zm173.5 3 7 2 2 3.5h1l.5-1.5 4.5 8-3-.5 2-1-3-2-.5 1.5-3-4-2.5-1.5-3 1-1-2 .5-1.5zm12.5 1 2 3 2-1 1.5.5 2.5-1.5 1.5-.5-1 2 3 2 1 3-3 1 4 1-6.5.5zm14 3 8.5 4.5-3.5.5zm-206 6 2 3 1-2 3 4 4.5 1.5-2.5.5-2-1v2zm22 0 1.5 2.5-5 4 3-5zm74 17 3 1h2l2.5 1.5-5 .5q1.3-3-2.5-2zm-3 1 1.5 1.5-3.5 1.5-1.5-.5z"/><path fill="#367b7a" stroke="#367b7a" d="m596.5 110 10.5 39.5v12l-6 14.5-11 3q-2-6.9 1.5-9l6.5-4.5q4.5-4.5 3-15l-6-20v-9zm-156 21 18.5.5-3 1 1.5 2.5-13-1-14 6-3-2-1.5.5 3-1 1.5-1.5 3-1 1.5-.5-.5-1.5 1.5 1.5 1.5-.5 3.5-1.5zm20 3 5.5 1.5-6.5.5zm12 0 8.5 2-1 2.5 3 1-2.5.5-13.5-3.5zm-49 6 3 2 2.5-1.5-15.5 11.5 2-3h2l3.5-2.5-2-2zm-22 18 2.5 1.5-5.5 6.5-.5-2 2-.5-1-3zm-9 7-1 3 2 1 3.5-2.5-37.5 31.5 1.5-4.5 1.5-3.5 7-6h2l2 1 3.5-2.5-2.5-1.5-1.5.5 3-1 .5-1.5q2 4 4 0l1.5-.5-2.5-1.5-1.5.5zm154 17q3-.9 1.5 3.5l.5 1.5-4.5-1.5zm-513 5 14 3h11L80 201.5l-4.5.5-31-6zm32 1h6l22 10 13.5 3.5-8.5.5q-20.8-3.2-35.5-12.5z"/><path fill="#367b7a" stroke="#367b7a" d="m189.5 188 7.5 1.5-68.5 19.5-33 2-23.5-4.5 7.5-.5 27 1 26-3q26.3-10.2 57-16Zm169 5-3 4zm-3 5 2.5.5-7 5.5-3.5 7-1.5-.5 1 5h-1l-.5-3.5-1 2-.5-4.5 5.5-7.5 1.5-1.5z"/><path fill="#367b7a" stroke="#367b7a" d="m42.5 199 14.5 7 .5 2 1.5-.5.5 1.5h2q24.4 7.3 56.5 6l1.5 2 4.5 3.5-16.5.5q-26.9-.1-44.5-9.5l.5-1.5-2 1q-12.5-4-19-12Z"/><path fill="#367b7a" stroke="#367b7a" d="m61.5 203 9.5 2.5-3.5.5zm567 61 6.5 2.5-7 .5zm-516 1-.5 1.5q-3.1 10.4-11.5 15.5l-34 18-43 14v-1q30.7-8.8 56-23zm-30 33 2.5 1.5 3.5 9.5 10.5 4-10.5 12L61 344.5l-1 3.5q-3.8 4.1-13.5 3l-6-4-13-2-2.5-2.5.5-1.5-2.5-1.5-6-9.5-11-5.5h2l1.5-1.5zm-1.5 5q-26 15-55 25v1q31-6 53-22l3-2zm9 11q-21 17-48 28v1q28-7 47-24l2-3zm549.5-12q19.3-.1 31.5 6l.5 2 2.5.5.5 1.5 1.5-.5 2 2v5l-3.5 5.5-3.5 2 4-7.5-2.5-.5q-15.5 8.5-36 12-4.4-7.1-2.5-20.5l3.5-6.5zm1.5 1v2l-4 2 4 2 19 2q8 2 8-1l-11-5zm-159.5 6 3.5.5-4 9.5q-15.3-1-26 3l.5-3q1.8 2.8 3.5-1.5l1.5-2.5 2-1 1.5.5q-.9-3 3.5-1.5l2-1 2.5 1q-1.4-4 5.5-2zm-375 4 1.5 1.5L95.5 325l1.5-2.5 6-8.5zm-95 3 2 1 3-1v1l-4 1zm464 8q6.3-2.2 4.5 3.5l-1 12 4 20.5-26.5 1q-5.8-10.7-4.5-28.5l1-4.5zm-383 3-2 3-5 4-.5-2zm408 1 5.5 2-1.5 5q-6.1 1.3-5.5-1.5zm166 0 1 2-9 6-14 5-2.5-1q-1.3-3.3 3.5-2zm-583 5 .5 1.5-12.5 7.5 1-2zm418 10 6.5 1.5-1.5 4.5-3 2-3.5-6.5zm1 20q3-.9 1.5 3.5l-2.5 3.5v-2l-2-1-1.5.5zm-34 16 20 1 1.5 1.5-2.5.5-13 1zm27 0-.5 1.5q.8 3.4-4 1.5-1.3-3.3 3.5-2z"/><path fill="#6a746b" stroke="#6a746b" d="m477.5 4 8.5.5-8.5.5zm51 14 7.5.5-7.5.5zm4 5 7.5.5-7.5.5zm42 10 5 6zm-89 2q2 2.5-2 5-2-2.5 2-5Zm117 35 .5 7.5h-1l-1-2zm-180 20h13l.5 2q-16.5-.7-25.5 7-1.8-2.7-3.5 1.5l-1.5 2.5-3.5 2.5q-7.4 7.1-7 22 .2 9.3 5 14l-.5 1.5 1.5 1.5q4 1.4 3 6.5l18.5 13 8.5 3 .5 2 2.5-1 2 3.5-2.5 1.5v-2h-4L412 160.5l1.5.5 1.5-.5-4-2.5-.5 2-8-10-1.5.5.5-1.5-2.5-1.5q-8.1-9.9-7-29 2.8-11.2 10.5-17.5l2.5-1.5 1.5-2.5 1.5.5 1.5-1.5 9-5 2 1zm40 9q-3.2 2 0 4l1.5-.5-1 2 1.5 2.5-3-1-1.5.5v-2zm35 11 .5 9.5h-1zm-41 1 2.5 1.5 2 6-2 1-2-4 1-2zm-1.5 39 10.5 2h2l6.5 3 5 17.5-1.5-.5h-11l-.5-3.5zm102 6 7 1.5-7 .5z"/><path fill="#6a746b" stroke="#6a746b" d="m441.5 171 8 3 21 3h2l15-1 4 1 3-1 3.5.5-3 1 7 .5q-1.8-5.3 5.5-3l4-1 3 1 12-2-1 2-1.5.5.5 1.5-5-1h-2l-5 2-30 2-14-1-2 1-27.5-5-1.5-2-1.5.5zm121 11 6.5 1-1.5 2-3-1zm-31.5 1q8.2-1.2 10 5.5l-2 17 1 3-1.5 2.5-7.5-1 1-4.5v-2zm-64.5 1 3 1 3-1h6.5v8.5l-3 7 .5 1.5-3-1h-2l-6.5-3.5v-2zm-33 5v2l3.5 1.5-2 7 .5 1.5-2-1v2l-3-1-2.5 1-.5-2-2.5-.5 2.5-1.5 2.5-.5-5-2-1-2h2l1-2-.5-1.5 2.5 1 .5 2 .5-3zm32 18h2l3.5 1-3.5 7-4.5-1zm69 11q3.8-1.2 2.5 2.5l-1 3.5-5-1.5 1.5-3.5zm-79 1 10.5 4-6 10-2 1.5-8.5 7.5-.5-2.5zm70 13 4.5 1.5-16.5 20.5-2.5.5-.5 1.5-.5-1.5 4-3-1-1 4-4 6-13.5zm-152 2 2.5 1.5-11.5 4.5-1-2zm-20.5 9 5 1.5-4.5 2.5-1.5-.5q.9 3-3.5 1.5l-4.5-3.5 2-.5 1.5 2 3.5 1 .5-3 1.5.5zm16.5 0-1 2-5 2-3 2 2-3zm14 16 3.5 1.5q-2.5 3.7-3.5-1.5Zm156 4q9.4.1 13.5 5.5l-3.5 1.5-4 1-3-1-3.5-2.5 4-1.5q1.3-3.3-3.5-2l-1.5.5zm-152 10 10.5 8.5 3 4-12.5 7.5-11.5-13.5 10-4-2-1zm-19 4-1 4-1.5-2.5zm236 11 3 4zm-23 4 7.5.5-7.5.5zm-175 2 1 2 1.5-.5-.5 1.5 2-1 1 5 4-2v3l-2.5.5-2.5 1.5-3.5.5-.5-1.5-1.5.5.5-1.5-2-1h-2l-1.5-1.5zm35 8 2 1 4.5-1-1 4-3.5 1-2.5-1 1-2.5zm-13 1q5.9-1.7 4.5 2l-9.5 5-1.5-.5-2 1.5 1.5-2zm170 30 2.5 1.5 1 7h-1l-.5-1.5-.5 2.5 3 1 6.5 9.5 7.5 1.5-4.5 5.5q-9.6 1.1-11.5-5.5l-5.5-13.5-.5 4.5 2 8.5-3 1.5-1.5-.5-2 1-6-13q-3-.9-1.5 3.5.9 10.6 7 16l-6.5 1.5-4.5-6.5 3-2-1 2.5 4.5 2 .5-1.5-1-2.5-3.5-2-5.5-2-2.5-8-1.5 2.5q1.5 11.7 7 18.5l-3.5-1-1 1-4.5-4.5-3-8 1-8-3-1.5.5-5 3-1q5-1 4 2h7l1.5-.5-3-2 2.5-.5 4 2 .5-1.5-.5-1.5 5 3 3.5-2.5-3-1zm-194 13 7.5.5q-9.6-.1-13.5 5.5l1.5-2.5.5-1.5 1.5.5 1.5-1.5zm9 1q5.8-.7 6.5 3.5l1 10-2.5 4.5.5-1.5 1-8-3-6.5zm-16 7 2.5 11.5-2-1-2-7z"/><path fill="#6a746b" stroke="#6a746b" d="m600.5 359 2 3-4.5-.5zm-199 8q2.6 3.4 10 2l4-2-1 2-8 2z"/><path fill="#738c8c" stroke="#738c8c" d="m473 5 17 .5-.5 1.5 3 1 3 1 1.5 1.5q4.8 2.2 5 9l-2-1-4.5-6.5-15-5 .5 1.5-.5 2.5-7-4-5 1V7q5.9 1.7 4.5-2Zm9.5 4 1 4zM520 19q24.7-2.3 40 5l.5 2 1.5-.5.5 2.5 1-2L577 36.5l-2.5 1.5-13-9h-2l-1.5-1.5-1.5.5q-11.3-5.2-27-6l-2 1-7-1v2q-9.7-1.2-14 3l-4.5-2.5 14.5-4.5 3.5 1zm-26.5 10 3.5 1.5-11.5 6.5 4-5zm84 10 3 2 1.5-.5-.5 1.5 3-1 9.5 7.5v2l1 2h-3l-.5-2.5-11-7zm19 13 1.5 2.5h-2l3 1.5v2.5l3 10-2 1-5-15zm10 19 .5 6.5h-1zm-152 12 2.5 1.5h2l-1 2.5-5-2.5zm-5 3 4 5 1.5-.5-.5 2.5-7.5 4-3.5 5-5.5-3.5.5-1.5 7 1q4.4-1.6 3.5-8.5l-1-2zm5 12 1.5 2.5-5 2.5 1.5-4zm8 2 2.5 5.5-2-1-2-3zm-33.5 8 3 1.5h-2l1.5 4.5 4-3 5 1 1.5-.5v15l-3.5.5h-2l-4.5 1.5.5 1.5-2-1v2l-1.5-.5-1.5 1.5-8.5 3.5 1.5 2.5-2.5.5-3.5 4.5-3 1-1.5-.5 1-2.5q-3 1.3-2-2.5l15-13q6.1-6 5-17.5Zm-63.5 4-3 4zm2 4-4 5q-3 .9-1.5-3.5h1l.5 2.5zm71 16 2.5.5-4.5 2.5-.5-2zm18 0 15.5 2.5-5.5 1.5-6-2-2 1zm-28 5v2l1.5.5-3.5 2.5-2-1-1.5.5zm-8 7q2 2.5-2 5l-2 1-3 1-1.5-.5zm-19 5 3.5 4.5-3-2zm40 4 6.5 1.5-2 1 3 1-2 1 5 3-1 2 1.5.5 1.5-.5 1.5 1.5 2.5.5 1.5 1.5 1.5 4-3.5 1-9-3-1.5.5.5-1.5-4.5 1q-1.3-3.3 3.5-2v-1l-1.5-.5q2.3-4.7 4.5-.5l1.5-.5-1-2 .5-1.5q-5.6 3.4-15.5 2.5l1 2.5-2-1.5-2.5-.5-3.5-1-.5-2-1.5.5 3-1 .5-1.5 1.5.5.5-1.5h2l1.5-1.5 1.5.5 8.5-.5zm-62 7 3 4zm19 1 1 2 1.5-.5-3 1.5-1.5 2q-2 5-4 2l-1.5-.5zm-22 2 3 4 3-2-.5 1.5-4.5 6.5h-2l-2.5 1.5-.5 2.5-4-2-2.5-.5 1-2-4 2zm185 0 2.5 1.5-1 2.5 3 .5-2.5.5-1.5-.5q-6.4 3.6-6 14l6.5 7.5 3 1 2-2 6.5-3 1.5-2-.5-1.5.5-2.5.5 3 2 2-2 1.5-3.5 4.5h-2l-2.5.5.5 1.5-2-1-3 1h-2l-2.5-1.5q-3 2-6-4l-2-10 4-7q-3.3-2.2 2.5-4.5l1.5.5 1.5-1.5zm-11 1 2.5.5-4.5 6.5-1.5-4.5zm18 1 7 3 1.5-.5-.5 1.5 1.5 2.5 1 2.5-12-6.5zm-134 4 6.5 2.5-4 1 2 1-1.5.5-2.5-1.5zm148 0 2.5 1.5-.5 1.5 1.5 1.5-1 2 1 4.5q-3 1.3-2-2.5l-1-2q2.8-2.5-1-5zm-165 1 8.5 3.5-.5 1.5 2-1-.5 1.5.5 1.5 2.5-1.5.5 1.5 2.5-1 1.5 3 3-1 22 6 2-1-1 2-3.5.5 3 1-1.5 2.5 1.5.5-1.5.5-3-1-2 1-5.5-2-.5-2-2.5 1-1.5-2-2.5 1-1.5-2h-2l-6.5-1.5q5.3-2.2 1.5-4.5l-1.5.5.5 1.5-1.5-.5-1.5 2.5-4.5-1q1.3-3-2.5-2l-3 1q-3.5-2 1-4l2 1-1-2-3 1-1.5-3.5 2-1z"/><path fill="#738c8c" stroke="#738c8c" d="m564.5 171 6.5 1 2 4.5-1 3-2.5 4.5-7-2 1 2 1.5.5-1.5.5q-3.9-2.1-3.5-8.5l2.5-4.5zm-270 1-3 4zm236 1 .5 4q6.3-2 5 2l-3.5-1-2.5 1zm14 0 .5 1.5-2 5.5q-5.2 2.1-4-2.5l1-2.5q4.8 1.7 4.5-2Zm-184 3v2l2-1 2.5 4.5-3.5 4.5-1.5-.5-2.5 1.5-2 4-.5-2.5-.5-3.5-1 2-3-2-2.5 1.5zm19 1 2 1 1.5-.5-9.5 7.5-2-1-1.5.5 5.5-4.5v2l2.5-1.5-1-2.5zm28 1 .5 2.5-2 9.5-4 1-1.5-3-1.5-.5zm6 1 2.5 1 1 2.5-4.5 13.5-2.5-5.5zm55 0 13.5.5-13.5.5zm-123 9-3 4zm50 3-3 4zm-55 1 1 3 3 3 4.5-1.5-7.5 8.5-1.5.5 1 2h-1q.8-3.7-5-1.5l1.5 3-.5 1.5 1.5 2.5 1.5 1.5 1.5 2.5-9 3-.5-2-3.5-1v2l-1.5-3-4-1.5-2.5-3.5-2.5-.5h2l4.5-5.5 1.5.5-.5 1.5 2.5-1.5-1-2 9-5.5 1.5-3zm20 0 1.5 2.5-7.5 6.5v-2l-1.5-.5zm185 0 3.5 1 1 4.5-1.5 3.5-3.5-2.5 1-5zm-94 1-.5 1.5 1 3.5 3.5 1 1.5-.5 2 3-4 2-5 10 1 3h-1l-.5-2.5-3.5-.5 1 4-1.5-.5q-3.7-1-2.5 2l2 .5-3 2 2 1-.5 1.5 2-1 .5 2-3 .5 3 2 1 4-1 3-1.5 5.5-2-3-2.5 1.5 2 .5-.5 3-3-2 .5 1.5 3 5 .5 1.5-3 3-14-3v1l3.5.5-7 3 1.5 1.5h9.5l-1.5 2-1.5-.5-1.5 1.5-4 3-2-1-1.5 2.5 4.5 2.5 7.5-1.5-1-2.5-2-.5 7.5-1.5v1l-2.5.5 6.5.5 4-2v1l-2.5.5 4.5.5 2-1v1l-1.5 1.5 4.5 2.5 1.5.5-1 2.5 3.5 1 5-1h2l2-1 2.5 1 .5 2h2l4.5 1 1.5 3 3-1 1 3 1.5 2.5-.5 1.5 5.5-.5-1-3h1l1.5 2.5 1-2 1 2h2l6.5 1 1.5 2v1l-1.5.5v2l-1 4.5q-3-1.2-2 2.5l1 2h-1l-1.5-3.5-.5 2.5 1 3q1.3 6.3-2.5 7.5l-6 1-10-3-4 1-4.5-2.5 3-1-4.5-1.5h-2l-4-1-1.5.5-1.5-2.5-3 2q-3-3-6 2l-1.5-.5.5-1.5-3 1-6-3h-4l-1.5-.5 9-2-2.5-1.5h-2l-6.5.5 1 2.5-3.5-2-1.5.5 2-3-1.5.5-7-2v2l-12.5-7.5 3.5-1.5 1.5-.5-2.5-4.5-3.5-1.5 1.5-.5 2.5 1-.5-3-1.5.5.5-1.5-4.5 1-1.5 3-1.5-10.5 1-6h-1l-.5 1.5-.5-11.5h1l.5 2.5.5-9.5-1-7 1.5-8.5 2.5 8.5-.5 1.5q3.4.9 1.5-4.5v-2q-1.5-4.4 1.5-3.5h2l1.5-.5-3-1 1-3-4-3-1-5 2.5-11.5.5 2 4.5 2 2-1 4.5 1.5-2 1 2 1-4 1 5 .5.5 2 2.5.5.5 1.5 2-1 1.5.5.5-1.5 2.5 1 1.5-3 1.5.5-2 1 4 2-.5 1.5 4 2 5-3 2.5-.5v-2zM405 246v2l-1 2 2 2v-1l1-3zm5 2-2 2 3 1 1 2 1-2v3l2-1-2-4-2 1zm0 5-3 1 1 3 3-2zm13 9-2 1-1 2 4-1zm-9 7v2l-1-1-1 2 3 1 1-3zm-137.5-75 .5 7.5h-1zm122.5 0q3.3-1.1 2 3l-3 1.5 3 1 .5 3.5 1.5-.5-2 3 1 3-2 4 1 2-3 2 2-3-2.5-.5-8.5-3 2 3.5v2l2 4-1 2.5-4.5 3-1.5-.5-1.5 2.5v-2l-5.5-3.5-2-6-1-3 .5-1.5 4 2 4-1 1 2 .5-2 2-2-2-.5 2-1-4-5 2-.5 4.5-6 5-1 3.5 1zm148.5 14 3.5 1-1.5 2 .5 1.5 2 5v2l.5 5.5 2-7 .5 2.5 1 3 2 8 1 3-1.5 1.5-.5 2.5 1 4-6 3 2 1 .5 2.5 1.5-.5.5-2.5 1.5.5-1 2.5 3-1.5 1.5.5 1.5.5-2 4.5-6.5 2h-4l-12 1h-2l-1.5.5 9 2-4.5.5-2-1v2l-2-1-3.5 2.5-.5 1.5-1.5-2.5.5-1.5-1.5-2.5-2-3 3-1 .5-1.5 1.5.5 2-3-4-.5q1.3-3-2.5-2l-1.5.5 4-3 1-3 1.5-1.5 1-3 2.5-.5 1.5-3.5 3.5 1q2.3-5.8-1.5-5l-.5-2.5 3.5-13.5.5 2 5-1 .5 2 .5-3-3-1.5zm3.5 33-1 1-2 2 3 1 5-3-3-1zm-205.5-32 1.5 2.5-1.5 4.5-.5-3.5 1-2zm23 2 3.5 1 4 11.5-1 2.5 2 .5-1 2.5q3.3-1.3 2 3.5h-1l-.5-1.5h-2l-12 5-1.5-.5-.5 1.5-2-1v2l-1.5-.5-.5 1.5-.5-2-2 1.5.5 1.5-1.5-.5-.5 1.5-2-1v2l-2-1v2l-2-1v2l-2.5-.5-3-9 1.5-2.5.5 2 2-.5-1-2.5-2-.5 2-2q-3.7-1.7-.5-3.5l22-11 1.5 2.5-.5 1.5 1.5 1.5-1 2h2l-1 4h2l-1 2 2.5 1.5 1.5-2.5zm-8.5 7 1 2q5 2 4-2l-2 1zm-5 3-3 1-3 6q-1 3 2 2l-1 3h4v2h4l2-2q4-1 2-8-1-5-7-4Z"/><path fill="#738c8c" stroke="#738c8c" d="m356.5 224 2.5 1.5-1.5 4.5-2 1-2.5-3.5 1-2.5zm-22 4 1.5.5-3 2 2.5 1.5 1.5-.5-1 3 3 6-.5 1.5 1.5.5-1 2 1.5 3.5 3.5 2.5-5.5 3.5-2-1v2l-4.5.5.5 1.5-2-1v2l-7 4-2-1-2 1-4-1-1 2q3.8-1 2.5 2l-2 .5.5 1.5-2-1v2l-3.5.5.5 1.5-1.5-.5-1.5 1.5-3.5 1.5-1.5 2.5-3-1-1.5.5q.8-3.4-4-1.5-1.2 3 2.5 2l2.5 1.5-4 1 .5 1.5-3-1v1l1.5.5-3 .5-1.5 2-2.5.5-1.5 2.5-2 1h-2l-1.5.5.5 1.5-2-1v2l-1.5-.5-1.5 2.5.5-1.5-.5-1.5-2 4q-2-5-4-2l-1.5 1.5 1.5-.5 2.5 1.5-3 1-1.5 1.5-3.5 1-.5 2-1.5-.5-.5 1.5-1.5-.5-1.5 1.5-3.5 1.5-1.5 1.5-1.5.5.5-1.5-8-1-2.5 1.5 1-2-.5-1.5 1.5.5-1.5-1.5-4.5-1-1-5.5 2.5-.5 14-7 1.5.5 2.5-3.5 23-15-2 4 6.5-2.5-3-.5 1.5-2 18-11 2.5-.5-1-1 5-5 2.5-3.5 2.5-1.5.5-1.5.5 2 2-1.5 1.5-3.5 2.5-.5-.5-1.5zm-8.5 19q-3 2 0 3h3zm36.5-8 3.5 1.5-10 3.5 1.5-2zm19 5 5.5 8.5-.5 1.5 1.5.5-1 2h2l-.5 1.5 1.5.5-.5 1.5 1.5 1.5 1 2-1 2.5-19.5 12-1.5-.5-1.5 1.5 2-3 17.5-10-1.5-3-7 5v-2l-1.5-.5-1-3-2-3 .5-1.5q-1.6-3.9-8-3-5.5 1-4.5 8.5l1 3 1.5 1.5 2 1 3-1v1l-1.5.5 2 .5-1.5 3-10 6-2.5-8-2-1.5-3-5 1-3 1.5-1.5 8-5 1.5.5 2.5-3.5 7-3v2l5-1v2l1.5 1.5 5.5 8.5.5-2.5-8-14zm182 11 9.5 1.5-.5 1.5 3-1 2 3 .5-2 2 .5.5 2.5 5-1v2l2-1-.5 1.5.5 3.5 1.5-.5-1.5 2.5 1.5 1.5-3 7 1 3-1 2q3.8 1.8.5 3.5l-2 2h-5l-12 1-6.5-1.5.5-1.5-4 1-4-5 4 4 1-1 5-2-1-2q-5.5 1-6.5-2.5 1.7-4.2 3.5-1.5l1.5-1.5-6-10 .5-2.5 2.5 1.5-1-6h2q-.9-3 3.5-1.5zm-18 2 6 2q1.8-2.7 3.5 1.5-1.7 4.3-3.5 1.5l-3.5-1.5.5-1.5-2 1z"/><path fill="#738c8c" stroke="#738c8c" d="m369.5 258 2.5 1 1 3.5-6 2.5-1-4.5zm89 5v2l2-1-1 2q-4.8 1.3-3.5-2zm-287 10 11 1 2.5 2.5-1.5 1.5h-2l-6.5.5 27.5.5 3-2 4.5 1 .5 2 1.5-.5 1.5 1.5 4.5.5.5 1.5h2l1.5 2.5h1l.5-1.5.5 1.5-1 2 3.5 4.5 5-4-.5 5.5-1 5h4l1.5 1.5 2 1v-2l.5 2.5.5 1.5 2.5-1 1.5 4 2-1v3l-4.5-1.5.5-1.5-6 2-2.5-1.5 2-1-2.5-1.5-.5 4 2 1.5-1.5-.5-3.5-.5 2-3h-5l1.5 1.5v1l-4 1-15.5-7 2-4-2-1.5h-2l-1.5-3.5-1 3-3-1-3 2-16.5-6.5.5-1.5-3 1 2-3 1.5-.5-7-1.5-1.5-3 .5 1.5-3 1.5-.5-2-.5 2-4.5 1-6.5-2-1-2.5 3-.5 1-2.5-2-1 7-.5q-1.3-3.7 4.5-2z"/><path fill="#738c8c" stroke="#738c8c" d="m187.5 275 7.5.5-.5 1.5 1.5.5-1.5.5-3-1-3-1-2 1zm177 4q3.8-1 2.5 2l-6-.5zm217 9 7.5.5-7.5.5zm-7 4 6.5.5-6.5.5zm-167 3 9.5 5.5-3.5 2.5v-2l-2.5-.5q2.8-1.8-1.5-3.5zm35 7 1.5.5-3 2 1.5 1.5h2l1.5.5-20.5 12.5-4.5-3.5zm199 2 8.5.5-8.5.5zm-185 13 2.5.5-3 2zm28 13 .5 8.5h-1zm148 0 3.5 6.5-.5 1.5 1.5.5-19.5 6.5h-2l-6.5 1-3-10 14.5-2 1.5.5 2.5-1.5zm-4.5 4-2 3 3 1 1-2zm-88.5-2 3 1 3-1 3.5 6.5-4.5 5.5-2.5-.5 1-7zm-121 8 3.5 2.5-1.5 2.5-3.5-2.5z"/><path fill="#738c8c" stroke="#738c8c" d="m551.5 340 .5 2q6.2-2.5 5 2.5l3.5 9.5 1.5-.5q.3 3.5-8.5 1.5l-3 1-3-1-8 2-2-2-12-1-1.5.5q3-2-2-4l-1-2 1-2-.5-1.5q6 5 18.5 3.5l-8 1 7.5 1.5 6.5-2.5-.5-1.5 1.5.5.5-1.5 1.5.5zm-35 6 5.5 10.5-2.5-1.5-4.5-1-2-7zm-11 7q2.1 3-3 6l-1.5-1.5zm19 12 .5 2.5-.5 1.5-1-2 1.5-.5zm-4 6-3 4z"/><path fill="#8ba4a3" stroke="#8ba4a3" d="m481.5 9 4.5 3.5-.5 1.5-4.5-3zm39 13 6.5.5-6.5.5zm-19 3 4.5 1.5-11.5 3.5v-1zm76 12 6.5 4.5-2.5.5-5.5-3.5zm15 11 5.5 7.5-2 .5-.5-2-2.5-.5-2-3 3 1zm-36 17-.5 1.5-2 4.5-3 1.5.5 1.5-2 1-.5-2.5zm31 4 2.5 4.5-2-1zm-133 12 3.5 2.5 1 4.5-5-2.5 2.5 1.5 1.5-1.5-1-2.5-3.5 1-1-2zm69 4 1.5.5-7.5 2.5v-1zm-68 11 2.5 1.5-1.5 2.5-.5-2-5 2.5-.5 1.5-.5-1.5zm-22 5 5 3 1.5.5-1 2.5 2 .5-4.5.5-5.5-4.5zm-62 6q3.4-.9 1.5 4.5l1 3-.5 2.5-2-4-8 7-1.5-3.5 6-5zm59 2 4.5 2.5-3.5 2.5zm11 3 2.5 4.5-1.5 10.5zm150 2 .5 6.5h-1zm-167 9-.5 1.5-8 9 2 1-1.5.5-2.5-.5zm10 4 2.5.5-7.5 3.5 1-2zm-76 2 2.5.5-1 2.5-2.5-1-2 1v-1zm65 5-2 3-3 2 1-4zm-78 5v2l2-1-4 5-6.5 3 3.5-5zm63 0 .5 2 2 1.5-.5 1.5 3-2-4 5-2.5-1.5-1-3 .5-2.5 1.5.5zm75 5 .5 2.5-1.5 2.5-3.5 2zm-120 4 2 1 3.5-1 .5 2 1.5-.5.5 2.5 3.5 2.5-2.5-1.5-3.5 1.5.5 1.5zm94 0 4 1 2-1v1l-1.5.5 3.5.5 3.5-.5 1.5 2.5 1.5 1.5.5 1.5q-3-5.5-12.5-4.5l.5-1.5zm40 1 9 10zm110 0 .5 11.5h-1zm2 3 .5 6.5h-1zm-167 1q11.8-1.3 14.5 6.5l3 6-2 .5-.5-2h-2l-1.5-1.5-1.5.5-4 2-1-3-2 3 1.5.5-5.5 1.5-5.5-2-1-2.5q10.5 1 16-3l-4-2 2-1-3-1 2-1-5.5-.5v1l2.5.5-8.5.5v-1zm-120 5v2l1.5.5-7.5 5.5-1-2 6.5-3.5zm55 0 5 6 2.5 1.5-1.5 1.5-3.5 2.5 2-3.5-2.5 1-3-4-2.5 1 1.5-2zm188 4 2.5.5-2 1 7.5 2.5 2.5.5 1 2-1.5-.5-7-3-.5 2-5.5 1 .5-1.5 1-2-2-1zm-52 2 5.5 3.5q1.4 5.4-6.5 2.5v-1l5.5-.5zm-15 1q1.6 5.4 8.5 5.5l-3.5.5zm40.5 5 2.5 1 2.5.5-2.5.5-2 1zm-9 1 6 1.5q2.1 7.2-5 4.5zm-234.5 1 2.5 14.5-2-1-1-5.5-3.5 2-1.5-.5-2.5 3.5-1.5-.5q-7 3.9-7 13.5-3.5 1.1-2-6.5l3.5-6.5 5.5-3.5.5-2.5 1.5.5 3.5-3.5zm69 0 2.5.5 1.5 2.5 3 1 5-4-2 3-10 8 .5-1.5-.5-1.5-1.5.5 1-2-2.5-.5-1.5-.5zm211 0 3.5 2-1 8-2.5 1 .5-1.5zm-159 1 1 3 3-1 1 2-2-1-1 2 5.5 1.5-2.5.5-3-1-2 3-.5-2q-3 1.3-2-2.5zm17 4 3.5 1.5-7.5 3.5.5-1.5 1.5-2.5zm28 7 .5 4.5-3.5 12.5-2-3-2 1-2.5-1-1-3.5 1-3 .5-2.5 2 1 5.5-3.5-3-1zm-113 1h2l3 2 1-2 1 4 3-2-1 2-5.5 3-2.5 4-5 4v-2l-3-3-.5-2.5 1.5-2.5q1.8 2.8 3.5-1.5zm-51 3 1.5 2.5 1 2h-1zm101 0 3.5 1.5 1.5 1.5 1.5-.5-3.5 12.5-1-4-2.5-.5.5-1.5-5-1-2 1 4.5-5.5zm-79 2 3.5 4.5-2-1zm91 2 1.5 5.5-2 5.5q-3.7 1.3-2-4.5zm139 6 5.5 23.5h-2l-.5 3.5-1.5-6.5-1-3-.5-3.5-1 3-.5-2-5 1 2.5-15 3 2zm-1.5 10-2 2 2 2 2-1 1-2zm-220.5-7 1 3 1.5.5-1.5.5-1.5-.5-1.5 2.5-1.5-.5zm56 3 2.5 1.5 3.5 4.5 9 4 2-3 .5 1.5-5.5 6.5-3 2 .5-1.5-2-4v-2l-2-3h-1l-2 3h-1l-.5-1.5-4 1-4.5-2.5zm-43 1-.5 1.5-.5 8.5-.5-2-3-1.5 1-2-2-.5q-1.8-4.9 4.5-3zm122 0-.5 1.5-3 9.5 9.5 3 2.5-5 2 .5-4.5 6.5-11.5-5.5zm-141 1 .5 2.5-1.5 2.5 1 3-6.5-5.5 1.5.5zm96 0 20.5 5.5-.5 1.5 3-1 4.5 2q1.3 3-2.5 2l-6-2-3.5-1.5.5-1.5-3-1-.5 2-2.5-1-.5 1.5.5 1.5-3-2-1.5.5-1.5-2.5-1.5.5q.9-3.4-4.5-1.5v-1l3.5-.5z"/><path fill="#8ba4a3" stroke="#8ba4a3" d="M445.5 212q2.8 5.2 5.5 1.5l-4.5 15.5-2-3-1.5-.5 3-.5-.5-2-2 1v-2l-1.5-.5 3-2-2-.5q-1.1-3.3 3-2v-3.5zm85 1 5.5.5-6 1 .5 1.5q-3-1.5 0-3Zm-169 2 1.5.5-2 1 .5 2.5 3.5-1q1.4 3.7-4.5 2l-2-3 2 1zm44 1 2 3 2.5 1.5 2 4-2.5 1.5-2.5-1-1 4.5 1 5.5-2-.5 1-2-2-12zm-25 7 4.5 2.5-4 2.5zm-38 2 1.5 3.5-1.5 2.5 1.5 1.5.5 1.5-1.5-1.5h-1l-.5 1.5-1.5-6.5zm197 1v2q3.8-.8 1.5 5l-3.5-1-5 7 1.5-2.5zm-206 2 2.5 1-1.5 3-3.5-2.5zm15 4h2l7.5 2.5-4.5.5-3-2zm209 4 1.5 1.5 3 10h-2l-3 1.5 1-2.5-1.5-.5-1 3-1.5.5 3 1-2.5.5-1-5-3 2 2-3 4.5-1.5-2.5-1.5v2h-2l-3 2v-2l-2 1 .5-1.5-1.5-1.5-3.5.5 4.5-1.5 2 1 3-1 5 2 .5-1.5-1-3zm-240 1 3.5 1.5-1.5-.5-2.5.5.5 3.5-1.5-.5-1.5 1.5-3.5.5 3-1zm125 0 1.5 5.5-1.5 4.5-.5-3q-4.1 1.7-3-2.5l-.5-1.5 3 2 .5-3-2-.5zm-92 3 1.5.5-6.5 3.5 1-2zm52 0 .5 9.5h-1zm-98 5-3 4zm100 1 2.5 1.5-1 3-.5 1.5-1.5-2.5 1-2zm123 0 6 2v3l-1.5-.5-.5 1.5-1.5-.5-1.5 2.5-2.5-6.5zm-220 1-5 8-1.5-1.5zm18 0 2.5.5-.5 1.5 1.5.5-3.5.5q-3-1.5 0-3Zm50 0 1.5 1.5 2 3-1.5-.5-4.5-.5.5-2.5zm34 1 1 2 2-1 3.5 4.5-2.5.5-2-1-.5 2-3.5 2-.5-3 2-.5-2-.5zm16 0 4.5.5-5.5 1.5zm-285 2 5.5 3.5 2 4.5-3-1.5-1-3.5-3.5-2zm-17 2 .5 1.5-6 5zm241 1-.5 1.5.5 1.5 1.5-.5q-2 3.5-4-1zm59 0q9-2.5 11.5 1.5l-1.5.5-10-1zm127 0q2.8 3.9 5.5 1.5l-3 1.5-2.5 5-.5-1.5.5-1.5-5-1v2l-6-1-5.5 4.5-.5 2.5-1.5-3.5 7-4-4-1 2.5-1.5h2l11.5-.5zm-224 2 5 1 2-1v1l-3 1zm-24 1 1.5.5-2 .5.5 3 1.5-.5q-1.5 3-3 0zm4 1 4.5.5-2 1 2 1-1.5.5zm252 0-.5 1.5-1.5 6.5-3.5-2.5 2.5-4.5zm-134 1-2.5 3.5 1.5 1.5 8.5-3 1 2.5-7.5 1.5h-2l-4 1 1-2 1.5-.5-2-3 2.5-.5zm14 0 9 1 17.5 7.5-2.5 1.5-5-1h-2l-2.5-1.5.5-1.5-2-1q-1.8 2.7-3.5-1.5.9-3.4-4.5-1.5h-2l-6.5-.5zm141 1 12.5 3.5-3.5 5.5-1.5-.5v-2q1.5-4.4-1.5-3.5l-5-1zm-264 2 5 1 2-1-1 2-8 4v-1l3.5-1q1.3-3-2.5-2zm61 0 2.5 3.5-.5 1.5 1.5.5-8.5 5.5-.5-2-2-.5 7-5zm-91 1-2 3-1.5 2 3 .5-6.5 2.5 1-4 1.5.5 1.5-2.5zm-177 1-6 7zm255 2 4.5 3.5-1.5.5-2.5-1zm-255 2-4 5zm303 2 2.5 1.5 1.5-1.5-.5 1.5-1.5 2.5zm-3 1 2.5 1.5-1.5 2.5-2-1 1 2 3.5 1.5.5 3.5-3 2-3.5-2.5-2-6 1-2.5zM158 271l13 2.5-5 .5q1.1 3.5-6.5 2v1l3.5 1.5-1.5.5-1.5-.5-2.5 1.5v2l-5.5-1 4.5-8zm317.5 0 10.5 4 1 3.5-5.5.5.5-1.5-1.5-2.5zM294 273q4.8-1.9 4 1.5l1.5-.5 3-1-1 2-4 1-3.5-1zm265.5 0 1.5 3-4 2.5 8 4-1.5-.5-5 2v1l3.5.5-3.5.5-5.5-5.5 2.5-2.5 3.5-2.5zm-375 2 2.5.5-.5 1.5 3-1 3 2q1.3-3.3 7-2l4.5 1.5-1.5 1.5h-27v-1l7-1 2.5 1zm235 1 1.5 2.5h-1l-.5-1.5-2.5 1.5 1.5-1.5zm-160 3 2 3-5 2-1.5-.5-1.5 2.5-1-2 1.5.5 1.5-2.5h2l1.5-.5zm-87 2 1.5 3h2.5l7.5 2.5-2.5.5-2-1-1 2 2.5.5-2.5.5-11.5-4.5 2-.5.5-2 .5 2 3-1.5zm50 3 1 2h2l7.5 3-1.5 3-1-3-4 3zm365 0 1.5 3.5-9.5.5v-1h5l2-2zm-305 1-1 2-4 2 1-2zm-61 2-2 3-2.5-.5zm183 0 2 1 3 1 6.5 3 .5 2 1.5-.5.5 1.5 3 1 4.5 3.5-1.5 2.5-13 9h-3L390 299.5l2.5-4.5 5.5-2 1.5-3h2l1.5-.5-.5-1.5zm-.5 4v2l-5 3-4 5 15 8 10-7 1-2-2-2v-1l-1-1-3-1-5-3h-1zm16.5-4 4 1 1.5-.5-.5 1.5 3-1 .5 1.5-.5 1.5 1.5.5-1.5.5zm-178 1q3 1.5 0 3l-3.5-.5 2.5-.5 1.5-.5zm29.5 0 2.5 1 1.5-.5-1.5 2.5-3 1-2-1-1.5.5 1.5-1.5 2.5-.5zm224.5 1 .5 2.5-1.5 13.5-5.5-1.5 5-3-1-6v-2l.5-2.5 1 2zm-65 1 7 1h2l1.5.5-10 1.5zm-228 2 2 4 1.5-.5 2 3.5-2.5 1-9.5-4.5 3.5-2.5 2.5 1.5zm33 0 1.5 5 6 1-2 4.5 3.5-.5 7.5.5-15.5 7.5h-8l-6.5-2.5 4-1-2-.5.5-2 4.5.5-2 3 4.5 1.5.5-2q-3.3 1.3-2-3.5l1.5.5 1.5.5-2 1 2.5 1.5 6.5-2-1.5-3-1.5.5-1.5-1.5-2.5-1-.5-2-1.5.5zm-29 1 4.5 3.5-2 1zm422 0 7.5.5-7.5.5zm-172 1 2 3 2-1 4 2 2-1 3.5 1.5-3 1 .5 1.5-19.5-3.5q2.8-4.4 5.5-1.5zm-430 16-1 2-5 2 1-2zm458.5 3 3 .5-5 11 1 5h-1l-1-7zm68.5 6 .5 12.5h-1z"/><path fill="#8ba4a3" stroke="#8ba4a3" d="m482.5 326 4.5 29.5 7 12-.5 1.5q4.8 8.2 17 9l6-3 .5 3q-3.6 3.1-12.5 2l-10.5-7.5-4-6 .5-1.5-1.5-1.5q-8.9-14.1-6.5-37.5Zm14 13 3.5.5-6.5 1.5v-1zm41 1 1.5 1.5q-2 4.5-10.5 2.5v-1q7.9 1.8 7.5-1.5zm86 3 1.5.5-2 1 5 2-2.5.5-3-2-.5 1.5.5 1.5-4-1v2l-2.5-1.5.5-1.5-2.5-.5 3.5-.5 1.5.5q-.9-3 3.5-1.5zm-77 4-1 2-7 2-6.5-1.5z"/><path fill="#8ba4a3" stroke="#8ba4a3" d="m508.5 351 1.5.5-13.5 11.5 1-2 1.5-1.5zm15 1 2 2 12 1 1.5 1.5-11.5 1.5zm-7 2 5.5 3.5-1.5.5zm10 8-.5 1.5-1.5 3.5.5-1.5zm-3 6 .5 1.5-3.5 4.5-2 1 2.5-3.5z"/><path fill="#abc5c2" stroke="#abc5c2" d="m576.5 29 4 5zm-133 50q4.8-1.3 3.5 2l-2 1.5q-1.7 4.3-3.5 1.5l-2.5-1.5zm-12 5 1.5 2-6-.5zm-26 1 8.5.5-8.5.5zm34.5 3 5 2.5-1.5 1.5v2l-4.5-.5zm-39.5 8-4.5 5.5q-10.4 9.6-8 32l2 5-2-1q-7.6-9.9-11-24l3.5-4.5zm29 0 4.5 1.5 1 3.5-4.5 2-2.5-5.5zm-8 2q5.3-1.7 3.5 3.5l4 10q-4.1 16.4-16.5 24.5l-6.5 4-.5 2q-6.8-6.2-6.5-19.5l7-15.5 3.5-2zm176 9 6.5 24.5h-1l-5-15zm-154 10 .5 9.5h-1zm22 2 1.5 2.5-1.5 3.5zm-17 1 .5 6.5h-1zm-89 6 .5 3-3 1.5 3 1.5.5-2 11.5 21.5-3-2-2.5-1.5-2.5 1.5 4.5 5.5 4-2 5.5 6.5-4 2.5-1.5 4 .5-1.5v-3l-10-12 .5-1.5-2.5-1.5-6.5-8.5-10 7 2-4-2-1-7.5 6.5 2.5 1.5 3.5-2.5-18.5 15.5-2-1-3 5-8.5 6.5v4l4 7 14 18-12.5 8.5q-13.7-11.3-16.5-33.5l21.5-17.5 1.5.5 3.5-4.5 32.5-26.5zM319 162l-3 2 1 2 3-2zm285.5-29 4.5 15.5v14l-5.5 10.5.5-1.5q5.5-7.5 4-22zm-287 22-3 4zm249 8 7.5 2.5-1.5.5zm-197 4-4 5zm172 3 2.5 4-3.5 1-.5-3 2-.5zm-179 3-3 4zm-83 6-3 4zm8 0q-3.2 2 0 4l1.5-.5q-2.2 4.8-4.5.5l-3 2 3-4zm-259 4-1.5 2.5-.5 2.5-.5-2.5zm550 6-3 4zm-550 3 4 5zm6 6 4 5zm428.5 3 7 2.5-3.5.5-2-1-2.5 1.5zm8.5 3 4.5 1.5-1.5 3.5-2-4zm-265 4 .5 7.5h-1zm159 3q3 1.5 0 3l-25 13-.5-1.5zm165 3 8.5.5-9 .5-.5 2-.5-1.5zm-195 9 1.5.5-2.5 4.5q-22.3 8.7-35 27l-58 35v-1l63.5-43.5 7.5-9.5q9.2-8.8 23-13Zm191 2 .5 3 6 .5-7 .5zm-393 1 6.5.5-6.5.5zm48 12 6 7zm196 6 .5 1.5-25.5 15.5-.5-1.5zm-245 2 6.5.5-14.5 6.5-1.5-.5-5.5 6.5q-4-2.5 2-5zm494 5h5l9.5 5.5-3.5.5q-8.2-1.6-11-6Zm-512 1-4 5zm-1 8 .5 2.5L83.5 287q-22.6 13.4-50 22v-1l42-19q21.3-12.2 38-29Zm305 34q3 1.5 0 3l-2.5-1.5 1.5.5 1.5-.5zm209 3 7.5.5-7.5.5zm-19 1 7.5.5-7.5.5zm30.5 0 11.5 1 2 2 2-1q13.9 2.1 21.5 10.5l-2.5-1.5-12-5-23.5-3.5zm-17.5 1h11l1.5 1.5q-6 7-4 22l1 8.5-26 4-2-6q-2.5-3.2-10.5-2l-24 3-7.5 5.5-.5 3.5-2.5-13.5q.3-11.7 5.5-18.5l4 1 17-4 38.5-3.5zm-5.5 19-29 5-9-1v2l-13 2 1 2 53-6 6-2v-2zm60.5-14 4 5z"/><path fill="#abc5c2" stroke="#abc5c2" d="M639 305q18.7-2.1 29 5.5l-5.5.5-23.5-3zm-163.5 2 8.5.5-24 6.5-3.5 5 .5-1.5 3.5-5.5zm13.5 1 2 1.5-2 3.5-2-1.5zm53.5 7 6 1 6.5-1-1 16.5 2 9.5q-6.8 2.3-4-6.5l-4.5-6.5h-8q-2.6 3.9-10 3l-1.5-4 2-1.5 1-2.5 9-3.5zm-431 2-5 6zm363 2q6.1-1.2 5.5 1.5l-1 2.5-25 4q-1.9-4.8 1.5-4zm10 5-.5 1.5-.5 5.5-.5-5.5zm30.5 2 8 2 2 6q3.3 3 11.5 2l2.5 2.5-1.5 1.5-1.5 3q-13.1 2-18-5.5-4-3.9-3-11.5Zm-4.5 4 2.5 7.5-1 2.5q4.1-1.7 3 2.5l1 4-1.5-.5q-4.2 1.3-2.5-3.5zm85 1 1.5 1.5-1.5 1.5-29 3 1-2zm-148 1 .5 11.5h-1zm-178 7 4 5zm366 1 5.5 2.5-22.5 5.5v-1q4.4 1.5 3.5-1.5zm-25 6 6.5.5-1 2.5q-5.5 1-5.5-3Zm-317 6 9.5.5-9.5.5z"/><path fill="#f3c69b" stroke="#f3c69b" d="M579.5 57q12.1 12.9 14.5 35.5l-1 3 1 3-3 15-2 26q-4.3 12.7-13.5 20.5l-11-7-8-1-11.5 4.5q.7 7.2-3.5 9.5l-14 1q-15.3-7.2-25.5-19.5L491.5 130l-10 1-9.5-7.5-3-10q.1-8.4 5.5-11.5l6-1 7.5 5.5q1 15.5 9.5 23.5 3.3.4 1.5-7.5l-1-13q1.4-12.1 7.5-19.5 27.1-2.9 43-17l1 2 1.5-.5-7 10.5h4.5l17.5-8zM531 88l-5 2q-5 2-1 4l10-2 14 2-1-4q-6-3-17-2Zm50 2-7 4 2 2 4-1 11 1 1-2q-3-5-11-4Zm-44 11-6 3h-6l3 4 4-1 1 8q1 3 8 2l3-5-1-7zm43 3-3 1-2 5 1 8 7 1 3-7 3-2 1-4zm-103 3-3 3q-2 4 2 3l1-3 4 1 5 10 2-1-3-9q-2-5-8-4Zm87 9q-1 8 4 12l-1 3-2 1q-3 2 0 3l4-1 2-3v-5l-4-8zm-24 24v3l12 6 16-1q4-2 1-4l-7 2-10-1z"/><path fill="#f3c69b" stroke="#f3c69b" d="m489 138 2 1.5q5.6 11.9 15.5 19.5l6.5 4 1.5 3 3.5 2.5-14.5 1.5q-12.6-9.4-15.5-28.5zm-54.5 51 3.5 4.5h-1zm-249 30 17.5 1-2.5 4-7.5 5.5-6.5 7.5-10.5-8.5 3.5-7.5zm430 40 6.5 3.5 3 13-1 2.5q-5.8 2.3-5-1.5l-3-8.5-3 1.5-1 3 1 5-5 2.5 2 5.5-2.5 4.5-2.5-1.5q-3.9-4.1-3-13l7.5-13.5zm24.5 9 4 1.5 1 4-2.5 3.5-8 2-5.5-2.5q-1.9-5.4 1.5-4.5l9.5-2.5zm-498.5 1h11l.5 1.5-5 6-4.5 16.5-10-2-2.5-2.5-1-8 7.5-10.5zm385 3 4.5 1.5-1 4.5 23 10.5-1 4.5-3.5 1-10-3-1.5 2.5 11 4.5-1.5 5-13.5-1 1.5 3 8.5 2-1.5 4h-13l-.5 2 8 2-1.5 3q-23.9.4-33.5-13.5-1.9-16.4 5.5-23.5h4zm99 10 13 1 3.5-1-1.5 5-10 1-7.5-4.5zm-3 7 7.5 3.5-8 .5-1-2.5z"/><path fill="#fcfefb" stroke="#fcfefb" d="m405.5 90 4.5.5-16.5 8.5-14.5 11.5-1.5 2.5-.5-7 14.5-11zm57 17 2.5 1-.5 8zm-104 15 .5 5.5-58.5 47.5-.5-2.5 3.5-5.5zm108 0 4.5 6.5-2.5.5-2.5-1zm-114 16 4.5 2.5 16 21v3L353 180l-1.5 2-23 18-13.5-17.5-4-7v-4zm-.5 5q-5 3-6 11 3 5 6-1l11 14 4-2zm-2 17-9 7 2 4 9-6zm-20 1-15 11 13 21 4 2 2-4 6-4q2-5 4-2l3-2-12-18z"/><path fill="#fcfefb" stroke="#fcfefb" d="M329.5 168q6 2.5 2 5l-6 5-2.5-4.5zm6 8 1.5 1.5 2 2-5.5 5.5-3 1-2.5-3.5zm83.5 7q17 1.6 30 8.5l-6 18.5-29-8zm10 5-2 1-4 5 1 6 6 3 7-2 1-8q-2-6-9-5Zm201.5 104 7.5.5-7.5.5zm-14 6 18.5.5-2.5.5-11.5.5 2 1-38.5 3.5-20.5 4 2.5-4q22.8-5.2 50-6Zm-65 14q6.3-1.9 4.5 3l-13.5 2 2-3zm-145 38 2.5 1.5 2 1 2.5-1.5 3.5 7.5-4.5 6.5-5 1-5.5-3.5-1-6 2.5-3.5 2.5 1.5-1-3zm6.5 5-9 3-1 2 3-1 3 2 2-1 1-2 4-1z"/></svg>